<svg width="630" height="401" viewBox="0 0 630 401" fill="none" xmlns="http://www.w3.org/2000/svg">
<path d="M311.904 400.143C483.657 400.143 622.891 396.428 622.891 391.846C622.891 387.264 483.657 383.549 311.904 383.549C140.151 383.549 0.916992 387.264 0.916992 391.846C0.916992 396.428 140.151 400.143 311.904 400.143Z" fill="#D3E7E0"/>
<path d="M57.2816 135.021C52.5746 135.396 48.6606 131.48 49.0356 126.774C49.3306 123.07 52.3316 120.07 56.0356 119.775C60.7416 119.4 64.6566 123.316 64.2816 128.022C63.9856 131.726 60.9846 134.726 57.2816 135.021ZM57.2836 121.322C53.4256 120.936 50.1966 124.166 50.5816 128.024C50.8666 130.88 53.1766 133.189 56.0326 133.475C59.8906 133.861 63.1196 130.631 62.7346 126.773C62.4496 123.917 60.1396 121.607 57.2836 121.322Z" fill="#4869F3"/>
<path d="M601.256 37.6696C596.55 38.0446 592.634 34.1306 593.009 29.4236C593.304 25.7196 596.304 22.7196 600.008 22.4236C604.714 22.0486 608.63 25.9626 608.255 30.6696C607.96 34.3736 604.96 37.3746 601.256 37.6696ZM601.258 23.9706C597.4 23.5846 594.171 26.8146 594.556 30.6726C594.842 33.5286 597.151 35.8376 600.007 36.1236C603.865 36.5096 607.094 33.2796 606.709 29.4216C606.423 26.5656 604.114 24.2566 601.258 23.9706Z" fill="#CA3754"/>
<path d="M29.1053 207.074C28.8593 207.074 28.6123 206.955 28.4603 206.716C28.2673 206.412 28.3423 206.008 28.5973 205.754L45.4933 188.858C45.7893 188.562 46.2683 188.562 46.5643 188.858L60.7233 203.017L78.5573 185.183C78.8073 184.933 79.2033 184.856 79.5053 185.041C79.9433 185.31 79.9933 185.89 79.6533 186.229L61.2583 204.624C60.9623 204.92 60.4833 204.92 60.1873 204.624L46.0283 190.465L29.6403 206.852C29.4923 207 29.2993 207.074 29.1053 207.074Z" fill="#CA3754"/>
<path d="M75.9004 185.693C75.9004 187.47 77.3404 188.91 79.1174 188.91C80.8944 188.91 82.3344 187.47 82.3344 185.693C82.3344 183.916 80.8944 182.476 79.1174 182.476C77.3414 182.476 75.9004 183.916 75.9004 185.693Z" fill="#CA3754"/>
<path d="M57.4199 203.306C57.4199 205.083 58.8599 206.523 60.6369 206.523C62.4139 206.523 63.8539 205.083 63.8539 203.306C63.8539 201.529 62.4139 200.089 60.6369 200.089C58.8599 200.089 57.4199 201.529 57.4199 203.306Z" fill="#CA3754"/>
<path d="M46.0285 192.611C47.8052 192.611 49.2455 191.17 49.2455 189.394C49.2455 187.617 47.8052 186.177 46.0285 186.177C44.2518 186.177 42.8115 187.617 42.8115 189.394C42.8115 191.17 44.2518 192.611 46.0285 192.611Z" fill="#CA3754"/>
<path d="M25.8887 206.79C25.8887 208.567 27.3287 210.007 29.1057 210.007C30.8827 210.007 32.3227 208.567 32.3227 206.79C32.3227 205.013 30.8827 203.573 29.1057 203.573C27.3287 203.573 25.8887 205.013 25.8887 206.79Z" fill="#CA3754"/>
<path d="M107.906 63.2246L109.546 55.5076L104.034 54.3356C103.893 53.1876 103.602 52.0866 103.179 51.0506L107.614 47.4596L102.649 41.3286L98.1074 45.0066C97.2004 44.4336 96.2194 43.9696 95.1794 43.6346V37.7656H87.2894V43.6346C86.0344 44.0386 84.8634 44.6306 83.8084 45.3766L79.0854 41.9456L74.4484 48.3286L79.0534 51.6746C78.6844 52.7316 78.4494 53.8506 78.3694 55.0116L72.9404 56.4666L74.9824 64.0876L80.2524 62.6756C80.8884 63.7046 81.6624 64.6386 82.5524 65.4496L80.3574 70.3806L87.5654 73.5896L89.7304 68.7256C90.2244 68.7836 90.7254 68.8166 91.2344 68.8166C91.9794 68.8166 92.7094 68.7496 93.4204 68.6276L95.8384 73.3726L102.868 69.7906L100.412 64.9706C101.254 64.1166 101.979 63.1476 102.559 62.0886L107.906 63.2246ZM83.7534 55.9156C83.7534 51.7906 87.1094 48.4346 91.2344 48.4346C95.3594 48.4346 98.7154 51.7906 98.7154 55.9156C98.7154 60.0406 95.3594 63.3966 91.2344 63.3966C87.1094 63.3966 83.7534 60.0406 83.7534 55.9156Z" fill="#D3E7E0"/>
<path d="M628.36 104.809L630 97.0916L624.488 95.9196C624.347 94.7716 624.056 93.6696 623.633 92.6346L628.068 89.0436L623.103 82.9126L618.561 86.5906C617.654 86.0176 616.673 85.5536 615.633 85.2186V79.3496H607.743V85.2186C606.488 85.6226 605.317 86.2146 604.262 86.9606L599.539 83.5296L594.902 89.9126L599.507 93.2586C599.138 94.3156 598.903 95.4346 598.823 96.5956L593.394 98.0506L595.436 105.672L600.706 104.26C601.342 105.289 602.117 106.223 603.006 107.034L600.811 111.965L608.019 115.174L610.184 110.311C610.678 110.368 611.179 110.401 611.688 110.401C612.433 110.401 613.163 110.334 613.874 110.212L616.292 114.957L623.322 111.375L620.866 106.555C621.708 105.702 622.433 104.732 623.013 103.673L628.36 104.809ZM604.207 97.4996C604.207 93.3746 607.563 90.0186 611.688 90.0186C615.813 90.0186 619.169 93.3746 619.169 97.4996C619.169 101.625 615.813 104.981 611.688 104.981C607.563 104.981 604.207 101.625 604.207 97.4996Z" fill="#D3E7E0"/>
<g opacity="0.6">
<path d="M505.106 24.9136V267.423C505.106 270.801 502.367 273.54 498.989 273.54H178.029C174.651 273.54 171.912 270.801 171.912 267.423V24.9136C171.912 21.5356 174.651 18.7966 178.029 18.7966H498.989C502.367 18.7966 505.106 21.5356 505.106 24.9136Z" fill="#D3E7E0"/>
</g>
<path d="M482.861 91.0977C482.861 91.0977 482.382 71.2127 477.437 71.9737C472.491 72.7347 474.907 79.2927 469.157 79.6727C463.407 80.0527 463.013 59.4997 456.966 58.7887C448.906 57.8407 451.752 76.8887 445.689 78.5357C439.627 80.1827 439.943 50.5857 431.01 50.5857C422.077 50.5857 420.801 91.0987 420.801 91.0987H482.861V91.0977Z" fill="#C9333E"/>
<path d="M418.023 91.9727H486.071C486.262 91.9727 486.418 91.8177 486.418 91.6257V91.4447C486.418 91.2537 486.263 91.0977 486.071 91.0977H418.022C417.831 91.0977 417.676 91.2527 417.676 91.4437V91.6247C417.677 91.8167 417.832 91.9727 418.023 91.9727Z" fill="#272327"/>
<path d="M181.935 38.9817H180.425V269.293H181.935V38.9817Z" fill="#ADD1C8"/>
<path d="M496.866 38.9817H495.356V269.293H496.866V38.9817Z" fill="#ADD1C8"/>
<path d="M505.106 24.9136V41.4156H171.911V24.9136C171.911 21.5356 174.65 18.7966 178.028 18.7966H498.988C502.367 18.7966 505.106 21.5356 505.106 24.9136Z" fill="#272327"/>
<path d="M244.785 10.2256H177.814C177.474 10.2256 177.165 10.4696 177.131 10.8076C177.092 11.1966 177.396 11.5236 177.777 11.5236H244.785C245.144 11.5236 245.434 11.2326 245.434 10.8746C245.434 10.5166 245.144 10.2256 244.785 10.2256Z" fill="#ADD1C8"/>
<path d="M507.602 273.54H167.592C166.662 273.54 165.908 272.786 165.908 271.856V270.977C165.908 270.047 166.662 269.293 167.592 269.293H507.602C508.532 269.293 509.286 270.047 509.286 270.977V271.856C509.286 272.786 508.532 273.54 507.602 273.54Z" fill="#272327"/>
<path d="M233.299 192.507H205.075V235.978H233.299V192.507Z" fill="#6AB886"/>
<path d="M280.939 166.764H252.715V235.977H280.939V166.764Z" fill="#454BC7"/>
<path d="M328.58 132.032H300.356V235.977H328.58V132.032Z" fill="#C9333E"/>
<path d="M376.22 107.428H347.996V235.978H376.22V107.428Z" fill="#6AB886"/>
<path d="M218.217 171.96C217.961 171.96 217.705 171.856 217.52 171.651C217.17 171.266 217.198 170.67 217.583 170.32L249.563 141.251C249.911 140.934 250.439 140.923 250.801 141.225L261.737 150.353L301.723 110.517C301.9 110.34 302.141 110.244 302.392 110.242C302.643 110.243 302.883 110.344 303.059 110.522L311.965 119.533L347.817 84.1476C347.995 83.9716 348.23 83.8646 348.486 83.8756C348.736 83.8776 348.975 83.9786 349.151 84.1576L358.829 93.9956L382.13 73.8926C382.524 73.5526 383.119 73.5966 383.459 73.9906C383.799 74.3846 383.755 74.9796 383.361 75.3196L359.392 95.9996C359.015 96.3246 358.452 96.3006 358.104 95.9476L348.468 86.1526L312.617 121.537C312.247 121.903 311.65 121.899 311.285 121.529L302.382 112.521L262.457 152.296C262.112 152.639 261.562 152.664 261.188 152.352L250.223 143.199L218.851 171.716C218.67 171.879 218.444 171.96 218.217 171.96Z" fill="#272327"/>
<path d="M254.079 141.948C254.079 144.092 252.341 145.83 250.197 145.83C248.053 145.83 246.315 144.092 246.315 141.948C246.315 139.804 248.053 138.066 250.197 138.066C252.341 138.066 254.079 139.804 254.079 141.948Z" fill="#272327"/>
<path d="M222.099 170.686C222.099 172.83 220.361 174.568 218.217 174.568C216.073 174.568 214.335 172.83 214.335 170.686C214.335 168.542 216.073 166.804 218.217 166.804C220.361 166.804 222.099 168.542 222.099 170.686Z" fill="#272327"/>
<path d="M305.793 111.311C305.793 113.455 304.055 115.193 301.911 115.193C299.767 115.193 298.029 113.455 298.029 111.311C298.029 109.167 299.767 107.429 301.911 107.429C304.055 107.429 305.793 109.167 305.793 111.311Z" fill="#272327"/>
<path d="M351.878 84.2707C351.878 86.4147 350.14 88.1527 347.996 88.1527C345.852 88.1527 344.114 86.4147 344.114 84.2707C344.114 82.1267 345.852 80.3887 347.996 80.3887C350.14 80.3887 351.878 82.1267 351.878 84.2707Z" fill="#272327"/>
<path d="M388.057 72.6667C388.057 74.8107 386.319 76.5487 384.175 76.5487C382.031 76.5487 380.293 74.8107 380.293 72.6667C380.293 70.5227 382.031 68.7847 384.175 68.7847C386.319 68.7847 388.057 70.5227 388.057 72.6667Z" fill="#272327"/>
<path d="M393.01 236.978H193.238C192.694 236.978 192.253 236.537 192.253 235.993V235.521C192.253 234.977 192.694 234.536 193.238 234.536H393.01C393.554 234.536 393.995 234.977 393.995 235.521V235.993C393.995 236.537 393.554 236.978 393.01 236.978Z" fill="#272327"/>
<path d="M422.769 150.432H406.832V166.369H422.769V150.432Z" fill="#454BC7"/>
<path d="M422.769 112.895H406.832V128.832H422.769V112.895Z" fill="#C9333E"/>
<path d="M422.769 187.969H406.832V203.906H422.769V187.969Z" fill="#6AB886"/>
<path d="M474.581 119.096H434.095C433.665 119.096 433.317 118.748 433.317 118.318V117.912C433.317 117.482 433.665 117.134 434.095 117.134H474.58C475.01 117.134 475.358 117.482 475.358 117.912V118.318C475.359 118.748 475.011 119.096 474.581 119.096Z" fill="#ADD1C8"/>
<path d="M474.581 124.592H434.095C433.665 124.592 433.317 124.244 433.317 123.814V123.408C433.317 122.979 433.665 122.63 434.095 122.63H474.58C475.01 122.63 475.358 122.978 475.358 123.408V123.814C475.359 124.244 475.011 124.592 474.581 124.592Z" fill="#ADD1C8"/>
<path d="M474.581 156.634H434.095C433.665 156.634 433.317 156.286 433.317 155.856V155.45C433.317 155.02 433.665 154.672 434.095 154.672H474.581C475.011 154.672 475.359 155.02 475.359 155.45V155.856C475.359 156.285 475.011 156.634 474.581 156.634Z" fill="#ADD1C8"/>
<path d="M474.581 162.129H434.095C433.665 162.129 433.317 161.781 433.317 161.351V160.945C433.317 160.515 433.665 160.167 434.095 160.167H474.581C475.011 160.167 475.359 160.515 475.359 160.945V161.351C475.359 161.781 475.011 162.129 474.581 162.129Z" fill="#ADD1C8"/>
<path d="M474.581 194.171H434.095C433.665 194.171 433.317 193.822 433.317 193.392V192.986C433.317 192.556 433.665 192.208 434.095 192.208H474.581C475.011 192.208 475.359 192.556 475.359 192.986V193.392C475.359 193.822 475.011 194.171 474.581 194.171Z" fill="#ADD1C8"/>
<path d="M474.581 199.668H434.095C433.665 199.668 433.317 199.32 433.317 198.89V198.484C433.317 198.054 433.665 197.706 434.095 197.706H474.58C475.01 197.706 475.358 198.054 475.358 198.484V198.89C475.359 199.319 475.011 199.668 474.581 199.668Z" fill="#ADD1C8"/>
<path d="M239.274 88.9166C238.873 94.8026 233.758 99.2646 227.872 98.8636C224.577 98.6396 221.729 96.9366 219.93 94.4496C218.171 96.2266 216.5 98.0726 215.202 100.191C218.225 103.566 222.51 105.816 227.377 106.148C237.275 106.822 245.876 99.3216 246.557 89.4256C244.209 88.3166 241.748 87.5206 239.223 86.9326C239.299 87.5806 239.32 88.2436 239.274 88.9166Z" fill="#454BC7"/>
<path d="M214.514 99.3816C215.861 97.2516 217.577 95.3906 219.368 93.5896C218.317 91.7986 217.773 89.6856 217.925 87.4616C218.326 81.5756 223.441 77.1136 229.326 77.5146C234.163 77.8446 238.036 81.3576 239.041 85.8656C241.638 86.4456 244.174 87.2286 246.595 88.3306C246.675 78.8916 239.361 70.8806 229.822 70.2316C219.92 69.5566 211.315 77.0646 210.641 86.9666C210.325 91.6216 211.816 95.9896 214.514 99.3816Z" fill="#C9333E"/>
<path d="M288.633 88.1897C288.633 88.8217 288.575 89.4397 288.469 90.0407C290.935 89.8667 293.401 89.7017 295.87 89.6297C295.908 89.1537 295.933 88.6747 295.933 88.1897C295.933 79.8467 290.226 72.8127 282.512 70.7817C281.883 73.1337 281.273 75.4907 280.728 77.8627C285.276 79.0957 288.633 83.2567 288.633 88.1897Z" fill="#6AB886"/>
<path d="M277.934 106.19C287.027 106.19 294.563 99.4097 295.762 90.6407C293.251 90.7187 290.744 90.8907 288.236 91.0667C286.976 95.5727 282.836 98.8887 277.933 98.8887C272.034 98.8887 267.234 94.0887 267.234 88.1897C267.234 82.2907 272.034 77.4907 277.933 77.4907C278.55 77.4907 279.155 77.5457 279.744 77.6467C280.29 75.2697 280.902 72.9087 281.532 70.5517C280.369 70.3147 279.165 70.1897 277.933 70.1897C268.008 70.1897 259.933 78.2647 259.933 88.1897C259.934 98.1147 268.009 106.19 277.934 106.19Z" fill="#C9333E"/>
<path d="M298.878 387.893C298.66 387.893 298.438 387.855 298.222 387.776C297.232 387.413 296.724 386.317 297.087 385.328L335.806 279.714C336.169 278.725 337.265 278.217 338.254 278.579C339.244 278.942 339.752 280.038 339.389 281.027L300.671 386.641C300.387 387.414 299.656 387.893 298.878 387.893Z" fill="#272327"/>
<path d="M361.976 387.893C361.198 387.893 360.468 387.414 360.184 386.641L321.466 281.027C321.103 280.038 321.611 278.942 322.601 278.579C323.591 278.218 324.686 278.724 325.049 279.714L363.767 385.328C364.13 386.317 363.622 387.413 362.632 387.776C362.416 387.855 362.194 387.893 361.976 387.893Z" fill="#272327"/>
<path d="M348.614 344.939H312.293V348.797H348.614V344.939Z" fill="#272327"/>
<path d="M301.176 273.541C301.176 278.703 305.361 282.888 310.523 282.888H349.374C354.536 282.888 358.721 278.703 358.721 273.541H301.176Z" fill="#272327"/>
<path d="M104.321 92.8765C104.321 92.8765 77.6598 133.661 77.2758 152.122C76.8908 170.583 102.128 173.037 102.128 173.037L104.321 92.8765Z" fill="#272327"/>
<path d="M78.7138 145.366C82.7418 150.301 83.8098 157.177 81.5448 163.117C81.3728 163.568 82.0978 163.764 82.2678 163.316C84.6328 157.112 83.4348 149.969 79.2438 144.835C78.9388 144.461 78.4108 144.995 78.7138 145.366Z" fill="#44584F"/>
<path d="M108.073 356.21L108.049 378.291L119.153 379.088L123.056 358.345C117.977 354.958 112.98 354.149 108.073 356.21Z" fill="#CE7E5D"/>
<path d="M108.436 375.986C107.343 378.9 107.272 390.823 107.272 390.823L130.808 390.849C132.206 386.537 130.042 383.594 127.297 383.203C126.117 383.037 124.73 381.825 123.718 380.767C123.711 380.63 122.272 374.007 121.382 373.69C121.382 373.69 120.769 373.001 120.247 373.689C119.725 374.377 119.272 376.615 119.272 376.615C115.599 372.054 111.998 372.663 108.436 375.986Z" fill="#272327"/>
<path d="M108.15 379.448C110.809 378.468 113.663 378.84 115.982 380.469C116.388 380.754 116.773 380.087 116.37 379.805C113.9 378.07 110.778 377.663 107.945 378.706C107.485 378.876 107.684 379.619 108.15 379.448Z" fill="white"/>
<path d="M130.737 389.106L107.547 389.081C107.335 389.081 107.163 388.908 107.163 388.696C107.163 388.484 107.336 388.312 107.548 388.312L130.738 388.337C130.95 388.337 131.122 388.509 131.122 388.722C131.122 388.934 130.95 389.106 130.737 389.106Z" fill="white"/>
<path d="M103.955 367.088L127.616 368.256C132.925 352.311 138.172 295.14 138.714 277.976C139.362 257.468 147.285 205.996 140.279 195.285C133.273 184.574 100.497 195.242 100.497 195.242C100.497 195.242 105.533 255.778 103.955 275.765C102.587 293.088 100.47 344.01 103.955 367.088Z" fill="#454BC7"/>
<path d="M130.17 362.499L128.632 369.798L102.991 369.029L102.051 362.021L130.17 362.499Z" fill="#1E227E"/>
<path d="M123.056 366.021C123.035 366.021 123.013 366.019 122.992 366.016C122.782 365.981 122.641 365.782 122.677 365.573C122.778 364.974 132.763 305.338 133.904 270.806C134.602 249.699 135.205 234.893 135.211 234.746C135.22 234.534 135.404 234.37 135.611 234.377C135.823 234.386 135.988 234.565 135.98 234.777C135.974 234.924 135.371 249.727 134.673 270.831C133.53 305.414 123.536 365.101 123.435 365.7C123.403 365.888 123.24 366.021 123.056 366.021Z" fill="#1E227E"/>
<path d="M116.117 199.778C115.807 203.367 114.012 207.708 109.876 208.062C108.249 208.201 106.608 207.573 105.62 206.25C104.478 204.72 104.382 202.677 104.322 200.844C104.307 200.374 105.036 200.376 105.052 200.845C105.1 202.315 105.14 203.926 105.853 205.253C106.649 206.736 108.216 207.493 109.877 207.332C113.577 206.975 115.112 202.962 115.388 199.777C115.428 199.313 116.158 199.31 116.117 199.778Z" fill="#1E227E"/>
<path d="M127.616 276.124C120.824 275.388 113.993 275.205 107.171 275.574C106.679 275.601 106.676 276.37 107.171 276.343C113.993 275.973 120.824 276.157 127.616 276.893C128.107 276.947 128.104 276.177 127.616 276.124Z" fill="#1E227E"/>
<path d="M155.975 353.331L155.948 378.252L166.632 379.066L171.888 355.739C167.598 352.551 162.617 350.99 155.975 353.331Z" fill="#CE7E5D"/>
<path d="M155.951 376.038C154.858 378.952 154.787 390.875 154.787 390.875L181.826 390.904C183.224 386.592 180.303 384.036 177.557 383.645C176.377 383.479 172.244 381.876 171.233 380.818C171.226 380.681 169.787 374.058 168.898 373.741C168.898 373.741 168.285 373.052 167.763 373.74C167.241 374.428 166.788 376.666 166.788 376.666C163.114 372.105 159.513 372.714 155.951 376.038Z" fill="#272327"/>
<path d="M155.666 379.499C158.326 378.519 161.179 378.891 163.498 380.52C163.904 380.805 164.289 380.138 163.886 379.856C161.416 378.121 158.294 377.714 155.461 378.757C155.001 378.927 155.2 379.671 155.666 379.499Z" fill="white"/>
<path d="M181.829 389.161C181.828 389.161 181.828 389.161 181.829 389.161L155.063 389.132C154.851 389.132 154.678 388.959 154.679 388.747C154.679 388.535 154.852 388.363 155.064 388.363L181.83 388.392C182.042 388.392 182.214 388.565 182.214 388.777C182.213 388.989 182.041 389.161 181.829 389.161Z" fill="white"/>
<path d="M151.211 367.088L174.668 368.256C177.524 350.605 188.997 286.324 188.054 274.011C186.903 258.971 173.317 193.868 168.265 188.848C163.213 183.828 126.224 196.84 126.224 196.84C126.224 196.84 141.426 252.824 153.412 277.037C155.902 282.066 149.285 345.62 151.211 367.088Z" fill="#454BC7"/>
<path d="M177.351 363.047L176.154 369.799L150.085 368.255L149.56 361.187L177.351 363.047Z" fill="#1E227E"/>
<path d="M171.999 362.499C171.978 362.499 171.958 362.498 171.937 362.494C171.727 362.46 171.585 362.263 171.619 362.053C171.746 361.27 184.297 283.695 183.843 275.641C183.314 266.267 171.638 226.476 171.52 226.075C171.46 225.871 171.577 225.658 171.78 225.598C171.983 225.539 172.198 225.654 172.257 225.859C172.739 227.499 184.076 266.137 184.61 275.599C185.07 283.737 172.896 358.979 172.378 362.178C172.348 362.365 172.185 362.499 171.999 362.499Z" fill="#1E227E"/>
<path d="M154.723 197.98C155.111 203.367 153.018 210.412 146.657 211.002C140.529 211.571 136.56 205.745 136.667 200.167C136.676 199.698 137.406 199.697 137.397 200.168C137.298 205.346 140.921 210.843 146.658 210.273C152.601 209.682 154.35 202.937 153.993 197.98C153.959 197.511 154.689 197.514 154.723 197.98Z" fill="#1E227E"/>
<path d="M163.474 200.735C165.569 208.987 168.412 218.635 177.207 221.955C177.671 222.13 177.871 221.387 177.411 221.213C168.908 218.003 166.231 208.471 164.215 200.53C164.094 200.051 163.352 200.254 163.474 200.735Z" fill="#1E227E"/>
<path d="M142.484 246.241C139.675 241.623 136.955 236.938 134.713 232.013C132.434 227.007 130.729 221.784 129.375 216.458C129.253 215.979 128.511 216.182 128.633 216.662C129.972 221.929 131.659 227.092 133.891 232.052C136.163 237.104 138.945 241.901 141.82 246.629C142.077 247.051 142.743 246.665 142.484 246.241Z" fill="#1E227E"/>
<path d="M135.595 216.156C129.436 216.315 123.331 215.453 117.457 213.596C116.984 213.446 116.781 214.189 117.253 214.338C123.189 216.215 129.372 217.086 135.596 216.926C136.089 216.912 136.091 216.143 135.595 216.156Z" fill="#1E227E"/>
<path d="M157.519 277.084C163.235 276.724 168.952 276.364 174.668 276.005C175.16 275.974 175.163 275.205 174.668 275.236C168.952 275.596 163.235 275.955 157.519 276.315C157.027 276.345 157.024 277.115 157.519 277.084Z" fill="#1E227E"/>
<path d="M98.5704 82.7654C98.5684 82.7574 98.5664 82.7514 98.5664 82.7494C98.5684 82.7474 98.5724 82.7534 98.5784 82.7654H98.5704Z" fill="#858257"/>
<path d="M129.929 87.3524C129.929 87.3524 136.406 90.5024 148.747 87.1954L148.266 82.3074L148.261 81.4604L148.237 77.6234L148.234 77.1094L147.738 73.4204L133.776 68.8694C133.496 75.5444 131.726 82.0194 129.929 87.3524Z" fill="#CE7E5D"/>
<path d="M144.477 78.3705C145.022 80.1385 146.886 81.0325 148.261 81.4605L148.237 77.6235C146.478 77.0185 143.869 76.4085 144.477 78.3705Z" fill="#272327"/>
<path d="M151.686 64.0956C151.686 61.6576 153.669 59.6746 156.107 59.6746C158.545 59.6746 160.528 61.6576 160.528 64.0956C160.528 66.5336 158.545 68.5166 156.107 68.5166C153.67 68.5166 151.686 66.5336 151.686 64.0956ZM152.455 64.0956C152.455 66.1096 154.093 67.7476 156.107 67.7476C158.121 67.7476 159.759 66.1096 159.759 64.0956C159.759 62.0816 158.121 60.4436 156.107 60.4436C154.094 60.4436 152.455 62.0816 152.455 64.0956Z" fill="#272327"/>
<path d="M132.612 63.9195C132.543 64.5015 132.51 65.0435 132.513 65.5615C132.52 66.7595 132.715 67.8295 133.101 68.9525C133.609 70.4315 134.444 72.0065 135.608 74.0915C137.437 77.3655 140.961 78.9905 144.516 79.4795C153.956 80.7815 155.682 74.4605 156.218 64.6325C156.549 58.5305 158.705 55.4135 157.515 52.8635H157.512C157.426 52.7415 157.336 52.6215 157.247 52.5045C155.111 49.6925 151.916 47.8685 148.424 47.3225C147.751 47.2175 147.105 47.1385 146.482 47.0845C146.341 47.0675 146.2 47.0565 146.061 47.0485C146.003 47.0415 145.945 47.0375 145.889 47.0365C145.731 47.0235 145.576 47.0135 145.419 47.0095C145.308 47.0025 145.197 46.9975 145.088 46.9955C144.835 46.9855 144.589 46.9815 144.348 46.9805C136.658 46.9905 134.159 51.3345 133.281 55.8365C132.682 58.8965 132.836 62.0285 132.612 63.9195Z" fill="#CE7E5D"/>
<path d="M156.406 62.1714C156.406 62.1714 156.272 66.5394 157.568 68.1634C158.864 69.7864 155.351 69.8944 155.351 69.8944L156.406 62.1714Z" fill="#CE7E5D"/>
<path d="M160.071 65.2415C160.167 65.2415 160.262 65.2064 160.337 65.1344C160.49 64.9874 160.496 64.7445 160.349 64.5905C157.73 61.8535 154.527 60.5135 154.392 60.4575C154.195 60.3765 153.97 60.4695 153.89 60.6665C153.809 60.8625 153.902 61.0875 154.098 61.1685C154.13 61.1815 157.289 62.5064 159.793 65.1214C159.868 65.2014 159.969 65.2415 160.071 65.2415Z" fill="#272327"/>
<path d="M129.929 58.1225C129.673 53.2505 128.407 51.2635 130.511 46.9815C134.699 38.4565 141.845 43.0835 141.845 43.0835C150.854 38.1995 157.568 45.0055 162.402 49.4605C164.386 51.2885 164.352 54.5085 162.229 56.1745C161.303 56.9015 160.051 57.2555 158.391 56.6275C155.031 55.3565 154.16 54.9185 154.032 57.4825C153.904 60.0465 155.445 62.6265 153.348 62.9525C151.251 63.2785 150.422 61.2195 150.044 62.5555C149.667 63.8915 150.829 66.9175 151.729 68.4265C152.629 69.9345 149.785 68.7155 147.956 70.7305C144.513 74.5215 141.161 78.1325 137.292 77.1005C133.423 76.0685 131.36 69.3635 130.844 65.7525C130.328 62.1415 129.929 58.1225 129.929 58.1225Z" fill="#272327"/>
<path d="M149.038 69.4795C148.168 68.1965 147.861 66.3345 147.981 64.8385C148.159 62.6185 149.553 60.7385 151.376 60.5155C154.055 60.1875 155.441 62.0825 155.944 64.6355C156.447 67.1885 155.911 70.8625 152.552 71.2215C150.872 71.4005 149.75 70.5305 149.038 69.4795Z" fill="#CE7E5D"/>
<path d="M152.195 68.0865C151.619 67.2755 151.075 66.3935 150.933 65.3855C150.806 64.4855 151.014 62.9605 152.09 62.7695C152.451 62.7055 152.399 62.1075 152.036 62.1715C150.999 62.3555 150.459 63.3625 150.343 64.3945C150.175 65.8825 150.893 67.2465 151.73 68.4255C151.952 68.7395 152.419 68.4025 152.195 68.0865Z" fill="#272327"/>
<path d="M148.078 86.4826C148.078 86.4826 161.072 91.4136 168.752 97.5566C175.613 103.045 169.633 123.935 168.553 132.448C168.553 132.448 123.852 135.972 112.881 133.444C101.91 130.916 104.1 109.721 102.892 101.101C101.684 92.4816 108.43 86.4026 114.928 85.7936C121.426 85.1846 129.058 84.4656 129.058 84.4656C129.058 84.4656 135.272 78.2506 148.078 86.4826Z" fill="#272327"/>
<path d="M145.727 188.263C136.806 188.608 127.867 188.09 119.049 186.689C115.267 186.088 111.284 185.545 107.7 184.135C105.073 183.102 102.728 181.476 101.723 178.74C101.552 178.275 102.295 178.074 102.465 178.536C103.61 181.652 106.771 183.146 109.761 184.024C113.32 185.07 117.068 185.633 120.732 186.174C129.002 187.394 137.376 187.817 145.728 187.494C146.222 187.474 146.221 188.243 145.727 188.263Z" fill="#44584F"/>
<path d="M105.241 94.4564C103.746 98.1474 102.824 102.005 102.51 105.977C102.471 106.467 101.702 106.471 101.741 105.977C102.06 101.938 102.978 98.0084 104.499 94.2514C104.683 93.7994 105.428 93.9974 105.241 94.4564Z" fill="#44584F"/>
<path d="M129.823 86.0634C135.543 85.2244 141.344 86.4294 146.235 89.5224C146.652 89.7864 146.267 90.4524 145.847 90.1864C141.143 87.2124 135.54 85.9974 130.028 86.8054C129.543 86.8764 129.334 86.1354 129.823 86.0634Z" fill="#44584F"/>
<path d="M101.156 143.017C99.7963 143.542 98.0443 144.276 97.3283 145.633C97.0973 146.071 96.4333 145.683 96.6643 145.245C97.4823 143.695 99.4003 142.875 100.951 142.276C101.414 142.097 101.614 142.84 101.156 143.017Z" fill="#44584F"/>
<path d="M163.857 137.958C161.37 152.906 161.858 168.394 165.369 183.141C166.361 187.308 167.611 191.409 169.118 195.418C169.291 195.877 170.034 195.678 169.86 195.214C163.079 177.171 161.442 157.143 164.6 138.163C164.679 137.678 163.938 137.47 163.857 137.958Z" fill="#44584F"/>
<path d="M169.398 127.3C169.398 127.3 166.981 158.431 169.597 170.472C171.627 179.817 177.042 194.076 172.49 196.746C167.937 199.417 99.0476 209.727 96.8846 198.511C93.8746 182.902 103.238 143.001 101.381 127.227C99.5246 111.452 101.163 99.2625 103.647 96.0695C106.131 92.8765 169.398 127.3 169.398 127.3Z" fill="#272327"/>
<path d="M101.427 113.55C102.176 123.293 102.243 133.066 101.455 142.809C100.676 152.451 99.1317 162.01 97.3977 171.521C97.3087 172.007 96.5677 171.801 96.6557 171.317C98.4037 161.729 99.9577 152.094 100.72 142.372C101.473 132.773 101.395 123.148 100.657 113.551C100.62 113.056 101.39 113.059 101.427 113.55Z" fill="#44584F"/>
<path d="M207.375 116.602C209.153 118.981 211.716 120.526 214.633 121.049C215.119 121.136 214.913 121.878 214.428 121.791C211.302 121.23 208.607 119.529 206.71 116.991C206.414 116.594 207.081 116.21 207.375 116.602Z" fill="#44584F"/>
<path d="M210.637 115.058C210.249 115.629 209.61 115.872 209.209 115.6C208.808 115.328 208.797 114.644 209.184 114.073C209.572 113.502 210.211 113.259 210.612 113.531C211.014 113.803 211.025 114.486 210.637 115.058Z" fill="#44584F"/>
<path d="M149.727 113.254C149.727 113.254 171.572 170.583 188.614 170.87C205.656 171.157 217.958 111.704 217.958 111.704L210.837 110.038C210.837 110.038 189.256 141.106 188.59 141.591C187.925 142.076 172.914 102.324 172.914 102.324C168.716 89.8736 145.029 97.7105 149.727 113.254Z" fill="#272327"/>
<path d="M181.901 167.215C185.753 164.366 190.797 164.326 194.691 167.122C195.084 167.404 195.459 166.754 195.069 166.474C190.984 163.541 185.566 163.576 181.522 166.567C181.139 166.851 181.512 167.502 181.901 167.215Z" fill="#44584F"/>
<path d="M154.319 125.179C157.913 134.085 162.189 142.695 167.126 150.934C167.374 151.348 168.023 150.971 167.774 150.555C162.872 142.373 158.612 133.825 155.043 124.98C154.864 124.538 154.138 124.73 154.319 125.179Z" fill="#44584F"/>
<path d="M162.153 97.0614C157.795 96.9674 154.004 99.8514 151.973 103.565C149.637 107.836 149.544 112.924 149.892 117.659C149.928 118.153 149.159 118.151 149.123 117.659C148.748 112.561 148.917 107.003 151.689 102.524C153.93 98.9034 157.789 96.1994 162.153 96.2934C162.647 96.3024 162.649 97.0724 162.153 97.0614Z" fill="#44584F"/>
<path d="M188.024 141.581C187.489 143.822 187.102 146.089 186.874 148.386C186.821 148.916 187.621 149.007 187.674 148.475C187.895 146.25 188.258 144.049 188.776 141.879C188.897 141.369 188.147 141.063 188.024 141.581Z" fill="#44584F"/>
<path d="M187.612 143.695C188.041 145.189 188.665 146.585 189.468 147.905C189.744 148.358 190.371 147.842 190.099 147.393C189.334 146.136 188.757 144.788 188.35 143.368C188.203 142.856 187.467 143.189 187.612 143.695Z" fill="#44584F"/>
<path d="M208.315 102.538C208.122 102.231 208.214 101.825 208.522 101.632L242.419 80.3284C242.726 80.1354 243.132 80.2284 243.325 80.5354C243.518 80.8424 243.426 81.2484 243.118 81.4414L209.221 102.745C208.913 102.937 208.508 102.845 208.315 102.538Z" fill="#272327"/>
<path d="M210.787 109.934C210.787 109.934 211.771 97.4965 212.408 96.2075C213.045 94.9185 223.079 90.8576 224.094 90.1576C225.109 89.4576 225.249 91.7125 223.36 92.7255C221.471 93.7385 218.651 95.8095 218.651 95.8095C218.651 95.8095 221.469 94.5305 222.392 95.0595C223.314 95.5895 228.172 100.059 228.371 102.976C228.57 105.893 225.434 107.172 224.592 107.748C223.749 108.324 223.716 105.249 223.716 105.249C223.716 105.249 222.866 106.114 221.331 106.886C219.844 107.633 219.04 111.518 217.628 112.617C216.216 113.718 210.787 109.934 210.787 109.934Z" fill="#CE7E5D"/>
<path d="M216.415 97.5985C217.137 96.9755 217.901 96.4905 218.757 96.0735C219.069 95.9215 218.854 95.4265 218.541 95.5785C217.642 96.0155 216.837 96.5215 216.079 97.1755C215.817 97.4015 216.152 97.8255 216.415 97.5985Z" fill="#994731"/>
<path d="M219.124 98.7124C220.435 97.6584 221.902 96.5264 223.692 96.7704C224.032 96.8164 224.175 96.2954 223.83 96.2484C221.823 95.9754 220.233 97.1324 218.743 98.3304C218.473 98.5474 218.856 98.9284 219.124 98.7124Z" fill="#994731"/>
<path d="M221.362 100.429C222.494 99.2564 224.078 98.7274 225.688 99.0154C226.028 99.0764 226.169 98.5544 225.826 98.4934C224.03 98.1724 222.251 98.7314 220.981 100.047C220.74 100.297 221.12 100.68 221.362 100.429Z" fill="#994731"/>
<path d="M223.817 105.548C224.6 104.611 224.973 103.444 224.829 102.227C224.789 101.886 224.249 101.881 224.289 102.226C224.415 103.297 224.131 104.335 223.436 105.166C223.215 105.43 223.593 105.815 223.817 105.548Z" fill="#994731"/>
<path d="M224.794 103.819C225.248 103.432 225.903 103.376 226.423 103.659C226.727 103.825 226.997 103.357 226.691 103.19C225.948 102.785 225.053 102.89 224.413 103.436C224.149 103.662 224.531 104.044 224.794 103.819Z" fill="#994731"/>
<path d="M555.491 19.1436C555.584 19.1186 555.662 19.0486 555.694 18.9506C555.745 18.7956 555.66 18.6286 555.505 18.5786C554.708 18.3186 554.201 18.1956 554.18 18.1906C554.022 18.1526 553.862 18.2496 553.824 18.4086C553.786 18.5666 553.883 18.7266 554.042 18.7646C554.047 18.7656 554.55 18.8886 555.322 19.1406C555.378 19.1576 555.437 19.1576 555.491 19.1436Z" fill="#ADD1C8"/>
<path d="M579.099 71.7957C578.943 71.7487 578.854 71.5837 578.901 71.4277C579.157 70.5777 579.387 69.7197 579.585 68.8787C579.622 68.7197 579.782 68.6217 579.94 68.6587C580.099 68.6957 580.197 68.8547 580.16 69.0137C579.959 69.8667 579.726 70.7367 579.467 71.5977C579.436 71.6987 579.357 71.7717 579.262 71.7977C579.21 71.8117 579.154 71.8117 579.099 71.7957ZM580.179 67.5407C580.019 67.5097 579.914 67.3557 579.945 67.1957C580.111 66.3257 580.247 65.4487 580.35 64.5897C580.369 64.4277 580.517 64.3127 580.678 64.3317C580.84 64.3507 580.955 64.4977 580.936 64.6597C580.832 65.5317 580.693 66.4227 580.525 67.3057C580.503 67.4197 580.418 67.5067 580.313 67.5357C580.27 67.5467 580.225 67.5497 580.179 67.5407ZM580.787 63.1937C580.624 63.1817 580.502 63.0407 580.513 62.8787C580.576 61.9967 580.605 61.1107 580.599 60.2457C580.598 60.0827 580.729 59.9497 580.892 59.9487C581.055 59.9477 581.188 60.0787 581.189 60.2417C581.195 61.1227 581.166 62.0237 581.102 62.9207C581.093 63.0487 581.003 63.1527 580.885 63.1847C580.854 63.1927 580.821 63.1957 580.787 63.1937ZM580.855 58.8047C580.692 58.8147 580.552 58.6907 580.543 58.5277C580.491 57.6487 580.401 56.7677 580.276 55.9087C580.253 55.7477 580.364 55.5977 580.526 55.5737C580.687 55.5507 580.837 55.6617 580.861 55.8237C580.988 56.6997 581.08 57.5967 581.133 58.4917C581.141 58.6337 581.048 58.7577 580.917 58.7937C580.896 58.8007 580.876 58.8037 580.855 58.8047ZM580.329 54.4487C580.169 54.4817 580.013 54.3777 579.981 54.2187C579.851 53.5787 579.698 52.9367 579.527 52.3107C579.468 52.0947 579.406 51.8787 579.343 51.6657C579.296 51.5097 579.385 51.3447 579.542 51.2987C579.544 51.2977 579.546 51.2977 579.549 51.2967C579.703 51.2547 579.864 51.3437 579.91 51.4977C579.975 51.7157 580.037 51.9347 580.098 52.1557C580.272 52.7937 580.428 53.4487 580.561 54.1007C580.592 54.2537 580.499 54.4037 580.35 54.4447C580.342 54.4457 580.336 54.4467 580.329 54.4487ZM578.806 50.0357C578.509 49.2147 578.17 48.3977 577.8 47.6057C577.731 47.4577 577.795 47.2827 577.942 47.2127C578.089 47.1447 578.265 47.2077 578.334 47.3547C578.711 48.1617 579.057 48.9957 579.36 49.8337C579.416 49.9867 579.336 50.1567 579.183 50.2117C579.175 50.2147 579.168 50.2167 579.16 50.2187C579.014 50.2607 578.859 50.1817 578.806 50.0357ZM577.028 46.0737C576.614 45.3077 576.158 44.5477 575.675 43.8167C575.585 43.6807 575.623 43.4977 575.758 43.4077C575.894 43.3177 576.077 43.3547 576.167 43.4907C576.66 44.2357 577.124 45.0107 577.546 45.7917C577.624 45.9347 577.57 46.1147 577.427 46.1917C577.407 46.2027 577.385 46.2117 577.364 46.2167C577.236 46.2537 577.095 46.1967 577.028 46.0737ZM574.689 42.4127C574.167 41.7137 573.608 41.0267 573.026 40.3727C572.918 40.2507 572.929 40.0647 573.051 39.9557C573.173 39.8477 573.359 39.8587 573.468 39.9797C574.061 40.6467 574.631 41.3467 575.163 42.0587C575.26 42.1897 575.234 42.3747 575.103 42.4717C575.072 42.4947 575.039 42.5107 575.004 42.5197C574.89 42.5517 574.763 42.5127 574.689 42.4127ZM571.849 39.1217C571.234 38.5027 570.584 37.9007 569.916 37.3337C569.792 37.2277 569.777 37.0417 569.882 36.9177C569.988 36.7937 570.174 36.7787 570.298 36.8837C570.978 37.4617 571.64 38.0747 572.267 38.7057C572.382 38.8217 572.381 39.0087 572.266 39.1237C572.228 39.1607 572.184 39.1857 572.136 39.1987C572.038 39.2247 571.927 39.1997 571.849 39.1217ZM568.578 36.2567C567.879 35.7257 567.151 35.2197 566.415 34.7547C566.277 34.6677 566.236 34.4847 566.324 34.3477C566.411 34.2097 566.594 34.1687 566.731 34.2557C567.481 34.7297 568.222 35.2447 568.935 35.7867C569.065 35.8857 569.09 36.0707 568.992 36.2007C568.951 36.2547 568.895 36.2907 568.835 36.3067C568.749 36.3297 568.654 36.3137 568.578 36.2567ZM564.939 33.8777C564.312 33.5297 563.674 33.2057 563.034 32.9107C563.031 32.9147 563.028 32.9187 563.024 32.9217C562.423 33.6017 561.702 34.1787 560.881 34.6367C560.738 34.7157 560.559 34.6647 560.479 34.5227C560.4 34.3807 560.451 34.2007 560.593 34.1207C561.312 33.7197 561.948 33.2217 562.485 32.6377C562.407 32.5537 562.382 32.4287 562.431 32.3177C562.497 32.1687 562.671 32.1007 562.82 32.1667C563.626 32.5207 564.436 32.9227 565.226 33.3617C565.369 33.4407 565.42 33.6207 565.341 33.7637C565.301 33.8357 565.235 33.8847 565.161 33.9047C565.088 33.9237 565.009 33.9167 564.939 33.8777ZM556.57 35.8767C556.407 35.8897 556.265 35.7687 556.252 35.6057C556.239 35.4427 556.36 35.3007 556.523 35.2877C557.414 35.2167 558.272 35.0487 559.058 34.7897C559.217 34.7407 559.38 34.8227 559.431 34.9777C559.482 35.1327 559.398 35.2997 559.243 35.3507C559.075 35.4057 558.901 35.4587 558.727 35.5057C558.043 35.6917 557.318 35.8167 556.57 35.8767ZM554.797 35.8977C553.867 35.8477 552.964 35.7047 552.113 35.4747C551.955 35.4317 551.863 35.2697 551.905 35.1127C551.948 34.9557 552.11 34.8617 552.267 34.9047C553.067 35.1207 553.953 35.2607 554.829 35.3087C554.992 35.3177 555.116 35.4567 555.108 35.6197C555.101 35.7497 555.01 35.8557 554.891 35.8887C554.861 35.8957 554.83 35.8987 554.797 35.8977ZM563.654 31.5687C563.511 31.4907 563.459 31.3107 563.537 31.1677C563.601 31.0507 563.663 30.9317 563.721 30.8107C564.058 30.1147 564.292 29.4277 564.416 28.7687C564.446 28.6087 564.601 28.5037 564.761 28.5327C564.921 28.5627 565.027 28.7177 564.996 28.8777C564.862 29.5887 564.612 30.3247 564.252 31.0677C564.189 31.1967 564.123 31.3257 564.055 31.4507C564.015 31.5237 563.948 31.5737 563.874 31.5937C563.802 31.6137 563.723 31.6067 563.654 31.5687ZM560.991 32.0677C560.147 31.7617 559.302 31.5057 558.479 31.3087C558.32 31.2707 558.223 31.1117 558.261 30.9527C558.299 30.7937 558.458 30.6967 558.617 30.7347C559.462 30.9367 560.329 31.1987 561.193 31.5127C561.346 31.5687 561.425 31.7377 561.37 31.8907C561.336 31.9847 561.259 32.0507 561.17 32.0747C561.112 32.0907 561.05 32.0897 560.991 32.0677ZM550.435 34.8567C549.419 34.3587 548.791 33.7637 548.619 33.1347C548.58 32.9927 548.565 32.8487 548.575 32.7067C548.586 32.5437 548.726 32.4207 548.889 32.4317C549.052 32.4427 549.175 32.5827 549.164 32.7457C549.159 32.8217 549.167 32.8997 549.189 32.9787C549.311 33.4257 549.86 33.9167 550.695 34.3257C550.841 34.3977 550.902 34.5737 550.83 34.7207C550.791 34.7997 550.721 34.8537 550.643 34.8757C550.575 34.8947 550.502 34.8897 550.435 34.8567ZM556.802 30.9827C555.899 30.8477 555.024 30.7877 554.202 30.8037C554.039 30.8067 553.904 30.6767 553.901 30.5147C553.898 30.3517 554.028 30.2167 554.19 30.2137C555.046 30.1977 555.954 30.2597 556.889 30.3997C557.05 30.4237 557.162 30.5737 557.137 30.7357C557.119 30.8547 557.032 30.9477 556.923 30.9767C556.885 30.9857 556.844 30.9887 556.802 30.9827ZM549.691 31.6067C549.613 31.4637 549.666 31.2847 549.81 31.2067C550.146 31.0237 550.555 30.8547 551.025 30.7037C551.455 30.5647 551.933 30.4507 552.423 30.3697C552.584 30.3427 552.736 30.4517 552.762 30.6127C552.789 30.7737 552.679 30.9267 552.519 30.9517C552.057 31.0277 551.609 31.1357 551.205 31.2657C550.77 31.4057 550.395 31.5607 550.091 31.7257C550.071 31.7367 550.049 31.7457 550.028 31.7507C549.899 31.7857 549.758 31.7297 549.691 31.6067ZM564.823 27.3927C564.661 27.4067 564.517 27.2877 564.503 27.1247C564.474 26.8017 564.416 26.4787 564.33 26.1657C564.198 25.6807 563.995 25.2007 563.727 24.7397C563.645 24.5987 563.693 24.4177 563.834 24.3357C563.974 24.2537 564.156 24.3017 564.238 24.4427C564.532 24.9477 564.754 25.4757 564.9 26.0097C564.995 26.3567 565.059 26.7137 565.091 27.0717C565.104 27.2167 565.01 27.3457 564.875 27.3827C564.858 27.3877 564.841 27.3907 564.823 27.3927ZM562.73 23.4037C562.193 22.8197 561.53 22.2557 560.759 21.7277C560.625 21.6357 560.59 21.4517 560.683 21.3177C560.775 21.1837 560.959 21.1487 561.093 21.2417C561.9 21.7957 562.596 22.3887 563.164 23.0057C563.274 23.1257 563.267 23.3127 563.147 23.4227C563.111 23.4557 563.069 23.4787 563.025 23.4907C562.922 23.5167 562.807 23.4877 562.73 23.4037ZM559.306 20.8387C558.577 20.4397 557.777 20.0657 556.931 19.7247C556.78 19.6637 556.706 19.4917 556.767 19.3407C556.828 19.1897 557 19.1157 557.151 19.1767C558.019 19.5257 558.84 19.9107 559.589 20.3207C559.732 20.3987 559.785 20.5777 559.706 20.7217C559.666 20.7947 559.599 20.8447 559.525 20.8647C559.454 20.8847 559.376 20.8767 559.306 20.8387Z" fill="#ADD1C8"/>
<path d="M578.27 74.7396C578.359 74.7156 578.435 74.6506 578.469 74.5576C578.629 74.1286 578.784 73.6956 578.929 73.2716C578.982 73.1176 578.899 72.9496 578.745 72.8966C578.591 72.8436 578.423 72.9266 578.37 73.0806C578.227 73.4996 578.074 73.9276 577.915 74.3516C577.858 74.5046 577.936 74.6746 578.088 74.7316C578.149 74.7536 578.212 74.7556 578.27 74.7396Z" fill="#ADD1C8"/>
<path d="M556.377 7.64453L555.331 19.4675L546.543 15.9925C546.543 15.9925 551.013 8.61953 556.377 7.64453Z" fill="#7CA196"/>
<path d="M514.936 0.975586L542.866 19.4596L554.174 8.79858L514.936 0.975586Z" fill="#ADD1C8"/>
<path d="M514.936 0.975586L565.819 2.69859L554.174 8.79858L514.936 0.975586Z" fill="#ADD1C8"/>
<path d="M524.589 2.89966L554.174 8.79865L557.293 7.16466L524.589 2.89966Z" fill="#7CA196"/>
<path d="M545.523 97.5276C553.971 97.6886 564.5 96.0236 564.5 96.0236C564.5 96.0236 559.938 87.7056 558.992 69.6316C558.67 63.4846 558.398 59.5116 555.527 54.7756C553.783 51.9026 547.282 44.9246 536.046 50.0206C536.046 50.0206 531.278 48.7656 527.641 54.5246C524.512 59.4756 528.262 69.2686 527.324 73.9626C526.196 79.6106 523.612 82.9036 523.612 82.9036C523.612 82.9036 517.924 88.4736 520.244 95.2756C522.564 102.079 526.614 100.21 530.809 98.6586C535.003 97.1086 545.523 97.5276 545.523 97.5276Z" fill="#272327"/>
<path d="M528.705 81.7367C528.852 81.7367 528.971 81.6177 528.971 81.4717V73.1537C528.971 73.0067 528.852 72.8877 528.705 72.8877C528.558 72.8877 528.439 73.0067 528.439 73.1537V81.4717C528.439 81.6177 528.558 81.7367 528.705 81.7367Z" fill="white"/>
<path d="M526.57 82.6686L527.96 84.7666C528.313 85.2996 529.095 85.2996 529.448 84.7666L530.839 82.6686C531.028 82.3836 531.037 82.0156 530.863 81.7206L529.472 79.3706C529.126 78.7866 528.281 78.7866 527.936 79.3706L526.546 81.7206C526.372 82.0156 526.381 82.3836 526.57 82.6686Z" fill="white"/>
<path d="M478.979 123.635C478.979 123.635 477.218 123.078 480.432 118.739C483.647 114.4 490.696 107.85 490.696 107.85C490.696 107.85 494.059 119.322 478.979 123.635Z" fill="#272327"/>
<path d="M492.057 113.384L481.379 97.3655L474.925 100.331L484.212 120.542L492.057 113.384Z" fill="#DE7878"/>
<path d="M478.979 123.636C478.979 123.636 485.1 128.662 491.952 139.966C493.24 142.088 494.624 143.974 496.066 145.587C501.482 151.653 507.673 153.895 512.253 150.574C512.942 150.074 513.594 149.449 514.202 148.691C516.016 146.431 518.091 142.306 520.082 137.724C524.372 127.841 528.264 115.835 528.264 115.835L522.74 102.798L518.681 93.2156L517.117 97.1136L512.154 109.489L504.823 127.761L490.696 107.849C490.684 107.904 490.671 107.959 490.659 108.017C489.966 111.364 488.56 114.478 486.571 117.149C484.583 119.822 482.009 122.054 478.979 123.636Z" fill="#454BC7"/>
<path d="M496.067 145.586C501.483 151.652 507.673 153.894 512.253 150.573C509.362 147.978 503.027 143.18 497.374 144.983C496.86 145.148 496.428 145.35 496.067 145.586Z" fill="#1E227E"/>
<path d="M505.115 127.597C507.022 131.082 508.537 134.757 509.638 138.573C509.733 138.902 509.22 139.043 509.126 138.714C508.037 134.94 506.542 131.31 504.656 127.865C504.492 127.565 504.95 127.297 505.115 127.597Z" fill="#1E227E"/>
<path d="M506.903 131.192C508.046 132.142 509.067 133.229 510.21 134.179C510.473 134.398 510.095 134.772 509.834 134.555C508.691 133.605 507.67 132.518 506.527 131.568C506.264 131.349 506.641 130.975 506.903 131.192Z" fill="#1E227E"/>
<path d="M510.326 355.481L514.74 378.254L522.804 378.39L524.16 355.477L510.326 355.481Z" fill="#DE7878"/>
<path d="M525.198 355.515C525.198 355.515 526.375 357.522 526.089 359.994C525.718 363.198 523.922 364.541 523.922 364.541L511.769 365.265C511.769 365.265 507.302 362.19 509.828 356.222L525.198 355.515Z" fill="#272327"/>
<path d="M508.898 379.617C508.898 379.617 501.419 384.548 499.052 384.682C497.496 384.77 496.065 385.371 495.007 387.073C494.456 387.96 494.007 389.146 493.693 390.714L510.599 390.813C510.762 390.527 511.454 389.424 512.498 389.106C513.606 388.767 515.699 390.563 516.017 390.845L522.384 390.881C522.384 390.881 522.637 388.655 522.939 385.97C523.343 382.391 524.981 375.345 525.086 374.332C525.272 372.558 520.629 376.902 520.629 376.902L517.056 377.437L516.551 373.803C516.336 372.257 514.925 371.12 513.379 371.333C512.619 371.438 511.992 371.859 511.931 372.937C511.768 375.812 508.898 379.617 508.898 379.617Z" fill="#6AB886"/>
<path d="M505.177 381.441C505.256 381.365 505.377 381.357 505.468 381.418C505.885 381.699 506.235 382.094 506.472 382.588C506.597 382.848 506.216 383.097 506.09 382.834C505.88 382.395 505.574 382.046 505.209 381.8C505.087 381.718 505.068 381.547 505.174 381.445L505.177 381.441Z" fill="white"/>
<path d="M506.527 380.657C506.606 380.581 506.727 380.573 506.818 380.634C507.235 380.915 507.585 381.31 507.822 381.804C507.947 382.064 507.566 382.313 507.44 382.05C507.23 381.611 506.924 381.262 506.559 381.016C506.437 380.934 506.418 380.763 506.524 380.661C506.525 380.659 506.527 380.657 506.527 380.657Z" fill="white"/>
<path d="M507.918 379.926C507.997 379.85 508.118 379.842 508.209 379.903C508.626 380.184 508.976 380.579 509.212 381.073C509.337 381.333 508.956 381.582 508.83 381.319C508.62 380.88 508.314 380.531 507.949 380.285C507.827 380.203 507.808 380.032 507.914 379.93C507.916 379.928 507.918 379.926 507.918 379.926Z" fill="white"/>
<path d="M493.693 390.88H510.561C510.561 390.88 510.573 390.856 510.599 390.812C510.762 390.526 511.542 389.432 512.828 389.432C513.986 389.432 515.699 390.562 516.017 390.844C516.044 390.867 516.058 390.88 516.058 390.88H522.384C522.384 390.88 523.446 390.24 523.95 388.737C524.758 386.331 522.939 385.969 522.939 385.969L518.376 386.099C516.347 384.997 513.927 384.636 511.664 385.094C509.4 385.554 508.139 388.192 505.872 388.637C503.112 389.179 498.728 387.143 498.728 387.143C498.728 387.143 496.791 386.547 495.007 387.072C494.547 387.207 494.098 387.416 493.693 387.729C491.721 389.258 493.693 390.88 493.693 390.88Z" fill="white"/>
<path d="M540.539 355.223L540.354 379.423L548.353 379.823L554.388 356.494L540.539 355.223Z" fill="#DE7878"/>
<path d="M554.301 356.828C554.301 356.828 555.19 358.96 554.639 361.381C553.925 364.518 552.071 365.64 552.071 365.64L540.463 364.922C540.463 364.922 536.574 361.34 539.644 355.713L554.301 356.828Z" fill="#272327"/>
<path d="M555.206 390.882H537.201C537.201 390.882 536.678 389.873 537.532 387.079C537.705 386.512 537.904 385.806 538.116 385.042C538.94 382.028 539.912 378.089 539.912 378.089C539.912 378.089 543.408 368.856 546.912 370.457C549.985 371.861 548.754 378.703 548.754 378.703C548.754 378.703 549.057 381.062 551.386 383.142C553.096 384.668 554.794 385.786 555.253 387.985C555.421 388.783 555.426 389.726 555.206 390.882Z" fill="#6AB886"/>
<path d="M540.354 374.333C540.354 374.333 538.889 374.348 538.51 376.442C538.132 378.536 538.856 382.255 538.856 382.255H548.044C548.044 382.255 551.752 377.131 551.222 375.677C550.692 374.223 549.773 374.333 549.773 374.333C549.773 374.333 542.803 378 540.354 374.333Z" fill="#6AB886"/>
<path d="M548.031 379.711C547.018 378.922 545.69 379.025 544.779 379.913C544.534 380.152 544.158 379.776 544.403 379.537C545.54 378.428 547.163 378.366 548.406 379.335C548.676 379.545 548.298 379.919 548.031 379.711Z" fill="white"/>
<path d="M548.539 381.392C547.526 380.603 546.198 380.705 545.287 381.594C545.042 381.833 544.666 381.458 544.911 381.218C546.048 380.109 547.671 380.047 548.914 381.016C549.184 381.227 548.806 381.6 548.539 381.392Z" fill="white"/>
<path d="M549.049 382.938C548.036 382.149 546.708 382.251 545.797 383.14C545.552 383.379 545.176 383.004 545.421 382.764C546.558 381.655 548.181 381.594 549.424 382.562C549.694 382.773 549.315 383.146 549.049 382.938Z" fill="white"/>
<path d="M555.206 390.882H537.201C537.201 390.882 536.678 389.873 537.532 387.079C537.705 386.512 537.904 385.806 538.116 385.042C538.718 384.943 539.54 385.048 539.961 386.145C540.674 388.006 542.148 388.253 543.42 388.192C544.69 388.131 546.822 385.827 550.248 386.084C553.196 386.304 553.167 388.527 555.254 387.985C555.421 388.783 555.426 389.726 555.206 390.882Z" fill="white"/>
<path d="M568.218 102.388C567.984 106.806 565.761 112.25 563.886 116.416C563.039 118.299 562.354 120.725 561.803 123.296C560.177 130.898 559.725 139.783 559.725 139.783C543.565 140.487 525.465 142.37 520.616 140.658C520.616 140.658 520.4 139.466 520.084 137.723C519.57 134.892 518.783 130.601 518.206 127.602C517.378 123.291 516.479 115.935 516.289 108.46C516.266 107.528 516.253 106.59 516.253 105.658C516.253 102.635 516.549 99.7156 517.118 97.1156C518.131 92.5006 520.009 88.8826 522.632 87.4516C523.98 86.7136 527.068 86.5716 530.606 86.7086C537.829 86.9896 546.922 88.4466 546.922 88.4466C546.922 88.4466 547.317 88.6236 548.018 88.9266C548.904 89.3106 550.272 89.8976 551.935 90.5806C553.013 91.0246 554.213 91.5056 555.485 91.9986C558.046 92.9936 560.895 94.0326 563.601 94.8816C563.694 94.9126 563.791 94.9416 563.887 94.9726C565.578 95.4946 566.692 96.4426 567.372 97.6836C568.083 98.9806 568.311 100.602 568.218 102.388Z" fill="#454BC7"/>
<path d="M509.831 177.747C509.831 177.747 492.949 238.522 490.612 260.079C487.504 288.741 501.335 349.303 504.118 353.059C509.312 360.071 528.272 360.331 530.09 348.384C531.908 336.437 521.259 276.181 524.376 266.312C527.493 256.443 549.05 168.137 549.05 168.137C537.373 162.977 523.946 168.305 509.831 177.747Z" fill="#272327"/>
<path d="M491.416 261.448C495.061 263.289 499.165 263.731 503.116 262.694C503.601 262.567 503.395 261.815 502.909 261.943C499.166 262.926 495.265 262.521 491.809 260.776C491.363 260.549 490.968 261.221 491.416 261.448Z" fill="#44584F"/>
<path d="M534.519 209.459C532.285 216.774 529.384 223.88 526.737 231.05C523.604 239.535 520.625 248.112 518.553 256.926C517.584 261.048 516.814 265.23 516.421 269.449C515.929 274.729 516.169 280.046 516.719 285.311C517.841 296.057 519.744 306.724 521.067 317.448C522.567 329.602 523.787 341.79 524.736 353.999C524.775 354.496 525.554 354.5 525.515 353.999C524.678 343.241 523.633 332.5 522.369 321.784C521.11 311.107 519.438 300.494 518.036 289.837C517.345 284.582 516.837 279.285 516.946 273.979C517.043 269.277 517.706 264.615 518.664 260.015C520.498 251.209 523.353 242.64 526.413 234.194C529.371 226.029 532.732 217.977 535.27 209.665C535.417 209.186 534.665 208.98 534.519 209.459Z" fill="#44584F"/>
<path d="M523.113 138.664L523.262 139.512L523.77 142.413L524.742 147.971C543.374 155.146 558.924 145.688 558.924 145.688C558.549 144.863 558.327 143.673 558.203 142.413C558.021 140.601 558.036 138.648 558.075 137.443C558.096 136.726 558.127 136.272 558.127 136.272L523.113 138.664Z" fill="#DE7878"/>
<path d="M523.263 139.512L523.771 142.413C533.11 143.816 544.781 143.69 558.205 142.413C558.023 140.601 558.038 138.648 558.077 137.443L523.263 139.512Z" fill="#9E4950"/>
<path d="M553.42 149.043C553.42 149.043 571.63 155.758 572.418 175.992C573.206 196.226 566.282 272.761 565.337 287.525C564.426 301.762 561.822 335.046 560.617 350.304C560.27 354.695 556.484 358.008 552.085 357.768L539.736 357.095C535.273 356.852 531.847 353.046 532.073 348.582C533.754 315.453 539.999 191.196 539.626 180.944C539.195 169.105 540.056 154.683 540.056 154.683L553.42 149.043Z" fill="#272327"/>
<path d="M554.095 357.827C549.193 358.133 544.169 358.273 539.31 357.44C539.058 357.397 539.165 357.013 539.416 357.056C544.235 357.883 549.233 357.733 554.095 357.429C554.351 357.412 554.35 357.811 554.095 357.827Z" fill="#44584F"/>
<path d="M556.142 259.971C551.621 261.833 546.483 261.663 542.081 259.549C541.773 259.401 542.041 258.943 542.348 259.09C546.628 261.145 551.615 261.265 556.001 259.459C556.316 259.329 556.454 259.843 556.142 259.971Z" fill="#44584F"/>
<path d="M564.652 156.938C564.652 156.938 561.151 151.415 558.926 144.007C558.926 144.007 545.622 150.211 523.962 146.674C523.962 146.674 516.349 159.142 509.787 177.816C509.787 177.816 559.84 165.914 564.652 156.938Z" fill="#272327"/>
<path d="M551.317 153.17C552.782 163.092 561.102 171.996 571.385 172.445C571.886 172.467 571.885 171.688 571.385 171.666C561.425 171.231 553.481 162.529 552.068 152.963C551.996 152.469 551.245 152.679 551.317 153.17Z" fill="#44584F"/>
<path d="M529.065 153.619C528.485 157.906 527.039 162.245 524.051 165.473C521.252 168.497 517.43 169.938 513.337 169.695C512.836 169.665 512.838 170.444 513.337 170.474C517.507 170.722 521.472 169.273 524.386 166.252C527.606 162.913 529.204 158.347 529.815 153.826C529.883 153.336 529.132 153.124 529.065 153.619Z" fill="#44584F"/>
<path d="M542.159 168.241C541.498 176.291 540.629 184.323 539.969 192.373C539.941 192.711 539.41 192.714 539.438 192.373C540.099 184.323 540.968 176.291 541.628 168.241C541.655 167.902 542.187 167.899 542.159 168.241Z" fill="#44584F"/>
<path d="M538.946 168.847C538.552 171.223 538.28 173.616 538.147 176.021C538.091 177.036 538.009 178.074 538.076 179.09C538.153 180.254 538.989 182.167 540.506 181.394C540.81 181.239 541.079 181.697 540.774 181.853C539.942 182.277 539.011 182.045 538.366 181.379C537.605 180.593 537.525 179.417 537.53 178.384C537.545 175.147 537.904 171.896 538.433 168.706C538.49 168.369 539.002 168.512 538.946 168.847Z" fill="#44584F"/>
<path d="M560.047 150.217C557.996 152.298 554.449 152.568 551.732 153.058C548.254 153.685 544.744 154.167 541.214 154.362C534.65 154.725 527.875 154.105 521.783 151.493C521.47 151.359 521.74 150.901 522.051 151.034C527.945 153.561 534.517 154.166 540.868 153.848C544.296 153.677 547.704 153.23 551.083 152.635C552.628 152.363 554.183 152.092 555.709 151.72C557.137 151.372 558.615 150.912 559.672 149.84C559.912 149.598 560.287 149.974 560.047 150.217Z" fill="#44584F"/>
<path d="M520.251 138.379C526.755 139.005 533.192 138.748 539.699 138.355C546.31 137.955 552.931 137.738 559.54 137.302C559.881 137.28 559.88 137.811 559.54 137.833C552.931 138.27 546.31 138.487 539.699 138.886C533.192 139.279 526.755 139.536 520.251 138.91C519.913 138.878 519.91 138.346 520.251 138.379Z" fill="#1E227E"/>
<path d="M512.154 109.49C513.615 109.451 514.993 109.083 516.29 108.461C518.739 107.292 520.893 105.227 522.742 102.799C527.01 97.2005 529.667 89.6675 530.606 86.7095C527.067 86.5715 523.98 86.7145 522.631 87.4515C520.008 88.8825 518.131 92.4996 517.119 97.1146L512.154 109.49Z" fill="#DE7878"/>
<path d="M557.765 117.724C555.854 124.907 554.989 132.324 555.192 139.754C555.202 140.096 554.67 140.096 554.661 139.754C554.456 132.278 555.33 124.809 557.253 117.583C557.34 117.253 557.853 117.393 557.765 117.724Z" fill="#1E227E"/>
<path d="M543.197 97.5245C541.045 99.5695 537.754 100.261 534.996 99.0825C532.241 97.9065 530.461 95.0495 530.452 92.0835C530.451 91.7415 530.982 91.7405 530.983 92.0835C530.992 94.8425 532.64 97.4965 535.203 98.5925C537.763 99.6875 540.823 99.0485 542.822 97.1495C543.07 96.9135 543.446 97.2885 543.197 97.5245Z" fill="#1E227E"/>
<path d="M519.668 98.4047C520.457 104.406 515.574 108.831 513.644 114.065C512.623 116.835 512.564 119.892 513.596 122.671C514.636 125.473 516.749 127.616 518.558 129.929C520.314 132.175 520.551 134.805 520.416 137.568C520.399 137.908 519.868 137.91 519.885 137.568C519.952 136.189 519.974 134.786 519.672 133.43C519.35 131.984 518.628 130.848 517.707 129.709C516.058 127.67 514.247 125.699 513.247 123.236C512.263 120.812 512.045 118.089 512.643 115.541C513.275 112.845 514.782 110.476 516.178 108.123C517.929 105.172 519.603 101.947 519.138 98.4067C519.093 98.0667 519.624 98.0697 519.668 98.4047Z" fill="#1E227E"/>
<path d="M515.86 108.658C516.004 108.596 516.148 108.531 516.288 108.462C516.419 108.4 516.549 108.334 516.68 108.266C518.484 105.203 520.154 102.105 519.667 98.4048C519.621 98.0678 519.092 98.0648 519.134 98.4048C519.591 101.876 517.993 105.043 516.277 107.949C516.244 108.008 516.208 108.063 516.176 108.122C516.073 108.302 515.965 108.478 515.86 108.658Z" fill="#9E4950"/>
<path d="M548.02 90.6815C545.401 93.9175 533.429 99.5095 533.016 91.1925L533.987 86.7845L535.046 81.9745L535.787 78.6065L546.336 73.0935L548.02 90.6815Z" fill="#DE7878"/>
<path d="M543.862 78.5625C539.158 86.7685 534.806 89.5655 533.429 89.3195L535.068 81.8775L543.862 78.5625Z" fill="#272327"/>
<path d="M549.889 70.9166C548.58 74.1736 547.518 75.1836 544.715 78.1966C542.213 80.8846 538.275 81.9776 536.321 81.9386C529.222 81.7956 526.233 78.6156 528.058 69.1516C529.192 63.2746 527.884 59.8016 529.62 57.6616H529.623C529.735 57.5666 529.847 57.4736 529.959 57.3836C532.658 55.2186 536.126 54.2446 539.573 54.5556C556.701 56.1006 551.768 66.2426 549.889 70.9166Z" fill="#DE7878"/>
<path d="M551.401 69.8856C551.401 69.8856 547.462 70.5526 545.615 69.0086C543.769 67.4656 545.597 64.6336 543.859 64.6836C537.779 64.8596 544.142 59.5236 541.655 59.7666C539.167 60.0096 536.022 61.4806 533.711 61.1126C533.711 61.1126 535.848 59.8106 535.864 58.3036C535.864 58.3036 530.457 62.1176 527.757 61.5646C527.757 61.5646 528.826 55.7606 534.392 54.0366C539.957 52.3126 550.128 54.2466 552.726 57.3306C555.324 60.4166 551.401 69.8856 551.401 69.8856Z" fill="#272327"/>
<path d="M532.236 77.1767C532.906 77.4987 533.65 77.5957 534.28 77.1377C534.6 76.9057 534.225 76.4217 533.906 76.6537C533.456 76.9807 532.936 76.8347 532.473 76.6127C532.116 76.4407 531.882 77.0067 532.236 77.1767Z" fill="#9E4950"/>
<path d="M541.026 70.9495C540.961 71.4575 540.118 71.7676 539.144 71.6426C538.17 71.5176 537.432 71.0056 537.498 70.4976C537.563 69.9896 538.406 69.6795 539.38 69.8045C540.354 69.9285 541.091 70.4415 541.026 70.9495Z" fill="#9E4950"/>
<path d="M530.866 70.1765C530.801 70.6855 529.958 70.9955 528.985 70.8705C528.526 70.8115 528.12 70.6665 527.827 70.4775C527.894 70.0495 527.97 69.6075 528.058 69.1515C528.06 69.1325 528.065 69.1135 528.067 69.0965C528.389 69.0055 528.793 68.9775 529.22 69.0315C530.193 69.1575 530.931 69.6695 530.866 70.1765Z" fill="#9E4950"/>
<path d="M537.768 67.2755C537.707 67.7525 537.367 68.1025 537.009 68.0565C536.651 68.0105 536.41 67.5865 536.471 67.1095C536.532 66.6325 536.872 66.2825 537.23 66.3285C537.588 66.3735 537.829 66.7985 537.768 67.2755Z" fill="#272327"/>
<path d="M531.922 66.7946C531.861 67.2716 531.521 67.6216 531.163 67.5756C530.805 67.5296 530.564 67.1056 530.625 66.6276C530.686 66.1506 531.026 65.8006 531.384 65.8466C531.742 65.8936 531.983 66.3176 531.922 66.7946Z" fill="#272327"/>
<path d="M537.049 64.6947C537.772 64.5197 538.675 64.7557 538.876 65.5667C539.063 66.3237 540.278 66.1607 540.089 65.3937C539.736 63.9647 538.314 63.1337 536.877 63.4827C536.118 63.6657 536.281 64.8807 537.049 64.6947Z" fill="#272327"/>
<path d="M530.015 64.8506C530.555 64.3336 531.248 63.5766 532.068 63.8936C532.803 64.1776 533.277 63.0476 532.541 62.7636C531.235 62.2606 530.179 63.0096 529.267 63.8816C528.702 64.4216 529.445 65.3956 530.015 64.8506Z" fill="#272327"/>
<path d="M533.115 71.2677C533.376 71.3597 533.689 71.4337 534.053 71.4607C534.219 71.4737 534.363 71.3487 534.376 71.1837C534.388 71.0177 534.263 70.8737 534.098 70.8607C533.521 70.8177 533.109 70.6397 532.859 70.4917C533.793 69.7037 534.237 68.5067 534.257 68.4497C534.314 68.2937 534.233 68.1217 534.077 68.0647C533.929 68.0097 533.748 68.0877 533.691 68.2447C533.686 68.2577 533.187 69.5987 532.192 70.2387C532.116 70.2877 532.066 70.3687 532.056 70.4587C532.046 70.5487 532.077 70.6387 532.14 70.7027C532.16 70.7217 532.486 71.0457 533.115 71.2677Z" fill="#272327"/>
<path d="M530.476 72.3967C530.476 72.3967 532.739 73.0977 536.989 72.5447C536.989 72.5447 536.164 76.3247 533.063 75.9097C530.432 75.5567 530.476 72.3967 530.476 72.3967Z" fill="white"/>
<path d="M542.874 72.7587C542.614 71.4757 543.014 70.1517 543.863 69.1547C544.963 67.8637 546.941 65.9137 548.546 66.3457C550.905 66.9807 550.922 69.1517 550.413 71.2967C549.904 73.4417 548.116 76.1097 545.177 75.2737C543.708 74.8557 543.087 73.8097 542.874 72.7587Z" fill="#DE7878"/>
<path d="M546.185 72.8746C546.16 71.9716 546.197 71.0326 546.617 70.2106C546.992 69.4756 547.96 68.4536 548.908 68.8756C549.226 69.0166 549.501 68.5466 549.181 68.4036C548.268 67.9976 547.311 68.4626 546.676 69.1666C545.759 70.1826 545.605 71.5706 545.641 72.8826C545.65 73.2326 546.195 73.2266 546.185 72.8746Z" fill="#272327"/>
<path d="M436.12 68.3641L428.421 82.0466L592.49 174.37L600.19 160.687L436.12 68.3641Z" fill="#E59C25"/>
<path d="M596.773 159.211L589.818 171.571L604.686 179.937L611.641 167.577L596.773 159.211Z" fill="#A5BBD7"/>
<path d="M575.821 162.357C572.33 156.723 566.941 152.379 560.614 150.354C556.491 149.036 552.117 148.673 547.862 149.259L546.845 148.687C548.699 148.367 550.587 148.229 552.475 148.275C559.169 148.438 565.699 150.868 570.753 155.286C574.29 158.376 577.04 162.302 578.762 166.647L577.765 166.086C577.211 164.8 576.56 163.554 575.821 162.357Z" fill="#A8681B"/>
<path d="M527.753 137.944L527.077 137.564C529.3 135.772 531.954 134.532 534.77 133.945C538.233 133.223 541.895 133.487 545.163 134.878C549.757 136.834 553.194 140.6 557.226 143.419C563.002 147.459 570.272 148.964 577.131 147.717L578.08 148.251C575.338 148.848 572.511 149.015 569.699 148.739C565.796 148.356 561.965 147.163 558.591 145.153C554.369 142.638 551.037 138.88 546.755 136.462C540.723 133.059 533.091 133.797 527.753 137.944Z" fill="#A8681B"/>
<path d="M519.096 123.63C515.851 120.495 513.774 116.245 513.282 111.787L514.059 112.224C514.852 117.845 518.228 123.063 523.256 125.838C528.196 128.563 534.277 128.678 539.395 126.481L540.179 126.922C538.378 127.762 536.449 128.316 534.462 128.572C528.885 129.285 523.163 127.554 519.096 123.63Z" fill="#A8681B"/>
<path d="M515.726 131.177L515.104 130.827C515.197 127.896 513.08 124.652 511.198 122.608C508.363 119.534 504.854 117.106 502.397 113.684C500.515 111.06 499.253 107.603 500.109 104.375L500.797 104.762C500.59 105.579 500.516 106.436 500.588 107.277C500.942 111.494 503.927 114.772 506.876 117.517C509.767 120.211 513.029 122.803 514.78 126.439C515.489 127.907 515.873 129.591 515.726 131.177Z" fill="#A8681B"/>
<path d="M487.524 107.459C483.375 105.105 478.097 105.336 474.048 107.724L473.341 107.326C477.65 104.622 483.382 104.285 487.873 106.839C492.328 109.371 494.966 114.407 494.89 119.452L494.181 119.053C494.12 114.396 491.634 109.79 487.524 107.459Z" fill="#A8681B"/>
<path d="M459.452 99.5097L458.854 99.1737C460.786 94.9997 465.346 92.2707 470.262 93.2097C474.19 93.9637 477.43 96.6257 481.374 97.4107C483.3 97.7947 485.299 97.8687 487.243 97.6097C487.455 97.5817 487.674 97.5447 487.899 97.5027L488.796 98.0077C488.012 98.2197 487.205 98.3427 486.46 98.4057C482.748 98.7177 479.231 97.8227 475.905 96.2207C472.135 94.4017 468.409 92.7587 464.29 94.5977C462.061 95.5937 460.388 97.3767 459.452 99.5097Z" fill="#A8681B"/>
<path d="M453.726 87.6446C453.364 87.3646 453.869 86.8626 454.229 87.1386C457.007 89.2836 460.776 89.9866 464.123 88.8766C465.654 88.3666 467.017 87.4976 468.133 86.3806L468.772 86.7396C467.544 88.0086 466.027 88.9916 464.315 89.5616C460.709 90.7586 456.706 89.9426 453.726 87.6446Z" fill="#A8681B"/>
<path d="M583.707 155.748C584.141 154.517 584.758 153.411 585.52 152.435L586.138 152.783C585.403 153.706 584.808 154.754 584.398 155.919C582.828 160.368 584.542 165.464 588.856 167.603C589.267 167.807 588.916 168.426 588.507 168.223C583.927 165.955 582.039 160.483 583.707 155.748Z" fill="#A8681B"/>
<path d="M579.909 144.303L581.562 150.209L589.821 154.856L586.945 144.58L533.206 114.34L522.646 117.055L527.109 119.567L533.299 118.075L579.909 144.303Z" fill="#272327"/>
<path d="M593.812 176.351L602.566 160.793L593.078 155.454L584.323 171.011L593.812 176.351Z" fill="#272327"/>
<path d="M443.153 90.3392L450.852 76.6575L436.119 68.3673L428.42 82.0489L443.153 90.3392Z" fill="#272327"/>
<path d="M450.804 94.6465L458.503 80.9648L455.809 79.449L448.11 93.1307L450.804 94.6465Z" fill="#272327"/>
<path d="M428.421 82.0487L414.842 67.8197L411.146 63.9487C410.755 63.5407 411.131 62.8727 411.683 62.9937L416.867 64.1337L436.12 68.3667L428.421 82.0487Z" fill="#A5BBD7"/>
<path d="M414.842 67.8197L411.146 63.9487C410.755 63.5407 411.131 62.8727 411.683 62.9937L416.867 64.1337C416.269 65.3617 415.571 66.6297 414.842 67.8197Z" fill="#272327"/>
<path d="M576.256 146.894L565.851 151.414L563.694 144.477L573.384 137.208L576.256 146.894Z" fill="#DE7878"/>
<path d="M569.425 149.765C569.14 148.129 568.121 146.715 566.704 145.848C565.299 144.989 564.041 144.252 561.658 144.278C560.331 144.293 552.589 146.375 551.68 147.603C550.772 148.831 557.769 148.126 557.769 148.126C557.769 148.126 551.457 150.414 552.098 151.424C552.739 152.434 559.533 150.767 559.533 150.767C559.533 150.767 555.411 152.872 555.044 153.76C554.442 155.214 561.397 152.973 561.397 152.973C561.397 152.973 558.622 156.084 558.981 156.837C559.34 157.59 563.981 157.774 563.981 156.871C563.98 155.825 562.403 156.141 562.237 155.954C562.059 155.754 565.24 154.933 566.597 154.382C569.311 153.281 569.707 151.385 569.425 149.765Z" fill="#DE7878"/>
<path d="M561.802 123.296L571.54 134.411L566.48 138.329C570.128 143.747 574.053 148.978 577.608 154.458C580.596 151.364 584.871 146.922 589.621 141.945C598.663 132.473 594.788 127.737 587.685 118.697C582.765 112.436 574.919 104.764 570.558 100.639C568.622 98.8056 567.373 97.6736 567.373 97.6736L567.37 97.6826L565.562 104.096L560.55 121.866L561.802 123.296Z" fill="#454BC7"/>
<path d="M570.558 100.641C569.875 101.184 569.085 101.779 568.218 102.389C567.4 102.958 566.553 103.618 565.561 104.098C561.517 106.064 556.063 107.882 551.648 105.545C546.266 102.696 551.339 96.5915 555.484 91.9995C558.045 92.9945 560.894 94.0335 563.6 94.8825C563.693 94.9135 563.79 94.9425 563.886 94.9735C565.577 95.4955 566.691 96.4435 567.371 97.6845L567.374 97.6745C567.374 97.6745 568.623 98.8065 570.558 100.641Z" fill="#DE7878"/>
<path d="M571.547 133.929C574.645 131.166 577.743 128.403 580.841 125.641C581.095 125.414 581.473 125.789 581.217 126.017C578.119 128.78 575.021 131.543 571.923 134.306C571.669 134.532 571.292 134.158 571.547 133.929Z" fill="#1E227E"/>
<path d="M561.589 123.481C558.468 119.594 555.348 115.706 552.227 111.819C552.015 111.555 552.388 111.178 552.603 111.444C555.723 115.331 558.844 119.219 561.965 123.106C562.176 123.371 561.803 123.748 561.589 123.481Z" fill="#1E227E"/>
<path d="M554.735 114.813C554.129 114.813 553.523 114.813 552.917 114.813C552.575 114.813 552.574 114.281 552.917 114.281C553.523 114.281 554.129 114.281 554.735 114.281C555.077 114.28 555.077 114.813 554.735 114.813Z" fill="#1E227E"/>
<path d="M546.739 81.6767C546.886 81.6767 547.005 81.5577 547.005 81.4107V73.0927C547.005 72.9457 546.886 72.8267 546.739 72.8267C546.592 72.8267 546.473 72.9457 546.473 73.0927V81.4107C546.473 81.5577 546.592 81.6767 546.739 81.6767Z" fill="white"/>
<path d="M544.603 83.1796L545.993 85.2776C546.346 85.8106 547.129 85.8106 547.482 85.2776L548.873 83.1796C549.062 82.8946 549.071 82.5266 548.897 82.2316L547.506 79.8816C547.16 79.2976 546.315 79.2976 545.97 79.8816L544.579 82.2316C544.405 82.5266 544.414 82.8946 544.603 83.1796Z" fill="white"/>
<path d="M471.269 106.257C471.269 106.257 475.462 102.053 476.97 102.331C478.478 102.609 474.85 107.457 474.85 107.457C474.85 107.457 477.39 105.038 478.607 105.062C479.824 105.087 477.477 108.99 477.477 108.99C477.477 108.99 479.24 107.443 480.162 108.34C481.084 109.236 480.731 110.176 479.973 111.279C479.215 112.382 477.915 112.856 477.19 112.817C476.465 112.779 475.915 111.508 475.915 111.508C475.915 111.508 473.518 112.175 472.889 111.596C472.26 111.016 472.333 110.183 472.333 110.183C472.333 110.183 471.436 110.761 470.473 110.254C469.51 109.747 469.465 108.955 469.465 108.955C469.465 108.955 467.53 108.137 466.579 107.502C465.628 106.868 466.5 104.906 466.92 103.598C467.34 102.289 470.555 102.673 472.302 101.688C472.302 101.688 473.452 101.476 473.155 102.746C472.857 104.016 470.406 104.709 470.065 105.074C469.723 105.439 471.269 106.257 471.269 106.257Z" fill="#DE7878"/>
<path d="M504.562 359.178C509.062 359.664 513.568 359.26 517.912 357.99C518.374 357.855 518.178 357.131 517.713 357.267C513.429 358.52 508.999 358.908 504.563 358.428C504.082 358.377 504.086 359.127 504.562 359.178Z" fill="#44584F"/>
<path d="M389.402 364.132V392.155H233.002C225.297 392.117 219.061 385.859 219.061 378.143C219.061 374.273 220.631 370.772 223.165 368.237C225.701 365.701 229.205 364.133 233.073 364.133L389.402 364.132Z" fill="#8B1B2E"/>
<path d="M409.547 392.155H250.512C244.269 392.155 239.208 387.094 239.208 380.851V375.435C239.208 369.192 244.269 364.131 250.512 364.131H409.547V392.155Z" fill="#C9333E"/>
<path d="M409.546 386.792H260.092C255.437 386.792 251.664 383.019 251.664 378.364V377.923C251.664 373.268 255.437 369.495 260.092 369.495H409.546V386.792Z" fill="white"/>
<path d="M408.795 383.137H261.369C261.179 383.137 261.025 382.983 261.025 382.792C261.025 382.602 261.179 382.448 261.369 382.448H408.795C408.985 382.448 409.139 382.602 409.139 382.792C409.139 382.983 408.985 383.137 408.795 383.137Z" fill="#272327"/>
<path d="M408.795 378.424H261.369C261.179 378.424 261.025 378.27 261.025 378.08C261.025 377.89 261.179 377.736 261.369 377.736H408.795C408.985 377.736 409.139 377.89 409.139 378.08C409.139 378.27 408.985 378.424 408.795 378.424Z" fill="#272327"/>
<path d="M408.795 373.839H261.369C261.179 373.839 261.025 373.685 261.025 373.495C261.025 373.305 261.179 373.151 261.369 373.151H408.795C408.985 373.151 409.139 373.305 409.139 373.495C409.139 373.684 408.985 373.839 408.795 373.839Z" fill="#272327"/>
<path d="M251.664 378.488C251.474 378.488 251.32 378.334 251.32 378.144C251.32 373.185 255.354 369.151 260.313 369.151H327.029C327.219 369.151 327.373 369.305 327.373 369.495C327.373 369.685 327.219 369.839 327.029 369.839H260.313C255.734 369.839 252.009 373.564 252.009 378.143C252.008 378.334 251.854 378.488 251.664 378.488Z" fill="#272327"/>
<path d="M409.547 387.136H341.897C341.707 387.136 341.553 386.982 341.553 386.792C341.553 386.602 341.707 386.448 341.897 386.448H409.547C409.737 386.448 409.891 386.602 409.891 386.792C409.891 386.982 409.737 387.136 409.547 387.136Z" fill="#272327"/>
<path d="M410.959 364.132H254.989C247.251 364.132 240.977 357.859 240.977 350.12C240.977 342.381 247.25 336.108 254.989 336.108H410.959C411.156 336.108 411.316 336.268 411.316 336.466V363.775C411.316 363.972 411.156 364.132 410.959 364.132Z" fill="#1E227E"/>
<path d="M431.604 364.132H272.857C266.614 364.132 261.553 359.071 261.553 352.828V347.412C261.553 341.169 266.614 336.108 272.857 336.108H431.604C431.763 336.108 431.892 336.237 431.892 336.397V363.844C431.892 364.003 431.763 364.132 431.604 364.132Z" fill="#454BC7"/>
<path d="M431.892 358.77H282.438C277.783 358.77 274.01 354.997 274.01 350.342V349.901C274.01 345.246 277.783 341.473 282.438 341.473H431.892V358.77Z" fill="white"/>
<path d="M430.884 355.114H282.657C282.467 355.114 282.313 354.96 282.313 354.77C282.313 354.58 282.467 354.426 282.657 354.426H430.883C431.073 354.426 431.227 354.58 431.227 354.77C431.228 354.959 431.074 355.114 430.884 355.114Z" fill="#272327"/>
<path d="M430.884 350.401H282.657C282.467 350.401 282.313 350.247 282.313 350.057C282.313 349.867 282.467 349.713 282.657 349.713H430.883C431.073 349.713 431.227 349.867 431.227 350.057C431.228 350.246 431.074 350.401 430.884 350.401Z" fill="#272327"/>
<path d="M430.884 345.815H282.657C282.467 345.815 282.313 345.661 282.313 345.471C282.313 345.281 282.467 345.127 282.657 345.127H430.883C431.073 345.127 431.227 345.281 431.227 345.471C431.228 345.661 431.074 345.815 430.884 345.815Z" fill="#272327"/>
<path d="M383.417 336.055H232.983C226.74 336.055 221.679 330.994 221.679 324.751V319.335C221.679 313.092 226.74 308.031 232.983 308.031H383.417C388.167 308.031 392.019 311.882 392.019 316.633V327.453C392.018 332.204 388.167 336.055 383.417 336.055Z" fill="#A8681B"/>
<path d="M412.594 336.055H253.558C247.315 336.055 242.254 330.994 242.254 324.751V319.335C242.254 313.092 247.315 308.031 253.558 308.031H412.593V336.055H412.594Z" fill="#E59C25"/>
<path d="M412.594 330.692H263.139C258.484 330.692 254.711 326.919 254.711 322.264V321.823C254.711 317.168 258.484 313.395 263.139 313.395H412.593V330.692H412.594Z" fill="white"/>
<path d="M411.587 327.037H263.36C263.17 327.037 263.016 326.883 263.016 326.693C263.016 326.503 263.17 326.349 263.36 326.349H411.587C411.777 326.349 411.931 326.503 411.931 326.693C411.931 326.883 411.777 327.037 411.587 327.037Z" fill="#272327"/>
<path d="M411.587 322.324H263.36C263.17 322.324 263.016 322.17 263.016 321.98C263.016 321.79 263.17 321.636 263.36 321.636H411.587C411.777 321.636 411.931 321.79 411.931 321.98C411.931 322.17 411.777 322.324 411.587 322.324Z" fill="#272327"/>
<path d="M411.587 317.739H263.36C263.17 317.739 263.016 317.585 263.016 317.395C263.016 317.205 263.17 317.051 263.36 317.051H411.587C411.777 317.051 411.931 317.205 411.931 317.395C411.931 317.585 411.777 317.739 411.587 317.739Z" fill="#272327"/>
<path d="M285.243 264.781L314.054 272.807L368.4 308.339H281.583L285.243 264.781Z" fill="#201129"/>
<path d="M338.41 266.521L370.462 280.849C370.462 280.849 379.396 298.526 368.4 308.339H331.661L338.41 266.521Z" fill="#201129"/>
<path d="M300.021 268.897C300.021 268.897 306.705 258.146 317.824 258.146C328.943 258.146 335.291 268.897 335.291 268.897C335.291 268.897 320.12 282.397 300.021 268.897Z" fill="#454BC7"/>
<path d="M306.834 269.855C306.834 269.855 310.936 263.257 317.76 263.257C324.584 263.257 328.479 269.855 328.479 269.855C328.479 269.855 319.168 278.14 306.834 269.855Z" fill="#E59C25"/>
<path d="M279.456 308.441C291.723 308.441 301.668 298.496 301.668 286.229C301.668 273.961 291.723 264.017 279.456 264.017C267.189 264.017 257.244 273.961 257.244 286.229C257.244 298.496 267.189 308.441 279.456 308.441Z" fill="#454BC7"/>
<path d="M279.457 301.568C270.998 301.568 264.117 294.686 264.117 286.229C264.117 277.77 270.999 270.889 279.457 270.889C287.916 270.889 294.797 277.771 294.797 286.229C294.797 294.686 287.916 301.568 279.457 301.568Z" fill="white"/>
<path d="M328.355 308.441C340.622 308.441 350.567 298.496 350.567 286.229C350.567 273.961 340.622 264.017 328.355 264.017C316.087 264.017 306.143 273.961 306.143 286.229C306.143 298.496 316.087 308.441 328.355 308.441Z" fill="#454BC7"/>
<path d="M328.355 301.569C319.896 301.569 313.015 294.687 313.015 286.23C313.015 277.771 319.897 270.89 328.355 270.89C336.814 270.89 343.695 277.772 343.695 286.23C343.696 294.687 336.814 301.569 328.355 301.569Z" fill="white"/>
<path d="M353.219 273.764C360.117 283.417 360.783 298.406 353.289 307.94C352.935 308.39 353.567 309.03 353.924 308.576C361.659 298.735 361.15 283.324 353.994 273.311C353.662 272.844 352.882 273.292 353.219 273.764Z" fill="#E59C25"/>
</svg>
