<svg width="784" height="220" viewBox="0 0 784 220" fill="none" xmlns="http://www.w3.org/2000/svg">
<g clip-path="url(#clip0_458_1067)">
<g clip-path="url(#clip1_458_1067)">
<path d="M783.745 -37.2585H0.253906V257.259H783.745V-37.2585Z" fill="#333333"/>
<mask id="mask0_458_1067" style="mask-type:luminance" maskUnits="userSpaceOnUse" x="151" y="6" width="227" height="252">
<path d="M377.628 6.72632H151.896V257.259H377.628V6.72632Z" fill="white"/>
</mask>
<g mask="url(#mask0_458_1067)">
<path d="M241.036 98.748C241.036 98.748 239.73 96.6958 237.233 97.1707L237.002 99.2729L239.019 99.928L241.036 98.748Z" fill="#252525"/>
<path d="M316.273 164.977L326.5 176.776C329.015 179.678 332.468 181.667 336.288 182.265C340.123 182.866 345.063 182.539 350.018 179.148C350.018 179.148 356.401 173.927 355.623 161.564L330.732 149.402L316.273 164.977Z" fill="#E1A591"/>
<path d="M328.826 158.005L319.492 168.691L316.273 164.977L326.861 155.699L328.826 158.005Z" fill="#252525"/>
<path d="M308.22 101.843C308.22 101.843 313.894 103.364 321.214 113.851C328.535 124.338 342.353 145.856 342.353 145.856L314.991 168.503L311.498 163.044L304.56 123.48L308.22 101.843Z" fill="#FFCC33"/>
<path d="M349.583 99.1586L355.623 161.564L339.517 169.904L328.737 159.435L330.731 101.843L343.727 99.1586H349.583Z" fill="#E1A591"/>
<path d="M330.731 101.843C330.731 101.843 328.902 95.2269 326.247 89.5311C323.594 83.8352 325.79 68.5562 325.79 68.5562C325.79 68.5562 329.084 67.4715 330.731 73.7999C332.379 80.1282 331.006 79.4051 333.752 82.389C336.497 85.3729 336.314 88.5371 336.314 88.5371L330.731 101.843Z" fill="#E1A591"/>
<path d="M331.098 79.5854L334.759 54.3617C334.759 54.3617 337.687 52.1019 338.511 58.973C339.335 65.8441 339.426 69.7767 339.426 69.7767L343.636 54.0059C343.636 54.0059 346.839 51.9744 346.107 60.6268C345.375 69.2792 345.009 73.3477 345.009 73.3477L350.866 60.2389C350.866 60.2389 354.435 60.0586 351.598 69.7767C351.598 69.7767 349.768 78.5008 349.585 82.9309C349.585 82.9309 356.448 74.252 357.821 72.9862C359.194 71.7203 359.468 76.0597 356.815 80.9419C354.162 85.8241 350.134 97.4859 349.586 99.1586C349.037 100.831 339.154 105.985 339.154 105.985L330.735 101.843L331.098 79.5854Z" fill="#E1A591"/>
<path d="M336.292 87.881C335.779 85.8146 334.91 83.9399 333.752 82.2483C332.566 80.5728 330.981 78.5971 331.336 76.4241C331.74 78.5508 333.259 80.014 334.495 81.7499C335.693 83.5425 336.499 85.7183 336.292 87.881Z" fill="#252525"/>
<path d="M344.252 79.8913C343.892 77.6485 344.141 75.4518 345.007 73.3468C345.372 75.5906 345.114 77.7863 344.252 79.8913Z" fill="#252525"/>
<path d="M339.425 69.7767C339.875 72.5416 339.715 75.2885 338.933 77.9817C338.478 75.2159 338.648 72.4699 339.425 69.7767Z" fill="#252525"/>
<path d="M328.969 152.729C329.712 155.819 329.639 158.896 328.737 161.948C327.987 158.874 328.074 155.765 328.969 152.729Z" fill="#252525"/>
<path d="M207.054 163.214L183.581 147.89L169.306 171.622L183.032 188.647L196.484 179.349L207.054 163.214Z" fill="#E1A591"/>
<path d="M214.741 194.568L196.485 179.349L169.306 171.621C169.306 171.621 164.09 179.635 171.503 188.647C178.915 197.659 213.232 221.527 213.232 221.527L214.741 194.568Z" fill="#E1A591"/>
<path d="M196.484 179.349C194.181 178.408 192.34 176.803 191.132 174.65C193.472 175.616 195.239 177.172 196.484 179.349Z" fill="#252525"/>
<path d="M202.626 169.974L179.24 155.107L183.582 147.89L207.054 163.214L202.626 169.974Z" fill="#252525"/>
<path d="M218.721 102.821C218.721 102.821 210.119 106.619 200.053 119.095C189.987 131.572 177.358 149.403 177.358 149.403L207.74 171.623L214.908 159.408L224.578 126.69L218.721 102.821Z" fill="#FFCC33"/>
<path d="M273.538 88.4455V97.1252H258.347V85.1907L273.538 88.4455Z" fill="#E1A591"/>
<path d="M281.224 97.1253L273.538 95.5885L258.346 94.6842L249.928 97.1253C249.928 97.1253 252.948 106.708 264.935 108.788C276.924 110.868 281.224 97.1253 281.224 97.1253Z" fill="#E1A591"/>
<path d="M273.538 92.514C273.538 92.514 264.616 96.085 258.347 89.7566V85.1907L273.538 88.4455V92.514Z" fill="#252525"/>
<path d="M308.22 101.843L281.224 97.1252C281.224 97.1252 270.883 112.224 249.927 97.1252L218.722 102.821L208.656 252.176H316.274L308.22 101.843Z" fill="#FFCC33"/>
<path d="M296.69 135.173H275.276C275.276 135.173 270.518 161.315 285.984 161.315C301.448 161.315 296.69 135.173 296.69 135.173Z" fill="#FF6537"/>
<path d="M214.908 159.406C214.353 152.693 214.612 145.996 215.702 139.346C216.263 146.06 215.992 152.756 214.908 159.406Z" fill="#252525"/>
<path d="M311.499 163.043C310.258 155.191 309.827 147.284 310.229 139.346C311.478 147.198 311.894 155.106 311.499 163.043Z" fill="#252525"/>
<path d="M273.537 204.077C261.973 198.096 246.977 187.54 243.186 174.65C243.831 176.321 244.627 177.919 245.575 179.426C252.399 189.952 263.104 197.33 273.537 204.077Z" fill="#252525"/>
<path d="M260.049 200.643C253.103 199.047 246.739 194.617 242.944 188.647C247.716 193.811 253.549 197.88 260.049 200.643Z" fill="#252525"/>
<path d="M282.833 156.94C287.214 156.698 291.178 154.121 292.717 150.03C293.135 149.141 293.402 148.13 293.726 147.199C293.769 153.07 288.867 158.026 282.833 156.94Z" fill="#252525"/>
<path d="M237.232 97.1705C237.232 97.1705 256.232 162.671 310.228 205.119L314.094 211.52L311.497 214.476C311.497 214.476 244.252 186.269 223.113 100.561L237.232 97.1705Z" fill="#029254"/>
<path d="M336.496 239.835L342.536 237.665C342.536 237.665 334.934 216.276 330.739 216.088L331.898 227.961L336.496 239.835Z" fill="#FF6537"/>
<path d="M310.228 205.118C310.228 205.118 319.383 200.824 322.677 209.684C325.972 218.544 339.516 268.088 339.516 268.088L312.28 272.066L311.16 214.521C310.54 211.424 310.228 208.275 310.228 205.118Z" fill="#029254"/>
<path d="M323.456 211.94C323.456 211.94 327.803 209.685 330.548 215.651C333.293 221.618 343.319 261.551 343.319 261.551L335.714 263.662L326.155 229.212L323.456 211.94Z" fill="#029254"/>
<path d="M238.9 60.6268C238.9 60.6268 226.271 42.2468 241.782 36.0091C241.782 36.0091 240.685 23.8037 250.019 21.9053C259.353 20.007 262.235 26.2448 262.235 26.2448C262.235 26.2448 269.785 15.9385 282.139 20.6848C294.493 25.4311 292.571 34.7886 292.571 34.7886C292.571 34.7886 301.767 36.0091 301.631 43.7393C301.493 51.4694 298.474 51.4694 298.474 51.4694C298.474 51.4694 302.042 58.2499 296.964 62.4543C291.886 66.6587 287.081 63.7032 287.081 63.7032L255.784 69.7776L238.9 60.6268Z" fill="#58060A"/>
<path d="M247.901 60.1747C247.901 60.1747 243.235 53.3942 238.979 58.1405C234.724 62.8867 238.293 75.3631 249.137 71.7015L247.901 60.1747Z" fill="#E1A591"/>
<path d="M240.81 60.6267C243.715 61.6547 245.404 65.0048 245.077 67.95C244.137 65.2833 242.888 62.6223 240.81 60.6267Z" fill="#252525"/>
<path d="M240.81 63.7455C241.809 62.9884 243.598 63.1848 244.085 64.4091C242.804 64.2307 242.011 64.2703 240.81 63.7455Z" fill="#252525"/>
<path d="M291.199 50.1129C291.199 50.1129 296.415 92.2883 269.786 90.5259C243.157 88.7635 247.961 55.9447 247.961 55.9447L252.353 36.01L282.69 37.9083L291.199 50.1129Z" fill="#E1A591"/>
<path d="M272.529 61.3234C273.965 65.2304 275.028 69.2366 275.957 73.2815C275.983 73.3929 275.951 73.5052 275.882 73.5883C274.76 74.9571 272.82 75.9133 271.077 75.2261C270.518 75.0411 270.043 74.7031 269.615 74.3425C270.124 74.5908 270.622 74.84 271.162 74.9231C272.743 75.262 274.302 74.3161 275.215 73.1088L275.148 73.4467C274.06 69.4509 273.107 65.4287 272.529 61.3234Z" fill="#252525"/>
<path d="M269.616 80.3094C267.242 81.8113 263.936 80.3916 263.344 77.689C263.117 76.5355 263.165 76.4609 263.749 77.5181C264.974 79.6421 267.092 80.5313 269.616 80.3094Z" fill="#252525"/>
<path d="M286.165 65.1201C284.141 62.7054 281.72 61.5802 278.844 63.3879C278.49 63.6116 278.137 63.8457 277.745 64.0553C277.996 63.7051 278.282 63.3737 278.574 63.0424C281.212 60.354 285.11 61.7256 286.165 65.1201Z" fill="#252525"/>
<path d="M264.294 63.7012C261.983 60.9769 259.432 60.2888 256.445 62.4929C256.086 62.7629 255.725 63.0386 255.326 63.2934C255.577 62.9064 255.862 62.5392 256.152 62.1673C258.8 59.0956 262.954 59.948 264.294 63.7012Z" fill="#252525"/>
<path d="M265.117 56.4544C262.868 54.1247 260.17 52.5596 257.123 54.525C256.74 54.7572 256.38 55.0309 255.966 55.266C256.235 54.8941 256.527 54.5231 256.853 54.1804C259.617 51.3438 263.806 53.1307 265.117 56.4544Z" fill="#252525"/>
<path d="M277.288 56.4543C279.564 53.4997 284.345 52.9749 286.836 55.9474C287.168 56.3307 287.451 56.7507 287.72 57.1651C287.299 56.8782 286.938 56.5497 286.542 56.2721C283.752 54.0953 280.22 54.5994 277.288 56.4543Z" fill="#252525"/>
<path d="M254.142 69.8616C254.048 70.9859 255.687 72.0365 257.802 72.2102C259.917 72.3829 261.71 71.6127 261.804 70.4884C261.897 69.3641 260.258 68.3135 258.143 68.1398C256.028 67.9671 254.236 68.7373 254.142 69.8616Z" fill="#F19389"/>
<path d="M279.557 72.1147C279.462 73.239 281.102 74.2896 283.217 74.4633C285.333 74.6361 287.125 73.8658 287.219 72.7415C287.313 71.6173 285.674 70.5657 283.558 70.393C281.443 70.2193 279.651 70.9905 279.557 72.1147Z" fill="#F19389"/>
<path d="M291.199 50.1129C291.199 50.1129 287.265 43.8912 282.139 44.6058C277.015 45.3213 275.276 48.1239 265.942 42.9708C256.608 37.8177 253.13 42.6093 253.13 42.6093L250.11 66.2056C250.11 66.2056 249.304 62.5562 247.654 59.8433L243.185 51.1069L251.94 31.85L285.341 35.4663L291.198 45.5922L291.199 50.1129Z" fill="#58060A"/>
<path d="M249.238 140.508L244.097 141.38L246.523 136.818L244.095 132.257L249.236 133.127L252.877 129.435L253.628 134.536L258.307 136.815L253.629 139.098L252.88 144.198L249.238 140.508Z" fill="white"/>
<path d="M240.952 131.119C239.735 131.573 239.573 132.113 240.378 133.087C240.615 133.373 240.354 133.81 239.986 133.745C238.75 133.528 238.361 133.912 238.581 135.134C238.646 135.497 238.203 135.755 237.914 135.521C236.929 134.725 236.382 134.886 235.923 136.088C235.782 136.456 235.272 136.456 235.132 136.088C234.672 134.886 234.125 134.725 233.14 135.521C232.851 135.754 232.409 135.497 232.473 135.134C232.693 133.912 232.303 133.528 231.067 133.745C230.699 133.81 230.438 133.373 230.675 133.087C231.481 132.113 231.318 131.573 230.101 131.119C229.729 130.981 229.729 130.477 230.101 130.338C231.318 129.884 231.481 129.344 230.675 128.37C230.439 128.084 230.699 127.647 231.067 127.712C232.303 127.929 232.692 127.545 232.473 126.323C232.409 125.96 232.851 125.702 233.14 125.936C234.125 126.732 234.672 126.571 235.132 125.369C235.272 125.001 235.782 125.001 235.923 125.369C236.382 126.571 236.929 126.732 237.914 125.936C238.203 125.702 238.646 125.96 238.581 126.323C238.361 127.545 238.75 127.929 239.986 127.712C240.354 127.647 240.615 128.084 240.378 128.37C239.573 129.344 239.735 129.884 240.952 130.338C241.324 130.476 241.324 130.981 240.952 131.119Z" fill="#FF6537"/>
</g>
<path d="M253.595 257.259H0.253906V75.6934C61.3605 80.0403 101.946 173.252 164.585 187.325C204.262 196.242 243.412 219.269 253.595 257.259Z" fill="#FF6537"/>
<path d="M299.207 257.259H0.253906V122.355C1.17403 122.329 2.09511 122.31 3.01524 122.291C15.2807 122.033 27.7822 121.932 39.4915 125.537C71.2315 135.312 88.5725 168.779 116.018 187.325C136.228 200.983 161.072 205.94 185.321 209.306C209.571 212.666 234.37 214.831 257.067 223.906C273.979 230.668 289.856 242.123 299.207 257.259Z" fill="#333333"/>
<path d="M139.394 90.3078L133.587 91.507L136.049 103.144L141.856 101.945L139.394 90.3078Z" fill="#FFCC33"/>
<path d="M168.766 37.0995C168.586 36.3802 168.394 35.6703 168.181 34.9633C167.544 32.845 166.751 30.7815 165.814 28.786C165.347 27.7882 164.846 26.8084 164.31 25.8446C163.949 25.2036 163.578 24.5759 163.188 23.9491C162.798 23.3261 162.395 22.7134 161.977 22.1093C161.166 20.9397 160.298 19.807 159.38 18.7139C158.166 17.2687 156.856 15.8961 155.468 14.5982C154.923 14.0941 154.368 13.6042 153.799 13.1237C153.537 12.9066 153.277 12.6914 153.011 12.4761C152.696 12.2269 152.375 11.9673 152.049 11.7238C151.915 11.62 151.778 11.5218 151.644 11.4198C151.18 11.0725 150.711 10.7355 150.233 10.4079C150.225 10.4013 150.219 10.3994 150.212 10.3956C149.704 10.0426 149.183 9.70749 148.662 9.3771C148.555 9.30819 148.451 9.23928 148.338 9.17509C147.114 8.4152 145.846 7.71478 144.532 7.06439C144.124 6.86049 143.715 6.66604 143.297 6.4763C142.995 6.33659 142.694 6.20349 142.388 6.07134C140.12 5.0915 137.743 4.28063 135.269 3.65478C134.997 3.58776 134.725 3.51791 134.449 3.45183C134.259 3.40841 134.068 3.36688 133.877 3.32251L113.3 89.1611L112.533 92.3621C112.72 92.4064 112.911 92.4546 113.099 92.498C116.548 93.3032 119.998 93.7053 123.392 93.7383C124.981 93.7497 126.56 93.6855 128.116 93.542C128.869 93.4693 129.618 93.3815 130.366 93.2777C131.859 93.0653 133.334 92.7793 134.787 92.4291C135.511 92.2525 136.233 92.06 136.949 91.8485C140.165 90.9046 143.256 89.6132 146.178 88.0226C146.827 87.6715 147.465 87.2986 148.095 86.9144C148.723 86.5293 149.349 86.1357 149.957 85.7203C150.876 85.0964 151.768 84.4422 152.639 83.7606C154.017 82.6779 155.332 81.5178 156.58 80.2793C156.907 79.9508 157.238 79.6214 157.559 79.2872C158.068 78.7472 158.567 78.2016 159.049 77.6362C159.296 77.3558 159.534 77.0698 159.772 76.7866C160.241 76.208 160.698 75.6199 161.147 75.0261C161.589 74.4248 162.02 73.8131 162.439 73.1901C163.266 71.945 164.045 70.6537 164.752 69.3142C165.108 68.6478 165.449 67.97 165.774 67.2809C166.095 66.5918 166.404 65.8914 166.696 65.1787C166.985 64.4707 167.258 63.7505 167.516 63.0208C168.029 61.5614 168.471 60.0586 168.84 58.5237C169.207 56.986 169.494 55.4483 169.7 53.9125C169.802 53.1488 169.885 52.3804 169.95 51.6196C170.009 50.8531 170.053 50.0922 170.075 49.3342C170.1 48.5743 170.104 47.8192 170.087 47.0649C170.062 45.5546 169.955 44.0527 169.779 42.5754C169.734 42.2007 169.684 41.8316 169.629 41.4644C169.466 40.3599 169.267 39.2621 169.024 38.1794C168.942 37.8178 168.856 37.4582 168.766 37.0995ZM166.329 41.9316C166.384 42.2762 166.428 42.6207 166.467 42.9625C166.632 44.3397 166.732 45.7302 166.757 47.1263C166.771 47.8305 166.768 48.5318 166.745 49.2398C166.721 49.9384 166.683 50.6473 166.628 51.359C166.569 52.0651 166.49 52.7788 166.396 53.4886C166.205 54.9121 165.939 56.3375 165.598 57.7619C165.256 59.193 164.847 60.5844 164.372 61.9399C164.13 62.6177 163.876 63.287 163.61 63.9411C163.336 64.6029 163.051 65.2542 162.752 65.8933C162.451 66.5333 162.138 67.162 161.804 67.7793C161.147 69.0216 160.426 70.2223 159.656 71.3768C159.269 71.9554 158.869 72.5227 158.458 73.0825C158.044 73.6347 157.618 74.1803 157.181 74.7137C156.961 74.9799 156.738 75.2432 156.513 75.5038C156.065 76.0277 155.601 76.5374 155.127 77.034C154.831 77.3473 154.524 77.6522 154.219 77.9571C153.062 79.1041 151.842 80.1821 150.563 81.1893C149.753 81.8227 148.925 82.4287 148.074 83.0064C147.507 83.3878 146.93 83.7559 146.346 84.1174C145.763 84.4714 145.169 84.815 144.566 85.1454C141.856 86.6227 138.984 87.8206 136.003 88.6966C135.336 88.8883 134.667 89.0695 133.996 89.2319C132.647 89.5594 131.276 89.8218 129.893 90.0201C129.198 90.1164 128.503 90.2013 127.803 90.2664C126.358 90.3977 124.895 90.459 123.42 90.4477C121.39 90.4298 119.337 90.2513 117.279 89.937L136.655 7.49201C138.159 7.95738 139.636 8.46995 141.051 9.08164C141.336 9.20152 141.615 9.32896 141.895 9.45262C142.283 9.63386 142.665 9.8151 143.043 10.002C144.261 10.6043 145.439 11.2565 146.576 11.9598C146.677 12.0211 146.775 12.0844 146.874 12.1458C147.358 12.4535 147.841 12.7697 148.314 13.0944C148.321 13.0963 148.326 13.0982 148.335 13.1048C148.777 13.4088 149.211 13.726 149.642 14.0441C149.768 14.1413 149.895 14.2329 150.022 14.3291C150.32 14.5557 150.618 14.7907 150.911 15.0267C151.159 15.225 151.401 15.4241 151.643 15.6262C152.171 16.0708 152.686 16.5286 153.19 16.994C154.482 18.1975 155.695 19.4728 156.824 20.8151C157.677 21.828 158.481 22.8796 159.234 23.9651C159.62 24.5249 159.995 25.096 160.356 25.6737C160.718 26.2505 161.064 26.8395 161.4 27.4333C161.895 28.3244 162.364 29.2344 162.797 30.1604C163.663 32.0124 164.4 33.9268 164.992 35.895C165.189 36.5501 165.37 37.208 165.535 37.8773C165.618 38.2105 165.699 38.5456 165.772 38.8826C165.997 39.8908 166.181 40.9065 166.329 41.9316Z" fill="#FF6537"/>
<path d="M163.385 40.2693C164.358 44.8692 164.472 49.4333 163.839 53.8218C162.855 60.7307 160.011 67.2044 155.73 72.5812C150.151 79.6194 142.126 84.8216 132.577 86.7936C111.073 91.234 89.9901 77.5984 85.4955 56.3535C85.3359 55.5993 85.1993 54.8498 85.0951 54.105C83.7785 45.4356 85.4515 36.9465 89.4024 29.7016C91.1796 26.4392 93.4288 23.4204 96.0669 20.7679C101.388 15.4118 108.305 11.4925 116.295 9.84245C118.195 9.44976 120.091 9.19678 121.975 9.08445C122.888 9.02309 123.801 9.00515 124.706 9.00987C125.656 9.01648 126.592 9.05707 127.522 9.1307C130.894 9.3818 134.185 10.0652 137.309 11.1338C142.041 12.7225 146.408 15.1843 150.184 18.3636C156.716 23.8169 161.504 31.3752 163.385 40.2693Z" fill="#6B85F3"/>
<path d="M124.1 15.2985C123.886 16.3218 122.806 16.4171 122.059 16.3482C121.64 16.3067 121.244 16.57 121.1 16.9608C120.772 17.902 119.993 19.2122 118.474 17.7377C116.291 15.6232 118.438 13.9024 118.438 13.9024C119.763 11.1488 117.396 12.2334 117.396 12.2334C116.704 13.5474 115.882 14.0893 115.358 14.3149C115.053 14.4527 114.842 14.7302 114.802 15.0474C114.51 17.6943 112.77 17.0005 111.881 16.47C111.536 16.2642 111.092 16.3029 110.779 16.5587C109.077 17.9322 108.358 19.7304 108.555 19.5407C108.773 19.3462 110.195 21.5863 111.905 22.6916C113.115 23.4742 114.627 22.2149 115.406 21.4154C115.707 21.1086 115.751 20.6517 115.542 20.2798C115.202 19.6898 114.916 18.7487 115.951 18.0879C117.091 17.363 118.349 19.232 118.974 20.3591C119.172 20.7329 119.597 20.9113 120.001 20.8282C120.073 20.8131 120.143 20.7877 120.211 20.7527C120.829 20.4658 121.536 20.9047 121.561 21.5806C121.651 24.2973 123.217 25.23 123.217 25.23L123.358 26.4571C123.373 26.5289 123.386 26.5893 123.412 26.6591C123.596 27.1745 124.428 29.6317 123.604 30.1112C123.017 30.4454 122.294 30.233 121.832 30.0404C121.548 29.9177 121.343 29.6628 121.28 29.3664L120.903 27.5814C120.81 27.1424 120.42 26.829 119.967 26.8272C118.976 26.83 117.372 26.9376 116.911 27.554C116.242 28.4687 118.954 29.0162 119.563 30.2632C120.07 31.2864 117.395 31.6791 116.48 31.783C116.268 31.8056 116.083 31.8962 115.94 32.0331L111.1 36.5557C110.967 36.6897 110.871 36.8483 110.834 37.0258C110.592 38.0226 109.741 41.435 108.983 42.0278C108.085 42.7245 107.28 37.2381 106.312 37.9593C105.353 38.6683 104.361 38.6173 102.696 39.3026C101.02 39.9889 101.912 45.0211 103.061 43.9318C103.356 43.6477 103.649 43.4485 103.92 43.3069C104.54 42.9765 105.299 43.4051 105.327 44.1017L105.373 45.3374C105.383 45.6866 105.588 45.9953 105.912 46.152C106.868 46.5938 108.799 47.6746 108.595 49.2067C108.354 51.0238 104.572 48.4194 103.837 47.9012C103.75 47.8445 103.681 47.7737 103.62 47.6907C100.188 42.8746 97.7351 46.9685 97.1953 43.5995C96.6506 40.2097 94.8582 37.493 94.8582 37.493C94.9585 37.813 95.033 38.117 95.0894 38.3822C95.3235 39.3876 93.982 39.9728 93.3829 39.128L91.0305 35.8033C90.9569 35.7118 90.913 35.6041 90.8786 35.4937L89.4043 29.6987C91.1815 26.4363 93.4307 23.4175 96.0687 20.765C101.39 15.4089 108.306 11.4896 116.297 9.83955C118.197 9.44686 120.093 9.19387 121.977 9.08154C122.074 9.13629 122.162 9.19199 122.247 9.23824C122.627 9.45724 122.787 9.90374 122.658 10.3134C121.622 13.6702 124.436 13.7806 124.1 15.2985Z" fill="#00C8D7"/>
<path d="M136.417 13.7333C136.353 13.7361 136.302 13.7465 136.25 13.7569C135.845 13.8296 135.506 14.0599 135.26 14.3761C134.352 15.5325 133.269 16.3198 132.595 16.7464C132.195 16.9994 131.945 17.3921 131.87 17.8537C131.722 18.8845 131.217 20.7243 129.503 21.4294C127.39 22.2913 126.923 17.8962 126.836 16.6681C126.816 16.4698 126.849 16.2716 126.915 16.0772C127.733 13.6304 127.701 11.4867 127.437 9.93383C127.386 9.64592 127.425 9.37217 127.525 9.12769C130.897 9.37878 134.187 10.0622 137.312 11.1308C138.1 11.9596 137.747 13.5011 136.417 13.7333Z" fill="#00C8D7"/>
<path d="M163.386 40.2693C164.358 44.8692 164.473 49.4333 163.84 53.8218C162.856 60.7307 160.012 67.2044 155.731 72.5812L153.353 71.3267C153.052 71.1757 152.82 70.8944 152.741 70.5696L151.811 67.1421L150.837 63.5012C150.766 63.2709 150.778 63.0236 150.86 62.7942L151.878 59.8698C151.999 59.5252 151.953 59.1514 151.77 58.8494L147.809 52.3974C147.517 51.9358 146.975 51.7177 146.453 51.847C145.072 52.1963 142.29 52.6428 140.103 51.3703C137.569 49.8817 138.125 45.3818 138.367 43.98C138.416 43.7034 138.559 43.4618 138.768 43.2796C139.552 42.6065 141.568 40.881 142.087 40.4335C142.169 40.3637 142.247 40.2731 142.302 40.1768C144.143 37.2637 147.114 37.1504 149.007 36.9824C150.32 36.871 151.916 38.5107 152.809 39.5717C153.224 40.0607 153.876 40.2882 154.509 40.1249C155.317 39.9153 156.574 39.6982 158.181 39.7076C161.138 39.7256 161.557 39.011 161.557 39.011C158.794 38.7835 157.527 36.3094 156.023 35.7685C154.527 35.2153 154.88 36.6322 152.617 34.1297C150.647 31.9501 148.603 33.9475 148.105 34.4979C148.017 34.5904 147.926 34.6735 147.809 34.7292C146.844 35.2587 142.365 37.6205 141.798 35.9063C141.345 34.5309 143.877 33.3585 145.332 32.8025C145.902 32.5892 146.229 32.0001 146.106 31.4187L146.031 31.0618C145.924 30.5625 146.139 30.049 146.588 29.7752C147.733 29.0814 149.883 27.7325 150.371 27.185C150.709 26.7961 152.06 26.8149 153.302 26.9311C154.246 27.0132 154.94 26.0711 154.552 25.2036L154.535 25.1753C154.101 24.2426 152.036 25.0743 150.102 23.8764C148.76 23.0353 149.571 20.0901 150.186 18.3665C156.717 23.8169 161.504 31.3752 163.386 40.2693Z" fill="#00C8D7"/>
<path d="M108.954 52.267C108.954 52.267 110.043 51.2588 109.749 49.7523C109.744 49.7258 109.751 49.6985 109.771 49.6796L111.963 47.5122C111.986 47.4896 112.022 47.4811 112.052 47.4924L114.758 48.4288C114.773 48.4336 114.789 48.4354 114.804 48.4317L116.342 48.1145C116.368 48.1088 116.396 48.1164 116.416 48.1334L119.266 50.582C119.273 50.5877 119.28 50.5924 119.289 50.5962L121.726 51.6128C121.739 51.6185 121.745 51.6194 121.753 51.6298C121.909 51.8139 124.375 54.7062 126.686 55.333C129.074 55.9806 130.324 56.9764 129.108 58.5963C127.893 60.2161 127.586 60.6787 127.719 63.217C127.852 65.7553 122.89 66.0385 121.369 69.4897C119.943 72.7246 117.213 73.8725 116.877 74.0037C116.855 74.0122 116.838 74.0301 116.829 74.0518L115.682 76.9121C115.675 76.929 115.673 76.9423 115.677 76.9593C115.748 77.2264 116.433 79.894 115.987 80.7814C115.976 80.8012 115.976 80.822 115.985 80.8418C116.665 82.4154 114.5 83.7709 113.44 82.4182C113.166 82.0699 112.945 81.6432 112.804 81.1212C111.98 78.041 113.351 63.7872 113.351 63.7872C113.351 63.7872 114.228 62.7507 110.84 61.7397C107.454 60.7306 106.266 54.0199 108.954 52.267Z" fill="#00C8D7"/>
<path d="M163.392 40.2975C164.362 44.888 164.486 49.4502 163.852 53.8453C161.574 69.7615 149.461 83.3055 132.606 86.7859C124.838 88.3897 117.132 87.6317 110.24 85.0131C113.291 85.0952 116.399 84.8328 119.512 84.19C136.357 80.7115 148.471 67.1665 150.749 51.2503C151.382 46.8552 151.26 42.293 150.288 37.7025C147.422 24.1528 137.807 13.7079 125.622 9.08337C143.608 9.57896 159.551 22.1488 163.392 40.2975Z" fill="#252525"/>
<path d="M161.699 111.031L121.551 119.321L124.605 105.087L153.14 99.1945L161.699 111.031Z" fill="#FF6537"/>
<path opacity="0.3" d="M161.698 111.031L144.572 114.568C150.353 108.637 152.226 103.28 152.602 99.3058L153.139 99.1953L161.698 111.031Z" fill="#252525"/>
<path d="M55.2648 100.361C65.6111 95.461 69.9773 83.202 65.017 72.9804C60.0567 62.7587 47.6483 58.4451 37.302 63.3457C26.9557 68.2462 22.5895 80.5051 27.5498 90.7268C32.5101 100.948 44.9185 105.262 55.2648 100.361Z" fill="#FFCC33"/>
<path d="M40.9232 77.5803C40.5343 79.2219 39.3629 80.3546 38.3052 80.1101C37.2484 79.8657 36.7057 78.3374 37.0946 76.6958C37.4825 75.0543 38.6549 73.9215 39.7126 74.166C40.7694 74.4105 41.3111 75.9388 40.9232 77.5803Z" fill="#310332"/>
<path d="M56.846 81.2581C56.4572 82.8996 55.2857 84.0324 54.228 83.7879C53.1713 83.5434 52.6286 82.0151 53.0174 80.3736C53.4054 78.732 54.5777 77.5992 55.6354 77.8437C56.6922 78.0882 57.234 79.6165 56.846 81.2581Z" fill="#310332"/>
<path d="M39.7793 85.3899C39.7793 85.3899 43.714 93.138 50.5361 87.8744" stroke="#310332" stroke-width="1.52696" stroke-miterlimit="10" stroke-linecap="round" stroke-linejoin="round"/>
<path d="M692.854 100.133C686.012 101.687 684.992 102.948 683.731 111.39C682.472 102.948 681.451 101.687 674.608 100.133C681.451 98.578 682.471 97.3188 683.731 88.875C684.991 97.3188 686.012 98.579 692.854 100.133Z" stroke="#FFCC33" stroke-width="1.35346" stroke-miterlimit="10" stroke-linecap="round" stroke-linejoin="round"/>
<path d="M202.517 76.6241C195.539 78.209 194.498 79.4947 193.213 88.1065C191.928 79.4947 190.887 78.21 183.908 76.6241C190.887 75.0392 191.928 73.7535 193.213 65.1417C194.497 73.7535 195.538 75.0392 202.517 76.6241Z" stroke="#009BFC" stroke-width="1.38046" stroke-miterlimit="10" stroke-linecap="round" stroke-linejoin="round"/>
<path d="M55.7697 24.5285C50.4448 25.7377 49.6508 26.7185 48.6705 33.2895C47.6902 26.7185 46.8952 25.7387 41.5713 24.5285C46.8962 23.3193 47.6902 22.3385 48.6705 15.7676C49.6508 22.3385 50.4458 23.3193 55.7697 24.5285Z" stroke="#009BFC" stroke-width="1.05328" stroke-miterlimit="10" stroke-linecap="round" stroke-linejoin="round"/>
<path d="M746.122 76.4703C746.127 78.4281 745.32 78.8066 745.32 78.8066C745.32 78.8066 739.727 83.0498 720.679 47.9597C717.004 41.1943 712.841 32.9752 708.109 22.9748C707.733 22.1725 707.353 21.3616 706.968 20.5432L710.111 18.6373C710.671 19.3396 711.225 20.0335 711.766 20.7244C741.671 58.4916 746.128 71.8591 746.122 76.4703Z" fill="#FF6537"/>
<path d="M707.666 23.0211C707.666 23.0211 690.902 26.7762 694.412 -1.21996L697.513 6.86793C697.513 6.86793 700.486 -4.78343 689.625 -7.57285C689.625 -7.57285 703.096 -10.637 710.323 1.77241C717.55 14.1818 712.029 20.377 712.029 20.377C712.029 20.377 710.395 22.8851 707.666 23.0211Z" fill="#FFCC33"/>
<path d="M704.845 16.5446C706.745 14.7303 706.818 11.8446 706.565 9.40823C706.517 9.07218 707.018 8.93058 707.16 9.23359C708.268 11.434 709.294 13.6825 709.847 16.0991C710.007 17.009 710.187 17.8643 709.746 18.8026L708.98 18.2711C713.048 12.2505 709.107 4.77713 704.94 -0.124878C708.693 3.50278 711.983 8.34721 711.539 13.7741C711.357 15.5695 710.846 17.3281 709.705 18.8611C709.552 19.0659 709.261 19.1103 709.054 18.9593C708.869 18.8252 708.814 18.5826 708.911 18.3863C709.183 17.8898 709.095 17.0449 708.949 16.2765C708.462 13.9525 707.535 11.7049 706.596 9.51584L707.195 9.35065C707.343 11.8654 707.02 14.9097 704.845 16.5446Z" fill="#FF6537"/>
<path d="M193.383 19.0602L183.58 20.7235L188.206 12.0239L183.576 3.32717L193.38 4.98666L200.322 -2.05249L201.754 7.67224L210.675 12.0201L201.756 16.3709L200.328 26.0956L193.383 19.0602Z" fill="#FFCC33"/>
<path d="M370.725 221.368C370.725 221.368 372.457 211.89 364.875 212.616C357.293 213.343 358.559 220.148 362.455 219.422C365.384 218.876 369.502 209.491 362.607 206.567C355.71 203.642 349.774 207.748 352.411 211.364C354.779 214.609 363.446 207.182 357.525 202.407C351.603 197.632 348.106 200.442 348.106 200.442" stroke="#310332" stroke-width="0.943965" stroke-miterlimit="10" stroke-linecap="round" stroke-linejoin="round"/>
<path d="M99.4611 193.664C99.1707 193.549 98.8821 193.419 98.6031 193.267C96.7925 192.296 95.4758 190.684 94.8939 188.734L88.6805 167.923C88.2132 166.356 88.39 164.703 89.1811 163.264C89.9704 161.828 91.2832 160.781 92.8702 160.322C96.1456 159.367 99.5968 161.224 100.565 164.46L106.056 182.842C106.776 185.261 105.374 187.805 102.927 188.522C100.479 189.234 97.9027 187.847 97.1804 185.43L92.0065 168.111C91.8804 167.683 92.1288 167.238 92.5588 167.113C92.9887 166.986 93.4416 167.23 93.5677 167.656L98.7397 184.974C99.207 186.54 100.879 187.441 102.467 186.978C104.051 186.517 104.961 184.866 104.496 183.295L99.0063 164.914C98.2907 162.529 95.7462 161.158 93.3289 161.86C92.1575 162.204 91.1934 162.974 90.6058 164.034C90.0248 165.092 89.8939 166.311 90.2389 167.469L96.4533 188.274C96.9119 189.818 97.9524 191.088 99.378 191.856C100.805 192.617 102.451 192.791 104.01 192.342C107.228 191.404 109.069 188.055 108.124 184.877L104.411 172.441C104.284 172.017 104.532 171.57 104.962 171.447C105.393 171.318 105.846 171.563 105.973 171.987L109.682 184.423C110.887 188.452 108.545 192.693 104.472 193.882C102.801 194.369 101.058 194.288 99.4611 193.664Z" fill="white"/>
<path d="M76.0365 166.028C76.2773 165.934 76.5162 165.826 76.7474 165.7C78.2484 164.894 79.3396 163.559 79.8221 161.943L84.9731 144.692C85.3601 143.393 85.2139 142.022 84.5575 140.831C83.903 139.641 82.8147 138.772 81.4999 138.392C78.7854 137.601 75.9247 139.14 75.1212 141.822L70.5693 157.059C69.9721 159.064 71.1349 161.174 73.1634 161.768C75.1919 162.359 77.3274 161.208 77.9264 159.205L82.2146 144.849C82.3188 144.493 82.1133 144.125 81.7569 144.021C81.4006 143.917 81.0251 144.118 80.9199 144.473L76.6327 158.828C76.2448 160.126 74.8594 160.873 73.5427 160.49C72.2299 160.107 71.476 158.739 71.8611 157.436L76.4111 142.2C77.0044 140.223 79.1141 139.086 81.1177 139.668C82.0895 139.953 82.8882 140.591 83.3746 141.47C83.8561 142.347 83.9651 143.357 83.6794 144.318L78.5284 161.564C78.1481 162.843 77.2853 163.897 76.1043 164.533C74.9215 165.163 73.557 165.308 72.2652 164.936C69.5985 164.158 68.0707 161.383 68.8542 158.747L71.9318 148.439C72.0369 148.087 71.8314 147.717 71.4751 147.615C71.1177 147.508 70.7422 147.71 70.6371 148.062L67.5624 158.371C66.5629 161.71 68.5054 165.226 71.8811 166.211C73.2694 166.612 74.7141 166.545 76.0365 166.028Z" fill="white"/>
<path d="M743.224 119.71C743.224 119.71 718.813 139.988 728.641 173.567" stroke="#571416" stroke-width="0.943965" stroke-miterlimit="10"/>
<path d="M739.286 135.741C739.286 135.741 727.969 143.334 727.267 148.052" stroke="#571416" stroke-width="0.943965" stroke-miterlimit="10"/>
<path d="M725.364 124.21C725.364 124.21 723.534 139.323 726.803 150.781" stroke="#571416" stroke-width="0.943965" stroke-miterlimit="10"/>
<path d="M715.946 142.821C715.946 142.821 721.929 158.626 726.308 162.455" stroke="#571416" stroke-width="0.943965" stroke-miterlimit="10"/>
<path d="M736.216 150.783C736.216 150.783 727.861 154.502 726.408 161" stroke="#571416" stroke-width="0.943965" stroke-miterlimit="10"/>
<path d="M725.25 125.322C725.25 125.322 734.273 117.738 724.854 102.567C724.854 102.567 715.41 117.432 725.25 125.322Z" fill="#029254"/>
<path d="M738.826 136.092C738.826 136.092 750.161 139.497 757.995 123.47C757.995 123.47 740.231 123.649 738.826 136.092Z" fill="#029254"/>
<path d="M735.397 151.311C735.397 151.311 746.536 155.297 755.208 139.697C755.208 139.697 737.459 138.957 735.397 151.311Z" fill="#029254"/>
<path d="M742.728 120.271C742.728 120.271 757.528 121.752 763.249 100.133C763.249 100.133 741.408 104.605 742.728 120.271Z" fill="#029254"/>
<path d="M716.472 143.819C716.472 143.819 722.953 133.016 708.043 120.863C708.043 120.863 703.704 139.2 716.472 143.819Z" fill="#029254"/>
<mask id="mask1_458_1067" style="mask-type:luminance" maskUnits="userSpaceOnUse" x="608" y="82" width="184" height="144">
<path d="M791.256 82.7129H608.334V225.587H791.256V82.7129Z" fill="white"/>
</mask>
<g mask="url(#mask1_458_1067)">
<path d="M627.401 222.04C648.175 203.773 675.357 192.608 703.167 191.366C713.301 190.914 723.5 191.713 733.568 190.487C743.636 189.262 753.905 185.699 760.561 178.137C763.986 174.245 766.265 169.521 768.502 164.861C774.848 151.645 781.194 138.429 787.539 125.213C790.503 119.04 793.96 112.445 798.789 107.755" stroke="#310332" stroke-width="0.943965" stroke-linecap="round" stroke-linejoin="round" stroke-dasharray="11.42 11.42"/>
</g>
<path d="M727.497 170.671C727.497 170.671 722.652 175.97 726.515 180.983L659.457 173.127L660.522 162.102L727.497 170.671Z" fill="#FCEEEB"/>
<path d="M660.279 164.128C681.552 166.348 705.383 169.137 726.59 171.897C705.318 169.678 681.487 166.885 660.279 164.128Z" fill="#2D2D29"/>
<path d="M659.998 166.476C680.983 168.663 704.493 171.415 725.413 174.14C704.427 171.956 680.918 169.2 659.998 166.476Z" fill="#2D2D29"/>
<path d="M659.703 168.926C680.659 171.109 704.134 173.857 725.024 176.579C704.069 174.398 680.594 171.645 659.703 168.926Z" fill="#2D2D29"/>
<path d="M659.467 170.892C680.517 173.086 704.098 175.847 725.084 178.58C704.034 176.388 680.453 173.623 659.467 170.892Z" fill="#2D2D29"/>
<path d="M660.668 166.631C660.72 166.202 660.777 165.722 660.84 165.199C661.145 162.658 662.993 163.083 662.993 163.083L728.52 170.76L728.871 167.839L662.832 160.103C661.784 159.98 661.016 160.229 660.452 160.654V160.653L660.449 160.655C660.399 160.693 660.353 160.731 660.307 160.77C660.301 160.775 660.297 160.779 660.292 160.783C660.266 160.805 660.24 160.826 660.215 160.849C659.145 161.789 654.916 166.126 658.317 173.355C658.674 174.288 659.438 175.132 661.006 175.316L727.045 183.053L727.396 180.133L661.868 172.455C661.868 172.455 659.97 172.442 660.275 169.902C660.338 169.378 660.396 168.899 660.447 168.468C660.447 168.468 660.535 167.736 660.668 166.631Z" fill="#029254"/>
<path d="M737.913 187.32C737.913 187.32 733.069 192.619 736.932 197.631L660.456 188.672L661.521 177.647L737.913 187.32Z" fill="#FCEEEB"/>
<path d="M661.277 179.673C685.567 182.246 712.781 185.433 737.006 188.545C712.716 185.974 685.503 182.783 661.277 179.673Z" fill="#2D2D29"/>
<path d="M660.996 182.022C684.999 184.562 711.891 187.71 735.828 190.789C711.826 188.251 684.934 185.099 660.996 182.022Z" fill="#2D2D29"/>
<path d="M660.701 184.471C684.673 187.008 711.533 190.152 735.44 193.228C711.468 190.694 684.609 187.545 660.701 184.471Z" fill="#2D2D29"/>
<path d="M660.466 186.438C684.533 188.985 711.498 192.142 735.5 195.229C711.433 192.683 684.468 189.523 660.466 186.438Z" fill="#2D2D29"/>
<path d="M661.666 182.176C661.718 181.748 661.775 181.267 661.838 180.744C662.143 178.203 663.991 178.628 663.991 178.628L738.936 187.409L739.287 184.488L663.831 175.648C662.783 175.525 662.015 175.775 661.451 176.199L661.448 176.2C661.398 176.238 661.352 176.277 661.306 176.315C661.3 176.32 661.296 176.325 661.291 176.329C661.266 176.35 661.239 176.371 661.214 176.395C660.144 177.335 655.915 181.671 659.316 188.9C659.673 189.833 660.437 190.678 662.005 190.862L737.461 199.702L737.812 196.782L662.866 188.001C662.866 188.001 660.969 187.988 661.273 185.447C661.336 184.923 661.394 184.445 661.445 184.013C661.445 184.014 661.533 183.282 661.666 182.176Z" fill="#FF6537"/>
<path d="M732.747 202.002C732.747 202.002 727.527 210.434 731.39 215.446L654.914 206.487L656.356 192.329L732.747 202.002Z" fill="#FCEEEB"/>
<path d="M656.112 194.355C680.401 196.928 707.616 200.115 731.841 203.227C707.551 200.656 680.337 197.465 656.112 194.355Z" fill="#2D2D29"/>
<path d="M655.831 196.703C679.834 199.243 706.725 202.392 730.663 205.47C706.661 202.933 679.769 199.781 655.831 196.703Z" fill="#2D2D29"/>
<path d="M655.161 202.287C679.133 204.823 705.993 207.968 729.9 211.043C705.927 208.508 679.068 205.359 655.161 202.287Z" fill="#2D2D29"/>
<path d="M655.464 199.758C679.436 202.294 706.295 205.439 730.202 208.514C706.23 205.98 679.372 202.831 655.464 199.758Z" fill="#2D2D29"/>
<path d="M654.925 204.252C678.992 206.8 705.957 209.956 729.959 213.043C705.892 210.498 678.927 207.337 654.925 204.252Z" fill="#2D2D29"/>
<path d="M656.503 196.858C656.555 196.429 656.612 195.949 656.675 195.426C656.98 192.885 658.828 193.309 658.828 193.309L733.774 202.09L734.124 199.17L658.668 190.329C657.62 190.207 656.852 190.456 656.288 190.881L656.285 190.882C656.236 190.919 656.189 190.958 656.143 190.997C656.137 191.002 656.133 191.006 656.129 191.01C656.102 191.032 656.076 191.052 656.051 191.076C654.981 192.016 650.377 199.486 653.776 206.716C654.134 207.648 654.898 208.493 656.466 208.677L731.922 217.518L732.272 214.597L657.327 205.816C657.327 205.816 655.429 205.803 655.734 203.263C655.797 202.739 655.854 202.26 655.906 201.829C655.907 201.829 656.37 197.963 656.503 196.858Z" fill="#FFCC33"/>
<path d="M401.334 67.6046L394.264 91.9996H390.694L385.024 72.3646L379.144 91.9996L375.609 92.0346L368.784 67.6046H372.179L377.499 88.2896L383.379 67.6046H386.949L392.549 88.2196L397.904 67.6046H401.334ZM422.319 81.6746C422.319 82.2813 422.284 82.923 422.214 83.5996H406.884C407.001 85.4896 407.642 86.9713 408.809 88.0446C409.999 89.0946 411.434 89.6196 413.114 89.6196C414.491 89.6196 415.634 89.3046 416.544 88.6746C417.477 88.0213 418.131 87.158 418.504 86.0846H421.934C421.421 87.928 420.394 89.433 418.854 90.5996C417.314 91.743 415.401 92.3146 413.114 92.3146C411.294 92.3146 409.661 91.9063 408.214 91.0896C406.791 90.273 405.671 89.118 404.854 87.6246C404.037 86.108 403.629 84.358 403.629 82.3746C403.629 80.3913 404.026 78.653 404.819 77.1596C405.612 75.6663 406.721 74.523 408.144 73.7296C409.591 72.913 411.247 72.5046 413.114 72.5046C414.934 72.5046 416.544 72.9013 417.944 73.6946C419.344 74.488 420.417 75.5846 421.164 76.9846C421.934 78.3613 422.319 79.9246 422.319 81.6746ZM419.029 81.0096C419.029 79.7963 418.761 78.758 418.224 77.8946C417.687 77.008 416.952 76.343 416.019 75.8996C415.109 75.433 414.094 75.1996 412.974 75.1996C411.364 75.1996 409.987 75.713 408.844 76.7396C407.724 77.7663 407.082 79.1896 406.919 81.0096H419.029ZM429.708 66.0996V91.9996H426.523V66.0996H429.708ZM433.946 82.3746C433.946 80.3913 434.343 78.6646 435.136 77.1946C435.93 75.7013 437.026 74.5463 438.426 73.7296C439.85 72.913 441.471 72.5046 443.291 72.5046C445.648 72.5046 447.585 73.0763 449.101 74.2196C450.641 75.363 451.656 76.9496 452.146 78.9796H448.716C448.39 77.813 447.748 76.8913 446.791 76.2146C445.858 75.538 444.691 75.1996 443.291 75.1996C441.471 75.1996 440.001 75.8296 438.881 77.0896C437.761 78.3263 437.201 80.088 437.201 82.3746C437.201 84.6846 437.761 86.4696 438.881 87.7296C440.001 88.9896 441.471 89.6196 443.291 89.6196C444.691 89.6196 445.858 89.293 446.791 88.6396C447.725 87.9863 448.366 87.053 448.716 85.8396H452.146C451.633 87.7996 450.606 89.3746 449.066 90.5646C447.526 91.7313 445.601 92.3146 443.291 92.3146C441.471 92.3146 439.85 91.9063 438.426 91.0896C437.026 90.273 435.93 89.118 435.136 87.6246C434.343 86.1313 433.946 84.3813 433.946 82.3746ZM464.761 92.3146C462.965 92.3146 461.331 91.9063 459.861 91.0896C458.415 90.273 457.271 89.118 456.431 87.6246C455.615 86.108 455.206 84.358 455.206 82.3746C455.206 80.4146 455.626 78.688 456.466 77.1946C457.33 75.678 458.496 74.523 459.966 73.7296C461.436 72.913 463.081 72.5046 464.901 72.5046C466.721 72.5046 468.366 72.913 469.836 73.7296C471.306 74.523 472.461 75.6663 473.301 77.1596C474.165 78.653 474.596 80.3913 474.596 82.3746C474.596 84.358 474.153 86.108 473.266 87.6246C472.403 89.118 471.225 90.273 469.731 91.0896C468.238 91.9063 466.581 92.3146 464.761 92.3146ZM464.761 89.5146C465.905 89.5146 466.978 89.2463 467.981 88.7096C468.985 88.173 469.79 87.368 470.396 86.2946C471.026 85.2213 471.341 83.9146 471.341 82.3746C471.341 80.8346 471.038 79.528 470.431 78.4546C469.825 77.3813 469.031 76.588 468.051 76.0746C467.071 75.538 466.01 75.2696 464.866 75.2696C463.7 75.2696 462.626 75.538 461.646 76.0746C460.69 76.588 459.92 77.3813 459.336 78.4546C458.753 79.528 458.461 80.8346 458.461 82.3746C458.461 83.938 458.741 85.2563 459.301 86.3296C459.885 87.403 460.655 88.208 461.611 88.7446C462.568 89.258 463.618 89.5146 464.761 89.5146ZM501.849 72.4696C503.342 72.4696 504.672 72.7846 505.839 73.4146C507.006 74.0213 507.927 74.943 508.604 76.1796C509.281 77.4163 509.619 78.9213 509.619 80.6946V91.9996H506.469V81.1496C506.469 79.2363 505.991 77.778 505.034 76.7746C504.101 75.748 502.829 75.2346 501.219 75.2346C499.562 75.2346 498.244 75.7713 497.264 76.8446C496.284 77.8946 495.794 79.423 495.794 81.4296V91.9996H492.644V81.1496C492.644 79.2363 492.166 77.778 491.209 76.7746C490.276 75.748 489.004 75.2346 487.394 75.2346C485.737 75.2346 484.419 75.7713 483.439 76.8446C482.459 77.8946 481.969 79.423 481.969 81.4296V91.9996H478.784V72.8196H481.969V75.5846C482.599 74.5813 483.439 73.8113 484.489 73.2746C485.562 72.738 486.741 72.4696 488.024 72.4696C489.634 72.4696 491.057 72.8313 492.294 73.5546C493.531 74.278 494.452 75.3396 495.059 76.7396C495.596 75.3863 496.482 74.3363 497.719 73.5896C498.956 72.843 500.332 72.4696 501.849 72.4696ZM532.343 81.6746C532.343 82.2813 532.308 82.923 532.238 83.5996H516.908C517.025 85.4896 517.667 86.9713 518.833 88.0446C520.023 89.0946 521.458 89.6196 523.138 89.6196C524.515 89.6196 525.658 89.3046 526.568 88.6746C527.502 88.0213 528.155 87.158 528.528 86.0846H531.958C531.445 87.928 530.418 89.433 528.878 90.5996C527.338 91.743 525.425 92.3146 523.138 92.3146C521.318 92.3146 519.685 91.9063 518.238 91.0896C516.815 90.273 515.695 89.118 514.878 87.6246C514.062 86.108 513.653 84.358 513.653 82.3746C513.653 80.3913 514.05 78.653 514.843 77.1596C515.637 75.6663 516.745 74.523 518.168 73.7296C519.615 72.913 521.272 72.5046 523.138 72.5046C524.958 72.5046 526.568 72.9013 527.968 73.6946C529.368 74.488 530.442 75.5846 531.188 76.9846C531.958 78.3613 532.343 79.9246 532.343 81.6746ZM529.053 81.0096C529.053 79.7963 528.785 78.758 528.248 77.8946C527.712 77.008 526.977 76.343 526.043 75.8996C525.133 75.433 524.118 75.1996 522.998 75.1996C521.388 75.1996 520.012 75.713 518.868 76.7396C517.748 77.7663 517.107 79.1896 516.943 81.0096H529.053ZM549.764 75.4446V86.7496C549.764 87.683 549.962 88.348 550.359 88.7446C550.755 89.118 551.444 89.3046 552.424 89.3046H554.769V91.9996H551.899C550.125 91.9996 548.795 91.5913 547.909 90.7746C547.022 89.958 546.579 88.6163 546.579 86.7496V75.4446H544.094V72.8196H546.579V67.9896H549.764V72.8196H554.769V75.4446H549.764ZM566.993 92.3146C565.196 92.3146 563.563 91.9063 562.093 91.0896C560.646 90.273 559.503 89.118 558.663 87.6246C557.846 86.108 557.438 84.358 557.438 82.3746C557.438 80.4146 557.858 78.688 558.698 77.1946C559.561 75.678 560.728 74.523 562.198 73.7296C563.668 72.913 565.313 72.5046 567.133 72.5046C568.953 72.5046 570.598 72.913 572.068 73.7296C573.538 74.523 574.693 75.6663 575.533 77.1596C576.396 78.653 576.828 80.3913 576.828 82.3746C576.828 84.358 576.384 86.108 575.498 87.6246C574.634 89.118 573.456 90.273 571.963 91.0896C570.469 91.9063 568.813 92.3146 566.993 92.3146ZM566.993 89.5146C568.136 89.5146 569.209 89.2463 570.213 88.7096C571.216 88.173 572.021 87.368 572.628 86.2946C573.258 85.2213 573.573 83.9146 573.573 82.3746C573.573 80.8346 573.269 79.528 572.663 78.4546C572.056 77.3813 571.263 76.588 570.283 76.0746C569.303 75.538 568.241 75.2696 567.098 75.2696C565.931 75.2696 564.858 75.538 563.878 76.0746C562.921 76.588 562.151 77.3813 561.568 78.4546C560.984 79.528 560.693 80.8346 560.693 82.3746C560.693 83.938 560.973 85.2563 561.533 86.3296C562.116 87.403 562.886 88.208 563.843 88.7446C564.799 89.258 565.849 89.5146 566.993 89.5146ZM373.789 112.605V128.04C373.789 130.21 374.314 131.82 375.364 132.87C376.437 133.92 377.919 134.445 379.809 134.445C381.675 134.445 383.134 133.92 384.184 132.87C385.257 131.82 385.794 130.21 385.794 128.04V112.605H388.979V128.005C388.979 130.035 388.57 131.75 387.754 133.15C386.937 134.526 385.829 135.553 384.429 136.23C383.052 136.906 381.5 137.245 379.774 137.245C378.047 137.245 376.484 136.906 375.084 136.23C373.707 135.553 372.61 134.526 371.794 133.15C371 131.75 370.604 130.035 370.604 128.005V112.605H373.789ZM413.087 112.605V137H409.902V125.94H397.477V137H394.292V112.605H397.477V123.315H409.902V112.605H413.087ZM438.685 112.605L429.48 137H425.805L416.6 112.605H419.995L427.66 133.64L435.325 112.605H438.685ZM450.318 124.785C450.318 122.405 450.855 120.27 451.928 118.38C453.002 116.466 454.46 114.973 456.303 113.9C458.17 112.826 460.235 112.29 462.498 112.29C465.158 112.29 467.48 112.931 469.463 114.215C471.447 115.498 472.893 117.318 473.803 119.675H469.988C469.312 118.205 468.332 117.073 467.048 116.28C465.788 115.486 464.272 115.09 462.498 115.09C460.795 115.09 459.267 115.486 457.913 116.28C456.56 117.073 455.498 118.205 454.728 119.675C453.958 121.121 453.573 122.825 453.573 124.785C453.573 126.721 453.958 128.425 454.728 129.895C455.498 131.341 456.56 132.461 457.913 133.255C459.267 134.048 460.795 134.445 462.498 134.445C464.272 134.445 465.788 134.06 467.048 133.29C468.332 132.496 469.312 131.365 469.988 129.895H473.803C472.893 132.228 471.447 134.036 469.463 135.32C467.48 136.58 465.158 137.21 462.498 137.21C460.235 137.21 458.17 136.685 456.303 135.635C454.46 134.561 453.002 133.08 451.928 131.19C450.855 129.3 450.318 127.165 450.318 124.785ZM481.73 111.1V137H478.545V111.1H481.73ZM485.968 127.34C485.968 125.38 486.365 123.665 487.158 122.195C487.951 120.701 489.036 119.546 490.413 118.73C491.813 117.913 493.365 117.505 495.068 117.505C496.748 117.505 498.206 117.866 499.443 118.59C500.68 119.313 501.601 120.223 502.208 121.32V117.82H505.428V137H502.208V133.43C501.578 134.55 500.633 135.483 499.373 136.23C498.136 136.953 496.69 137.315 495.033 137.315C493.33 137.315 491.79 136.895 490.413 136.055C489.036 135.215 487.951 134.036 487.158 132.52C486.365 131.003 485.968 129.276 485.968 127.34ZM502.208 127.375C502.208 125.928 501.916 124.668 501.333 123.595C500.75 122.521 499.956 121.705 498.953 121.145C497.973 120.561 496.888 120.27 495.698 120.27C494.508 120.27 493.423 120.55 492.443 121.11C491.463 121.67 490.681 122.486 490.098 123.56C489.515 124.633 489.223 125.893 489.223 127.34C489.223 128.81 489.515 130.093 490.098 131.19C490.681 132.263 491.463 133.091 492.443 133.675C493.423 134.235 494.508 134.515 495.698 134.515C496.888 134.515 497.973 134.235 498.953 133.675C499.956 133.091 500.75 132.263 501.333 131.19C501.916 130.093 502.208 128.821 502.208 127.375ZM517.6 137.315C516.13 137.315 514.812 137.07 513.645 136.58C512.479 136.066 511.557 135.366 510.88 134.48C510.204 133.57 509.83 132.531 509.76 131.365H513.05C513.144 132.321 513.587 133.103 514.38 133.71C515.197 134.316 516.259 134.62 517.565 134.62C518.779 134.62 519.735 134.351 520.435 133.815C521.135 133.278 521.485 132.601 521.485 131.785C521.485 130.945 521.112 130.326 520.365 129.93C519.619 129.51 518.464 129.101 516.9 128.705C515.477 128.331 514.31 127.958 513.4 127.585C512.514 127.188 511.744 126.616 511.09 125.87C510.46 125.1 510.145 124.096 510.145 122.86C510.145 121.88 510.437 120.981 511.02 120.165C511.604 119.348 512.432 118.706 513.505 118.24C514.579 117.75 515.804 117.505 517.18 117.505C519.304 117.505 521.019 118.041 522.325 119.115C523.632 120.188 524.332 121.658 524.425 123.525H521.24C521.17 122.521 520.762 121.716 520.015 121.11C519.292 120.503 518.312 120.2 517.075 120.2C515.932 120.2 515.022 120.445 514.345 120.935C513.669 121.425 513.33 122.066 513.33 122.86C513.33 123.49 513.529 124.015 513.925 124.435C514.345 124.831 514.859 125.158 515.465 125.415C516.095 125.648 516.959 125.916 518.055 126.22C519.432 126.593 520.552 126.966 521.415 127.34C522.279 127.69 523.014 128.226 523.62 128.95C524.25 129.673 524.577 130.618 524.6 131.785C524.6 132.835 524.309 133.78 523.725 134.62C523.142 135.46 522.314 136.125 521.24 136.615C520.19 137.081 518.977 137.315 517.6 137.315ZM535.886 137.315C534.416 137.315 533.098 137.07 531.931 136.58C530.765 136.066 529.843 135.366 529.166 134.48C528.49 133.57 528.116 132.531 528.046 131.365H531.336C531.43 132.321 531.873 133.103 532.666 133.71C533.483 134.316 534.545 134.62 535.851 134.62C537.065 134.62 538.021 134.351 538.721 133.815C539.421 133.278 539.771 132.601 539.771 131.785C539.771 130.945 539.398 130.326 538.651 129.93C537.905 129.51 536.75 129.101 535.186 128.705C533.763 128.331 532.596 127.958 531.686 127.585C530.8 127.188 530.03 126.616 529.376 125.87C528.746 125.1 528.431 124.096 528.431 122.86C528.431 121.88 528.723 120.981 529.306 120.165C529.89 119.348 530.718 118.706 531.791 118.24C532.865 117.75 534.09 117.505 535.466 117.505C537.59 117.505 539.305 118.041 540.611 119.115C541.918 120.188 542.618 121.658 542.711 123.525H539.526C539.456 122.521 539.048 121.716 538.301 121.11C537.578 120.503 536.598 120.2 535.361 120.2C534.218 120.2 533.308 120.445 532.631 120.935C531.955 121.425 531.616 122.066 531.616 122.86C531.616 123.49 531.815 124.015 532.211 124.435C532.631 124.831 533.145 125.158 533.751 125.415C534.381 125.648 535.245 125.916 536.341 126.22C537.718 126.593 538.838 126.966 539.701 127.34C540.565 127.69 541.3 128.226 541.906 128.95C542.536 129.673 542.863 130.618 542.886 131.785C542.886 132.835 542.595 133.78 542.011 134.62C541.428 135.46 540.6 136.125 539.526 136.615C538.476 137.081 537.263 137.315 535.886 137.315ZM550.568 120.935C551.128 119.838 551.921 118.986 552.948 118.38C553.998 117.773 555.269 117.47 556.763 117.47V120.76H555.923C552.353 120.76 550.568 122.696 550.568 126.57V137H547.383V117.82H550.568V120.935ZM568.804 137.315C567.007 137.315 565.374 136.906 563.904 136.09C562.457 135.273 561.314 134.118 560.474 132.625C559.657 131.108 559.249 129.358 559.249 127.375C559.249 125.415 559.669 123.688 560.509 122.195C561.372 120.678 562.539 119.523 564.009 118.73C565.479 117.913 567.124 117.505 568.944 117.505C570.764 117.505 572.409 117.913 573.879 118.73C575.349 119.523 576.504 120.666 577.344 122.16C578.207 123.653 578.639 125.391 578.639 127.375C578.639 129.358 578.196 131.108 577.309 132.625C576.446 134.118 575.267 135.273 573.774 136.09C572.281 136.906 570.624 137.315 568.804 137.315ZM568.804 134.515C569.947 134.515 571.021 134.246 572.024 133.71C573.027 133.173 573.832 132.368 574.439 131.295C575.069 130.221 575.384 128.915 575.384 127.375C575.384 125.835 575.081 124.528 574.474 123.455C573.867 122.381 573.074 121.588 572.094 121.075C571.114 120.538 570.052 120.27 568.909 120.27C567.742 120.27 566.669 120.538 565.689 121.075C564.732 121.588 563.962 122.381 563.379 123.455C562.796 124.528 562.504 125.835 562.504 127.375C562.504 128.938 562.784 130.256 563.344 131.33C563.927 132.403 564.697 133.208 565.654 133.745C566.611 134.258 567.661 134.515 568.804 134.515ZM591.192 137.315C589.395 137.315 587.762 136.906 586.292 136.09C584.845 135.273 583.702 134.118 582.862 132.625C582.045 131.108 581.637 129.358 581.637 127.375C581.637 125.415 582.057 123.688 582.897 122.195C583.76 120.678 584.927 119.523 586.397 118.73C587.867 117.913 589.512 117.505 591.332 117.505C593.152 117.505 594.797 117.913 596.267 118.73C597.737 119.523 598.892 120.666 599.732 122.16C600.595 123.653 601.027 125.391 601.027 127.375C601.027 129.358 600.584 131.108 599.697 132.625C598.834 134.118 597.655 135.273 596.162 136.09C594.669 136.906 593.012 137.315 591.192 137.315ZM591.192 134.515C592.335 134.515 593.409 134.246 594.412 133.71C595.415 133.173 596.22 132.368 596.827 131.295C597.457 130.221 597.772 128.915 597.772 127.375C597.772 125.835 597.469 124.528 596.862 123.455C596.255 122.381 595.462 121.588 594.482 121.075C593.502 120.538 592.44 120.27 591.297 120.27C590.13 120.27 589.057 120.538 588.077 121.075C587.12 121.588 586.35 122.381 585.767 123.455C585.184 124.528 584.892 125.835 584.892 127.375C584.892 128.938 585.172 130.256 585.732 131.33C586.315 132.403 587.085 133.208 588.042 133.745C588.999 134.258 590.049 134.515 591.192 134.515ZM628.28 117.47C629.773 117.47 631.103 117.785 632.27 118.415C633.436 119.021 634.358 119.943 635.035 121.18C635.711 122.416 636.05 123.921 636.05 125.695V137H632.9V126.15C632.9 124.236 632.421 122.778 631.465 121.775C630.531 120.748 629.26 120.235 627.65 120.235C625.993 120.235 624.675 120.771 623.695 121.845C622.715 122.895 622.225 124.423 622.225 126.43V137H619.075V126.15C619.075 124.236 618.596 122.778 617.64 121.775C616.706 120.748 615.435 120.235 613.825 120.235C612.168 120.235 610.85 120.771 609.87 121.845C608.89 122.895 608.4 124.423 608.4 126.43V137H605.215V117.82H608.4V120.585C609.03 119.581 609.87 118.811 610.92 118.275C611.993 117.738 613.171 117.47 614.455 117.47C616.065 117.47 617.488 117.831 618.725 118.555C619.961 119.278 620.883 120.34 621.49 121.74C622.026 120.386 622.913 119.336 624.15 118.59C625.386 117.843 626.763 117.47 628.28 117.47Z" fill="white"/>
</g>
</g>
<defs>
<clipPath id="clip0_458_1067">
<rect x="0.253906" y="0.5" width="783.491" height="219" rx="10" fill="white"/>
</clipPath>
<clipPath id="clip1_458_1067">
<rect width="783.491" height="294.517" fill="white" transform="translate(0.253906 -37.2585)"/>
</clipPath>
</defs>
</svg>
