<svg width="784" height="220" viewBox="0 0 784 220" fill="none" xmlns="http://www.w3.org/2000/svg">
<g clip-path="url(#clip0_905_3038)">
<path d="M783.745 -37.2585H0.253906V257.259H783.745V-37.2585Z" fill="#333333"/>
<mask id="mask0_905_3038" style="mask-type:luminance" maskUnits="userSpaceOnUse" x="151" y="6" width="227" height="252">
<path d="M377.628 6.72656H151.896V257.259H377.628V6.72656Z" fill="white"/>
</mask>
<g mask="url(#mask0_905_3038)">
<path d="M241.036 98.7482C241.036 98.7482 239.73 96.696 237.233 97.1708L237.002 99.273L239.019 99.9281L241.036 98.7482Z" fill="#252525"/>
<path d="M316.273 164.977L326.5 176.776C329.015 179.678 332.468 181.667 336.288 182.265C340.123 182.866 345.063 182.539 350.018 179.148C350.018 179.148 356.401 173.927 355.623 161.564L330.732 149.402L316.273 164.977Z" fill="#E1A591"/>
<path d="M328.826 158.005L319.492 168.691L316.273 164.977L326.861 155.699L328.826 158.005Z" fill="#252525"/>
<path d="M308.22 101.843C308.22 101.843 313.894 103.364 321.214 113.851C328.535 124.338 342.353 145.856 342.353 145.856L314.991 168.503L311.498 163.044L304.56 123.48L308.22 101.843Z" fill="#FFCC33"/>
<path d="M349.583 99.1587L355.623 161.564L339.517 169.904L328.737 159.436L330.731 101.843L343.727 99.1587H349.583Z" fill="#E1A591"/>
<path d="M330.731 101.843C330.731 101.843 328.902 95.2271 326.247 89.5312C323.594 83.8353 325.79 68.5563 325.79 68.5563C325.79 68.5563 329.084 67.4717 330.731 73.8C332.379 80.1283 331.006 79.4053 333.752 82.3891C336.497 85.373 336.314 88.5372 336.314 88.5372L330.731 101.843Z" fill="#E1A591"/>
<path d="M331.098 79.5856L334.759 54.3619C334.759 54.3619 337.687 52.102 338.511 58.9731C339.335 65.8443 339.426 69.7768 339.426 69.7768L343.636 54.006C343.636 54.006 346.839 51.9746 346.107 60.627C345.375 69.2793 345.009 73.3478 345.009 73.3478L350.866 60.239C350.866 60.239 354.435 60.0587 351.598 69.7768C351.598 69.7768 349.768 78.5009 349.585 82.931C349.585 82.931 356.448 74.2522 357.821 72.9863C359.194 71.7204 359.468 76.0599 356.815 80.942C354.162 85.8242 350.134 97.486 349.586 99.1587C349.037 100.831 339.154 105.985 339.154 105.985L330.735 101.843L331.098 79.5856Z" fill="#E1A591"/>
<path d="M336.292 87.8811C335.779 85.8148 334.91 83.94 333.752 82.2485C332.566 80.5729 330.981 78.5972 331.336 76.4242C331.74 78.5509 333.259 80.0141 334.495 81.75C335.693 83.5426 336.499 85.7185 336.292 87.8811Z" fill="#252525"/>
<path d="M344.252 79.8914C343.892 77.6486 344.141 75.452 345.007 73.3469C345.372 75.5907 345.114 77.7864 344.252 79.8914Z" fill="#252525"/>
<path d="M339.425 69.7769C339.875 72.5417 339.715 75.2887 338.933 77.9818C338.478 75.216 338.648 72.47 339.425 69.7769Z" fill="#252525"/>
<path d="M328.969 152.729C329.712 155.819 329.639 158.896 328.737 161.948C327.987 158.874 328.074 155.765 328.969 152.729Z" fill="#252525"/>
<path d="M207.054 163.214L183.581 147.89L169.306 171.622L183.032 188.648L196.484 179.35L207.054 163.214Z" fill="#E1A591"/>
<path d="M214.741 194.568L196.485 179.35L169.306 171.621C169.306 171.621 164.09 179.635 171.503 188.647C178.915 197.659 213.232 221.527 213.232 221.527L214.741 194.568Z" fill="#E1A591"/>
<path d="M196.484 179.349C194.181 178.408 192.34 176.804 191.132 174.65C193.472 175.616 195.239 177.172 196.484 179.349Z" fill="#252525"/>
<path d="M202.626 169.974L179.24 155.108L183.582 147.89L207.054 163.214L202.626 169.974Z" fill="#252525"/>
<path d="M218.721 102.821C218.721 102.821 210.119 106.619 200.053 119.095C189.987 131.572 177.358 149.403 177.358 149.403L207.74 171.623L214.908 159.408L224.578 126.69L218.721 102.821Z" fill="#FFCC33"/>
<path d="M273.538 88.4456V97.1253H258.347V85.1908L273.538 88.4456Z" fill="#E1A591"/>
<path d="M281.224 97.1254L273.538 95.5887L258.346 94.6843L249.928 97.1254C249.928 97.1254 252.948 106.709 264.935 108.788C276.924 110.868 281.224 97.1254 281.224 97.1254Z" fill="#E1A591"/>
<path d="M273.538 92.5141C273.538 92.5141 264.616 96.0851 258.347 89.7567V85.1908L273.538 88.4456V92.5141Z" fill="#252525"/>
<path d="M308.22 101.843L281.224 97.1254C281.224 97.1254 270.883 112.224 249.927 97.1254L218.722 102.821L208.656 252.176H316.274L308.22 101.843Z" fill="#FFCC33"/>
<path d="M296.69 135.173H275.276C275.276 135.173 270.518 161.315 285.984 161.315C301.448 161.315 296.69 135.173 296.69 135.173Z" fill="#FF6537"/>
<path d="M214.908 159.406C214.353 152.693 214.612 145.996 215.702 139.346C216.263 146.061 215.992 152.756 214.908 159.406Z" fill="#252525"/>
<path d="M311.499 163.044C310.258 155.191 309.827 147.284 310.229 139.346C311.478 147.198 311.894 155.106 311.499 163.044Z" fill="#252525"/>
<path d="M273.537 204.078C261.973 198.097 246.977 187.54 243.186 174.65C243.831 176.321 244.627 177.919 245.575 179.426C252.399 189.952 263.104 197.33 273.537 204.078Z" fill="#252525"/>
<path d="M260.049 200.643C253.103 199.047 246.739 194.617 242.944 188.647C247.716 193.811 253.549 197.88 260.049 200.643Z" fill="#252525"/>
<path d="M282.833 156.941C287.214 156.698 291.178 154.121 292.717 150.03C293.135 149.142 293.402 148.131 293.726 147.199C293.769 153.07 288.867 158.026 282.833 156.941Z" fill="#252525"/>
<path d="M237.232 97.1707C237.232 97.1707 256.232 162.671 310.228 205.119L314.094 211.52L311.497 214.476C311.497 214.476 244.252 186.269 223.113 100.561L237.232 97.1707Z" fill="#029254"/>
<path d="M336.496 239.835L342.536 237.665C342.536 237.665 334.934 216.276 330.739 216.088L331.898 227.961L336.496 239.835Z" fill="#FF6537"/>
<path d="M310.228 205.118C310.228 205.118 319.383 200.824 322.677 209.684C325.972 218.544 339.516 268.088 339.516 268.088L312.28 272.066L311.16 214.521C310.54 211.424 310.228 208.275 310.228 205.118Z" fill="#029254"/>
<path d="M323.456 211.94C323.456 211.94 327.803 209.685 330.548 215.652C333.293 221.618 343.319 261.551 343.319 261.551L335.714 263.662L326.155 229.213L323.456 211.94Z" fill="#029254"/>
<path d="M238.9 60.6269C238.9 60.6269 226.271 42.247 241.782 36.0092C241.782 36.0092 240.685 23.8038 250.019 21.9055C259.353 20.0071 262.235 26.2449 262.235 26.2449C262.235 26.2449 269.785 15.9387 282.139 20.6849C294.493 25.4312 292.571 34.7887 292.571 34.7887C292.571 34.7887 301.767 36.0093 301.631 43.7394C301.493 51.4695 298.474 51.4695 298.474 51.4695C298.474 51.4695 302.042 58.25 296.964 62.4544C291.886 66.6589 287.081 63.7033 287.081 63.7033L255.784 69.7777L238.9 60.6269Z" fill="#58060A"/>
<path d="M247.901 60.1748C247.901 60.1748 243.235 53.3943 238.979 58.1406C234.724 62.8868 238.293 75.3632 249.137 71.7016L247.901 60.1748Z" fill="#E1A591"/>
<path d="M240.81 60.6268C243.715 61.6548 245.404 65.0049 245.077 67.9501C244.137 65.2834 242.888 62.6224 240.81 60.6268Z" fill="#252525"/>
<path d="M240.81 63.7456C241.809 62.9886 243.598 63.1849 244.085 64.4092C242.804 64.2308 242.011 64.2705 240.81 63.7456Z" fill="#252525"/>
<path d="M291.199 50.113C291.199 50.113 296.415 92.2884 269.786 90.526C243.157 88.7636 247.961 55.9448 247.961 55.9448L252.353 36.0101L282.69 37.9084L291.199 50.113Z" fill="#E1A591"/>
<path d="M272.529 61.3235C273.965 65.2306 275.028 69.2367 275.957 73.2816C275.983 73.393 275.951 73.5054 275.882 73.5884C274.76 74.9572 272.82 75.9134 271.077 75.2262C270.518 75.0412 270.043 74.7033 269.615 74.3427C270.124 74.5909 270.622 74.8401 271.162 74.9232C272.743 75.2621 274.302 74.3162 275.215 73.1089L275.148 73.4468C274.06 69.451 273.107 65.4288 272.529 61.3235Z" fill="#252525"/>
<path d="M269.616 80.3096C267.242 81.8114 263.936 80.3917 263.344 77.6891C263.117 76.5356 263.165 76.461 263.749 77.5183C264.974 79.6422 267.092 80.5314 269.616 80.3096Z" fill="#252525"/>
<path d="M286.165 65.1202C284.141 62.7055 281.72 61.5803 278.844 63.388C278.49 63.6117 278.137 63.8458 277.745 64.0554C277.996 63.7052 278.282 63.3738 278.574 63.0425C281.212 60.3541 285.11 61.7257 286.165 65.1202Z" fill="#252525"/>
<path d="M264.294 63.7013C261.983 60.9771 259.432 60.2889 256.445 62.4931C256.086 62.763 255.725 63.0387 255.326 63.2935C255.577 62.9065 255.862 62.5393 256.152 62.1674C258.8 59.0957 262.954 59.9481 264.294 63.7013Z" fill="#252525"/>
<path d="M265.117 56.4546C262.868 54.1248 260.17 52.5598 257.123 54.5251C256.74 54.7573 256.38 55.0311 255.966 55.2661C256.235 54.8942 256.527 54.5232 256.853 54.1805C259.617 51.3439 263.806 53.1309 265.117 56.4546Z" fill="#252525"/>
<path d="M277.288 56.4544C279.564 53.4998 284.345 52.975 286.836 55.9475C287.168 56.3308 287.451 56.7508 287.72 57.1652C287.299 56.8783 286.938 56.5498 286.542 56.2723C283.752 54.0955 280.22 54.5995 277.288 56.4544Z" fill="#252525"/>
<path d="M254.142 69.8617C254.048 70.986 255.687 72.0366 257.802 72.2103C259.917 72.3831 261.71 71.6128 261.804 70.4885C261.897 69.3643 260.258 68.3136 258.143 68.1399C256.028 67.9672 254.236 68.7375 254.142 69.8617Z" fill="#F19389"/>
<path d="M279.557 72.1149C279.462 73.2391 281.102 74.2898 283.217 74.4635C285.333 74.6362 287.125 73.8659 287.219 72.7417C287.313 71.6174 285.674 70.5658 283.558 70.3931C281.443 70.2194 279.651 70.9906 279.557 72.1149Z" fill="#F19389"/>
<path d="M291.199 50.113C291.199 50.113 287.265 43.8913 282.139 44.6059C277.015 45.3214 275.276 48.1241 265.942 42.971C256.608 37.8178 253.13 42.6094 253.13 42.6094L250.11 66.2057C250.11 66.2057 249.304 62.5564 247.654 59.8434L243.185 51.107L251.94 31.8501L285.341 35.4664L291.198 45.5923L291.199 50.113Z" fill="#58060A"/>
<path d="M249.238 140.508L244.097 141.38L246.523 136.818L244.095 132.257L249.236 133.127L252.877 129.435L253.628 134.536L258.307 136.815L253.629 139.098L252.88 144.198L249.238 140.508Z" fill="white"/>
<path d="M240.952 131.119C239.735 131.573 239.573 132.113 240.378 133.087C240.615 133.373 240.354 133.81 239.986 133.746C238.75 133.528 238.361 133.913 238.581 135.134C238.646 135.498 238.203 135.755 237.914 135.521C236.929 134.725 236.382 134.886 235.923 136.088C235.782 136.456 235.272 136.456 235.132 136.088C234.672 134.886 234.125 134.725 233.14 135.521C232.851 135.754 232.409 135.498 232.473 135.134C232.693 133.913 232.303 133.528 231.067 133.746C230.699 133.81 230.438 133.373 230.675 133.087C231.481 132.113 231.318 131.573 230.101 131.119C229.729 130.981 229.729 130.478 230.101 130.338C231.318 129.884 231.481 129.344 230.675 128.371C230.439 128.085 230.699 127.648 231.067 127.712C232.303 127.929 232.692 127.545 232.473 126.323C232.409 125.96 232.851 125.702 233.14 125.936C234.125 126.732 234.672 126.571 235.132 125.369C235.272 125.002 235.782 125.002 235.923 125.369C236.382 126.571 236.929 126.732 237.914 125.936C238.203 125.702 238.646 125.96 238.581 126.323C238.361 127.545 238.75 127.929 239.986 127.712C240.354 127.648 240.615 128.085 240.378 128.371C239.573 129.344 239.735 129.884 240.952 130.338C241.324 130.477 241.324 130.981 240.952 131.119Z" fill="#FF6537"/>
</g>
<path d="M253.595 257.259H0.253906V75.6935C61.3605 80.0404 101.946 173.252 164.585 187.325C204.262 196.243 243.412 219.269 253.595 257.259Z" fill="#FF6537"/>
<path d="M299.207 257.259H0.253906V122.355C1.17403 122.329 2.09511 122.31 3.01524 122.292C15.2807 122.033 27.7822 121.932 39.4915 125.537C71.2315 135.312 88.5725 168.779 116.018 187.325C136.228 200.983 161.072 205.94 185.321 209.306C209.571 212.666 234.37 214.831 257.067 223.906C273.979 230.668 289.856 242.123 299.207 257.259Z" fill="#333333"/>
<path d="M139.394 90.308L133.587 91.5072L136.049 103.144L141.856 101.945L139.394 90.308Z" fill="#FFCC33"/>
<path d="M168.766 37.0997C168.586 36.3804 168.394 35.6706 168.181 34.9635C167.544 32.8453 166.751 30.7818 165.814 28.7862C165.347 27.7884 164.846 26.8086 164.31 25.8448C163.949 25.2039 163.578 24.5761 163.188 23.9493C162.798 23.3263 162.395 22.7137 161.977 22.1096C161.166 20.94 160.298 19.8072 159.38 18.7141C158.166 17.2689 156.856 15.8964 155.468 14.5984C154.923 14.0943 154.368 13.6044 153.799 13.1239C153.537 12.9068 153.277 12.6916 153.011 12.4764C152.696 12.2272 152.375 11.9676 152.049 11.724C151.915 11.6202 151.778 11.522 151.644 11.4201C151.18 11.0727 150.711 10.7357 150.233 10.4082C150.225 10.4015 150.219 10.3997 150.212 10.3959C149.704 10.0428 149.183 9.70773 148.662 9.37735C148.555 9.30844 148.451 9.23953 148.338 9.17534C147.114 8.41544 145.846 7.71502 144.532 7.06463C144.124 6.86073 143.715 6.66628 143.297 6.47654C142.995 6.33684 142.694 6.20374 142.388 6.07158C140.12 5.09174 137.743 4.28088 135.269 3.65503C134.997 3.58801 134.725 3.51815 134.449 3.45207C134.259 3.40865 134.068 3.36712 133.877 3.32275L113.3 89.1613L112.533 92.3623C112.72 92.4067 112.911 92.4548 113.099 92.4982C116.548 93.3034 119.998 93.7056 123.392 93.7386C124.981 93.7499 126.56 93.6857 128.116 93.5423C128.869 93.4696 129.618 93.3818 130.366 93.2779C131.859 93.0656 133.334 92.7795 134.787 92.4293C135.511 92.2528 136.233 92.0602 136.949 91.8488C140.165 90.9048 143.256 89.6135 146.178 88.0229C146.827 87.6717 147.465 87.2989 148.095 86.9147C148.723 86.5295 149.349 86.1359 149.957 85.7206C150.876 85.0966 151.768 84.4424 152.639 83.7609C154.017 82.6782 155.332 81.518 156.58 80.2795C156.907 79.951 157.238 79.6216 157.559 79.2874C158.068 78.7475 158.567 78.2019 159.049 77.6364C159.296 77.3561 159.534 77.0701 159.772 76.7869C160.241 76.2082 160.698 75.6201 161.147 75.0264C161.589 74.4251 162.02 73.8134 162.439 73.1904C163.266 71.9453 164.045 70.6539 164.752 69.3144C165.108 68.648 165.449 67.9702 165.774 67.2811C166.095 66.592 166.404 65.8916 166.696 65.1789C166.985 64.471 167.258 63.7507 167.516 63.021C168.029 61.5616 168.471 60.0589 168.84 58.524C169.207 56.9862 169.494 55.4485 169.7 53.9127C169.802 53.149 169.885 52.3806 169.95 51.6198C170.009 50.8533 170.053 50.0925 170.075 49.3345C170.1 48.5746 170.104 47.8194 170.087 47.0652C170.062 45.5548 169.955 44.053 169.779 42.5757C169.734 42.2009 169.684 41.8318 169.629 41.4646C169.466 40.3602 169.267 39.2624 169.024 38.1796C168.942 37.8181 168.856 37.4584 168.766 37.0997ZM166.329 41.9319C166.384 42.2764 166.428 42.621 166.467 42.9627C166.632 44.3399 166.732 45.7304 166.757 47.1265C166.771 47.8307 166.768 48.5321 166.745 49.2401C166.721 49.9386 166.683 50.6475 166.628 51.3593C166.569 52.0654 166.49 52.779 166.396 53.4889C166.205 54.9124 165.939 56.3377 165.598 57.7622C165.256 59.1932 164.847 60.5846 164.372 61.9402C164.13 62.6179 163.876 63.2872 163.61 63.9414C163.336 64.6031 163.051 65.2544 162.752 65.8935C162.451 66.5335 162.138 67.1622 161.804 67.7796C161.147 69.0218 160.426 70.2225 159.656 71.377C159.269 71.9557 158.869 72.523 158.458 73.0827C158.044 73.635 157.618 74.1806 157.181 74.7139C156.961 74.9801 156.738 75.2435 156.513 75.504C156.065 76.0279 155.601 76.5377 155.127 77.0342C154.831 77.3476 154.524 77.6525 154.219 77.9574C153.062 79.1043 151.842 80.1823 150.563 81.1895C149.753 81.8229 148.925 82.429 148.074 83.0067C147.507 83.388 146.93 83.7562 146.346 84.1177C145.763 84.4717 145.169 84.8153 144.566 85.1457C141.856 86.623 138.984 87.8209 136.003 88.6969C135.336 88.8885 134.667 89.0697 133.996 89.2321C132.647 89.5597 131.276 89.8221 129.893 90.0203C129.198 90.1166 128.503 90.2016 127.803 90.2667C126.358 90.3979 124.895 90.4593 123.42 90.4479C121.39 90.43 119.337 90.2516 117.279 89.9372L136.655 7.49225C138.159 7.95762 139.636 8.4702 141.051 9.08189C141.336 9.20177 141.615 9.32921 141.895 9.45287C142.283 9.63411 142.665 9.81535 143.043 10.0023C144.261 10.6045 145.439 11.2568 146.576 11.96C146.677 12.0214 146.775 12.0846 146.874 12.146C147.358 12.4537 147.841 12.77 148.314 13.0947C148.321 13.0966 148.326 13.0985 148.335 13.1051C148.777 13.409 149.211 13.7262 149.642 14.0443C149.768 14.1415 149.895 14.2331 150.022 14.3294C150.32 14.5559 150.618 14.791 150.911 15.027C151.159 15.2252 151.401 15.4244 151.643 15.6264C152.171 16.071 152.686 16.5288 153.19 16.9942C154.482 18.1978 155.695 19.4731 156.824 20.8154C157.677 21.8283 158.481 22.8798 159.234 23.9654C159.62 24.5252 159.995 25.0963 160.356 25.674C160.718 26.2507 161.064 26.8398 161.4 27.4335C161.895 28.3246 162.364 29.2346 162.797 30.1606C163.663 32.0127 164.4 33.9271 164.992 35.8952C165.189 36.5503 165.37 37.2083 165.535 37.8776C165.618 38.2108 165.699 38.5459 165.772 38.8829C165.997 39.891 166.181 40.9067 166.329 41.9319Z" fill="#FF6537"/>
<path d="M163.385 40.2697C164.358 44.8696 164.472 49.4337 163.839 53.8222C162.855 60.7311 160.011 67.2048 155.73 72.5816C150.151 79.6198 142.126 84.822 132.577 86.7939C111.073 91.2344 89.9901 77.5988 85.4955 56.3539C85.3359 55.5997 85.1993 54.8502 85.0951 54.1054C83.7785 45.436 85.4515 36.9469 89.4024 29.702C91.1796 26.4396 93.4288 23.4208 96.0669 20.7683C101.388 15.4122 108.305 11.4929 116.295 9.84281C118.195 9.45012 120.091 9.19714 121.975 9.08481C122.888 9.02345 123.801 9.00552 124.706 9.01024C125.656 9.01684 126.592 9.05744 127.522 9.13107C130.894 9.38216 134.185 10.0656 137.309 11.1342C142.041 12.7229 146.408 15.1847 150.184 18.364C156.716 23.8173 161.504 31.3756 163.385 40.2697Z" fill="#6B85F3"/>
<path d="M124.1 15.2987C123.886 16.322 122.806 16.4173 122.059 16.3484C121.64 16.3069 121.244 16.5703 121.1 16.9611C120.772 17.9022 119.993 19.2124 118.474 17.738C116.291 15.6235 118.438 13.9026 118.438 13.9026C119.763 11.1491 117.396 12.2337 117.396 12.2337C116.704 13.5477 115.882 14.0895 115.358 14.3151C115.053 14.4529 114.842 14.7305 114.802 15.0476C114.51 17.6945 112.77 17.0007 111.881 16.4702C111.536 16.2644 111.092 16.3031 110.779 16.5589C109.077 17.9324 108.358 19.7307 108.555 19.5409C108.773 19.3465 110.195 21.5865 111.905 22.6919C113.115 23.4744 114.627 22.2152 115.406 21.4156C115.707 21.1089 115.751 20.652 115.542 20.28C115.202 19.6901 114.916 18.7489 115.951 18.0882C117.091 17.3632 118.349 19.2322 118.974 20.3593C119.172 20.7332 119.597 20.9116 120.001 20.8285C120.073 20.8134 120.143 20.7879 120.211 20.753C120.829 20.466 121.536 20.905 121.561 21.5808C121.651 24.2976 123.217 25.2302 123.217 25.2302L123.358 26.4574C123.373 26.5291 123.386 26.5895 123.412 26.6594C123.596 27.1748 124.428 29.6319 123.604 30.1115C123.017 30.4456 122.294 30.2332 121.832 30.0407C121.548 29.9179 121.343 29.6631 121.28 29.3667L120.903 27.5816C120.81 27.1427 120.42 26.8293 119.967 26.8274C118.976 26.8302 117.372 26.9378 116.911 27.5543C116.242 28.469 118.954 29.0164 119.563 30.2634C120.07 31.2867 117.395 31.6794 116.48 31.7832C116.268 31.8059 116.083 31.8965 115.94 32.0334L111.1 36.5559C110.967 36.6899 110.871 36.8485 110.834 37.026C110.592 38.0228 109.741 41.4353 108.983 42.0281C108.085 42.7247 107.28 37.2384 106.312 37.9596C105.353 38.6685 104.361 38.6175 102.696 39.3028C101.02 39.9891 101.912 45.0214 103.061 43.9321C103.356 43.6479 103.649 43.4487 103.92 43.3071C104.54 42.9768 105.299 43.4053 105.327 44.102L105.373 45.3376C105.383 45.6869 105.588 45.9956 105.912 46.1523C106.868 46.594 108.799 47.6749 108.595 49.2069C108.354 51.0241 104.572 48.4197 103.837 47.9014C103.75 47.8448 103.681 47.774 103.62 47.6909C100.188 42.8748 97.7351 46.9688 97.1953 43.5998C96.6506 40.21 94.8582 37.4933 94.8582 37.4933C94.9585 37.8133 95.033 38.1172 95.0894 38.3825C95.3235 39.3878 93.982 39.9731 93.3829 39.1282L91.0305 35.8036C90.9569 35.712 90.913 35.6044 90.8786 35.4939L89.4043 29.6989C91.1815 26.4366 93.4307 23.4178 96.0687 20.7652C101.39 15.4092 108.306 11.4898 116.297 9.83979C118.197 9.4471 120.093 9.19412 121.977 9.08179C122.074 9.13654 122.162 9.19223 122.247 9.23849C122.627 9.45749 122.787 9.90398 122.658 10.3137C121.622 13.6704 124.436 13.7808 124.1 15.2987Z" fill="#00C8D7"/>
<path d="M136.417 13.7335C136.353 13.7364 136.302 13.7468 136.25 13.7571C135.845 13.8298 135.506 14.0602 135.26 14.3764C134.352 15.5327 133.269 16.32 132.595 16.7467C132.195 16.9997 131.945 17.3923 131.87 17.8539C131.722 18.8848 131.217 20.7245 129.503 21.4297C127.39 22.2915 126.923 17.8964 126.836 16.6683C126.816 16.4701 126.849 16.2719 126.915 16.0774C127.733 13.6306 127.701 11.4869 127.437 9.93408C127.386 9.64617 127.425 9.37242 127.525 9.12793C130.897 9.37902 134.187 10.0625 137.312 11.131C138.1 11.9598 137.747 13.5013 136.417 13.7335Z" fill="#00C8D7"/>
<path d="M163.386 40.2695C164.358 44.8695 164.473 49.4335 163.84 53.822C162.856 60.7309 160.012 67.2046 155.731 72.5815L153.353 71.3269C153.052 71.1759 152.82 70.8946 152.741 70.5699L151.811 67.1423L150.837 63.5015C150.766 63.2711 150.778 63.0238 150.86 62.7944L151.878 59.87C151.999 59.5255 151.953 59.1517 151.77 58.8496L147.809 52.3976C147.517 51.936 146.975 51.7179 146.453 51.8473C145.072 52.1965 142.29 52.643 140.103 51.3706C137.569 49.8819 138.125 45.382 138.367 43.9803C138.416 43.7037 138.559 43.462 138.768 43.2798C139.552 42.6068 141.568 40.8812 142.087 40.4338C142.169 40.3639 142.247 40.2733 142.302 40.177C144.143 37.2639 147.114 37.1507 149.007 36.9826C150.32 36.8713 151.916 38.5109 152.809 39.5719C153.224 40.0609 153.876 40.2884 154.509 40.1251C155.317 39.9155 156.574 39.6984 158.181 39.7079C161.138 39.7258 161.557 39.0112 161.557 39.0112C158.794 38.7837 157.527 36.3096 156.023 35.7687C154.527 35.2155 154.88 36.6324 152.617 34.13C150.647 31.9504 148.603 33.9478 148.105 34.4981C148.017 34.5906 147.926 34.6737 147.809 34.7294C146.844 35.259 142.365 37.6208 141.798 35.9065C141.345 34.5312 143.877 33.3588 145.332 32.8028C145.902 32.5894 146.229 32.0004 146.106 31.4189L146.031 31.0621C145.924 30.5627 146.139 30.0492 146.588 29.7755C147.733 29.0817 149.883 27.7327 150.371 27.1852C150.709 26.7963 152.06 26.8152 153.302 26.9313C154.246 27.0134 154.94 26.0713 154.552 25.2038L154.535 25.1755C154.101 24.2429 152.036 25.0745 150.102 23.8766C148.76 23.0356 149.571 20.0904 150.186 18.3667C156.717 23.8172 161.504 31.3755 163.386 40.2695Z" fill="#00C8D7"/>
<path d="M108.954 52.2672C108.954 52.2672 110.043 51.2591 109.749 49.7525C109.744 49.7261 109.751 49.6987 109.771 49.6798L111.963 47.5125C111.986 47.4898 112.022 47.4813 112.052 47.4927L114.758 48.4291C114.773 48.4338 114.789 48.4357 114.804 48.4319L116.342 48.1147C116.368 48.1091 116.396 48.1166 116.416 48.1336L119.266 50.5823C119.273 50.5879 119.28 50.5927 119.289 50.5964L121.726 51.6131C121.739 51.6187 121.745 51.6197 121.753 51.6301C121.909 51.8141 124.375 54.7064 126.686 55.3332C129.074 55.9808 130.324 56.9767 129.108 58.5965C127.893 60.2164 127.586 60.6789 127.719 63.2172C127.852 65.7556 122.89 66.0388 121.369 69.4899C119.943 72.7249 117.213 73.8727 116.877 74.0039C116.855 74.0124 116.838 74.0304 116.829 74.0521L115.682 76.9123C115.675 76.9293 115.673 76.9425 115.677 76.9595C115.748 77.2266 116.433 79.8943 115.987 80.7816C115.976 80.8014 115.976 80.8222 115.985 80.842C116.665 82.4156 114.5 83.7711 113.44 82.4184C113.166 82.0701 112.945 81.6434 112.804 81.1214C111.98 78.0413 113.351 63.7874 113.351 63.7874C113.351 63.7874 114.228 62.7509 110.84 61.7399C107.454 60.7308 106.266 54.0202 108.954 52.2672Z" fill="#00C8D7"/>
<path d="M163.392 40.2979C164.362 44.8884 164.486 49.4505 163.852 53.8456C161.574 69.7618 149.461 83.3059 132.606 86.7863C124.838 88.3901 117.132 87.632 110.24 85.0135C113.291 85.0956 116.399 84.8332 119.512 84.1904C136.357 80.7118 148.471 67.1669 150.749 51.2507C151.382 46.8556 151.26 42.2934 150.288 37.7029C147.422 24.1532 137.807 13.7082 125.622 9.08374C143.608 9.57932 159.551 22.1492 163.392 40.2979Z" fill="#252525"/>
<path d="M161.699 111.031L121.551 119.321L124.605 105.087L153.14 99.1947L161.699 111.031Z" fill="#FF6537"/>
<path opacity="0.3" d="M161.698 111.031L144.572 114.568C150.353 108.637 152.226 103.28 152.602 99.306L153.139 99.1956L161.698 111.031Z" fill="#252525"/>
<path d="M55.2648 100.362C65.6111 95.4611 69.9773 83.2021 65.017 72.9805C60.0567 62.7588 47.6483 58.4452 37.302 63.3458C26.9557 68.2463 22.5895 80.5053 27.5498 90.7269C32.5101 100.949 44.9185 105.262 55.2648 100.362Z" fill="#FFCC33"/>
<path d="M40.9232 77.5804C40.5343 79.222 39.3629 80.3548 38.3052 80.1103C37.2484 79.8658 36.7057 78.3375 37.0946 76.6959C37.4825 75.0544 38.6549 73.9216 39.7126 74.1661C40.7694 74.4106 41.3111 75.9389 40.9232 77.5804Z" fill="#310332"/>
<path d="M56.846 81.2582C56.4572 82.8997 55.2857 84.0325 54.228 83.788C53.1713 83.5435 52.6286 82.0152 53.0174 80.3737C53.4054 78.7321 54.5777 77.5994 55.6354 77.8439C56.6922 78.0883 57.234 79.6166 56.846 81.2582Z" fill="#310332"/>
<path d="M39.7793 85.39C39.7793 85.39 43.714 93.1381 50.5361 87.8745" stroke="#310332" stroke-width="1.52696" stroke-miterlimit="10" stroke-linecap="round" stroke-linejoin="round"/>
<path d="M692.854 100.133C686.012 101.688 684.992 102.948 683.731 111.391C682.472 102.948 681.451 101.688 674.608 100.133C681.451 98.5783 682.471 97.319 683.731 88.8752C684.991 97.319 686.012 98.5792 692.854 100.133Z" stroke="#FFCC33" stroke-width="1.35346" stroke-miterlimit="10" stroke-linecap="round" stroke-linejoin="round"/>
<path d="M202.517 76.6244C195.539 78.2093 194.498 79.495 193.213 88.1068C191.928 79.495 190.887 78.2102 183.908 76.6244C190.887 75.0394 191.928 73.7538 193.213 65.142C194.497 73.7538 195.538 75.0394 202.517 76.6244Z" stroke="#009BFC" stroke-width="1.38046" stroke-miterlimit="10" stroke-linecap="round" stroke-linejoin="round"/>
<path d="M55.7697 24.5288C50.4448 25.738 49.6508 26.7188 48.6705 33.2897C47.6902 26.7188 46.8952 25.7389 41.5713 24.5288C46.8962 23.3195 47.6902 22.3388 48.6705 15.7678C49.6508 22.3388 50.4458 23.3195 55.7697 24.5288Z" stroke="#009BFC" stroke-width="1.05328" stroke-miterlimit="10" stroke-linecap="round" stroke-linejoin="round"/>
<path d="M746.122 76.4704C746.127 78.4282 745.32 78.8068 745.32 78.8068C745.32 78.8068 739.727 83.0499 720.679 47.9599C717.004 41.1945 712.841 32.9753 708.109 22.975C707.733 22.1726 707.353 21.3617 706.968 20.5433L710.111 18.6375C710.671 19.3398 711.225 20.0336 711.766 20.7246C741.671 58.4917 746.128 71.8592 746.122 76.4704Z" fill="#FF6537"/>
<path d="M707.666 23.0213C707.666 23.0213 690.902 26.7764 694.412 -1.21972L697.513 6.86818C697.513 6.86818 700.486 -4.78319 689.625 -7.57261C689.625 -7.57261 703.096 -10.6367 710.323 1.77265C717.55 14.182 712.029 20.3773 712.029 20.3773C712.029 20.3773 710.395 22.8854 707.666 23.0213Z" fill="#FFCC33"/>
<path d="M704.845 16.545C706.745 14.7307 706.818 11.845 706.565 9.4086C706.517 9.07254 707.018 8.93095 707.16 9.23396C708.268 11.4343 709.294 13.6829 709.847 16.0994C710.007 17.0094 710.187 17.8646 709.746 18.8029L708.98 18.2715C713.048 12.2509 709.107 4.7775 704.94 -0.124512C708.693 3.50315 711.983 8.34758 711.539 13.7744C711.357 15.5699 710.846 17.3285 709.705 18.8615C709.552 19.0663 709.261 19.1107 709.054 18.9596C708.869 18.8256 708.814 18.583 708.911 18.3867C709.183 17.8901 709.095 17.0453 708.949 16.2769C708.462 13.9528 707.535 11.7053 706.596 9.51621L707.195 9.35101C707.343 11.8657 707.02 14.91 704.845 16.545Z" fill="#FF6537"/>
<path d="M193.383 19.0605L183.58 20.7238L188.206 12.0242L183.576 3.32741L193.38 4.9869L200.322 -2.05225L201.754 7.67248L210.675 12.0204L201.756 16.3711L200.328 26.0959L193.383 19.0605Z" fill="#FFCC33"/>
<path d="M370.725 221.368C370.725 221.368 372.457 211.89 364.875 212.617C357.293 213.344 358.559 220.149 362.455 219.423C365.384 218.876 369.502 209.491 362.607 206.567C355.71 203.642 349.774 207.749 352.411 211.364C354.779 214.609 363.446 207.182 357.525 202.407C351.603 197.632 348.106 200.442 348.106 200.442" stroke="#310332" stroke-width="0.943965" stroke-miterlimit="10" stroke-linecap="round" stroke-linejoin="round"/>
<path d="M99.4611 193.664C99.1707 193.549 98.8821 193.419 98.6031 193.267C96.7925 192.296 95.4758 190.685 94.8939 188.734L88.6805 167.923C88.2132 166.356 88.39 164.703 89.1811 163.264C89.9704 161.828 91.2832 160.781 92.8702 160.322C96.1456 159.368 99.5968 161.224 100.565 164.46L106.056 182.842C106.776 185.261 105.374 187.805 102.927 188.522C100.479 189.235 97.9027 187.847 97.1804 185.43L92.0065 168.112C91.8804 167.683 92.1288 167.238 92.5588 167.113C92.9887 166.986 93.4416 167.23 93.5677 167.657L98.7397 184.975C99.207 186.541 100.879 187.441 102.467 186.979C104.051 186.517 104.961 184.866 104.496 183.295L99.0063 164.914C98.2907 162.529 95.7462 161.158 93.3289 161.861C92.1575 162.204 91.1934 162.974 90.6058 164.035C90.0248 165.092 89.8939 166.311 90.2389 167.47L96.4533 188.275C96.9119 189.818 97.9524 191.089 99.378 191.856C100.805 192.617 102.451 192.791 104.01 192.342C107.228 191.404 109.069 188.056 108.124 184.877L104.411 172.441C104.284 172.017 104.532 171.57 104.962 171.447C105.393 171.318 105.846 171.563 105.973 171.987L109.682 184.423C110.887 188.452 108.545 192.693 104.472 193.882C102.801 194.369 101.058 194.289 99.4611 193.664Z" fill="white"/>
<path d="M76.0365 166.028C76.2773 165.934 76.5162 165.826 76.7474 165.7C78.2484 164.894 79.3396 163.559 79.8221 161.943L84.9731 144.692C85.3601 143.393 85.2139 142.022 84.5575 140.831C83.903 139.641 82.8147 138.772 81.4999 138.392C78.7854 137.601 75.9247 139.14 75.1212 141.822L70.5693 157.06C69.9721 159.065 71.1349 161.174 73.1634 161.768C75.1919 162.359 77.3274 161.208 77.9264 159.205L82.2146 144.849C82.3188 144.493 82.1133 144.125 81.7569 144.021C81.4006 143.917 81.0251 144.118 80.9199 144.473L76.6327 158.829C76.2448 160.126 74.8594 160.873 73.5427 160.49C72.2299 160.108 71.476 158.739 71.8611 157.436L76.4111 142.2C77.0044 140.223 79.1141 139.086 81.1177 139.668C82.0895 139.953 82.8882 140.591 83.3746 141.47C83.8561 142.347 83.9651 143.357 83.6794 144.318L78.5284 161.564C78.1481 162.843 77.2853 163.897 76.1043 164.533C74.9215 165.163 73.557 165.308 72.2652 164.936C69.5985 164.158 68.0707 161.383 68.8542 158.747L71.9318 148.439C72.0369 148.087 71.8314 147.717 71.4751 147.615C71.1177 147.508 70.7422 147.711 70.6371 148.063L67.5624 158.371C66.5629 161.71 68.5054 165.226 71.8811 166.211C73.2694 166.612 74.7141 166.545 76.0365 166.028Z" fill="white"/>
<path d="M743.224 119.71C743.224 119.71 718.813 139.988 728.641 173.567" stroke="#571416" stroke-width="0.943965" stroke-miterlimit="10"/>
<path d="M739.286 135.741C739.286 135.741 727.969 143.334 727.267 148.052" stroke="#571416" stroke-width="0.943965" stroke-miterlimit="10"/>
<path d="M725.364 124.21C725.364 124.21 723.534 139.323 726.803 150.781" stroke="#571416" stroke-width="0.943965" stroke-miterlimit="10"/>
<path d="M715.946 142.821C715.946 142.821 721.929 158.626 726.308 162.455" stroke="#571416" stroke-width="0.943965" stroke-miterlimit="10"/>
<path d="M736.216 150.783C736.216 150.783 727.861 154.502 726.408 161" stroke="#571416" stroke-width="0.943965" stroke-miterlimit="10"/>
<path d="M725.25 125.322C725.25 125.322 734.273 117.738 724.854 102.567C724.854 102.567 715.41 117.432 725.25 125.322Z" fill="#029254"/>
<path d="M738.826 136.092C738.826 136.092 750.161 139.497 757.995 123.471C757.995 123.471 740.231 123.649 738.826 136.092Z" fill="#029254"/>
<path d="M735.397 151.311C735.397 151.311 746.536 155.297 755.208 139.697C755.208 139.697 737.459 138.957 735.397 151.311Z" fill="#029254"/>
<path d="M742.728 120.271C742.728 120.271 757.528 121.752 763.249 100.133C763.249 100.133 741.408 104.605 742.728 120.271Z" fill="#029254"/>
<path d="M716.472 143.819C716.472 143.819 722.953 133.016 708.043 120.863C708.043 120.863 703.704 139.2 716.472 143.819Z" fill="#029254"/>
<mask id="mask1_905_3038" style="mask-type:luminance" maskUnits="userSpaceOnUse" x="608" y="82" width="184" height="144">
<path d="M791.256 82.713H608.334V225.587H791.256V82.713Z" fill="white"/>
</mask>
<g mask="url(#mask1_905_3038)">
<path d="M627.401 222.04C648.175 203.773 675.357 192.608 703.167 191.366C713.301 190.914 723.5 191.713 733.568 190.488C743.636 189.262 753.905 185.699 760.561 178.137C763.986 174.245 766.265 169.521 768.502 164.861C774.848 151.645 781.194 138.429 787.539 125.213C790.503 119.04 793.96 112.445 798.789 107.756" stroke="#310332" stroke-width="0.943965" stroke-linecap="round" stroke-linejoin="round" stroke-dasharray="11.42 11.42"/>
</g>
<path d="M727.497 170.671C727.497 170.671 722.652 175.97 726.515 180.983L659.457 173.127L660.522 162.102L727.497 170.671Z" fill="#FCEEEB"/>
<path d="M660.279 164.128C681.552 166.348 705.383 169.137 726.59 171.897C705.318 169.678 681.487 166.885 660.279 164.128Z" fill="#2D2D29"/>
<path d="M659.998 166.476C680.983 168.663 704.493 171.415 725.413 174.14C704.427 171.956 680.918 169.2 659.998 166.476Z" fill="#2D2D29"/>
<path d="M659.703 168.926C680.659 171.109 704.134 173.857 725.024 176.579C704.069 174.398 680.594 171.646 659.703 168.926Z" fill="#2D2D29"/>
<path d="M659.467 170.892C680.517 173.086 704.098 175.847 725.084 178.58C704.034 176.388 680.453 173.623 659.467 170.892Z" fill="#2D2D29"/>
<path d="M660.668 166.631C660.72 166.203 660.777 165.722 660.84 165.199C661.145 162.658 662.993 163.083 662.993 163.083L728.52 170.76L728.871 167.839L662.832 160.103C661.784 159.98 661.016 160.229 660.452 160.654V160.653L660.449 160.655C660.399 160.693 660.353 160.731 660.307 160.77C660.301 160.775 660.297 160.78 660.292 160.783C660.266 160.805 660.24 160.826 660.215 160.849C659.145 161.79 654.916 166.126 658.317 173.355C658.674 174.288 659.438 175.133 661.006 175.317L727.045 183.053L727.396 180.133L661.868 172.455C661.868 172.455 659.97 172.442 660.275 169.902C660.338 169.378 660.396 168.9 660.447 168.468C660.447 168.468 660.535 167.737 660.668 166.631Z" fill="#029254"/>
<path d="M737.913 187.32C737.913 187.32 733.069 192.619 736.932 197.631L660.456 188.672L661.521 177.647L737.913 187.32Z" fill="#FCEEEB"/>
<path d="M661.277 179.673C685.567 182.246 712.781 185.433 737.006 188.545C712.716 185.974 685.503 182.783 661.277 179.673Z" fill="#2D2D29"/>
<path d="M660.996 182.022C684.999 184.562 711.891 187.71 735.828 190.789C711.826 188.251 684.934 185.099 660.996 182.022Z" fill="#2D2D29"/>
<path d="M660.701 184.471C684.673 187.008 711.533 190.152 735.44 193.228C711.468 190.694 684.609 187.545 660.701 184.471Z" fill="#2D2D29"/>
<path d="M660.466 186.438C684.533 188.985 711.498 192.142 735.5 195.229C711.433 192.683 684.468 189.523 660.466 186.438Z" fill="#2D2D29"/>
<path d="M661.666 182.176C661.718 181.748 661.775 181.267 661.838 180.744C662.143 178.203 663.991 178.628 663.991 178.628L738.936 187.409L739.287 184.488L663.831 175.648C662.783 175.525 662.015 175.775 661.451 176.199L661.448 176.2C661.398 176.238 661.352 176.277 661.306 176.315C661.3 176.32 661.296 176.325 661.291 176.329C661.266 176.35 661.239 176.371 661.214 176.395C660.144 177.335 655.915 181.671 659.316 188.9C659.673 189.833 660.437 190.678 662.005 190.862L737.461 199.702L737.812 196.782L662.866 188.001C662.866 188.001 660.969 187.988 661.273 185.447C661.336 184.923 661.394 184.445 661.445 184.013C661.445 184.014 661.533 183.282 661.666 182.176Z" fill="#FF6537"/>
<path d="M732.747 202.002C732.747 202.002 727.527 210.434 731.39 215.447L654.914 206.487L656.356 192.329L732.747 202.002Z" fill="#FCEEEB"/>
<path d="M656.112 194.355C680.401 196.928 707.616 200.115 731.841 203.227C707.551 200.656 680.337 197.465 656.112 194.355Z" fill="#2D2D29"/>
<path d="M655.831 196.703C679.834 199.244 706.725 202.392 730.663 205.47C706.661 202.934 679.769 199.781 655.831 196.703Z" fill="#2D2D29"/>
<path d="M655.161 202.287C679.133 204.823 705.993 207.968 729.9 211.043C705.927 208.509 679.068 205.359 655.161 202.287Z" fill="#2D2D29"/>
<path d="M655.464 199.758C679.436 202.294 706.295 205.439 730.202 208.514C706.23 205.981 679.372 202.831 655.464 199.758Z" fill="#2D2D29"/>
<path d="M654.925 204.252C678.992 206.8 705.957 209.957 729.959 213.043C705.892 210.498 678.927 207.337 654.925 204.252Z" fill="#2D2D29"/>
<path d="M656.503 196.858C656.555 196.429 656.612 195.949 656.675 195.426C656.98 192.885 658.828 193.31 658.828 193.31L733.774 202.09L734.124 199.17L658.668 190.33C657.62 190.207 656.852 190.456 656.288 190.881L656.285 190.882C656.236 190.92 656.189 190.958 656.143 190.997C656.137 191.002 656.133 191.006 656.129 191.01C656.102 191.032 656.076 191.053 656.051 191.076C654.981 192.016 650.377 199.486 653.776 206.716C654.134 207.648 654.898 208.493 656.466 208.677L731.922 217.518L732.272 214.597L657.327 205.816C657.327 205.816 655.429 205.803 655.734 203.263C655.797 202.739 655.854 202.26 655.906 201.829C655.907 201.829 656.37 197.963 656.503 196.858Z" fill="#FFCC33"/>
<path d="M401.334 67.6046L394.264 91.9996H390.694L385.024 72.3646L379.144 91.9996L375.609 92.0346L368.784 67.6046H372.179L377.499 88.2896L383.379 67.6046H386.949L392.549 88.2196L397.904 67.6046H401.334ZM422.319 81.6746C422.319 82.2813 422.284 82.923 422.214 83.5996H406.884C407.001 85.4896 407.642 86.9713 408.809 88.0446C409.999 89.0946 411.434 89.6196 413.114 89.6196C414.491 89.6196 415.634 89.3046 416.544 88.6746C417.477 88.0213 418.131 87.158 418.504 86.0846H421.934C421.421 87.928 420.394 89.433 418.854 90.5996C417.314 91.743 415.401 92.3146 413.114 92.3146C411.294 92.3146 409.661 91.9063 408.214 91.0896C406.791 90.273 405.671 89.118 404.854 87.6246C404.037 86.108 403.629 84.358 403.629 82.3746C403.629 80.3913 404.026 78.653 404.819 77.1596C405.612 75.6663 406.721 74.523 408.144 73.7296C409.591 72.913 411.247 72.5046 413.114 72.5046C414.934 72.5046 416.544 72.9013 417.944 73.6946C419.344 74.488 420.417 75.5846 421.164 76.9846C421.934 78.3613 422.319 79.9246 422.319 81.6746ZM419.029 81.0096C419.029 79.7963 418.761 78.758 418.224 77.8946C417.687 77.008 416.952 76.343 416.019 75.8996C415.109 75.433 414.094 75.1996 412.974 75.1996C411.364 75.1996 409.987 75.713 408.844 76.7396C407.724 77.7663 407.082 79.1896 406.919 81.0096H419.029ZM429.708 66.0996V91.9996H426.523V66.0996H429.708ZM433.946 82.3746C433.946 80.3913 434.343 78.6646 435.136 77.1946C435.93 75.7013 437.026 74.5463 438.426 73.7296C439.85 72.913 441.471 72.5046 443.291 72.5046C445.648 72.5046 447.585 73.0763 449.101 74.2196C450.641 75.363 451.656 76.9496 452.146 78.9796H448.716C448.39 77.813 447.748 76.8913 446.791 76.2146C445.858 75.538 444.691 75.1996 443.291 75.1996C441.471 75.1996 440.001 75.8296 438.881 77.0896C437.761 78.3263 437.201 80.088 437.201 82.3746C437.201 84.6846 437.761 86.4696 438.881 87.7296C440.001 88.9896 441.471 89.6196 443.291 89.6196C444.691 89.6196 445.858 89.293 446.791 88.6396C447.725 87.9863 448.366 87.053 448.716 85.8396H452.146C451.633 87.7996 450.606 89.3746 449.066 90.5646C447.526 91.7313 445.601 92.3146 443.291 92.3146C441.471 92.3146 439.85 91.9063 438.426 91.0896C437.026 90.273 435.93 89.118 435.136 87.6246C434.343 86.1313 433.946 84.3813 433.946 82.3746ZM464.761 92.3146C462.965 92.3146 461.331 91.9063 459.861 91.0896C458.415 90.273 457.271 89.118 456.431 87.6246C455.615 86.108 455.206 84.358 455.206 82.3746C455.206 80.4146 455.626 78.688 456.466 77.1946C457.33 75.678 458.496 74.523 459.966 73.7296C461.436 72.913 463.081 72.5046 464.901 72.5046C466.721 72.5046 468.366 72.913 469.836 73.7296C471.306 74.523 472.461 75.6663 473.301 77.1596C474.165 78.653 474.596 80.3913 474.596 82.3746C474.596 84.358 474.153 86.108 473.266 87.6246C472.403 89.118 471.225 90.273 469.731 91.0896C468.238 91.9063 466.581 92.3146 464.761 92.3146ZM464.761 89.5146C465.905 89.5146 466.978 89.2463 467.981 88.7096C468.985 88.173 469.79 87.368 470.396 86.2946C471.026 85.2213 471.341 83.9146 471.341 82.3746C471.341 80.8346 471.038 79.528 470.431 78.4546C469.825 77.3813 469.031 76.588 468.051 76.0746C467.071 75.538 466.01 75.2696 464.866 75.2696C463.7 75.2696 462.626 75.538 461.646 76.0746C460.69 76.588 459.92 77.3813 459.336 78.4546C458.753 79.528 458.461 80.8346 458.461 82.3746C458.461 83.938 458.741 85.2563 459.301 86.3296C459.885 87.403 460.655 88.208 461.611 88.7446C462.568 89.258 463.618 89.5146 464.761 89.5146ZM501.849 72.4696C503.342 72.4696 504.672 72.7846 505.839 73.4146C507.006 74.0213 507.927 74.943 508.604 76.1796C509.281 77.4163 509.619 78.9213 509.619 80.6946V91.9996H506.469V81.1496C506.469 79.2363 505.991 77.778 505.034 76.7746C504.101 75.748 502.829 75.2346 501.219 75.2346C499.562 75.2346 498.244 75.7713 497.264 76.8446C496.284 77.8946 495.794 79.423 495.794 81.4296V91.9996H492.644V81.1496C492.644 79.2363 492.166 77.778 491.209 76.7746C490.276 75.748 489.004 75.2346 487.394 75.2346C485.737 75.2346 484.419 75.7713 483.439 76.8446C482.459 77.8946 481.969 79.423 481.969 81.4296V91.9996H478.784V72.8196H481.969V75.5846C482.599 74.5813 483.439 73.8113 484.489 73.2746C485.562 72.738 486.741 72.4696 488.024 72.4696C489.634 72.4696 491.057 72.8313 492.294 73.5546C493.531 74.278 494.452 75.3396 495.059 76.7396C495.596 75.3863 496.482 74.3363 497.719 73.5896C498.956 72.843 500.332 72.4696 501.849 72.4696ZM532.343 81.6746C532.343 82.2813 532.308 82.923 532.238 83.5996H516.908C517.025 85.4896 517.667 86.9713 518.833 88.0446C520.023 89.0946 521.458 89.6196 523.138 89.6196C524.515 89.6196 525.658 89.3046 526.568 88.6746C527.502 88.0213 528.155 87.158 528.528 86.0846H531.958C531.445 87.928 530.418 89.433 528.878 90.5996C527.338 91.743 525.425 92.3146 523.138 92.3146C521.318 92.3146 519.685 91.9063 518.238 91.0896C516.815 90.273 515.695 89.118 514.878 87.6246C514.062 86.108 513.653 84.358 513.653 82.3746C513.653 80.3913 514.05 78.653 514.843 77.1596C515.637 75.6663 516.745 74.523 518.168 73.7296C519.615 72.913 521.272 72.5046 523.138 72.5046C524.958 72.5046 526.568 72.9013 527.968 73.6946C529.368 74.488 530.442 75.5846 531.188 76.9846C531.958 78.3613 532.343 79.9246 532.343 81.6746ZM529.053 81.0096C529.053 79.7963 528.785 78.758 528.248 77.8946C527.712 77.008 526.977 76.343 526.043 75.8996C525.133 75.433 524.118 75.1996 522.998 75.1996C521.388 75.1996 520.012 75.713 518.868 76.7396C517.748 77.7663 517.107 79.1896 516.943 81.0096H529.053ZM549.764 75.4446V86.7496C549.764 87.683 549.962 88.348 550.359 88.7446C550.755 89.118 551.444 89.3046 552.424 89.3046H554.769V91.9996H551.899C550.125 91.9996 548.795 91.5913 547.909 90.7746C547.022 89.958 546.579 88.6163 546.579 86.7496V75.4446H544.094V72.8196H546.579V67.9896H549.764V72.8196H554.769V75.4446H549.764ZM566.993 92.3146C565.196 92.3146 563.563 91.9063 562.093 91.0896C560.646 90.273 559.503 89.118 558.663 87.6246C557.846 86.108 557.438 84.358 557.438 82.3746C557.438 80.4146 557.858 78.688 558.698 77.1946C559.561 75.678 560.728 74.523 562.198 73.7296C563.668 72.913 565.313 72.5046 567.133 72.5046C568.953 72.5046 570.598 72.913 572.068 73.7296C573.538 74.523 574.693 75.6663 575.533 77.1596C576.396 78.653 576.828 80.3913 576.828 82.3746C576.828 84.358 576.384 86.108 575.498 87.6246C574.634 89.118 573.456 90.273 571.963 91.0896C570.469 91.9063 568.813 92.3146 566.993 92.3146ZM566.993 89.5146C568.136 89.5146 569.209 89.2463 570.213 88.7096C571.216 88.173 572.021 87.368 572.628 86.2946C573.258 85.2213 573.573 83.9146 573.573 82.3746C573.573 80.8346 573.269 79.528 572.663 78.4546C572.056 77.3813 571.263 76.588 570.283 76.0746C569.303 75.538 568.241 75.2696 567.098 75.2696C565.931 75.2696 564.858 75.538 563.878 76.0746C562.921 76.588 562.151 77.3813 561.568 78.4546C560.984 79.528 560.693 80.8346 560.693 82.3746C560.693 83.938 560.973 85.2563 561.533 86.3296C562.116 87.403 562.886 88.208 563.843 88.7446C564.799 89.258 565.849 89.5146 566.993 89.5146ZM369.484 124.785C369.484 122.405 370.02 120.27 371.094 118.38C372.167 116.466 373.625 114.973 375.469 113.9C377.335 112.826 379.4 112.29 381.664 112.29C384.324 112.29 386.645 112.931 388.629 114.215C390.612 115.498 392.059 117.318 392.969 119.675H389.154C388.477 118.205 387.497 117.073 386.214 116.28C384.954 115.486 383.437 115.09 381.664 115.09C379.96 115.09 378.432 115.486 377.079 116.28C375.725 117.073 374.664 118.205 373.894 119.675C373.124 121.121 372.739 122.825 372.739 124.785C372.739 126.721 373.124 128.425 373.894 129.895C374.664 131.341 375.725 132.461 377.079 133.255C378.432 134.048 379.96 134.445 381.664 134.445C383.437 134.445 384.954 134.06 386.214 133.29C387.497 132.496 388.477 131.365 389.154 129.895H392.969C392.059 132.228 390.612 134.036 388.629 135.32C386.645 136.58 384.324 137.21 381.664 137.21C379.4 137.21 377.335 136.685 375.469 135.635C373.625 134.561 372.167 133.08 371.094 131.19C370.02 129.3 369.484 127.165 369.484 124.785ZM400.895 111.1V137H397.71V111.1H400.895ZM405.133 127.34C405.133 125.38 405.53 123.665 406.323 122.195C407.116 120.701 408.201 119.546 409.578 118.73C410.978 117.913 412.53 117.505 414.233 117.505C415.913 117.505 417.371 117.866 418.608 118.59C419.845 119.313 420.766 120.223 421.373 121.32V117.82H424.593V137H421.373V133.43C420.743 134.55 419.798 135.483 418.538 136.23C417.301 136.953 415.855 137.315 414.198 137.315C412.495 137.315 410.955 136.895 409.578 136.055C408.201 135.215 407.116 134.036 406.323 132.52C405.53 131.003 405.133 129.276 405.133 127.34ZM421.373 127.375C421.373 125.928 421.081 124.668 420.498 123.595C419.915 122.521 419.121 121.705 418.118 121.145C417.138 120.561 416.053 120.27 414.863 120.27C413.673 120.27 412.588 120.55 411.608 121.11C410.628 121.67 409.846 122.486 409.263 123.56C408.68 124.633 408.388 125.893 408.388 127.34C408.388 128.81 408.68 130.093 409.263 131.19C409.846 132.263 410.628 133.091 411.608 133.675C412.588 134.235 413.673 134.515 414.863 134.515C416.053 134.515 417.138 134.235 418.118 133.675C419.121 133.091 419.915 132.263 420.498 131.19C421.081 130.093 421.373 128.821 421.373 127.375ZM436.765 137.315C435.295 137.315 433.977 137.07 432.81 136.58C431.644 136.066 430.722 135.366 430.045 134.48C429.369 133.57 428.995 132.531 428.925 131.365H432.215C432.309 132.321 432.752 133.103 433.545 133.71C434.362 134.316 435.424 134.62 436.73 134.62C437.944 134.62 438.9 134.351 439.6 133.815C440.3 133.278 440.65 132.601 440.65 131.785C440.65 130.945 440.277 130.326 439.53 129.93C438.784 129.51 437.629 129.101 436.065 128.705C434.642 128.331 433.475 127.958 432.565 127.585C431.679 127.188 430.909 126.616 430.255 125.87C429.625 125.1 429.31 124.096 429.31 122.86C429.31 121.88 429.602 120.981 430.185 120.165C430.769 119.348 431.597 118.706 432.67 118.24C433.744 117.75 434.969 117.505 436.345 117.505C438.469 117.505 440.184 118.041 441.49 119.115C442.797 120.188 443.497 121.658 443.59 123.525H440.405C440.335 122.521 439.927 121.716 439.18 121.11C438.457 120.503 437.477 120.2 436.24 120.2C435.097 120.2 434.187 120.445 433.51 120.935C432.834 121.425 432.495 122.066 432.495 122.86C432.495 123.49 432.694 124.015 433.09 124.435C433.51 124.831 434.024 125.158 434.63 125.415C435.26 125.648 436.124 125.916 437.22 126.22C438.597 126.593 439.717 126.966 440.58 127.34C441.444 127.69 442.179 128.226 442.785 128.95C443.415 129.673 443.742 130.618 443.765 131.785C443.765 132.835 443.474 133.78 442.89 134.62C442.307 135.46 441.479 136.125 440.405 136.615C439.355 137.081 438.142 137.315 436.765 137.315ZM455.051 137.315C453.581 137.315 452.263 137.07 451.096 136.58C449.93 136.066 449.008 135.366 448.331 134.48C447.655 133.57 447.281 132.531 447.211 131.365H450.501C450.595 132.321 451.038 133.103 451.831 133.71C452.648 134.316 453.71 134.62 455.016 134.62C456.23 134.62 457.186 134.351 457.886 133.815C458.586 133.278 458.936 132.601 458.936 131.785C458.936 130.945 458.563 130.326 457.816 129.93C457.07 129.51 455.915 129.101 454.351 128.705C452.928 128.331 451.761 127.958 450.851 127.585C449.965 127.188 449.195 126.616 448.541 125.87C447.911 125.1 447.596 124.096 447.596 122.86C447.596 121.88 447.888 120.981 448.471 120.165C449.055 119.348 449.883 118.706 450.956 118.24C452.03 117.75 453.255 117.505 454.631 117.505C456.755 117.505 458.47 118.041 459.776 119.115C461.083 120.188 461.783 121.658 461.876 123.525H458.691C458.621 122.521 458.213 121.716 457.466 121.11C456.743 120.503 455.763 120.2 454.526 120.2C453.383 120.2 452.473 120.445 451.796 120.935C451.12 121.425 450.781 122.066 450.781 122.86C450.781 123.49 450.98 124.015 451.376 124.435C451.796 124.831 452.31 125.158 452.916 125.415C453.546 125.648 454.41 125.916 455.506 126.22C456.883 126.593 458.003 126.966 458.866 127.34C459.73 127.69 460.465 128.226 461.071 128.95C461.701 129.673 462.028 130.618 462.051 131.785C462.051 132.835 461.76 133.78 461.176 134.62C460.593 135.46 459.765 136.125 458.691 136.615C457.641 137.081 456.428 137.315 455.051 137.315ZM469.733 120.935C470.293 119.838 471.086 118.986 472.113 118.38C473.163 117.773 474.434 117.47 475.928 117.47V120.76H475.088C471.518 120.76 469.733 122.696 469.733 126.57V137H466.548V117.82H469.733V120.935ZM487.969 137.315C486.173 137.315 484.539 136.906 483.069 136.09C481.623 135.273 480.479 134.118 479.639 132.625C478.823 131.108 478.414 129.358 478.414 127.375C478.414 125.415 478.834 123.688 479.674 122.195C480.538 120.678 481.704 119.523 483.174 118.73C484.644 117.913 486.289 117.505 488.109 117.505C489.929 117.505 491.574 117.913 493.044 118.73C494.514 119.523 495.669 120.666 496.509 122.16C497.373 123.653 497.804 125.391 497.804 127.375C497.804 129.358 497.361 131.108 496.474 132.625C495.611 134.118 494.433 135.273 492.939 136.09C491.446 136.906 489.789 137.315 487.969 137.315ZM487.969 134.515C489.113 134.515 490.186 134.246 491.189 133.71C492.193 133.173 492.998 132.368 493.604 131.295C494.234 130.221 494.549 128.915 494.549 127.375C494.549 125.835 494.246 124.528 493.639 123.455C493.033 122.381 492.239 121.588 491.259 121.075C490.279 120.538 489.218 120.27 488.074 120.27C486.908 120.27 485.834 120.538 484.854 121.075C483.898 121.588 483.128 122.381 482.544 123.455C481.961 124.528 481.669 125.835 481.669 127.375C481.669 128.938 481.949 130.256 482.509 131.33C483.093 132.403 483.863 133.208 484.819 133.745C485.776 134.258 486.826 134.515 487.969 134.515ZM510.357 137.315C508.56 137.315 506.927 136.906 505.457 136.09C504.01 135.273 502.867 134.118 502.027 132.625C501.21 131.108 500.802 129.358 500.802 127.375C500.802 125.415 501.222 123.688 502.062 122.195C502.925 120.678 504.092 119.523 505.562 118.73C507.032 117.913 508.677 117.505 510.497 117.505C512.317 117.505 513.962 117.913 515.432 118.73C516.902 119.523 518.057 120.666 518.897 122.16C519.76 123.653 520.192 125.391 520.192 127.375C520.192 129.358 519.749 131.108 518.862 132.625C517.999 134.118 516.82 135.273 515.327 136.09C513.834 136.906 512.177 137.315 510.357 137.315ZM510.357 134.515C511.5 134.515 512.574 134.246 513.577 133.71C514.58 133.173 515.385 132.368 515.992 131.295C516.622 130.221 516.937 128.915 516.937 127.375C516.937 125.835 516.634 124.528 516.027 123.455C515.42 122.381 514.627 121.588 513.647 121.075C512.667 120.538 511.605 120.27 510.462 120.27C509.295 120.27 508.222 120.538 507.242 121.075C506.285 121.588 505.515 122.381 504.932 123.455C504.349 124.528 504.057 125.835 504.057 127.375C504.057 128.938 504.337 130.256 504.897 131.33C505.48 132.403 506.25 133.208 507.207 133.745C508.164 134.258 509.214 134.515 510.357 134.515ZM547.445 117.47C548.938 117.47 550.268 117.785 551.435 118.415C552.601 119.021 553.523 119.943 554.2 121.18C554.876 122.416 555.215 123.921 555.215 125.695V137H552.065V126.15C552.065 124.236 551.586 122.778 550.63 121.775C549.696 120.748 548.425 120.235 546.815 120.235C545.158 120.235 543.84 120.771 542.86 121.845C541.88 122.895 541.39 124.423 541.39 126.43V137H538.24V126.15C538.24 124.236 537.761 122.778 536.805 121.775C535.871 120.748 534.6 120.235 532.99 120.235C531.333 120.235 530.015 120.771 529.035 121.845C528.055 122.895 527.565 124.423 527.565 126.43V137H524.38V117.82H527.565V120.585C528.195 119.581 529.035 118.811 530.085 118.275C531.158 117.738 532.336 117.47 533.62 117.47C535.23 117.47 536.653 117.831 537.89 118.555C539.126 119.278 540.048 120.34 540.655 121.74C541.191 120.386 542.078 119.336 543.315 118.59C544.551 117.843 545.928 117.47 547.445 117.47Z" fill="white"/>
</g>
<defs>
<clipPath id="clip0_905_3038">
<rect width="783.491" height="294.517" fill="white" transform="translate(0.253906 -37.2585)"/>
</clipPath>
</defs>
</svg>
