<svg width="42" height="46" viewBox="0 0 42 46" fill="none" xmlns="http://www.w3.org/2000/svg">
<rect y="0.5" width="42" height="45" rx="5" fill="#FFED9F"/>
<path d="M21.0196 13.91C17.7096 13.91 15.0196 16.6 15.0196 19.91V22.8C15.0196 23.41 14.7596 24.34 14.4496 24.86L13.2996 26.77C12.5896 27.95 13.0796 29.26 14.3796 29.7C18.6896 31.14 23.3396 31.14 27.6496 29.7C28.8596 29.3 29.3896 27.87 28.7296 26.77L27.5796 24.86C27.2796 24.34 27.0196 23.41 27.0196 22.8V19.91C27.0196 16.61 24.3196 13.91 21.0196 13.91Z" stroke="#FCA52B" stroke-width="1.5" stroke-miterlimit="10" stroke-linecap="round"/>
<path d="M22.8699 14.1999C22.5599 14.1099 22.2399 14.0399 21.9099 13.9999C20.9499 13.8799 20.0299 13.9499 19.1699 14.1999C19.4599 13.4599 20.1799 12.9399 21.0199 12.9399C21.8599 12.9399 22.5799 13.4599 22.8699 14.1999Z" stroke="#FCA52B" stroke-width="1.5" stroke-miterlimit="10" stroke-linecap="round" stroke-linejoin="round"/>
<path d="M24.0195 30.0601C24.0195 31.7101 22.6695 33.0601 21.0195 33.0601C20.1995 33.0601 19.4395 32.7201 18.8995 32.1801C18.3595 31.6401 18.0195 30.8801 18.0195 30.0601" stroke="#FCA52B" stroke-width="1.5" stroke-miterlimit="10"/>
</svg>
