<svg width="75" height="114" viewBox="0 0 75 114" fill="none" xmlns="http://www.w3.org/2000/svg">
<path d="M40.5076 12.4229L41.7101 18.9849L39.6022 19.4522L37.9189 12.9968L40.5076 12.4229ZM41.3448 22.3249C40.9873 22.4042 40.653 22.3473 40.3419 22.1544C40.0332 21.9578 39.8404 21.6788 39.7635 21.3175C39.6826 20.9669 39.7408 20.6388 39.9381 20.3331C40.1386 20.0268 40.4176 19.834 40.775 19.7548C41.114 19.6796 41.4406 19.7381 41.7548 19.9304C42.0721 20.1219 42.2712 20.393 42.3522 20.7436C42.4024 20.9847 42.3878 21.2175 42.3082 21.4421C42.2311 21.6629 42.1084 21.8533 41.9402 22.0135C41.7713 22.1706 41.5729 22.2744 41.3448 22.3249Z" fill="#EB5757"/>
<path d="M52.0473 19.206L52.1119 18.9881C52.2598 18.4887 52.417 18.1023 52.5836 17.829C52.7501 17.5558 52.937 17.3527 53.1443 17.2198C53.3524 17.084 53.59 16.9766 53.857 16.8976C54.0884 16.8279 54.2972 16.7564 54.4835 16.6832C54.6728 16.6109 54.8311 16.5211 54.9583 16.414C55.0885 16.3077 55.1787 16.1698 55.2289 16.0003C55.2738 15.849 55.2769 15.7051 55.2383 15.5685C55.1998 15.432 55.1278 15.3136 55.0226 15.2133C54.9173 15.113 54.789 15.0404 54.6377 14.9956C54.4743 14.9472 54.3117 14.9402 54.1501 14.9746C53.9915 15.0099 53.8501 15.0816 53.7259 15.1897C53.6047 15.2986 53.5181 15.4409 53.4661 15.6164L51.1417 14.9279C51.345 14.2639 51.6564 13.7684 52.0758 13.4417C52.4961 13.1118 52.9801 12.9227 53.5278 12.8742C54.0764 12.8227 54.6443 12.884 55.2314 13.0579C55.8791 13.2497 56.4289 13.5163 56.8809 13.8576C57.3338 14.1959 57.6506 14.5992 57.8312 15.0675C58.0127 15.5327 58.0192 16.0499 57.8506 16.6189C57.7421 16.9851 57.5831 17.2886 57.3735 17.5294C57.1678 17.7681 56.9216 17.9601 56.6349 18.1057C56.3521 18.2491 56.0369 18.3631 55.6892 18.4477C55.4336 18.5103 55.2115 18.5877 55.0228 18.68C54.8351 18.7692 54.6778 18.8889 54.5511 19.039C54.4252 19.1861 54.3264 19.3807 54.2547 19.6228L54.1901 19.8407L52.0473 19.206ZM52.2514 22.5849C51.9003 22.4809 51.6354 22.2691 51.4569 21.9496C51.2822 21.6279 51.2488 21.2904 51.3567 20.9372C51.4559 20.5913 51.6659 20.3325 51.9867 20.1608C52.3105 19.9901 52.648 19.9567 52.9991 20.0607C53.332 20.1593 53.5892 20.3689 53.7709 20.6893C53.9555 21.0107 53.9982 21.3443 53.8991 21.6903C53.8261 21.9254 53.7004 22.122 53.522 22.2798C53.3475 22.4355 53.1478 22.5426 52.9231 22.6012C52.6992 22.6567 52.4753 22.6512 52.2514 22.5849Z" fill="#418DD9"/>
<path fill-rule="evenodd" clip-rule="evenodd" d="M46.8529 39.3101C47.9654 38.0196 48.7183 36.4381 48.5925 34.666C48.23 29.56 41.0376 30.6833 39.6385 33.2603C38.2395 35.8374 38.4057 42.3743 40.2139 42.8349C40.935 43.0186 42.4711 42.5687 44.0346 41.6374L43.0532 48.4983H48.8477L46.8529 39.3101Z" fill="#B28B67"/>
<path fill-rule="evenodd" clip-rule="evenodd" d="M51.119 32.9662C51.3061 32.7829 51.4082 32.5213 51.4965 32.2729C51.5882 32.0148 51.6773 31.7541 51.7382 31.4856C51.8599 30.9489 51.8611 30.3318 51.4737 29.9151C51.163 29.5809 50.6968 29.431 50.2665 29.3984C49.9799 29.3767 49.6855 29.4164 49.4107 29.5057C49.1381 29.5942 48.9031 29.7707 48.6388 29.8802C48.6287 29.3019 48.5285 28.6968 48.2316 28.203C47.9459 27.7279 47.4904 27.4613 46.9717 27.3908C46.4393 27.3184 45.9135 27.4415 45.4369 27.6962C45.3175 27.76 45.1993 27.8268 45.0862 27.9025C44.9915 27.9658 44.893 28.0421 44.7818 28.0679C44.6579 28.0966 44.5965 28.0259 44.5159 27.9366C44.4215 27.8318 44.3151 27.7395 44.2026 27.6578C43.7048 27.2962 43.0517 27.1475 42.475 27.3642C42.2093 27.4641 41.9509 27.6337 41.7706 27.8674C41.61 28.0757 41.4953 28.4061 41.2736 28.5512C41.1794 28.6128 41.113 28.5312 41.0273 28.4709C40.8986 28.3803 40.7758 28.2802 40.6456 28.1921C40.4626 28.0682 40.2645 27.9755 40.0523 27.927C39.7417 27.856 39.3125 27.8726 39.2237 28.2746C39.1904 28.4256 39.216 28.5871 39.2267 28.7392C39.2415 28.9481 39.2569 29.157 39.2753 29.3656C39.2892 29.5239 39.3069 29.6769 39.3371 29.8324C39.3532 29.9153 39.4037 30.0699 39.3677 30.1529C39.3228 30.2567 39.1153 30.1977 39.0267 30.2013C38.8516 30.2084 38.6757 30.2388 38.5139 30.3127C38.3884 30.37 38.2565 30.4543 38.2035 30.5964C38.171 30.6837 38.1795 30.7734 38.1949 30.8632C38.2134 30.971 38.1923 31.0282 38.1785 31.1369C37.9433 31.0225 37.1285 30.7682 37.0259 31.1847C36.9918 31.3234 37.0695 31.4801 37.1288 31.597C37.2329 31.8022 37.3692 31.9896 37.5087 32.1684C37.7995 32.5414 38.1467 32.8631 38.5202 33.1383C38.0826 33.3306 37.9683 33.8977 38.3473 34.2356C38.5146 34.3848 38.7395 34.418 38.9506 34.4085C39.0278 34.405 39.1392 34.3757 39.1999 34.389C39.2327 34.3961 39.2677 34.4235 39.313 34.4266C39.6108 34.4467 39.9471 34.3758 40.2382 34.3105C40.757 34.1941 41.2482 33.9512 41.6492 33.5813C41.7521 33.4864 41.8371 33.4318 41.9756 33.4332C42.097 33.4344 42.216 33.4672 42.3373 33.4703C42.6581 33.4784 42.9473 33.3234 43.2452 33.2202C43.2635 33.6179 43.3781 34.0559 43.5427 34.4137C43.6769 34.7055 43.9573 34.7479 44.2327 34.7735C45.1136 34.8554 45.9976 34.764 46.8796 34.7652C46.0258 34.9559 45.1435 35.0345 44.2973 35.2589C43.9148 35.3603 44.2069 35.6151 44.3705 35.7917C44.6398 36.0826 44.84 36.4429 44.9789 36.8225C45.3966 36.2845 46.1348 35.93 46.7888 36.0953C47.5115 36.2779 48.0204 37.2436 47.5583 37.938C47.29 38.341 46.8055 38.4966 46.4024 38.6698C46.7168 38.9929 46.7929 39.4701 46.9822 39.8721C47.0756 40.0704 47.2066 40.2945 47.4154 40.3636C47.4926 40.3892 47.5832 40.3913 47.6441 40.4536C47.7196 40.5306 47.7376 40.6167 47.834 40.683C48.2187 40.9472 48.8195 40.9269 49.1605 40.582C49.4688 40.2701 49.3886 39.7765 49.1311 39.4603C49.541 39.2914 50.2878 39.0742 50.1249 38.4432C51.0131 38.3849 53.1697 36.9613 51.9775 35.921C52.6318 35.5556 53.2328 34.6626 52.8126 33.8755C52.489 33.2693 51.7364 32.9983 51.119 32.9662Z" fill="#CBAC4F"/>
<path fill-rule="evenodd" clip-rule="evenodd" d="M59.3207 78.3223H40.6687L38.2247 107.908H65.9897L59.3207 78.3223Z" fill="#C5CFD6"/>
<path fill-rule="evenodd" clip-rule="evenodd" d="M59.3207 78.3223H53.5841L50.1507 107.908H65.9897L59.3207 78.3223Z" fill="black" fill-opacity="0.1"/>
<path fill-rule="evenodd" clip-rule="evenodd" d="M19.4042 73.2535C17.4155 72.0735 14.0791 73.5896 14.0813 75.2774C14.0882 80.327 18.7515 104.126 18.995 105.631C19.2385 107.135 21.8467 107.532 21.9986 105.636C22.2403 102.617 22.6893 92.1684 22.24 87.332C22.0546 85.3357 21.8549 83.4344 21.6583 81.7382C24.1053 86.1052 27.8897 92.3576 33.0115 100.495L35.792 99.2401C33.6086 92.1309 31.8182 87.1121 30.4208 84.1835C28.0283 79.1691 25.7848 74.8749 24.8406 73.3623C23.3554 70.983 20.7702 71.8132 19.4042 73.2535Z" fill="#B28B67"/>
<path fill-rule="evenodd" clip-rule="evenodd" d="M35.5932 95.2921L26.0499 72.9509C23.7637 69.3165 17.3537 73.6904 18.1334 75.7983C19.9034 80.5839 28.9055 96.0769 29.4329 97.5026L35.5932 95.2921Z" fill="#1F28CF"/>
<path fill-rule="evenodd" clip-rule="evenodd" d="M36.1144 97.8353C36.7103 98.3214 37.0983 98.7183 37.2781 99.0257C37.4969 99.3997 37.7534 99.9812 38.0476 100.77C37.6106 101.019 33.6836 103.257 26.2665 107.483C25.3726 106.653 25.232 106.01 25.8447 105.554C26.4574 105.098 26.963 104.713 27.3615 104.4L31.4195 98.8562C31.4976 98.7495 31.6486 98.7262 31.7567 98.804C31.7586 98.8053 31.7604 98.8067 31.7622 98.8081L32.6101 99.4552C33.3861 99.3901 33.9651 99.2488 34.3468 99.0312C34.657 98.8545 35.0126 98.486 35.4136 97.9258L35.4136 97.9258C35.5675 97.7109 35.869 97.661 36.0869 97.8144C36.0963 97.8211 36.1055 97.828 36.1144 97.8353Z" fill="#E4E4E4"/>
<path fill-rule="evenodd" clip-rule="evenodd" d="M22.609 104.425C22.8791 105.137 23.0142 105.67 23.0142 106.024C23.0142 106.454 22.9416 107.082 22.7966 107.908C22.2915 107.908 17.7524 107.908 9.1792 107.908C8.82534 106.751 9.02961 106.127 9.79202 106.035C10.5544 105.943 11.1878 105.86 11.6921 105.785L18.0213 102.997C18.1431 102.943 18.2858 102.997 18.3401 103.118C18.341 103.12 18.3419 103.122 18.3428 103.124L18.7496 104.099C19.4554 104.425 20.029 104.587 20.4702 104.587C20.8288 104.587 21.3239 104.444 21.9556 104.158L21.9556 104.158C22.198 104.048 22.4846 104.154 22.5958 104.393C22.6006 104.403 22.605 104.414 22.609 104.425Z" fill="#E4E4E4"/>
<path fill-rule="evenodd" clip-rule="evenodd" d="M13.4127 76.9939C13.4127 83.3326 16.4588 98.1182 16.4607 99.5139L23.0146 99.5189C22.0553 86.3258 21.7152 79.6582 21.9941 79.5161C22.4126 79.3029 39.1483 81.1674 44.1676 81.1674C51.4055 81.1674 54.3996 76.6569 54.6426 68.3013H40.3046C37.3853 68.61 22.1578 71.6452 16.5026 72.6886C14.0815 73.1353 13.4127 75.2478 13.4127 76.9939Z" fill="#2B44FF"/>
<path fill-rule="evenodd" clip-rule="evenodd" d="M38.0703 53.4371L29.6902 48.9013C28.2966 47.266 26.9235 45.9959 25.571 45.091C25.1577 44.9205 24.435 44.8173 25.1109 46.0029C25.7868 47.1884 26.4438 48.4654 26.0994 48.8307C25.7551 49.1959 24.8964 48.6857 24.4856 49.2925C24.2118 49.6971 25.6787 50.3362 28.8865 51.2098L34.9757 56.7195L38.0703 53.4371ZM24.9454 57.264L21.2644 55.2656C20.7479 53.3234 20.1305 52.3462 19.4122 52.3341C18.8603 52.0803 19.8213 54.5345 18.7752 54.3217C17.7292 54.1088 15.176 52.2323 14.736 52.6133C14.0852 53.177 14.6655 54.9078 15.3493 55.7688C16.6273 57.378 17.6854 57.9283 20.3006 58.6489C21.668 59.0257 23.1464 59.7809 24.7358 60.9146L24.9454 57.264Z" fill="#997659"/>
<path fill-rule="evenodd" clip-rule="evenodd" d="M42.152 52.4268C39.2167 52.3962 35.3025 51.7836 31.1261 49.1637L29.4859 52.7784C32.3667 55.6037 36.4174 57.925 39.9593 57.8267C42.7505 57.7493 44.177 54.4128 42.152 52.4268Z" fill="#2026A2"/>
<path fill-rule="evenodd" clip-rule="evenodd" d="M38.1992 58.2236C35.0831 58.9916 29.8575 58.0859 22.5225 55.5066C20.7031 59.2262 19.862 61.8781 19.9993 63.4621C26.2917 66.7103 31.6848 68.1585 36.128 68.2541C35.9868 70.8595 36.3077 73.3386 37.3857 75.6038C39.6019 80.2607 52.5789 75.9479 56.9422 76.7967C59.6746 68.0274 54.3914 64.4635 54.3871 58.8524C54.3825 52.7076 49.3897 43.2493 48.6551 43.2493H41.9561C41.5864 47.9421 39.726 53.1141 38.1992 58.2236Z" fill="#1F28CF"/>
</svg>
