<svg width="712" height="470" viewBox="0 0 712 470" fill="none" xmlns="http://www.w3.org/2000/svg">
<path d="M344.29 448.865C534.436 448.865 688.579 440.723 688.579 430.678C688.579 420.634 534.436 412.491 344.29 412.491C154.144 412.491 0 420.634 0 430.678C0 440.723 154.144 448.865 344.29 448.865Z" fill="#F6F9FF"/>
<path d="M125.826 407.758C92.6227 415.269 55.2824 411.126 28.8112 389.719C2.34043 368.314 -9.17958 327.525 8.41861 298.382C17.239 283.775 32.0984 273.451 40.0229 258.292C49.624 239.926 42.2235 222.454 35.5194 204.305C28.856 186.265 23.9929 166.912 26.848 147.893C31.9538 113.882 61.5237 97.0163 94.0581 98.6501C126.74 100.291 159.172 119.059 192.135 109.805C223.667 100.954 249.599 69.2387 274.149 48.967C333.071 0.31197 419.434 -25.7263 479.157 36.8069C490.593 48.7815 501.462 61.5176 514.928 71.1522C549.663 96.003 594.981 77.917 632.435 96.63C658.471 109.638 680.244 131.527 694.111 157.025C710.867 187.834 718.907 228.477 704.604 261.561C698.198 276.38 686.081 287.491 678.346 301.484C669.6 317.304 670.357 333.619 668.055 351.077C662.098 396.264 615.817 405.864 577.206 406.485C510.541 407.557 443.199 399.668 376.673 395.819C293.028 390.981 208.063 389.154 125.826 407.758Z" fill="#F8F8F8"/>
<path d="M142.816 106.107C142.841 104.74 144.006 103.642 145.447 103.63C181.218 103.312 576.722 97.2691 577.759 102.19C578.845 107.345 577.276 393.499 577.276 393.499C577.276 393.499 143.942 401.746 140.684 396.592C137.603 391.717 142.297 134.073 142.816 106.107Z" fill="#333333"/>
<path d="M105.142 395.552C105.142 395.552 599.646 389.423 611.316 393.152C611.316 393.152 612.999 429.655 611.876 429.655C610.752 429.655 104.515 431.438 105.141 429.655C105.768 427.872 105.142 395.552 105.142 395.552Z" fill="#252834"/>
<mask id="mask0_706_2533" style="mask-type:luminance" maskUnits="userSpaceOnUse" x="105" y="391" width="508" height="40">
<path d="M105.142 395.552C105.142 395.552 599.646 389.423 611.316 393.152C611.316 393.152 612.999 429.655 611.876 429.655C610.752 429.655 104.515 431.438 105.141 429.655C105.768 427.872 105.142 395.552 105.142 395.552Z" fill="white"/>
</mask>
<g mask="url(#mask0_706_2533)">
<path d="M131.9 391.949H120.838V432.791H131.9V391.949Z" fill="#424966"/>
</g>
<mask id="mask1_706_2533" style="mask-type:luminance" maskUnits="userSpaceOnUse" x="105" y="391" width="508" height="40">
<path d="M105.142 395.552C105.142 395.552 599.646 389.423 611.316 393.152C611.316 393.152 612.999 429.655 611.876 429.655C610.752 429.655 104.515 431.438 105.141 429.655C105.768 427.872 105.142 395.552 105.142 395.552Z" fill="white"/>
</mask>
<g mask="url(#mask1_706_2533)">
<path d="M145.587 391.949H142.399V432.791H145.587V391.949Z" fill="#424966"/>
</g>
<path d="M152.842 118.033C152.842 118.033 149.992 386.005 152.842 386.005C155.691 386.005 565.082 384.755 565.707 382.255C566.332 379.754 564.457 115.969 561.957 115.344C559.457 114.719 152.842 118.033 152.842 118.033Z" fill="#252834"/>
<mask id="mask2_706_2533" style="mask-type:luminance" maskUnits="userSpaceOnUse" x="151" y="115" width="415" height="272">
<path d="M152.842 118.033C152.842 118.033 149.992 386.005 152.842 386.005C155.691 386.005 565.082 384.755 565.707 382.255C566.332 379.754 564.457 115.969 561.957 115.344C559.457 114.719 152.842 118.033 152.842 118.033Z" fill="white"/>
</mask>
<g mask="url(#mask2_706_2533)">
<path opacity="0.2" d="M218.964 113.135L140.815 228.778L145.46 342.467L263.637 210.241L145.587 391.949H284.063L352.633 286.418L308.354 391.949H467.108L545.816 249.277L487.88 386.005H573.299V115.265H519.501L421.03 309.782L506.449 113.135L382.403 116.265L280.198 286.418L375.724 116.313L218.964 113.135Z" fill="#8B909F"/>
</g>
<path d="M390.408 402.516H326.996C321.16 402.516 316.43 397.785 316.43 391.949H400.975C400.974 397.785 396.244 402.516 390.408 402.516Z" fill="white"/>
<path d="M352.632 113.135C354.492 113.135 356 111.627 356 109.767C356 107.907 354.492 106.399 352.632 106.399C350.772 106.399 349.265 107.907 349.265 109.767C349.265 111.627 350.772 113.135 352.632 113.135Z" fill="#252834"/>
<path d="M364.77 113.135C366.63 113.135 368.138 111.627 368.138 109.767C368.138 107.907 366.63 106.399 364.77 106.399C362.91 106.399 361.402 107.907 361.402 109.767C361.402 111.627 362.91 113.135 364.77 113.135Z" fill="#252834"/>
<path d="M467.107 263.017C451.12 263.017 438.113 250.009 438.113 234.02C438.113 218.031 451.12 205.023 467.107 205.023C483.095 205.023 496.102 218.031 496.102 234.02C496.102 250.008 483.095 263.017 467.107 263.017ZM517.701 226.098H509.801C508.702 220.104 506.358 214.445 502.898 209.429L508.483 203.843C509.186 203.14 509.186 202 508.483 201.296L499.827 192.639C499.124 191.936 497.984 191.936 497.281 192.639L491.695 198.226C486.68 194.764 481.022 192.42 475.029 191.321V183.421C475.029 182.427 474.223 181.621 473.228 181.621H460.987C459.993 181.621 459.186 182.427 459.186 183.421V191.321C453.193 192.42 447.534 194.764 442.519 198.226L436.934 192.639C436.231 191.936 435.091 191.936 434.388 192.639L425.731 201.296C425.028 201.999 425.028 203.14 425.731 203.843L431.317 209.429C427.856 214.445 425.512 220.104 424.413 226.098H416.514C415.52 226.098 414.714 226.904 414.714 227.898V240.141C414.714 241.135 415.52 241.942 416.514 241.942H424.413C425.512 247.936 427.856 253.595 431.317 258.61L425.731 264.196C425.028 264.899 425.028 266.039 425.731 266.743L434.388 275.4C435.091 276.103 436.23 276.103 436.934 275.4L442.519 269.814C447.534 273.275 453.193 275.619 459.186 276.718V284.618C459.186 285.612 459.993 286.418 460.987 286.418H473.228C474.222 286.418 475.029 285.612 475.029 284.618V276.718C481.022 275.619 486.68 273.275 491.695 269.814L497.281 275.4C497.984 276.103 499.124 276.103 499.827 275.4L508.483 266.743C509.186 266.04 509.186 264.9 508.483 264.196L502.898 258.61C506.358 253.595 508.702 247.936 509.801 241.942H517.701C518.695 241.942 519.501 241.136 519.501 240.141V227.898C519.501 226.904 518.695 226.098 517.701 226.098Z" fill="white"/>
<path d="M343.568 250.472C343.568 250.472 515.406 247.783 518.123 250.472C520.84 253.162 520.84 362.073 518.123 362.512C515.406 362.951 345.605 365.147 343.568 362.512C341.53 359.877 343.568 250.472 343.568 250.472Z" fill="#424966"/>
<path opacity="0.3" d="M444.822 184.04C444.399 176.417 443.918 171.44 443.374 170.352C443.374 170.352 219.033 169.464 188.85 170.261C186.944 170.311 185.414 171.845 185.368 173.752C185.312 176.109 185.262 179.624 185.223 184.04C184.864 224.941 185.393 343.58 189.032 344.2C213.704 348.403 447.731 343.769 447.731 343.769C447.731 343.769 447.11 225.242 444.822 184.04Z" fill="#151C30"/>
<path d="M206.152 355.557C206.645 353.48 205.361 351.396 203.284 350.903C201.207 350.409 199.123 351.693 198.63 353.77C198.136 355.848 199.42 357.932 201.497 358.425C203.574 358.919 205.658 357.635 206.152 355.557Z" fill="#8B909F"/>
<path d="M225.558 357.389C227.067 355.879 227.067 353.432 225.558 351.922C224.048 350.412 221.601 350.412 220.091 351.922C218.581 353.432 218.581 355.879 220.091 357.389C221.601 358.899 224.048 358.899 225.558 357.389Z" fill="#8B909F"/>
<path d="M245.94 357.433C247.449 355.923 247.449 353.475 245.94 351.965C244.43 350.455 241.982 350.455 240.473 351.965C238.963 353.475 238.963 355.923 240.473 357.433C241.982 358.942 244.43 358.942 245.94 357.433Z" fill="#8B909F"/>
<path d="M265.13 358.275C267.102 357.457 268.039 355.196 267.222 353.223C266.405 351.25 264.144 350.314 262.171 351.131C260.199 351.948 259.262 354.21 260.079 356.182C260.896 358.155 263.157 359.092 265.13 358.275Z" fill="#8B909F"/>
<path d="M287.821 355.626C288.311 353.548 287.025 351.465 284.947 350.975C282.869 350.484 280.787 351.771 280.297 353.849C279.806 355.927 281.093 358.009 283.17 358.5C285.248 358.99 287.33 357.704 287.821 355.626Z" fill="#8B909F"/>
<path d="M307.216 357.433C308.726 355.924 308.726 353.476 307.216 351.966C305.706 350.456 303.259 350.456 301.749 351.966C300.239 353.476 300.239 355.924 301.749 357.433C303.259 358.943 305.706 358.943 307.216 357.433Z" fill="#8B909F"/>
<path d="M326.408 358.273C328.381 357.456 329.317 355.195 328.5 353.222C327.683 351.249 325.422 350.312 323.449 351.13C321.477 351.947 320.54 354.208 321.357 356.181C322.174 358.154 324.436 359.09 326.408 358.273Z" fill="#8B909F"/>
<path d="M195.545 337.145C220.217 341.347 454.244 336.713 454.244 336.713C454.244 336.713 453.623 218.187 451.335 176.985H191.736C191.376 217.885 191.905 336.525 195.545 337.145Z" fill="#8B909F"/>
<mask id="mask3_706_2533" style="mask-type:luminance" maskUnits="userSpaceOnUse" x="191" y="176" width="264" height="163">
<path d="M195.545 337.145C220.217 341.347 454.244 336.713 454.244 336.713C454.244 336.713 453.623 218.187 451.335 176.985H191.736C191.376 217.885 191.905 336.525 195.545 337.145Z" fill="white"/>
</mask>
<g mask="url(#mask3_706_2533)">
<path d="M205.677 194.732C205.677 194.732 440.737 186.182 441.629 192.204C442.521 198.226 441.629 202.988 441.629 202.988C441.629 202.988 205.409 210.048 205.677 207.514C205.945 204.979 205.677 194.732 205.677 194.732Z" fill="#F6F9FF"/>
</g>
<mask id="mask4_706_2533" style="mask-type:luminance" maskUnits="userSpaceOnUse" x="191" y="176" width="264" height="163">
<path d="M195.545 337.145C220.217 341.347 454.244 336.713 454.244 336.713C454.244 336.713 453.623 218.187 451.335 176.985H191.736C191.376 217.885 191.905 336.525 195.545 337.145Z" fill="white"/>
</mask>
<g mask="url(#mask4_706_2533)">
<path d="M205.677 223.226C205.677 223.226 441.021 219.811 441.629 221.565C442.237 223.318 445.144 236.579 441.629 235.299C438.114 234.019 206.153 243.262 205.677 239.953C205.2 236.644 205.677 223.226 205.677 223.226Z" fill="#F6F9FF"/>
</g>
<mask id="mask5_706_2533" style="mask-type:luminance" maskUnits="userSpaceOnUse" x="191" y="176" width="264" height="163">
<path d="M195.545 337.145C220.217 341.347 454.244 336.713 454.244 336.713C454.244 336.713 453.623 218.187 451.335 176.985H191.736C191.376 217.885 191.905 336.525 195.545 337.145Z" fill="white"/>
</mask>
<g mask="url(#mask5_706_2533)">
<path d="M206.27 257.946C206.27 257.946 443.576 257.531 443.07 258.918C442.564 260.306 444.631 272.246 443.07 273.307C441.51 274.368 206.207 276.598 206.27 274.428C206.332 272.259 206.27 257.946 206.27 257.946Z" fill="#F6F9FF"/>
</g>
<mask id="mask6_706_2533" style="mask-type:luminance" maskUnits="userSpaceOnUse" x="191" y="176" width="264" height="163">
<path d="M195.545 337.145C220.217 341.347 454.244 336.713 454.244 336.713C454.244 336.713 453.623 218.187 451.335 176.985H191.736C191.376 217.885 191.905 336.525 195.545 337.145Z" fill="white"/>
</mask>
<g mask="url(#mask6_706_2533)">
<path d="M207.56 290.717C207.56 290.717 441.785 288.342 441.629 290.717C441.472 293.092 441.8 307.504 439.832 306.532C437.863 305.56 207.769 309.169 207.555 306.808C207.301 303.985 207.56 290.717 207.56 290.717Z" fill="#F6F9FF"/>
</g>
<path d="M195.363 163.205C193.457 163.255 191.927 164.789 191.881 166.696C191.825 169.053 191.775 172.568 191.736 176.985H451.335C450.912 169.361 450.431 164.385 449.887 163.296C449.887 163.296 225.545 162.409 195.363 163.205Z" fill="#424966"/>
<path d="M205.606 171.464C205.943 170.027 205.052 168.589 203.616 168.251C202.179 167.913 200.74 168.804 200.402 170.241C200.065 171.678 200.956 173.117 202.393 173.455C203.829 173.792 205.268 172.901 205.606 171.464Z" fill="#151C30"/>
<path d="M215.526 173.271C216.847 172.611 217.382 171.006 216.723 169.685C216.063 168.365 214.458 167.829 213.138 168.489C211.817 169.149 211.282 170.754 211.941 172.074C212.601 173.395 214.206 173.931 215.526 173.271Z" fill="#8B909F"/>
<path d="M226.687 173.337C228.051 172.772 228.699 171.209 228.134 169.845C227.569 168.481 226.006 167.833 224.642 168.398C223.278 168.963 222.631 170.527 223.196 171.89C223.76 173.254 225.324 173.902 226.687 173.337Z" fill="#8B909F"/>
<path d="M92.7382 171.014L82.001 160.439L76.4296 166.097L87.1668 176.672L92.7382 171.014Z" fill="#333333"/>
<path d="M135.399 176.691C168.224 176.691 194.833 150.079 194.833 117.251C194.833 84.4237 168.224 57.8115 135.399 57.8115C102.574 57.8115 75.9648 84.4237 75.9648 117.251C75.9648 150.079 102.574 176.691 135.399 176.691Z" fill="#41454A"/>
<mask id="mask7_706_2533" style="mask-type:luminance" maskUnits="userSpaceOnUse" x="75" y="57" width="120" height="120">
<path d="M135.399 176.691C168.224 176.691 194.833 150.079 194.833 117.251C194.833 84.4237 168.224 57.8115 135.399 57.8115C102.574 57.8115 75.9648 84.4237 75.9648 117.251C75.9648 150.079 102.574 176.691 135.399 176.691Z" fill="white"/>
</mask>
<g mask="url(#mask7_706_2533)">
<path opacity="0.43" d="M89.6478 143.265C78.1681 141.699 67.7549 143.312 67.7398 143.265C67.7049 143.153 67.4355 101.6 67.4355 101.6L155.078 105.404L75.7463 93.1195L92.1756 58.5176L203.264 79.9246L195.681 139.765H150.316L195.425 145.141L180.65 173.602L96.1448 174.354L74.4994 149.067L124.513 145.545C124.513 145.545 105.354 145.408 89.6478 143.265Z" fill="#8B909F"/>
</g>
<path d="M86.4729 166.939C79.7675 160.335 74.5548 152.612 70.9794 143.985C67.5272 135.656 65.7415 126.841 65.672 117.786C65.6026 108.732 67.2527 99.8911 70.5768 91.5092C74.0194 82.8284 79.113 75.0267 85.7163 68.3206C92.3197 61.6145 100.041 56.4013 108.668 52.8257C116.997 49.3731 125.81 47.5872 134.864 47.5177C143.917 47.4482 152.757 49.0988 161.138 52.4232C169.818 55.8659 177.619 60.9603 184.325 67.5643C191.03 74.1683 196.243 81.8908 199.818 90.5177C203.27 98.8475 205.056 107.662 205.126 116.716C205.195 125.771 203.545 134.612 200.221 142.993C196.778 151.674 191.684 159.476 185.081 166.182C178.478 172.888 170.756 178.101 162.13 181.677C153.801 185.13 144.987 186.915 135.933 186.985C126.88 187.054 118.04 185.404 109.659 182.08C100.979 178.637 93.1784 173.543 86.4729 166.939ZM176.606 75.4031C165.429 64.395 150.635 58.399 134.949 58.5196C119.262 58.6398 104.562 64.8621 93.555 76.0403C82.5482 87.2183 76.5526 102.014 76.6731 117.702C76.7933 133.39 83.015 148.092 94.1922 159.1C105.369 170.108 120.164 176.104 135.85 175.983C151.536 175.863 166.237 169.641 177.244 158.463C188.25 147.284 194.246 132.489 194.126 116.801C194.005 101.113 187.783 86.4109 176.606 75.4031Z" fill="#151C30"/>
<path d="M41.6151 222.86L31.2518 212.653C29.3547 210.784 29.3312 207.732 31.1994 205.834L70.9942 165.42C72.8624 163.523 75.9151 163.499 77.8123 165.368L88.1756 175.574C90.0727 177.443 90.0962 180.496 88.2277 182.393L48.4332 222.807C46.565 224.705 43.5123 224.728 41.6151 222.86Z" fill="#151C30"/>
<path d="M135.385 181.992C118.283 181.992 102.176 175.394 89.977 163.38C77.6568 151.246 70.7987 135.04 70.666 117.748C70.5333 100.456 77.1418 84.1467 89.2746 71.8256C101.407 59.5041 117.611 52.6455 134.902 52.5127C135.072 52.5113 135.243 52.5107 135.412 52.5107C152.514 52.5107 168.621 59.1085 180.82 71.1231C193.14 83.2568 199.998 99.4625 200.131 116.755C200.264 134.047 193.655 150.356 181.523 162.677C169.39 174.999 153.186 181.858 135.895 181.99C135.725 181.991 135.555 181.992 135.385 181.992ZM135.412 53.3136C135.244 53.3136 135.077 53.3142 134.908 53.3156C117.832 53.4466 101.829 60.2202 89.8468 72.3888C77.8649 84.5574 71.3381 100.664 71.4691 117.742C71.6001 134.819 78.3731 150.824 90.5405 162.807C102.587 174.672 118.497 181.189 135.385 181.189C135.554 181.189 135.72 181.188 135.889 181.187C152.965 181.056 168.968 174.282 180.951 162.114C192.933 149.945 199.459 133.838 199.328 116.761C199.197 99.6828 192.424 83.6782 180.257 71.6948C168.21 59.8303 152.301 53.3136 135.412 53.3136Z" fill="#333333"/>
<path d="M48.5299 221.172L32.8325 205.713C32.0706 204.962 32.0612 203.736 32.8116 202.974L34.0545 201.712C34.8048 200.951 36.0304 200.941 36.7924 201.691L52.4898 217.151C53.2515 217.902 53.2611 219.127 52.5108 219.889L51.2679 221.151C50.5175 221.913 49.2916 221.923 48.5299 221.172Z" fill="#333333"/>
<path d="M647.934 152.59H441.996C439.852 152.59 438.113 150.852 438.113 148.707V130.581C438.113 128.436 439.852 126.698 441.996 126.698H647.934C650.078 126.698 651.817 128.436 651.817 130.581V148.707C651.817 150.852 650.078 152.59 647.934 152.59Z" fill="#8B909F"/>
<path d="M447.568 133.946C445.509 135.012 443.582 136.321 441.826 137.834C441.4 138.201 440.937 138.579 440.811 139.156C440.663 139.832 441.068 140.348 441.546 140.765C442.427 141.534 443.352 142.255 444.311 142.925C445.366 143.663 446.468 144.332 447.607 144.934C448.013 145.148 448.532 145.037 448.771 144.629C448.996 144.244 448.874 143.68 448.466 143.464C447.309 142.853 446.189 142.172 445.118 141.42C444.624 141.073 444.141 140.713 443.671 140.335C443.441 140.149 443.213 139.961 442.989 139.769C442.861 139.659 442.731 139.55 442.606 139.436C442.556 139.393 442.508 139.348 442.462 139.301C442.469 139.318 442.472 139.335 442.47 139.354C442.449 139.417 442.453 139.473 442.482 139.523C442.52 139.537 442.548 139.511 442.567 139.446C442.693 139.39 442.829 139.212 442.934 139.12C443.157 138.926 443.384 138.735 443.614 138.548C444.083 138.165 444.566 137.801 445.061 137.453C446.135 136.697 447.261 136.019 448.427 135.415C448.835 135.204 448.956 134.633 448.732 134.251C448.49 133.838 447.977 133.734 447.568 133.946Z" fill="#424966"/>
<path d="M443.07 140.291C446.885 140.291 450.7 140.291 454.515 140.291C455.61 140.291 455.612 138.589 454.515 138.589C450.7 138.589 446.885 138.589 443.07 138.589C441.975 138.589 441.973 140.291 443.07 140.291Z" fill="#424966"/>
<path d="M472.942 144.934C475.001 143.869 476.927 142.559 478.683 141.046C479.109 140.679 479.572 140.301 479.698 139.725C479.846 139.048 479.441 138.532 478.964 138.115C478.083 137.347 477.157 136.625 476.199 135.955C475.143 135.217 474.041 134.548 472.902 133.946C472.496 133.732 471.977 133.843 471.738 134.252C471.513 134.636 471.636 135.2 472.043 135.416C473.201 136.028 474.32 136.708 475.392 137.461C475.885 137.807 476.369 138.167 476.838 138.546C477.069 138.731 477.296 138.92 477.521 139.112C477.649 139.221 477.778 139.33 477.903 139.444C477.953 139.487 478.001 139.533 478.048 139.58C478.04 139.563 478.037 139.545 478.039 139.526C478.06 139.463 478.056 139.407 478.028 139.358C477.99 139.343 477.961 139.369 477.943 139.434C477.817 139.49 477.681 139.668 477.576 139.76C477.353 139.954 477.126 140.145 476.896 140.333C476.427 140.715 475.944 141.079 475.449 141.427C474.375 142.183 473.249 142.862 472.083 143.465C471.675 143.676 471.554 144.247 471.777 144.629C472.02 145.043 472.532 145.146 472.942 144.934Z" fill="#424966"/>
<path d="M477.44 138.589C473.625 138.589 469.81 138.589 465.995 138.589C464.9 138.589 464.898 140.291 465.995 140.291C469.81 140.291 473.625 140.291 477.44 140.291C478.535 140.291 478.537 138.589 477.44 138.589Z" fill="#424966"/>
<path d="M643.71 148.495H491.365C489.81 148.495 488.55 147.235 488.55 145.68V134.562C488.55 133.008 489.81 131.747 491.365 131.747H643.71C645.264 131.747 646.525 133.008 646.525 134.562V145.68C646.525 147.235 645.264 148.495 643.71 148.495Z" fill="white"/>
<path d="M282.335 272.701C278.491 280.647 275.762 289.095 274.368 297.811C273.915 300.65 273.582 303.613 273.48 306.532C273.025 319.507 277.457 338.893 277.457 338.893H342.662C342.662 338.893 343.937 296.095 341.209 284.503C338.482 272.91 335.073 263.016 335.073 263.016L285.753 265.637L282.335 272.701Z" fill="#333333"/>
<path d="M290.057 179.608L284.23 185.89L297.538 266.844L326.243 264.644C326.243 264.644 319.849 193.481 318.325 189.63C316.801 185.778 308.017 180.361 308.017 180.361L290.057 179.608Z" fill="white"/>
<path d="M290.057 179.608C290.057 179.608 266.905 194.121 266.088 197.524C265.27 200.926 275.957 249.192 276.401 255.846C276.844 262.501 268.416 295.773 268.416 295.773C268.416 295.773 309.966 302.206 309.263 301.097C308.561 299.988 316.428 280.082 316.428 270.043C316.428 260.856 301.901 224.272 294.91 207.197C292.473 201.246 291.022 194.938 290.618 188.519L290.057 179.608Z" fill="#151C30"/>
<path d="M293.487 139.227C295.841 136.453 304.44 133.414 311.38 134.711C315.292 135.442 318.349 138.516 319.194 142.406C321.107 151.209 324.908 171.984 318.646 173.886C315.858 174.732 312.577 174.07 309.426 172.696C308.789 178.055 306.252 190.255 305.793 191.887C305.148 194.18 290.053 183.414 290.057 179.608C290.06 175.928 297.197 162.784 297.197 162.784C295.703 159.157 290.212 143.086 293.487 139.227Z" fill="#FE8E9C"/>
<mask id="mask8_706_2533" style="mask-type:luminance" maskUnits="userSpaceOnUse" x="290" y="134" width="33" height="59">
<path d="M293.487 139.227C295.841 136.453 304.44 133.414 311.38 134.711C315.292 135.442 318.349 138.516 319.194 142.406C321.107 151.209 324.908 171.984 318.646 173.886C315.858 174.732 312.577 174.07 309.426 172.696C308.789 178.055 306.252 190.255 305.793 191.887C305.148 194.18 290.053 183.414 290.057 179.608C290.06 175.928 297.197 162.784 297.197 162.784C295.703 159.157 290.212 143.086 293.487 139.227Z" fill="white"/>
</mask>
<g mask="url(#mask8_706_2533)">
<path d="M309.426 172.696C309.426 172.696 305.299 169.88 301.889 166.546C301.889 166.546 302.905 178.228 309.798 179.441L309.426 172.696Z" fill="#E57492"/>
</g>
<mask id="mask9_706_2533" style="mask-type:luminance" maskUnits="userSpaceOnUse" x="290" y="134" width="33" height="59">
<path d="M293.487 139.227C295.841 136.453 304.44 133.414 311.38 134.711C315.292 135.442 318.349 138.516 319.194 142.406C321.107 151.209 324.908 171.984 318.646 173.886C315.858 174.732 312.577 174.07 309.426 172.696C308.789 178.055 306.252 190.255 305.793 191.887C305.148 194.18 290.053 183.414 290.057 179.608C290.06 175.928 297.197 162.784 297.197 162.784C295.703 159.157 290.212 143.086 293.487 139.227Z" fill="white"/>
</mask>
<g mask="url(#mask9_706_2533)">
<path d="M318.045 139.805C318.045 139.805 317.27 148.675 312.159 150.319C307.048 151.964 307.9 149.795 307.9 149.795C307.9 149.795 302.789 157.807 300.698 153.026L309.862 134.498C309.861 134.499 315.721 136.165 318.045 139.805Z" fill="#E57492"/>
</g>
<path d="M315.396 150.32C315.396 150.32 319.847 157.523 318.907 158.689C317.966 159.854 315.591 157.051 314.866 157.235C314.14 157.42 313.78 158.578 314.674 158.712C315.568 158.846 319.038 160.558 319.398 158.913C319.757 157.269 319.106 156.027 315.396 150.32Z" fill="#E57492"/>
<path d="M319.784 163.002C319.784 163.002 318.584 166.068 315.1 163.399C315.1 163.399 315.14 165.962 317.535 166.325C320.693 166.805 319.784 163.002 319.784 163.002Z" fill="white"/>
<path d="M324.725 136.726C323.155 135.81 321.064 135.798 319.808 134.484C318.296 132.901 318.752 130.255 317.656 128.36C316.835 126.941 315.218 126.128 313.597 125.886C311.967 125.643 310.317 125.895 308.706 126.156C307.936 126.281 306.707 126.356 306.075 126.972C304.632 126.231 303.068 125.888 301.47 126.169C294.937 127.317 283.461 136.057 285.403 146.916C287.345 157.776 297.197 162.783 297.197 162.783L297.831 158.799C294.5 158.07 293.316 150.026 295.469 149.914C297.623 149.803 298.524 153.914 298.524 153.914C297.873 149.914 301.687 147.31 301.687 147.31C301.687 147.31 299.268 153.914 301.687 153.914C304.105 153.914 309.221 144.054 309.221 144.054C309.221 144.054 306.616 152.054 309.779 149.263C312.941 146.473 313.313 138.845 313.313 138.845C313.394 138.299 313.377 137.686 313.28 137.034C313.742 137.304 314.199 137.583 314.636 137.892C318.22 140.424 320.255 144.988 319.745 149.346C322.531 148.584 325.245 146.967 326.536 144.383C327.827 141.799 327.221 138.181 324.725 136.726Z" fill="#151C30"/>
<mask id="mask10_706_2533" style="mask-type:luminance" maskUnits="userSpaceOnUse" x="285" y="125" width="43" height="38">
<path d="M324.725 136.726C323.155 135.81 321.064 135.798 319.808 134.484C318.296 132.901 318.752 130.255 317.656 128.36C316.835 126.941 315.218 126.128 313.597 125.886C311.967 125.643 310.317 125.895 308.706 126.156C307.936 126.281 306.707 126.356 306.075 126.972C304.632 126.231 303.068 125.888 301.47 126.169C294.937 127.317 283.461 136.057 285.403 146.916C287.345 157.776 297.197 162.783 297.197 162.783L297.831 158.799C294.5 158.07 293.316 150.026 295.469 149.914C297.623 149.803 298.524 153.914 298.524 153.914C297.873 149.914 301.687 147.31 301.687 147.31C301.687 147.31 299.268 153.914 301.687 153.914C304.105 153.914 309.221 144.054 309.221 144.054C309.221 144.054 306.616 152.054 309.779 149.263C312.941 146.473 313.313 138.845 313.313 138.845C313.394 138.299 313.377 137.686 313.28 137.034C313.742 137.304 314.199 137.583 314.636 137.892C318.22 140.424 320.255 144.988 319.745 149.346C322.531 148.584 325.245 146.967 326.536 144.383C327.827 141.799 327.221 138.181 324.725 136.726Z" fill="white"/>
</mask>
<g mask="url(#mask10_706_2533)">
<path d="M306.075 126.972C306.075 126.972 313.469 130.318 313.28 137.034C313.28 137.034 318.413 146.303 319.744 149.347C320.277 150.564 320.76 149.859 321.148 148.575C322.073 145.511 321.673 142.197 320.118 139.399C317.548 134.774 312.606 127.717 306.075 126.972Z" fill="#333333"/>
</g>
<path d="M308.163 180.448C308.163 180.448 327.65 191.172 330.857 196.205C334.064 201.239 338.684 248.464 339.368 253.084C340.052 257.704 352.713 292.682 351.173 293.123C349.633 293.565 328.76 299.626 326.878 299.454C324.996 299.283 316.985 271.678 316.429 267.971C316.033 265.333 317.427 224.084 315.1 199.354C314.155 189.318 308.163 180.448 308.163 180.448Z" fill="#151C30"/>
<path d="M286.561 264.346L308.203 264.955V267.494L286.561 266.523V264.346Z" fill="#333333"/>
<path d="M322.94 263.661L337.325 257.946L338.101 260.043L323.692 265.797L322.94 263.661Z" fill="#333333"/>
<path d="M308.203 267.494C308.203 267.494 306.384 288.188 305.237 288.535C304.089 288.881 285.806 288.621 285.026 286.975C284.246 285.328 286.561 266.523 286.561 266.523C286.561 266.523 283.175 286.715 284.23 288.188C285.286 289.661 305.042 290.788 305.996 290.008C306.949 289.228 308.203 267.494 308.203 267.494Z" fill="#333333"/>
<path d="M323.692 265.797C323.692 265.797 328.204 285.312 328.94 285.436C329.676 285.559 342.692 279.849 343.122 278.393C343.552 276.937 338.102 260.043 338.102 260.043C338.102 260.043 344.106 277.886 344.026 278.757C343.947 279.628 337.061 283.823 334.29 284.773C331.52 285.723 329.145 286.99 328.591 286.436C328.037 285.882 323.692 265.797 323.692 265.797Z" fill="#333333"/>
<path d="M285.713 182.392C285.713 182.392 276.482 208.366 280.622 213.48C284.762 218.595 292.798 217.255 292.798 217.255C292.798 217.255 287.437 226.023 290.056 229.311C292.676 232.599 309.852 245.949 309.852 245.949C309.852 245.949 294.99 205.321 293.65 202.399C292.311 199.476 290.057 179.608 290.057 179.608L285.713 182.392Z" fill="#424966"/>
<path d="M308.163 180.448C308.163 180.448 314.687 190.958 315.346 202.213C316.005 213.468 316.428 244.727 316.428 244.727C316.428 244.727 328.373 221.861 326.243 218.631C324.112 215.402 319.721 212.778 319.721 212.778C319.721 212.778 327.082 205.583 326.243 201.966C325.404 198.349 319.484 187.187 319.484 187.187C319.484 187.187 309.906 181.004 308.163 180.448Z" fill="#424966"/>
<path d="M305.793 191.887C305.793 191.887 301.277 199.939 299.809 199.6C298.341 199.261 290.927 186.722 290.927 186.722L290.057 179.608C290.057 179.608 300.487 191.738 305.793 191.887Z" fill="#FC476A"/>
<path d="M305.793 191.887C305.793 191.887 309.93 197.365 311.275 197.163C312.62 196.961 312.214 188.85 312.214 188.85C312.214 188.85 309.288 181.692 308.163 180.448C308.163 180.448 306.544 189.609 305.793 191.887Z" fill="#FC476A"/>
<path d="M330.857 196.205C330.857 196.205 363.586 233.854 368.138 234.02C372.689 234.185 402.89 203.44 402.89 203.44L414.713 214.501C414.713 214.501 379.772 265.089 368.137 263.017C356.502 260.944 338.102 242.082 338.102 242.082L330.857 196.205Z" fill="#151C30"/>
<path d="M338.102 242.082C338.102 242.082 335.852 212.822 333.86 207.714C333.86 207.714 344.682 233.597 344.028 247.703L338.102 242.082Z" fill="#333333"/>
<path d="M402.89 203.439C402.89 203.439 398.211 209.125 399.385 211.328C400.56 213.531 408.444 223.226 408.444 223.226L414.714 214.501L402.89 203.439Z" fill="white"/>
<path d="M408.685 216.794C409.641 216.794 410.416 216.019 410.416 215.064C410.416 214.108 409.641 213.333 408.685 213.333C407.73 213.333 406.955 214.108 406.955 215.064C406.955 216.019 407.73 216.794 408.685 216.794Z" fill="#151C30"/>
<path d="M274.215 229.987C274.215 229.987 262.433 243.256 263.418 247.703C264.404 252.15 292.955 271.284 292.955 271.284L286.561 285.361C286.561 285.361 237.613 262.281 235.594 250.635C233.311 237.464 266.751 196.435 266.751 196.435L274.215 229.987Z" fill="#151C30"/>
<path d="M272.146 232.423C272.146 232.423 277.339 226.853 275.285 218.751C275.285 218.751 281.879 234.107 273.738 240.515L272.146 232.423Z" fill="#333333"/>
<path d="M292.955 271.284L286.561 285.361L272.577 278.301L271.688 282.201C271.688 282.201 287.157 290.853 287.64 290.716C288.122 290.578 292.955 271.284 292.955 271.284Z" fill="#333333"/>
<path d="M292.954 271.284C292.954 271.284 288.521 269.585 287.022 269.692C285.523 269.799 277.806 280.941 277.806 280.941L286.561 285.36L292.954 271.284Z" fill="white"/>
<path d="M286.306 281.039C286.306 281.848 285.65 282.504 284.841 282.504C284.032 282.504 283.376 281.848 283.376 281.039C283.376 280.23 284.032 279.574 284.841 279.574C285.65 279.574 286.306 280.23 286.306 281.039Z" fill="#151C30"/>
<path d="M291.236 290.031C291.236 290.031 308.359 263.65 318.814 258.946C318.814 258.946 328.401 271.708 338.431 273.324C338.431 273.324 312.01 308.881 308.197 308.753C308.197 308.753 295.723 291.952 291.236 290.031Z" fill="#8B909F"/>
<mask id="mask11_706_2533" style="mask-type:luminance" maskUnits="userSpaceOnUse" x="291" y="258" width="48" height="51">
<path d="M291.236 290.031C291.236 290.031 308.359 263.65 318.814 258.946C318.814 258.946 328.401 271.708 338.431 273.324C338.431 273.324 312.01 308.881 308.197 308.753C308.197 308.753 295.723 291.952 291.236 290.031Z" fill="white"/>
</mask>
<g mask="url(#mask11_706_2533)">
<path opacity="0.44" d="M293.874 282.504C293.874 282.504 314.275 286.607 322.359 286.418C330.443 286.228 334.291 284.773 334.291 284.773C334.291 284.773 312.222 311.917 309.853 312.088C307.483 312.259 289.191 292.061 289.188 290.717C289.184 289.374 293.874 282.504 293.874 282.504Z" fill="#424966"/>
</g>
<path d="M315.15 284.945C316.37 284.741 317.657 283.657 317.521 283.183C317.386 282.709 306.411 281.218 305.852 281.039C305.293 280.86 300.111 278.034 300.111 278.034C300.111 278.034 305.237 271.952 305.123 271.284C304.941 270.208 295.516 274.088 294.907 274.021C294.298 273.953 292.254 272.827 292.254 272.827L287.207 283.938C287.207 283.938 293.854 288.082 297.081 289.707H297.08C297.08 289.707 306.754 295.255 307.562 295.471C308.371 295.687 308.263 294.015 307.562 293.368C307.284 293.111 306.143 292.401 304.87 291.64C307.197 292.02 309.316 292.294 309.798 292.262C310.814 292.194 312.034 291.178 312.305 290.717C312.534 290.329 304.991 288.897 303.204 288.582C305.12 288.811 313.508 289.276 314.202 289.213C314.947 289.145 317.047 287.994 316.979 287.384C316.912 286.774 303.092 284.742 303.092 284.742C303.092 284.742 303.633 284.809 304.893 284.945C306.151 285.08 313.931 285.148 315.15 284.945Z" fill="#FE8E9C"/>
<mask id="mask12_706_2533" style="mask-type:luminance" maskUnits="userSpaceOnUse" x="287" y="271" width="31" height="25">
<path d="M315.15 284.945C316.37 284.741 317.657 283.657 317.521 283.183C317.386 282.709 306.411 281.218 305.852 281.039C305.293 280.86 300.111 278.034 300.111 278.034C300.111 278.034 305.237 271.952 305.123 271.284C304.941 270.208 295.516 274.088 294.907 274.021C294.298 273.953 292.254 272.827 292.254 272.827L287.207 283.938C287.207 283.938 293.854 288.082 297.081 289.707H297.08C297.08 289.707 306.754 295.255 307.562 295.471C308.371 295.687 308.263 294.015 307.562 293.368C307.284 293.111 306.143 292.401 304.87 291.64C307.197 292.02 309.316 292.294 309.798 292.262C310.814 292.194 312.034 291.178 312.305 290.717C312.534 290.329 304.991 288.897 303.204 288.582C305.12 288.811 313.508 289.276 314.202 289.213C314.947 289.145 317.047 287.994 316.979 287.384C316.912 286.774 303.092 284.742 303.092 284.742C303.092 284.742 303.633 284.809 304.893 284.945C306.151 285.08 313.931 285.148 315.15 284.945Z" fill="white"/>
</mask>
<g mask="url(#mask12_706_2533)">
<path d="M303.205 288.582L301.247 288.617C301.247 288.617 310.554 290.769 312.305 290.718C312.305 290.718 311.175 289.288 303.205 288.582Z" fill="#E57492"/>
</g>
<mask id="mask13_706_2533" style="mask-type:luminance" maskUnits="userSpaceOnUse" x="287" y="271" width="31" height="25">
<path d="M315.15 284.945C316.37 284.741 317.657 283.657 317.521 283.183C317.386 282.709 306.411 281.218 305.852 281.039C305.293 280.86 300.111 278.034 300.111 278.034C300.111 278.034 305.237 271.952 305.123 271.284C304.941 270.208 295.516 274.088 294.907 274.021C294.298 273.953 292.254 272.827 292.254 272.827L287.207 283.938C287.207 283.938 293.854 288.082 297.081 289.707H297.08C297.08 289.707 306.754 295.255 307.562 295.471C308.371 295.687 308.263 294.015 307.562 293.368C307.284 293.111 306.143 292.401 304.87 291.64C307.197 292.02 309.316 292.294 309.798 292.262C310.814 292.194 312.034 291.178 312.305 290.717C312.534 290.329 304.991 288.897 303.204 288.582C305.12 288.811 313.508 289.276 314.202 289.213C314.947 289.145 317.047 287.994 316.979 287.384C316.912 286.774 303.092 284.742 303.092 284.742C303.092 284.742 303.633 284.809 304.893 284.945C306.151 285.08 313.931 285.148 315.15 284.945Z" fill="white"/>
</mask>
<g mask="url(#mask13_706_2533)">
<path d="M304.87 291.64L301.19 290.582C301.19 290.582 307.442 293.993 307.94 293.928C308.438 293.864 307.365 292.652 304.87 291.64Z" fill="#E57492"/>
</g>
<mask id="mask14_706_2533" style="mask-type:luminance" maskUnits="userSpaceOnUse" x="287" y="271" width="31" height="25">
<path d="M315.15 284.945C316.37 284.741 317.657 283.657 317.521 283.183C317.386 282.709 306.411 281.218 305.852 281.039C305.293 280.86 300.111 278.034 300.111 278.034C300.111 278.034 305.237 271.952 305.123 271.284C304.941 270.208 295.516 274.088 294.907 274.021C294.298 273.953 292.254 272.827 292.254 272.827L287.207 283.938C287.207 283.938 293.854 288.082 297.081 289.707H297.08C297.08 289.707 306.754 295.255 307.562 295.471C308.371 295.687 308.263 294.015 307.562 293.368C307.284 293.111 306.143 292.401 304.87 291.64C307.197 292.02 309.316 292.294 309.798 292.262C310.814 292.194 312.034 291.178 312.305 290.717C312.534 290.329 304.991 288.897 303.204 288.582C305.12 288.811 313.508 289.276 314.202 289.213C314.947 289.145 317.047 287.994 316.979 287.384C316.912 286.774 303.092 284.742 303.092 284.742C303.092 284.742 303.633 284.809 304.893 284.945C306.151 285.08 313.931 285.148 315.15 284.945Z" fill="white"/>
</mask>
<g mask="url(#mask14_706_2533)">
<path d="M305.123 271.284C305.123 271.284 297.142 276.613 297.683 276.991C298.223 277.37 302.968 279.574 302.968 279.574C302.968 279.574 301.63 278.181 302.116 277.154C302.603 276.126 306.238 272.445 305.123 271.284Z" fill="#E57492"/>
</g>
<path d="M419.225 210.56C418.501 210.56 417.914 209.973 417.915 209.248C417.93 199.161 418.114 134.31 420.492 135.91C422.868 137.509 420.863 199.609 420.535 209.295C420.511 210.001 419.932 210.56 419.225 210.56Z" fill="#FC476A"/>
<path d="M404.582 205.022C404.582 205.022 406.977 203.062 407.5 202.67C408.023 202.277 411.553 196.932 412.598 196.205C413.644 195.478 423.427 193.695 423.325 194.302C423.224 194.908 422.562 195.749 422.168 196.205C421.774 196.661 417.915 198.763 417.915 198.763V208.09L413.954 208.944L411.825 211.799L404.582 205.022Z" fill="#FE8E9C"/>
<mask id="mask15_706_2533" style="mask-type:luminance" maskUnits="userSpaceOnUse" x="404" y="194" width="20" height="18">
<path d="M404.582 205.022C404.582 205.022 406.977 203.062 407.5 202.67C408.023 202.277 411.553 196.932 412.598 196.205C413.644 195.478 423.427 193.695 423.325 194.302C423.224 194.908 422.562 195.749 422.168 196.205C421.774 196.661 417.915 198.763 417.915 198.763V208.09L413.954 208.944L411.825 211.799L404.582 205.022Z" fill="white"/>
</mask>
<g mask="url(#mask15_706_2533)">
<path d="M417.914 198.763C417.914 198.763 416.17 201.421 415.969 202.988C415.768 204.554 415.969 208.976 415.969 208.976L418.917 208.172C418.917 208.172 418.854 199.404 417.914 198.763Z" fill="#E57492"/>
</g>
<path d="M425.767 200.848C425.86 200.795 425.92 200.751 425.941 200.717C426.825 199.271 425.032 198.522 424.623 198.589C424.362 198.633 423.795 198.743 423.419 198.817C424.586 197.821 425.48 196.949 425.541 196.754C425.779 195.995 424.315 194.178 423.326 194.896C422.991 195.14 422.168 196.205 422.168 196.205C422.168 196.205 418.548 198.696 417.72 200.997C417.237 201.353 416.846 201.754 416.628 202.202C416.148 203.189 417.851 203.115 419.927 202.682C418.804 203.388 417.76 204.273 417.455 205.244C417.232 205.953 417.932 206.03 419.024 205.779C418.599 206.086 418.254 206.433 418.056 206.822C417.039 208.822 425.964 205.895 426.244 205.407C426.523 204.918 426.47 203.826 425.345 203.685C424.973 203.638 423.921 203.932 423.921 203.932C423.921 203.932 423.852 203.944 423.734 203.969C425.199 203.267 426.362 202.598 426.448 202.403C426.719 201.79 426.271 201.208 425.767 200.848Z" fill="#FE8E9C"/>
<mask id="mask16_706_2533" style="mask-type:luminance" maskUnits="userSpaceOnUse" x="416" y="194" width="11" height="14">
<path d="M425.767 200.848C425.86 200.795 425.92 200.751 425.941 200.717C426.825 199.271 425.032 198.522 424.623 198.589C424.362 198.633 423.795 198.743 423.419 198.817C424.586 197.821 425.48 196.949 425.541 196.754C425.779 195.995 424.315 194.178 423.326 194.896C422.991 195.14 422.168 196.205 422.168 196.205C422.168 196.205 418.548 198.696 417.72 200.997C417.237 201.353 416.846 201.754 416.628 202.202C416.148 203.189 417.851 203.115 419.927 202.682C418.804 203.388 417.76 204.273 417.455 205.244C417.232 205.953 417.932 206.03 419.024 205.779C418.599 206.086 418.254 206.433 418.056 206.822C417.039 208.822 425.964 205.895 426.244 205.407C426.523 204.918 426.47 203.826 425.345 203.685C424.973 203.638 423.921 203.932 423.921 203.932C423.921 203.932 423.852 203.944 423.734 203.969C425.199 203.267 426.362 202.598 426.448 202.403C426.719 201.79 426.271 201.208 425.767 200.848Z" fill="white"/>
</mask>
<g mask="url(#mask16_706_2533)">
<path d="M417.72 200.998C417.72 200.998 418.667 201.463 419.516 201.123C420.364 200.782 423.619 198.646 423.619 198.646C423.619 198.646 420.106 201.485 419.185 201.631C418.264 201.776 417.469 201.196 417.469 201.196L417.72 200.998Z" fill="#E57492"/>
</g>
<mask id="mask17_706_2533" style="mask-type:luminance" maskUnits="userSpaceOnUse" x="416" y="194" width="11" height="14">
<path d="M425.767 200.848C425.86 200.795 425.92 200.751 425.941 200.717C426.825 199.271 425.032 198.522 424.623 198.589C424.362 198.633 423.795 198.743 423.419 198.817C424.586 197.821 425.48 196.949 425.541 196.754C425.779 195.995 424.315 194.178 423.326 194.896C422.991 195.14 422.168 196.205 422.168 196.205C422.168 196.205 418.548 198.696 417.72 200.997C417.237 201.353 416.846 201.754 416.628 202.202C416.148 203.189 417.851 203.115 419.927 202.682C418.804 203.388 417.76 204.273 417.455 205.244C417.232 205.953 417.932 206.03 419.024 205.779C418.599 206.086 418.254 206.433 418.056 206.822C417.039 208.822 425.964 205.895 426.244 205.407C426.523 204.918 426.47 203.826 425.345 203.685C424.973 203.638 423.921 203.932 423.921 203.932C423.921 203.932 423.852 203.944 423.734 203.969C425.199 203.267 426.362 202.598 426.448 202.403C426.719 201.79 426.271 201.208 425.767 200.848Z" fill="white"/>
</mask>
<g mask="url(#mask17_706_2533)">
<path d="M419.928 202.682C419.928 202.682 424.998 201.204 425.767 200.848L426.09 201.123C426.09 201.123 420.083 203.599 418.819 203.292L419.928 202.682Z" fill="#E57492"/>
</g>
<mask id="mask18_706_2533" style="mask-type:luminance" maskUnits="userSpaceOnUse" x="416" y="194" width="11" height="14">
<path d="M425.767 200.848C425.86 200.795 425.92 200.751 425.941 200.717C426.825 199.271 425.032 198.522 424.623 198.589C424.362 198.633 423.795 198.743 423.419 198.817C424.586 197.821 425.48 196.949 425.541 196.754C425.779 195.995 424.315 194.178 423.326 194.896C422.991 195.14 422.168 196.205 422.168 196.205C422.168 196.205 418.548 198.696 417.72 200.997C417.237 201.353 416.846 201.754 416.628 202.202C416.148 203.189 417.851 203.115 419.927 202.682C418.804 203.388 417.76 204.273 417.455 205.244C417.232 205.953 417.932 206.03 419.024 205.779C418.599 206.086 418.254 206.433 418.056 206.822C417.039 208.822 425.964 205.895 426.244 205.407C426.523 204.918 426.47 203.826 425.345 203.685C424.973 203.638 423.921 203.932 423.921 203.932C423.921 203.932 423.852 203.944 423.734 203.969C425.199 203.267 426.362 202.598 426.448 202.403C426.719 201.79 426.271 201.208 425.767 200.848Z" fill="white"/>
</mask>
<g mask="url(#mask18_706_2533)">
<path d="M419.024 205.779C419.024 205.779 423.223 204.066 424.101 203.884C424.101 203.884 417.915 206.569 417.915 207.33C417.914 207.33 417.684 206.569 419.024 205.779Z" fill="#E57492"/>
</g>
<path d="M395.619 470C437.51 470 471.469 465.559 471.469 460.081C471.469 454.603 437.51 450.163 395.619 450.163C353.728 450.163 319.769 454.603 319.769 460.081C319.769 465.559 353.728 470 395.619 470Z" fill="#F6F9FF"/>
<path d="M444.887 365.722C444.887 365.722 426.9 370.156 422.821 373.602C417.173 378.375 399.823 441.375 399.823 441.375C399.823 441.375 407.936 444.016 411.143 442.129C414.35 440.242 433.972 406.874 433.972 394.501L444.887 393.624C444.887 393.624 446.983 383.274 444.887 365.722Z" fill="#FE8E9C"/>
<mask id="mask19_706_2533" style="mask-type:luminance" maskUnits="userSpaceOnUse" x="399" y="365" width="47" height="78">
<path d="M444.887 365.722C444.887 365.722 426.9 370.156 422.821 373.602C417.173 378.375 399.823 441.375 399.823 441.375C399.823 441.375 407.936 444.016 411.143 442.129C414.35 440.242 433.972 406.874 433.972 394.501L444.887 393.624C444.887 393.624 446.983 383.274 444.887 365.722Z" fill="white"/>
</mask>
<g mask="url(#mask19_706_2533)">
<path d="M411.144 442.129C411.144 442.129 427.469 380.488 428.487 375.691C429.705 369.947 441.523 368.454 441.523 368.454C441.523 368.454 445.197 389.354 444.496 390.82C443.796 392.286 434.896 397.005 434.886 398.286C434.875 399.567 420.881 442.313 418.257 442.809C415.633 443.305 411.144 442.129 411.144 442.129Z" fill="#E57492"/>
</g>
<path d="M464.799 356.99C464.799 356.99 436.904 364.744 436.904 365.663C436.904 366.583 446.756 394.963 447.73 395.716C448.704 396.468 477.207 396.775 484.716 395.396C492.225 394.016 499.428 359.131 498.815 358.565C498.202 358.001 464.799 356.99 464.799 356.99Z" fill="#151C30"/>
<path d="M521.904 358.566C521.904 358.566 533.075 392.52 508.824 397.232C484.574 401.943 457.63 398.286 457.63 398.286L453.809 363.659L488.321 359.713L521.904 358.566Z" fill="#0F121B"/>
<mask id="mask20_706_2533" style="mask-type:luminance" maskUnits="userSpaceOnUse" x="453" y="358" width="72" height="42">
<path d="M521.904 358.566C521.904 358.566 533.075 392.52 508.824 397.232C484.574 401.943 457.63 398.286 457.63 398.286L453.809 363.659L488.321 359.713L521.904 358.566Z" fill="white"/>
</mask>
<g mask="url(#mask20_706_2533)">
<path d="M479.072 358.566C479.072 358.566 489.668 366.5 502.365 366.543C515.062 366.587 526.034 363.787 526.034 363.787L522.353 354.86C522.353 354.86 473.947 358.512 475.485 359.758" fill="#333333"/>
</g>
<mask id="mask21_706_2533" style="mask-type:luminance" maskUnits="userSpaceOnUse" x="453" y="358" width="72" height="42">
<path d="M521.904 358.566C521.904 358.566 533.075 392.52 508.824 397.232C484.574 401.943 457.63 398.286 457.63 398.286L453.809 363.659L488.321 359.713L521.904 358.566Z" fill="white"/>
</mask>
<g mask="url(#mask21_706_2533)">
<path d="M459.075 361.752L459.04 361.328L459.888 361.26L459.923 361.681L459.075 361.752Z" fill="#333333"/>
<path d="M466.745 400.49C466.591 400.26 466.435 400.003 466.281 399.726L467.026 399.314C467.167 399.569 467.311 399.806 467.452 400.016L466.745 400.49ZM465.878 398.94C465.757 398.686 465.635 398.417 465.518 398.14L466.301 397.808C466.414 398.075 466.529 398.33 466.645 398.573L465.878 398.94ZM465.191 397.33C465.09 397.066 464.99 396.794 464.891 396.513L465.693 396.231C465.789 396.503 465.887 396.769 465.985 397.025L465.191 397.33ZM464.612 395.691C464.524 395.421 464.437 395.146 464.351 394.864L465.165 394.616C465.249 394.892 465.335 395.163 465.421 395.427L464.612 395.691ZM464.106 394.034C464.028 393.761 463.95 393.483 463.874 393.201L464.695 392.978C464.77 393.256 464.846 393.53 464.924 393.799L464.106 394.034ZM463.653 392.365C463.583 392.09 463.513 391.811 463.443 391.528L464.27 391.326C464.338 391.605 464.407 391.881 464.477 392.154L463.653 392.365ZM463.242 390.689C463.177 390.412 463.113 390.131 463.049 389.848L463.88 389.662C463.943 389.942 464.006 390.22 464.07 390.495L463.242 390.689ZM462.864 389.007C462.804 388.728 462.744 388.446 462.686 388.163L463.519 387.991C463.577 388.271 463.636 388.55 463.696 388.827L462.864 389.007ZM462.514 387.319C462.458 387.039 462.403 386.757 462.348 386.474L463.183 386.312C463.238 386.594 463.293 386.874 463.348 387.152L462.514 387.319ZM462.187 385.628C462.134 385.347 462.082 385.065 462.031 384.782L462.868 384.63C462.919 384.912 462.97 385.192 463.023 385.472L462.187 385.628ZM461.88 383.934C461.831 383.652 461.782 383.369 461.734 383.086L462.572 382.944C462.62 383.225 462.669 383.506 462.718 383.787L461.88 383.934ZM461.592 382.238C461.545 381.954 461.499 381.671 461.453 381.387L462.293 381.252C462.338 381.534 462.384 381.817 462.431 382.099L461.592 382.238ZM461.319 380.537L461.188 379.689L462.029 379.562L462.159 380.407L461.319 380.537ZM461.061 378.839C461.018 378.554 460.977 378.271 460.936 377.988L461.778 377.866C461.819 378.148 461.86 378.431 461.902 378.714L461.061 378.839ZM460.815 377.136L460.696 376.285L461.54 376.169L461.657 377.018L460.815 377.136ZM460.581 375.433L460.468 374.58L461.312 374.47L461.424 375.32L460.581 375.433ZM460.358 373.728C460.322 373.441 460.286 373.156 460.251 372.874L461.095 372.769C461.13 373.05 461.165 373.334 461.202 373.619L460.358 373.728ZM460.146 372.021L460.044 371.167L460.889 371.067L460.991 371.918L460.146 372.021ZM459.944 370.313L459.846 369.458L460.692 369.363L460.789 370.215L459.944 370.313ZM459.751 368.604L459.658 367.749L460.504 367.658L460.596 368.511L459.751 368.604ZM459.568 366.894C459.537 366.599 459.507 366.313 459.479 366.037L460.325 365.951C460.353 366.226 460.383 366.511 460.413 366.804L459.568 366.894ZM459.393 365.181L459.309 364.324L460.156 364.243L460.24 365.098L459.393 365.181ZM459.229 363.466C459.199 363.147 459.173 362.86 459.15 362.607L459.998 362.532C460.02 362.784 460.046 363.07 460.075 363.388L459.229 363.466Z" fill="#333333"/>
</g>
<mask id="mask22_706_2533" style="mask-type:luminance" maskUnits="userSpaceOnUse" x="453" y="358" width="72" height="42">
<path d="M521.904 358.566C521.904 358.566 533.075 392.52 508.824 397.232C484.574 401.943 457.63 398.286 457.63 398.286L453.809 363.659L488.321 359.713L521.904 358.566Z" fill="white"/>
</mask>
<g mask="url(#mask22_706_2533)">
<path d="M520.159 380.972C520.096 380.972 520.032 380.963 519.967 380.945C515.05 379.564 511.582 375.541 509.937 369.309C508.717 364.688 508.92 360.533 508.929 360.358C508.95 359.967 509.279 359.675 509.674 359.687C510.065 359.708 510.365 360.041 510.345 360.432C510.337 360.593 509.633 376.571 520.35 379.58C520.727 379.686 520.947 380.077 520.841 380.454C520.754 380.767 520.469 380.972 520.159 380.972Z" fill="#333333"/>
</g>
<path d="M544.22 317.785C544.22 317.785 540.541 297.382 536.618 291.034C532.695 284.687 514.15 276.779 514.15 276.779C514.15 276.779 496.277 274.294 487.203 279.105C476.596 284.728 462.26 307.424 462.26 307.424L473.595 313.176L460.511 355.71C460.511 355.71 472.018 359.372 482.764 361.243C493.509 363.113 525.372 359.372 527.203 359.585C529.034 359.798 524.653 319.828 524.653 319.828C527.792 320.351 544.22 317.785 544.22 317.785Z" fill="#FC476A"/>
<mask id="mask23_706_2533" style="mask-type:luminance" maskUnits="userSpaceOnUse" x="460" y="276" width="85" height="86">
<path d="M544.22 317.785C544.22 317.785 540.541 297.382 536.618 291.034C532.695 284.687 514.15 276.779 514.15 276.779C514.15 276.779 496.277 274.294 487.203 279.105C476.596 284.728 462.26 307.424 462.26 307.424L473.595 313.176L460.511 355.71C460.511 355.71 472.018 359.372 482.764 361.243C493.509 363.113 525.372 359.372 527.203 359.585C529.034 359.798 524.653 319.828 524.653 319.828C527.792 320.351 544.22 317.785 544.22 317.785Z" fill="white"/>
</mask>
<g mask="url(#mask23_706_2533)">
<path d="M532.605 319.368C532.605 319.368 525.483 316.519 524.623 314.142C523.763 311.765 519.604 296.848 519.604 296.848C519.604 296.848 520.598 328.936 526.053 333.618C526.053 333.618 528.254 320.947 532.605 319.368Z" fill="#D40221"/>
</g>
<mask id="mask24_706_2533" style="mask-type:luminance" maskUnits="userSpaceOnUse" x="460" y="276" width="85" height="86">
<path d="M544.22 317.785C544.22 317.785 540.541 297.382 536.618 291.034C532.695 284.687 514.15 276.779 514.15 276.779C514.15 276.779 496.277 274.294 487.203 279.105C476.596 284.728 462.26 307.424 462.26 307.424L473.595 313.176L460.511 355.71C460.511 355.71 472.018 359.372 482.764 361.243C493.509 363.113 525.372 359.372 527.203 359.585C529.034 359.798 524.653 319.828 524.653 319.828C527.792 320.351 544.22 317.785 544.22 317.785Z" fill="white"/>
</mask>
<g mask="url(#mask24_706_2533)">
<path d="M468.821 310.753C468.821 310.753 473.305 310.241 474.884 307.45C476.463 304.66 481.615 295.358 481.615 295.358L470.543 323.097C470.543 323.097 471.282 315.423 471.016 314.493C470.75 313.562 468.821 310.753 468.821 310.753Z" fill="#D40221"/>
</g>
<path d="M485.554 231.683C485.554 231.683 478.315 233.997 477.51 236.914C476.705 239.832 479.232 250.169 479.232 250.169L487.771 240.926L485.554 231.683Z" fill="#F9C438"/>
<mask id="mask25_706_2533" style="mask-type:luminance" maskUnits="userSpaceOnUse" x="477" y="231" width="11" height="20">
<path d="M485.554 231.683C485.554 231.683 478.315 233.997 477.51 236.914C476.705 239.832 479.232 250.169 479.232 250.169L487.771 240.926L485.554 231.683Z" fill="white"/>
</mask>
<g mask="url(#mask25_706_2533)">
<path d="M480.978 233.179C480.978 233.179 478.365 236.446 478.971 239.573C479.578 242.7 481.025 242.98 481.025 242.98L484.48 237.94L482.562 232.012L480.978 233.179Z" fill="#F6AB36"/>
</g>
<path d="M514.434 276.778L508.26 274.101C508.256 274.089 508.254 274.077 508.249 274.066C507.395 272.074 499.437 258.918 499.437 258.918C500.612 255.838 504.871 242.212 502.034 239.042C499.997 236.765 492.716 234.404 486.915 235.639C483.642 236.335 482.44 239.526 480.507 242.259C474.563 250.665 476.349 267.261 481.658 268.722C484.02 269.371 486.762 268.742 489.379 267.518C489.688 269.638 490.386 273.029 491.082 276.162L487.991 278.779C487.991 278.779 491.432 283.641 498.272 283.226C505.112 282.812 514.434 276.778 514.434 276.778Z" fill="#FE8E9C"/>
<mask id="mask26_706_2533" style="mask-type:luminance" maskUnits="userSpaceOnUse" x="476" y="235" width="39" height="49">
<path d="M514.434 276.778L508.26 274.101C508.256 274.089 508.254 274.077 508.249 274.066C507.395 272.074 499.437 258.918 499.437 258.918C500.612 255.838 504.871 242.212 502.034 239.042C499.997 236.765 492.716 234.404 486.915 235.639C483.642 236.335 482.44 239.526 480.507 242.259C474.563 250.665 476.349 267.261 481.658 268.722C484.02 269.371 486.762 268.742 489.379 267.518C489.688 269.638 490.386 273.029 491.082 276.162L487.991 278.779C487.991 278.779 491.432 283.641 498.272 283.226C505.112 282.812 514.434 276.778 514.434 276.778Z" fill="white"/>
</mask>
<g mask="url(#mask26_706_2533)">
<path d="M479.971 238.865C479.971 238.865 474.477 246.568 485.601 245.979C496.726 245.391 495.253 247.607 495.215 247.91C495.176 248.213 496.986 245.177 496.482 243.84C495.977 242.502 479.971 238.865 479.971 238.865Z" fill="#E57492"/>
</g>
<path d="M483.44 244.875C483.44 244.875 479.605 253.432 481 254.348C482.395 255.264 485.851 253.284 485.851 253.284C485.803 253.896 485.811 254.322 485.232 254.527C483.555 255.118 480.878 256.139 480.182 254.801C478.96 252.45 483.44 244.875 483.44 244.875Z" fill="#E57492"/>
<path d="M489.379 267.518C489.379 267.518 494.627 263.873 496.34 261.687C496.34 261.687 494.933 269.124 490.044 271.251L489.379 267.518Z" fill="#E57492"/>
<path d="M480.607 260.146C480.607 260.146 482.756 261.905 484.345 260.373C484.345 260.373 484.58 262.19 482.196 262.53C479.812 262.871 480.607 260.146 480.607 260.146Z" fill="white"/>
<path d="M482.177 233.038C482.177 233.038 478.1 243.771 486.825 244.226C495.551 244.68 495.642 245.68 495.37 246.953C495.097 248.225 494.824 251.944 494.824 251.944C494.824 251.944 496.621 248.907 497.489 249.28C498.356 249.651 499.844 252.564 499.162 253.618C498.48 254.671 497.226 255.829 497.04 255.909C496.854 255.989 499.437 258.919 499.437 258.919C499.437 258.919 502.198 258.576 504.119 256.407C506.04 254.238 509.432 245.391 506.228 238.215C501.82 228.343 491.459 229.275 488.349 229.213C485.24 229.151 482.177 233.038 482.177 233.038Z" fill="#F9C438"/>
<path d="M489.024 252.039C486.684 252.039 484.779 250.134 484.779 247.793C484.779 245.452 486.684 243.548 489.024 243.548C491.365 243.548 493.269 245.452 493.269 247.793C493.269 250.134 491.365 252.039 489.024 252.039ZM489.024 244.056C486.963 244.056 485.287 245.732 485.287 247.794C485.287 249.855 486.963 251.532 489.024 251.532C491.085 251.532 492.762 249.855 492.762 247.794C492.762 245.732 491.085 244.056 489.024 244.056Z" fill="#333333"/>
<path d="M479.965 249.697C477.624 249.697 475.72 247.792 475.72 245.451C475.72 243.11 477.624 241.206 479.965 241.206C482.305 241.206 484.209 243.11 484.209 245.451C484.209 247.792 482.305 249.697 479.965 249.697ZM479.965 241.714C477.904 241.714 476.227 243.39 476.227 245.452C476.227 247.513 477.904 249.19 479.965 249.19C482.026 249.19 483.702 247.513 483.702 245.452C483.702 243.39 482.025 241.714 479.965 241.714Z" fill="#333333"/>
<path d="M483.847 246.31L483.74 246.806L485.086 247.095L485.193 246.598L483.847 246.31Z" fill="#333333"/>
<path d="M496.67 249.587C496.666 249.587 496.662 249.587 496.658 249.587L492.762 249.417C492.622 249.411 492.514 249.293 492.52 249.153C492.526 249.012 492.646 248.9 492.784 248.91L496.681 249.08C496.82 249.086 496.929 249.204 496.923 249.345C496.917 249.481 496.805 249.587 496.67 249.587Z" fill="#333333"/>
<path d="M457.417 396.355C457.417 396.355 449.822 364.142 453.809 363.66C457.797 363.177 478.379 360.395 478.379 360.395C478.379 360.395 449.159 361.345 448.373 363.439C447.588 365.533 453.434 396.199 453.434 396.199L457.417 396.355Z" fill="#333333"/>
<path d="M452.67 368.454C452.67 368.454 437.069 369.01 434.239 373.538C431.409 378.066 412.354 444.106 412.354 444.106C412.354 444.106 420.466 446.747 423.673 444.86C426.881 442.974 446.502 409.605 446.502 397.232L457.417 396.355C457.417 396.355 454.766 386.005 452.67 368.454Z" fill="#FE8E9C"/>
<mask id="mask27_706_2533" style="mask-type:luminance" maskUnits="userSpaceOnUse" x="412" y="368" width="46" height="78">
<path d="M452.67 368.454C452.67 368.454 437.069 369.01 434.239 373.538C431.409 378.066 412.354 444.106 412.354 444.106C412.354 444.106 420.466 446.747 423.673 444.86C426.881 442.974 446.502 409.605 446.502 397.232L457.417 396.355C457.417 396.355 454.766 386.005 452.67 368.454Z" fill="white"/>
</mask>
<g mask="url(#mask27_706_2533)">
<path d="M451.11 367.195C451.11 367.195 443.351 386.84 451.525 398.286L464.41 397.232L457.418 366.364L451.11 367.195Z" fill="#E57492"/>
</g>
<path d="M398.984 441.283C398.984 441.283 408.721 444.772 411.601 440.731C411.601 440.731 415.019 445.003 414.768 448.144C414.517 451.285 413.972 457.733 412.585 459.12L371.728 460.081C370.753 460.081 370.024 459.193 370.207 458.235C370.619 456.083 371.512 452.618 373.179 451.034C375.692 448.647 398.984 441.283 398.984 441.283Z" fill="#151C30"/>
<mask id="mask28_706_2533" style="mask-type:luminance" maskUnits="userSpaceOnUse" x="370" y="440" width="45" height="21">
<path d="M398.984 441.283C398.984 441.283 408.721 444.772 411.601 440.731C411.601 440.731 415.019 445.003 414.768 448.144C414.517 451.285 413.972 457.733 412.585 459.12L371.728 460.081C370.753 460.081 370.024 459.193 370.207 458.235C370.619 456.083 371.512 452.618 373.179 451.034C375.692 448.647 398.984 441.283 398.984 441.283Z" fill="white"/>
</mask>
<g mask="url(#mask28_706_2533)">
<path opacity="0.39" d="M380.731 461.267C380.731 461.267 380.731 454.575 381.783 453.619C382.834 452.663 407.259 443.553 407.259 443.553C407.259 443.553 406.102 459.948 404.792 460.081C403.482 460.215 380.731 461.267 380.731 461.267Z" fill="#333333"/>
</g>
<mask id="mask29_706_2533" style="mask-type:luminance" maskUnits="userSpaceOnUse" x="370" y="440" width="45" height="21">
<path d="M398.984 441.283C398.984 441.283 408.721 444.772 411.601 440.731C411.601 440.731 415.019 445.003 414.768 448.144C414.517 451.285 413.972 457.733 412.585 459.12L371.728 460.081C370.753 460.081 370.024 459.193 370.207 458.235C370.619 456.083 371.512 452.618 373.179 451.034C375.692 448.647 398.984 441.283 398.984 441.283Z" fill="white"/>
</mask>
<g mask="url(#mask29_706_2533)">
<path d="M369.117 458.386C368.969 458.386 368.844 458.27 368.835 458.12C368.825 457.964 368.944 457.829 369.1 457.82L416.203 454.921C416.364 454.913 416.494 455.03 416.503 455.187C416.513 455.343 416.394 455.477 416.238 455.487L369.135 458.386C369.129 458.386 369.123 458.386 369.117 458.386Z" fill="#333333"/>
</g>
<path d="M373.179 451.034C373.179 451.034 375.884 452.443 377.286 452.38C378.688 452.316 406.09 443.202 405.326 442.628C404.561 442.055 400.827 438.794 399.399 438.677C397.971 438.56 372.896 449.944 373.179 451.034Z" fill="#333333"/>
<path d="M393.889 440.731C393.889 440.731 397.774 442.132 399.817 445.529L397.498 446.386C397.498 446.386 394.07 442.508 391.423 441.797L393.889 440.731Z" fill="#151C30"/>
<path d="M388.261 443.21C388.261 443.21 392.146 444.611 394.189 448.008L391.87 448.865C391.87 448.865 388.442 444.988 385.795 444.276L388.261 443.21Z" fill="#151C30"/>
<path d="M381.275 446.469C381.275 446.469 385.179 448.008 387.222 451.405L384.903 452.262C384.903 452.262 381.475 448.384 378.828 447.673L381.275 446.469Z" fill="#151C30"/>
<path d="M412.353 444.106C412.353 444.106 422.091 447.595 424.97 443.553C424.97 443.553 428.388 447.825 428.137 450.967C427.886 454.108 427.342 460.555 425.954 461.943L385.098 462.904C384.123 462.904 383.393 462.016 383.576 461.058C383.988 458.905 384.881 455.441 386.549 453.857C389.062 451.469 412.353 444.106 412.353 444.106Z" fill="#151C30"/>
<mask id="mask30_706_2533" style="mask-type:luminance" maskUnits="userSpaceOnUse" x="383" y="443" width="46" height="20">
<path d="M412.353 444.106C412.353 444.106 422.091 447.595 424.97 443.553C424.97 443.553 428.388 447.825 428.137 450.967C427.886 454.108 427.342 460.555 425.954 461.943L385.098 462.904C384.123 462.904 383.393 462.016 383.576 461.058C383.988 458.905 384.881 455.441 386.549 453.857C389.062 451.469 412.353 444.106 412.353 444.106Z" fill="white"/>
</mask>
<g mask="url(#mask30_706_2533)">
<path d="M382.523 461.467C382.372 461.467 382.247 461.347 382.241 461.195C382.234 461.039 382.355 460.906 382.512 460.9C384.303 460.825 426.379 459.067 427.769 459.138C427.926 459.146 428.046 459.28 428.038 459.436C428.029 459.592 427.901 459.71 427.739 459.704C426.374 459.637 382.974 461.448 382.536 461.467C382.532 461.467 382.528 461.467 382.523 461.467Z" fill="#333333"/>
</g>
<path d="M386.548 453.857C386.548 453.857 389.253 455.266 390.655 455.202C392.057 455.138 419.46 446.025 418.695 445.451C417.93 444.878 414.196 441.617 412.768 441.5C411.341 441.382 386.265 452.766 386.548 453.857Z" fill="#333333"/>
<path d="M407.258 443.553C407.258 443.553 411.143 444.954 413.186 448.351L410.867 449.209C410.867 449.209 407.439 445.331 404.792 444.62L407.258 443.553Z" fill="#151C30"/>
<path d="M401.631 446.032C401.631 446.032 405.516 447.433 407.558 450.83L405.239 451.688C405.239 451.688 401.811 447.81 399.164 447.099L401.631 446.032Z" fill="#151C30"/>
<path d="M394.644 449.292C394.644 449.292 398.549 450.83 400.591 454.227L398.273 455.085C398.273 455.085 394.844 451.207 392.197 450.496L394.644 449.292Z" fill="#151C30"/>
<path d="M447.158 363.66C447.158 363.66 421.069 325.299 422.821 324.697C424.572 324.095 486.352 326.188 486.122 327.692C485.893 329.196 506.341 365.195 504.841 365.722C503.342 366.25 452.594 363.88 447.158 363.66Z" fill="#333333"/>
<path d="M464.216 342.508C465.662 345.331 465.175 348.469 463.128 349.517C461.082 350.566 458.251 349.127 456.805 346.305C455.36 343.483 455.847 340.345 457.893 339.297C459.94 338.248 462.771 339.686 464.216 342.508Z" fill="#151C30"/>
<path d="M524.654 319.828C524.654 319.828 529.295 340.266 528.101 341.062C526.907 341.858 498.852 352.574 498.852 352.574L502.578 359.894C502.578 359.894 541.268 354.308 543.026 353.162C548.227 349.769 542.72 318.013 542.72 318.013C542.72 318.013 528.382 320.119 524.654 319.828Z" fill="#FE8E9C"/>
<mask id="mask31_706_2533" style="mask-type:luminance" maskUnits="userSpaceOnUse" x="498" y="318" width="48" height="42">
<path d="M524.654 319.828C524.654 319.828 529.295 340.266 528.101 341.062C526.907 341.858 498.852 352.574 498.852 352.574L502.578 359.894C502.578 359.894 541.268 354.308 543.026 353.162C548.227 349.769 542.72 318.013 542.72 318.013C542.72 318.013 528.382 320.119 524.654 319.828Z" fill="white"/>
</mask>
<g mask="url(#mask31_706_2533)">
<path d="M524.335 324.591C524.335 324.591 539.875 323.499 543.309 319.502L542.802 315.56C542.802 315.56 523.435 318.038 523.435 318.713C523.435 319.389 524.335 324.591 524.335 324.591Z" fill="#E57492"/>
</g>
<mask id="mask32_706_2533" style="mask-type:luminance" maskUnits="userSpaceOnUse" x="498" y="318" width="48" height="42">
<path d="M524.654 319.828C524.654 319.828 529.295 340.266 528.101 341.062C526.907 341.858 498.852 352.574 498.852 352.574L502.578 359.894C502.578 359.894 541.268 354.308 543.026 353.162C548.227 349.769 542.72 318.013 542.72 318.013C542.72 318.013 528.382 320.119 524.654 319.828Z" fill="white"/>
</mask>
<g mask="url(#mask32_706_2533)">
<path d="M528.101 341.062C528.101 341.062 532.533 343.608 533.868 346.057C535.204 348.505 535.148 341.373 528.275 339.429L528.101 341.062Z" fill="#E57492"/>
</g>
<path d="M463.828 308.219L455.24 325.418L469.626 326.079L473.595 313.176L463.828 308.219Z" fill="#FE8E9C"/>
<mask id="mask33_706_2533" style="mask-type:luminance" maskUnits="userSpaceOnUse" x="455" y="308" width="19" height="19">
<path d="M463.828 308.219L455.24 325.418L469.626 326.079L473.595 313.176L463.828 308.219Z" fill="white"/>
</mask>
<g mask="url(#mask33_706_2533)">
<path d="M462.321 309.094C462.321 309.094 469.435 321.192 472.654 320.985L475.457 311.794L463.828 306.705L462.321 309.094Z" fill="#E57492"/>
</g>
</svg>
