<svg width="383" height="532" viewBox="0 0 383 532" fill="none" xmlns="http://www.w3.org/2000/svg">
<g clip-path="url(#clip0_330_920)">
<rect width="383" height="532" rx="12" fill="#D5E1FB"/>
<path d="M19.7995 563.058C113.733 607.829 266.03 607.83 359.963 563.06C453.897 518.288 453.897 445.701 359.963 400.93C266.03 356.16 113.732 356.16 19.7981 400.929C-74.1354 445.699 -74.1354 518.288 19.7995 563.058Z" fill="#8494AB"/>
<path d="M306.392 492.26C316.048 496.862 331.701 496.862 341.357 492.26C351.013 487.659 351.013 480.197 341.357 475.595C331.701 470.994 316.048 470.994 306.392 475.595C296.737 480.197 296.737 487.658 306.392 492.26Z" fill="#758295"/>
<path d="M113.643 250.944L112.488 244.235L106.501 248.174C105.902 247.027 105.131 246.106 104.225 245.411L107.09 237.662L101.757 236.47L97.8166 243.979C96.5114 244.18 95.133 244.62 93.7127 245.315L92.0072 239.656L85.6201 244.678L86.0387 251.349C84.7453 252.788 83.5628 254.361 82.5072 256.016L77.2295 255.755L73.5291 264.049L78.0612 265.982C77.5824 267.766 77.2746 269.536 77.166 271.238L71.4126 276.529L72.5682 283.238L78.554 279.298C79.1534 280.445 79.9238 281.366 80.8308 282.061L77.9654 289.81L83.2992 291.002L88.9353 285.507C90.2415 285.307 89.923 282.853 91.3434 282.158L93.0477 287.817L99.4359 282.795L99.2713 280.171C100.564 278.733 105.445 275.559 106.501 273.904L107.827 271.718L111.527 263.424L109.803 260.302L107.89 256.235L113.643 250.944ZM94.1334 273.055C89.2333 276.907 87.7409 277.748 86.8543 272.601C85.9677 267.455 88.8341 259.606 93.7353 255.754C98.6354 251.901 100.516 251.614 101.402 256.76C102.287 261.907 99.0335 269.202 94.1334 273.055Z" fill="#C4C4C4"/>
<path d="M101.758 236.47L108.735 240.493L104.795 248.002L97.8164 243.978L101.758 236.47Z" fill="#DCDCDC"/>
<path d="M119.467 248.259L113.481 252.198L106.502 248.174L112.489 244.235L119.467 248.259Z" fill="#DCDCDC"/>
<path d="M118.505 267.448L113.974 265.515L106.996 261.491L111.527 263.424L118.505 267.448Z" fill="#C4C4C4"/>
<path d="M77.9653 289.81L84.9443 293.834L87.8086 286.086L80.8307 282.061L77.9653 289.81Z" fill="#C4C4C4"/>
<path d="M100.028 291.841L93.0486 287.817L91.3442 282.158L98.3221 286.183L100.028 291.841Z" fill="#C4C4C4"/>
<path d="M120.621 254.968L119.465 248.259L113.48 252.198C112.88 251.051 112.109 250.13 111.203 249.435L114.068 241.687L108.735 240.495L104.794 248.003C103.489 248.204 102.11 248.644 100.689 249.339L98.9838 243.681L92.5967 248.702L93.0152 255.373C91.723 256.811 90.5394 258.385 89.4838 260.04L84.206 259.78L80.5056 268.073L85.0378 270.006C84.5589 271.79 84.2523 273.56 84.1425 275.263L78.3892 280.554L79.5448 287.263L85.5306 283.324C86.1299 284.47 86.9003 285.392 87.8063 286.087L84.942 293.835L90.2757 295.027L94.216 287.519C95.5212 287.319 96.8996 286.878 98.3199 286.183L100.025 291.841L106.412 286.82L105.994 280.148C107.287 278.711 108.47 277.137 109.525 275.482L114.803 275.742L118.502 267.448L113.97 265.516C114.449 263.732 114.757 261.962 114.864 260.26L120.621 254.968ZM101.111 277.08C96.211 280.933 91.5196 279.883 90.633 274.736C89.7463 269.59 93.0012 262.293 97.9013 258.441C102.801 254.588 107.492 255.637 108.378 260.784C109.265 265.931 106.011 273.226 101.111 277.08Z" fill="#E8E7E7"/>
<path d="M98.9851 243.679L92.0072 239.655L85.6201 244.677L92.598 248.701L98.9851 243.679Z" fill="#DCDCDC"/>
<path d="M85.6201 244.677L86.0387 251.348L93.0155 255.371L92.598 248.701L85.6201 244.677Z" fill="#C4C4C4"/>
<path d="M89.4851 260.039L82.5062 256.015L77.2295 255.754L84.2074 259.779L89.4851 260.039Z" fill="#DCDCDC"/>
<path d="M77.2297 255.754L73.5293 264.048L80.5072 268.072L84.2075 259.779L77.2297 255.754Z" fill="#C4C4C4"/>
<path d="M84.1438 275.262L77.166 271.238L71.4126 276.529L78.3905 280.553L84.1438 275.262Z" fill="#DCDCDC"/>
<path d="M79.5461 287.262L72.5682 283.238L71.4126 276.529L78.3905 280.553L79.5461 287.262Z" fill="#C4C4C4"/>
<path d="M108.735 240.493L101.758 236.47L107.09 237.662L114.068 241.687L108.735 240.493Z" fill="#DCDCDC"/>
<path d="M82.3804 220.515V210.495L74.4061 214.089C73.9252 212.239 73.1935 210.653 72.252 209.343L77.2758 199.213L71.1394 195.669L64.8782 205.087C63.2738 204.926 61.5339 205.084 59.6908 205.594L58.816 196.891L50.1391 201.901L49.2643 211.614C47.4211 213.233 45.6812 215.084 44.0769 217.096L37.8157 214.909L31.6793 225.537L36.7031 229.866C35.7627 232.261 35.0299 234.694 34.5489 237.1L26.5747 242.713V252.733L34.5489 249.138C35.0299 250.989 35.7627 252.575 36.7031 253.884L31.6793 264.015L37.8157 267.557L44.0769 258.141C45.6812 258.301 47.4211 258.142 49.2643 257.633L50.1391 266.337L58.816 261.327L59.6908 251.614C62.2764 250.751 65.0439 248.75 66.6471 246.737L71.1383 248.319L77.2748 237.692L73.5098 234.447C74.4503 232.052 74.5503 228.223 74.404 226.13L82.3804 220.515ZM54.4786 245.532C47.8214 249.376 43.6831 246.649 43.6831 238.962C43.6831 231.275 49.1847 221.858 55.8419 218.015C62.4991 214.171 66.532 216.967 66.532 224.654C66.533 232.342 61.1358 241.689 54.4786 245.532Z" fill="#C4C4C4"/>
<path d="M78.1185 199.695L71.1396 195.671L64.8794 205.088L71.8573 209.111L78.1185 199.695Z" fill="#DCDCDC"/>
<path d="M89.3583 214.519L82.3805 210.495L74.4062 214.089L81.3841 218.114L89.3583 214.519Z" fill="#DCDCDC"/>
<path d="M57.1183 270.361L50.1404 266.337L49.2656 257.633L56.2446 261.657L57.1183 270.361Z" fill="#C4C4C4"/>
<path d="M31.6816 264.015L38.6595 268.039L43.6833 257.908L36.7055 253.884L31.6816 264.015Z" fill="#C4C4C4"/>
<path d="M89.3583 224.54V214.519L81.3841 218.114C80.9031 216.263 80.1703 214.677 79.2299 213.367L84.2538 203.237L78.1173 199.694L71.8561 209.111C70.2528 208.95 68.513 209.109 66.6698 209.619L65.795 200.916L57.1181 205.926L56.2433 215.639C54.4001 217.258 52.6602 219.109 51.0559 221.121L44.7947 218.935L38.6583 229.563L43.6821 233.892C42.7417 236.287 42.0089 238.719 41.528 241.125L33.5537 246.739V256.758L41.528 253.163C42.0089 255.014 42.7417 256.6 43.6821 257.91L38.6583 268.04L44.7947 271.582L51.0559 262.166C52.6602 262.325 54.4001 262.167 56.2433 261.658L57.1181 270.362L65.795 265.352L66.6698 255.639C68.513 254.021 70.2528 252.169 71.8561 250.158L78.1173 252.345L84.2538 241.717L79.2299 237.388C80.1703 234.993 80.9031 232.561 81.3841 230.155L89.3583 224.54ZM61.4566 249.557C54.7993 253.4 49.4021 250.284 49.4021 242.597C49.4021 234.91 54.7993 225.562 61.4566 221.718C68.1138 217.875 73.511 220.991 73.511 228.678C73.511 236.366 68.1138 245.713 61.4566 249.557Z" fill="#E8E7E7"/>
<path d="M44.0791 217.096L51.057 221.12L44.7957 218.934L37.8179 214.909L44.0791 217.096Z" fill="#F0F0F0"/>
<path d="M37.8068 214.911L31.6758 225.54L38.653 229.565L44.784 218.935L37.8068 214.911Z" fill="#DCDCDC"/>
<path d="M31.6816 225.537L38.6595 229.561L43.6833 233.891L36.7055 229.866L31.6816 225.537Z" fill="#C4C4C4"/>
<path d="M34.552 237.1L41.5298 241.124L33.5556 246.737L26.5767 242.713L34.552 237.1Z" fill="#DCDCDC"/>
<path d="M26.5767 242.713L33.5556 246.737V256.756L26.5767 252.733V242.713Z" fill="#C4C4C4"/>
<path d="M65.7959 200.915L58.817 196.891L50.1401 201.901L57.118 205.925L65.7959 200.915Z" fill="#DCDCDC"/>
<path d="M155.317 488.264L256.488 429.853C257.517 429.258 257.518 428.295 256.489 427.699L247.13 422.285C246.101 421.689 244.432 421.688 243.403 422.283L142.205 480.693C141.175 481.288 141.175 482.251 142.205 482.845L151.59 488.264C152.62 488.857 154.288 488.857 155.317 488.264Z" fill="#758295"/>
<path d="M253.692 204.355L162.482 257.014C159.91 258.5 157.823 262.113 157.823 265.084V481.436C157.823 484.408 159.91 485.612 162.482 484.126L253.693 431.467C256.266 429.981 258.352 426.368 258.352 423.397L258.351 207.046C258.351 204.074 256.264 202.869 253.692 204.355Z" fill="#455A64"/>
<path d="M162.482 257.014L253.691 204.355C255.993 203.027 257.898 203.853 258.278 206.167C257.929 203.394 256.016 200.318 253.691 198.975L249.898 196.784C247.325 195.298 243.152 195.298 240.579 196.784L149.371 249.444C148.084 250.186 146.92 251.461 146.076 252.921L159.188 260.491C160.031 259.032 161.196 257.758 162.482 257.014Z" fill="#37474F"/>
<path d="M144.712 473.865C144.712 476.837 146.797 480.45 149.371 481.935L153.165 484.126C155.491 485.468 159.114 485.585 161.691 484.5C159.496 485.333 157.823 484.096 157.823 481.436V265.084C157.823 263.598 158.345 261.952 159.188 260.492L146.076 252.922C145.233 254.382 144.712 256.029 144.712 257.515V473.865Z" fill="#263238"/>
<path d="M164.99 285.849L251.184 236.085C252.729 235.193 253.981 235.916 253.981 237.699L253.982 397.792C253.982 399.575 252.729 401.743 251.185 402.634L164.991 452.399C163.447 453.29 162.196 452.567 162.196 450.785L162.195 290.692C162.194 288.908 163.446 286.74 164.99 285.849Z" fill="white"/>
<path d="M208.087 238.892C207.183 239.415 206.449 240.686 206.449 241.731C206.449 242.777 207.184 243.2 208.087 242.677C208.993 242.155 209.726 240.884 209.726 239.838C209.726 238.793 208.993 238.369 208.087 238.892Z" fill="#37474F"/>
<path d="M208.089 435.202C204.515 437.266 201.617 442.284 201.617 446.412C201.617 450.538 204.514 452.211 208.089 450.148C211.663 448.085 214.56 443.067 214.56 438.939C214.559 434.813 211.663 433.139 208.089 435.202Z" fill="#37474F"/>
<path d="M192.606 255.546C190.796 256.591 189.328 259.133 189.328 261.224C189.328 263.314 190.796 264.161 192.607 263.116C194.418 262.072 195.884 259.53 195.884 257.439C195.884 255.348 194.417 254.501 192.606 255.546Z" fill="#37474F"/>
<path d="M200.621 254.837C200.621 256.23 201.664 256.758 202.95 256.015L224.516 243.564C225.802 242.822 226.846 241.09 226.846 239.696C226.845 238.303 225.802 237.774 224.515 238.518L202.95 250.968C201.664 251.712 200.621 253.443 200.621 254.837Z" fill="#37474F"/>
<path d="M151.965 292.776C153.413 293.612 154.587 295.646 154.587 297.319C154.587 298.991 153.413 299.669 151.965 298.833C150.517 297.997 149.342 295.963 149.342 294.291C149.342 292.619 150.517 291.94 151.965 292.776Z" fill="#37474F"/>
<path d="M151.965 312.979C153.413 313.815 154.587 315.849 154.587 317.522C154.587 319.195 153.413 319.872 151.965 319.036C150.517 318.2 149.342 316.166 149.342 314.493C149.343 312.821 150.517 312.144 151.965 312.979Z" fill="#37474F"/>
<path d="M151.155 293.182C152.603 294.018 153.778 296.052 153.778 297.724C153.778 299.396 152.604 300.075 151.155 299.238C149.707 298.402 148.533 296.368 148.533 294.696C148.533 293.023 149.708 292.345 151.155 293.182Z" fill="#455A64"/>
<path d="M151.155 313.385C152.603 314.221 153.778 316.255 153.778 317.928C153.778 319.6 152.604 320.278 151.155 319.442C149.707 318.606 148.533 316.572 148.533 314.899C148.533 313.226 149.708 312.549 151.155 313.385Z" fill="#455A64"/>
<path d="M271.464 242.761C271.464 240.978 270.212 240.256 268.667 241.147L258.351 247.103L182.473 290.912C180.929 291.804 179.678 293.971 179.678 295.754L179.679 455.846C179.679 457.629 180.93 458.351 182.474 457.46L258.379 413.636L268.668 407.695C270.212 406.803 271.465 404.635 271.465 402.853L271.464 242.761Z" fill="white" stroke="#27DEBF" stroke-miterlimit="10"/>
<path d="M181.225 458.38C180.867 458.38 180.53 458.294 180.229 458.121C179.527 457.715 179.141 456.907 179.141 455.845L179.14 295.752C179.14 293.768 180.486 291.437 182.204 290.445L258.081 246.636L258.619 247.568L182.742 291.376C181.372 292.167 180.216 294.171 180.216 295.752L180.217 455.845C180.217 456.497 180.417 456.987 180.767 457.189C181.116 457.391 181.64 457.318 182.205 456.993L258.109 413.169L258.647 414.1L182.743 457.923C182.218 458.229 181.702 458.38 181.225 458.38Z" fill="#27DEBF" stroke="#27DEBF" stroke-miterlimit="10"/>
<path d="M258.648 414.101L258.11 413.17L268.399 407.23C269.769 406.438 270.927 404.434 270.927 402.854L270.926 242.762C270.926 242.11 270.726 241.62 270.376 241.418C270.028 241.217 269.503 241.286 268.936 241.614L258.62 247.57L258.082 246.638L268.398 240.682C269.317 240.151 270.211 240.08 270.914 240.486C271.614 240.892 272.002 241.699 272.002 242.762L272.003 402.854C272.003 404.837 270.657 407.169 268.937 408.162L258.648 414.101Z" fill="#27DEBF" stroke="#27DEBF" stroke-miterlimit="10"/>
<path d="M225.571 279.963C235.227 274.389 243.054 278.908 243.054 290.057C243.054 301.207 235.227 314.763 225.571 320.339C215.915 325.914 208.088 321.395 208.088 310.245C208.088 299.096 215.915 285.538 225.571 279.963Z" fill="#27DEBF"/>
<path d="M225.571 288.738C228.703 286.929 231.243 288.396 231.243 292.012C231.243 295.63 228.703 300.029 225.571 301.836C222.439 303.645 219.898 302.178 219.898 298.561C219.898 294.944 222.439 290.547 225.571 288.738Z" fill="#27DEBF"/>
<path d="M236.626 308.025C236.626 302.083 232.453 299.673 227.308 302.645L224.091 304.503C218.945 307.473 214.772 314.7 214.772 320.643V322.241C217.748 323.229 221.492 322.694 225.571 320.338C229.765 317.916 233.614 313.985 236.626 309.403V308.025Z" fill="#27DEBF"/>
<path opacity="0.7" d="M225.571 288.738C228.703 286.929 231.243 288.396 231.243 292.012C231.243 295.63 228.703 300.029 225.571 301.836C222.439 303.645 219.898 302.178 219.898 298.561C219.898 294.944 222.439 290.547 225.571 288.738Z" fill="white"/>
<path opacity="0.7" d="M236.626 308.025C236.626 302.083 232.453 299.673 227.308 302.645L224.091 304.503C218.945 307.473 214.772 314.7 214.772 320.643V322.241C217.748 323.229 221.492 322.694 225.571 320.338C229.765 317.916 233.614 313.985 236.626 309.403V308.025Z" fill="white"/>
<path d="M191.743 344.927L214.24 331.938C215.27 331.344 216.105 331.826 216.105 333.014V333.757C216.105 334.946 215.271 336.391 214.24 336.985L191.743 349.973C190.714 350.568 189.879 350.086 189.879 348.897V348.155C189.879 346.966 190.714 345.521 191.743 344.927Z" fill="#27DEBF"/>
<path opacity="0.1" d="M191.743 344.927L214.24 331.938C215.27 331.344 216.105 331.826 216.105 333.014V333.757C216.105 334.946 215.271 336.391 214.24 336.985L191.743 349.973C190.714 350.568 189.879 350.086 189.879 348.897V348.155C189.879 346.966 190.714 345.521 191.743 344.927Z" fill="black"/>
<path d="M190.812 360.605L258.88 321.306C259.394 321.009 259.812 321.249 259.812 321.844V329.786C259.812 330.38 259.394 331.103 258.88 331.4L190.812 370.699C190.298 370.996 189.88 370.755 189.88 370.161V362.219C189.88 361.625 190.298 360.902 190.812 360.605Z" fill="#27DEBF"/>
<path opacity="0.2" d="M190.812 360.605L258.88 321.306C259.394 321.009 259.812 321.249 259.812 321.844V329.786C259.812 330.38 259.394 331.103 258.88 331.4L190.812 370.699C190.298 370.996 189.88 370.755 189.88 370.161V362.219C189.88 361.625 190.298 360.902 190.812 360.605Z" fill="white"/>
<path d="M191.743 380.255L214.24 367.267C215.27 366.673 216.105 367.154 216.105 368.343V369.085C216.105 370.273 215.271 371.719 214.24 372.313L191.743 385.302C190.714 385.897 189.879 385.413 189.879 384.226V383.483C189.879 382.294 190.714 380.85 191.743 380.255Z" fill="#27DEBF"/>
<path opacity="0.1" d="M191.743 380.255L214.24 367.267C215.27 366.673 216.105 367.154 216.105 368.343V369.085C216.105 370.273 215.271 371.719 214.24 372.313L191.743 385.302C190.714 385.897 189.879 385.413 189.879 384.226V383.483C189.879 382.294 190.714 380.85 191.743 380.255Z" fill="black"/>
<path d="M190.812 395.933L258.88 356.635C259.394 356.338 259.812 356.579 259.812 357.173V365.115C259.812 365.709 259.394 366.432 258.88 366.729L190.812 406.027C190.298 406.324 189.88 406.084 189.88 405.489V397.547C189.88 396.954 190.298 396.232 190.812 395.933Z" fill="#27DEBF"/>
<path opacity="0.2" d="M190.812 395.933L258.88 356.635C259.394 356.338 259.812 356.579 259.812 357.173V365.115C259.812 365.709 259.394 366.432 258.88 366.729L190.812 406.027C190.298 406.324 189.88 406.084 189.88 405.489V397.547C189.88 396.954 190.298 396.232 190.812 395.933Z" fill="white"/>
<path d="M217.968 400.443L244.836 384.931C245.866 384.336 246.699 384.818 246.699 386.007V394.321C246.699 395.508 245.866 396.955 244.836 397.549L217.968 413.061C216.938 413.655 216.104 413.173 216.104 411.985V403.671C216.104 402.482 216.938 401.037 217.968 400.443Z" fill="#27DEBF"/>
<path opacity="0.1" d="M217.968 400.443L244.836 384.931C245.866 384.336 246.699 384.818 246.699 386.007V394.321C246.699 395.508 245.866 396.955 244.836 397.549L217.968 413.061C216.938 413.655 216.104 413.173 216.104 411.985V403.671C216.104 402.482 216.938 401.037 217.968 400.443Z" fill="black"/>
<path d="M281.666 365.388C281.666 365.388 268.448 347.153 267.642 344.984C267.034 343.348 267.684 340.915 267.834 339.785C267.986 338.655 268.205 336.137 268.392 335.436C268.721 334.214 267.136 334.465 266.247 335.576C265.337 336.715 265.045 338.938 264.592 339.303C264.141 339.667 260.608 334.537 258.765 332.162C256.923 329.786 255.77 328.356 254.65 329.237C253.843 329.87 254.445 331.254 255.78 333.276C257.115 335.298 257.708 336.235 257.909 336.668C258.112 337.103 257.012 337.138 256.419 338.05C255.956 338.762 256.388 339.915 255.775 340.465C255.161 341.014 254.589 342.003 255.261 343.118C256.118 344.537 257.836 346.567 259.812 347.935C261.788 349.305 262.589 349.786 263.754 351.65C264.921 353.512 275.452 372.527 276.159 373.668C276.865 374.809 278.239 377.134 280.316 377.199C282.395 377.267 299.391 362.631 300.267 361.901C303.068 359.565 303.952 359.221 304.436 361.326C304.587 361.985 304.686 362.735 304.792 363.584C305.129 366.248 306.943 375.782 306.943 375.782C306.943 375.782 315.54 379.948 322.618 377.895C329.697 375.842 332.071 372.884 332.071 372.884L328.529 367.114C329.493 364.731 333.946 355.097 335.344 348.345L313.178 344.766C312.723 344.667 311.997 344.485 311.069 344.24C309.852 343.92 306.792 342.846 304.433 344.897C296.808 351.533 281.666 365.388 281.666 365.388Z" fill="#FFA8A7"/>
<path d="M325.611 477.224L321.638 482.746C321.638 482.746 323.479 483.825 327.409 483.975C330.966 484.111 331.943 482.943 332.074 482.662C332.674 481.375 331.737 479.052 331.48 477.055L325.611 477.224Z" fill="#37474F"/>
<path d="M321.86 480.095C321.86 480.095 317.045 479.788 313.716 479.369C310.386 478.948 307.752 480.574 308.535 481.946C309.318 483.315 311.15 484.456 314.002 485.416C316.447 486.239 319.377 486.836 321.929 487.6C324.545 488.383 326.219 489.279 327.701 488.77C329.352 488.201 330.062 487.54 329.922 486.337C329.782 485.134 328.584 481.26 328.584 481.26L321.86 480.095Z" fill="#37474F"/>
<path d="M332.073 471.676C332.073 471.676 331.47 476.692 331.424 477.769C331.377 478.845 326.529 479.19 325.61 477.224L325.459 471.092L332.073 471.676Z" fill="#F28F8F"/>
<path d="M327.184 474.762L328.918 482.371C328.918 482.371 329.082 483.298 325.118 483.889C321.155 484.481 314.94 481.816 313.882 481.274C312.824 480.732 312.697 479.655 316.59 479.87C320.482 480.086 321.861 480.094 321.861 480.094L320.597 476.721L327.184 474.762Z" fill="#FFA8A7"/>
<path d="M335.345 348.346L338.084 347.59C338.084 347.59 343.825 365.738 344.459 367.486C345.094 369.234 345.81 371.098 344.576 373.261C343.105 375.836 335.346 386.198 335.346 386.198L330.421 381.377L336.007 371.14L331.065 361.127L335.345 348.346Z" fill="#F28F8F"/>
<path d="M307.135 324.756C307.135 324.756 304.938 321.24 307.252 316.934C309.978 311.86 316.075 309.384 323.33 310.334C326.682 310.773 330.638 313.525 332.809 317.727C335.193 322.34 335.416 331.641 336.008 335.158L307.135 324.756Z" fill="#37474F"/>
<path d="M306.97 326.742C306.97 326.742 305.246 330.024 305.545 330.323C305.843 330.621 306.993 330.863 306.993 330.863L306.97 326.742Z" fill="#FFA8A7"/>
<path d="M312.201 316.365C310.327 317.588 307.1 319.822 306.958 327.196C306.812 334.767 307.882 337.208 309.001 338.086C309.756 338.677 314.175 338.377 316.072 337.932C317.97 337.486 323.427 334.791 325.391 330.691C327.7 325.87 327.233 318.809 323.796 316.759C318.959 313.874 313.787 315.331 312.201 316.365Z" fill="#FFA8A7"/>
<path d="M332.072 372.887C335.39 378.05 338.545 382.599 339.218 388.402C340.638 400.657 335.976 414.668 334.987 423.73C334.987 423.73 338.118 427.8 338.115 432.583C338.113 436.328 332.073 471.675 332.073 471.675C332.073 471.675 327.68 473.014 325.46 471.091L321.309 406.064L323.495 398.148L332.072 372.887Z" fill="#27DEBF"/>
<path opacity="0.2" d="M332.072 372.887C335.39 378.05 338.545 382.599 339.218 388.402C340.638 400.657 335.976 414.668 334.987 423.73C334.987 423.73 338.118 427.8 338.115 432.583C338.113 436.328 332.073 471.675 332.073 471.675C332.073 471.675 327.68 473.014 325.46 471.091L321.309 406.064L323.495 398.148L332.072 372.887Z" fill="black"/>
<path d="M321.309 406.065L323.495 398.149C323.495 398.149 329.557 396.685 335.345 393.449C335.345 393.449 333.102 397.523 326.677 399.756L323.33 409.933L323.042 433.222L321.309 406.065Z" fill="#27DEBF"/>
<path opacity="0.3" d="M321.309 406.065L323.495 398.149C323.495 398.149 329.557 396.685 335.345 393.449C335.345 393.449 333.102 397.523 326.677 399.756L323.33 409.933L323.042 433.222L321.309 406.065Z" fill="black"/>
<path d="M332.071 372.887C333.847 375.784 338.091 380.739 337.189 385.501C336.095 391.27 332.991 395.326 323.495 398.149L314.589 430.403C314.589 430.403 319.226 434.743 320.644 438.871C322.06 442.999 327.183 474.762 327.183 474.762C327.183 474.762 325.599 477.348 320.597 476.722C320.597 476.722 303.155 436.884 301.923 434.319C300.691 431.754 299.893 429.836 300.447 425.658C301.002 421.481 306.944 375.783 306.944 375.783L332.071 372.887Z" fill="#27DEBF"/>
<path opacity="0.2" d="M332.071 372.887C333.847 375.784 338.091 380.739 337.189 385.501C336.095 391.27 332.991 395.326 323.495 398.149L314.589 430.403C314.589 430.403 319.226 434.743 320.644 438.871C322.06 442.999 327.183 474.762 327.183 474.762C327.183 474.762 325.599 477.348 320.597 476.722C320.597 476.722 303.155 436.884 301.923 434.319C300.691 431.754 299.893 429.836 300.447 425.658C301.002 421.481 306.944 375.783 306.944 375.783L332.071 372.887Z" fill="black"/>
<path d="M335.345 348.346L313.179 344.768C312.725 344.669 311.992 344.485 311.067 344.24L311.065 344.239C311.065 344.239 310.12 358.136 304.436 361.326C304.57 361.989 304.685 362.735 304.792 363.584C305.129 366.248 306.943 375.782 306.943 375.782C306.943 375.782 315.54 379.948 322.618 377.895C329.697 375.842 332.071 372.884 332.071 372.884L328.529 367.114C329.496 364.733 333.948 355.098 335.345 348.346Z" fill="#27DEBF"/>
<path opacity="0.7" d="M335.345 348.346L313.179 344.768C312.725 344.669 311.992 344.485 311.067 344.24L311.065 344.239C311.065 344.239 310.12 358.136 304.436 361.326C304.57 361.989 304.685 362.735 304.792 363.584C305.129 366.248 306.943 375.782 306.943 375.782C306.943 375.782 315.54 379.948 322.618 377.895C329.697 375.842 332.071 372.884 332.071 372.884L328.529 367.114C329.496 364.733 333.948 355.098 335.345 348.346Z" fill="white"/>
<path d="M329.498 364.846C329.407 365.054 322.372 368.824 320.282 369.4C323.578 369.237 326.315 368.462 328.53 367.115L329.498 364.846Z" fill="#27DEBF"/>
<path d="M311.648 316.738C311.648 316.738 310.615 323.735 313.117 327.839C313.117 327.839 314.056 325.054 316.422 325.586C318.804 326.122 318.904 329.215 317.251 330.969C315.596 332.723 313.755 332.089 313.755 332.089C313.755 332.089 313.382 337.146 313.183 341.387C312.991 345.472 311.851 354.867 316.622 358.645C321.394 362.423 333.353 363.698 338.958 355.862C342.076 351.503 337.933 343.798 336.007 335.158C334.235 327.214 333.239 315.441 324.809 313.552C316.38 311.663 311.648 316.738 311.648 316.738Z" fill="#37474F"/>
<path d="M342.568 221.172L340.792 222.198C340.934 221.544 341.034 220.895 341.034 220.27C341.034 216.671 338.506 215.212 335.389 217.012C334.482 217.535 333.638 218.292 332.879 219.169C332.879 219.161 332.88 219.151 332.88 219.142C332.88 214.297 329.479 212.332 325.282 214.756C321.086 217.179 317.682 223.071 317.682 227.917C317.682 228.164 317.697 228.398 317.715 228.629C316.827 228.471 315.767 228.689 314.628 229.347C311.51 231.147 308.983 235.523 308.983 239.124C308.983 239.62 309.036 240.069 309.126 240.481L308.179 241.027C305.605 242.513 303.52 245.412 303.52 247.503C303.52 249.592 305.606 250.083 308.179 248.598L342.568 228.744C345.142 227.258 347.227 224.359 347.227 222.268C347.227 220.176 345.142 219.686 342.568 221.172Z" fill="#C4C4C4"/>
</g>
<rect x="0.5" y="0.5" width="382" height="531" rx="11.5" stroke="#333333"/>
<defs>
<clipPath id="clip0_330_920">
<rect width="383" height="532" rx="12" fill="white"/>
</clipPath>
</defs>
</svg>
