<svg width="383" height="532" viewBox="0 0 383 532" fill="none" xmlns="http://www.w3.org/2000/svg">
<g clip-path="url(#clip0_330_1027)">
<rect width="383" height="532" rx="12" fill="#D5E1FB"/>
<g clip-path="url(#clip1_330_1027)">
<path d="M183.41 580C313.523 580 419 520.077 419 446.158C419 372.24 313.523 312.317 183.41 312.317C53.2971 312.317 -52.1802 372.24 -52.1802 446.158C-52.1802 520.077 53.2971 580 183.41 580Z" fill="#8494AB"/>
<path d="M120.247 525.868C165.115 525.868 201.488 505.205 201.488 479.715C201.488 454.225 165.115 433.561 120.247 433.561C75.3787 433.561 39.0059 454.225 39.0059 479.715C39.0059 505.205 75.3787 525.868 120.247 525.868Z" fill="#7A899F"/>
<path d="M351.276 421.973L341.75 416.561C341.75 416.561 339.416 396.485 340.969 380.938C343.15 359.091 357.489 332.803 374.595 338.977C391.7 345.151 366.752 367.4 361.199 385.931C355.645 404.46 351.276 421.973 351.276 421.973Z" fill="#27DEBF"/>
<path opacity="0.15" d="M351.276 421.973L341.75 416.561C341.75 416.561 339.416 396.485 340.969 380.938C343.15 359.091 357.489 332.803 374.595 338.977C391.7 345.151 366.752 367.4 361.199 385.931C355.645 404.46 351.276 421.973 351.276 421.973Z" fill="black"/>
<path d="M346.266 419.695C346.272 419.695 346.279 419.695 346.286 419.695C346.604 419.684 346.854 419.422 346.843 419.108C345.17 370.564 369.728 346.145 369.976 345.905C370.203 345.685 370.206 345.326 369.982 345.103C369.756 344.88 369.391 344.877 369.166 345.098C368.914 345.343 344 370.112 345.689 419.148C345.7 419.453 345.956 419.695 346.266 419.695Z" fill="white"/>
<path d="M357.265 425.348L350.486 421.496C350.486 421.496 349.333 407.72 356.197 390.985C362.172 376.416 376.999 364.33 384.456 366.87C391.913 369.409 391.728 374.613 388.092 380.071C384.457 385.529 362.338 398.539 357.265 425.348Z" fill="#27DEBF"/>
<path d="M353.69 423.883H353.693C354.011 423.882 354.269 423.628 354.267 423.314C354.133 392.621 383.421 371.876 383.717 371.67C383.977 371.489 384.039 371.136 383.854 370.879C383.672 370.624 383.313 370.561 383.05 370.745C382.75 370.953 352.976 392.042 353.113 423.32C353.115 423.632 353.372 423.883 353.69 423.883Z" fill="white"/>
<path d="M-1.34003 409.912L7.45597 404.071C7.45597 404.071 11.328 381.393 7.73097 361.474C2.67297 333.469 -16.955 324.149 -23.959 327.076C-30.963 330.002 -32.46 338.355 -19.392 354.344C-11.682 363.777 -1.61003 383.838 -1.34003 409.912Z" fill="#27DEBF"/>
<g opacity="0.15">
<path d="M-1.34003 409.912L7.45597 404.071C7.45597 404.071 11.328 381.393 7.73097 361.474C2.67297 333.469 -16.955 324.149 -23.959 327.076C-30.963 330.002 -32.46 338.355 -19.392 354.344C-11.682 363.777 -1.61003 383.838 -1.34003 409.912Z" fill="black"/>
</g>
<path d="M1.68108 398.694C1.65108 398.694 1.62208 398.693 1.59308 398.689C1.24408 398.648 0.993086 398.337 1.03509 397.992C4.21209 371.623 -7.10092 343.014 -19.4049 331.632C-19.6609 331.395 -19.6739 330.997 -19.4319 330.745C-19.1899 330.495 -18.7869 330.48 -18.5309 330.718C-6.00292 342.309 5.52608 371.382 2.30108 398.14C2.26208 398.455 1.99308 398.688 1.68108 398.694Z" fill="white"/>
<path d="M-24.3802 425.205C-25.7762 426.03 -29.8572 423.051 -30.9862 422.336C-32.9192 421.113 -34.5002 419.357 -35.5672 417.359C-36.8082 415.032 -37.1592 412.522 -36.8362 409.917C-36.6682 408.566 -36.3112 407.245 -35.9552 405.93C-35.6052 404.639 -35.2552 403.348 -34.9052 402.056C-34.5602 400.782 -34.2112 399.465 -34.4072 398.161C-34.8012 395.532 -37.2142 393.733 -39.4062 392.181C-41.8302 390.466 -44.3632 388.19 -44.4122 385.017C-44.4502 382.57 -43.2062 380.273 -41.7032 378.323C-40.1992 376.373 -38.4042 374.642 -37.0512 372.588C-36.0772 371.109 -35.3282 369.38 -35.5262 367.628C-35.6492 366.54 -36.1282 365.521 -36.6772 364.57C-37.8562 362.526 -39.3942 360.663 -40.2232 358.459C-41.0522 356.256 -40.9942 353.494 -39.2652 351.873C-37.8462 350.543 -35.7032 350.321 -33.7462 350.41C-31.9352 350.494 -30.1522 351.263 -28.5532 352.099C-23.3812 354.801 -20.3432 360.709 -14.8712 362.76C-12.7602 363.551 -10.4622 363.69 -8.26824 364.217C-6.07424 364.743 -3.82624 365.798 -2.77624 367.766C-0.706242 371.646 -4.31025 376.544 -2.82724 380.676C-1.51524 384.333 2.14676 385.672 4.25276 388.949C5.17376 390.383 5.41276 392.056 5.30176 393.749C5.11376 396.615 4.72976 398.722 3.39776 401.929C2.29676 404.58 -0.97324 409.673 -0.97324 409.673C-0.97324 409.673 -24.1672 425.078 -24.3802 425.205Z" fill="#27DEBF"/>
<path d="M220.159 392.789L216.365 390.631C215.17 389.951 214.201 388.299 214.201 386.94L214.2 231.943C214.2 230.585 215.169 228.932 216.365 228.253L321.71 168.407C322.906 167.728 324.844 167.728 326.04 168.407L329.835 170.562C331.031 171.241 332 172.893 332 174.252V329.247C332 330.606 331.031 332.258 329.835 332.937L224.488 392.789C223.293 393.469 221.354 393.468 220.159 392.789Z" fill="#455A64"/>
<path d="M331.982 173.905C331.832 172.803 330.922 172.4 329.832 173.02L224.492 232.876C223.892 233.221 223.362 233.791 222.962 234.461L214.832 229.846C215.222 229.176 215.762 228.596 216.362 228.251L321.712 168.405C322.902 167.726 324.842 167.726 326.042 168.405L329.832 170.56C330.932 171.179 331.842 172.626 331.982 173.905Z" fill="#455A64"/>
<path d="M224.122 392.96C222.922 393.462 221.242 393.403 220.162 392.793L216.362 390.628C215.172 389.949 214.202 388.296 214.202 386.938V231.941C214.202 231.263 214.442 230.515 214.832 229.846L222.962 234.461C222.562 235.13 222.322 235.887 222.322 236.566V391.563C222.322 392.783 223.102 393.344 224.122 392.96Z" fill="#263238"/>
<path d="M222.323 236.564V391.56C222.323 392.919 223.292 393.469 224.488 392.79L329.835 332.938C331.031 332.259 332 330.607 332 329.248V174.251C332 172.892 331.031 172.342 329.835 173.021L224.488 232.874C223.293 233.553 222.323 235.205 222.323 236.564Z" fill="#37474F"/>
<path d="M197.722 295.646C196.362 294.849 190.052 291.316 189.722 291.129C188.722 290.529 188.362 289.073 189.292 288.089L214.202 261.796L222.322 266.381L197.422 292.684C196.522 293.628 196.812 294.996 197.722 295.646Z" fill="#455A64"/>
<path d="M222.324 266.385L197.419 292.681C196.171 293.998 197.225 296.137 199.049 295.989L222.324 294.103V266.385Z" fill="#37474F"/>
<path d="M277.161 219.071C289.439 212.095 299.392 217.75 299.392 231.7C299.392 245.651 289.439 262.614 277.161 269.589C264.883 276.565 254.93 270.91 254.93 256.96C254.931 243.009 264.884 226.045 277.161 219.071Z" fill="#27DEBF"/>
<path d="M277.004 230.049C280.987 227.786 284.217 229.62 284.217 234.146C284.217 238.672 280.988 244.176 277.004 246.438C273.021 248.7 269.792 246.867 269.792 242.34C269.792 237.815 273.021 232.311 277.004 230.049Z" fill="white"/>
<path d="M291.219 254.182C291.219 246.746 285.913 243.732 279.37 247.45L275.279 249.775C268.736 253.492 263.43 262.534 263.43 269.969V271.997C264.612 272.383 265.894 272.574 267.25 272.577C270.235 272.583 273.595 271.615 277.162 269.589C282.496 266.559 287.389 261.641 291.219 255.907V254.182Z" fill="white"/>
<path d="M263.079 338.654L291.245 322.652C292.441 321.974 293.41 322.524 293.41 323.882V332.808C293.41 334.167 292.441 335.819 291.245 336.498L263.079 352.5C261.883 353.179 260.914 352.629 260.914 351.27V342.344C260.914 340.985 261.883 339.333 263.079 338.654Z" fill="#27DEBF"/>
<path d="M249.294 318.715L305.029 287.051C306.464 286.237 307.627 286.897 307.627 288.527V291.849C307.627 293.48 306.464 295.463 305.029 296.277L249.295 327.941C247.86 328.755 246.697 328.095 246.697 326.465V323.143C246.696 321.512 247.86 319.529 249.294 318.715Z" fill="#FAFAFA"/>
<path d="M255.812 295.799C256.57 295.368 257.16 295.303 257.58 295.607C258 295.91 258.21 296.583 258.21 297.628C258.21 298.674 258 299.59 257.58 300.38C257.16 301.17 256.57 301.78 255.812 302.211L254.307 303.065V306.242C254.307 306.348 254.282 306.451 254.232 306.555C254.181 306.661 254.122 306.732 254.052 306.771L253.291 307.204C253.222 307.244 253.162 307.24 253.111 307.192C253.061 307.144 253.036 307.069 253.036 306.964V297.759C253.036 297.655 253.061 297.55 253.111 297.445C253.162 297.342 253.221 297.268 253.291 297.23L255.812 295.799ZM254.307 301.284L255.764 300.455C256.121 300.253 256.407 299.984 256.62 299.649C256.833 299.314 256.939 298.882 256.939 298.35C256.939 297.817 256.833 297.509 256.62 297.427C256.406 297.344 256.121 297.404 255.764 297.608L254.307 298.435V301.284Z" fill="#FAFAFA"/>
<path d="M262.404 292.053C262.504 291.996 262.58 291.993 262.63 292.045C262.681 292.098 262.725 292.194 262.762 292.334L265.067 300.03C265.073 300.055 265.076 300.086 265.076 300.125C265.076 300.229 265.051 300.333 265.001 300.438C264.951 300.542 264.892 300.615 264.822 300.653L264.145 301.038C264.02 301.109 263.931 301.119 263.881 301.066C263.83 301.014 263.797 300.956 263.777 300.889L263.373 299.538L260.401 301.228L259.997 303.038C259.978 303.125 259.943 303.223 259.894 303.333C259.843 303.442 259.756 303.531 259.63 303.603L258.953 303.988C258.884 304.026 258.824 304.022 258.774 303.974C258.723 303.927 258.699 303.851 258.699 303.748C258.699 303.71 258.702 303.675 258.709 303.643L261.013 293.329C261.051 293.145 261.094 293.001 261.145 292.891C261.195 292.783 261.27 292.7 261.371 292.642L262.404 292.053ZM262.921 298.015L261.887 294.543L260.853 299.19L262.921 298.015Z" fill="#FAFAFA"/>
<path d="M268.574 288.405C268.994 288.167 269.364 288.042 269.683 288.032C270.003 288.021 270.269 288.084 270.483 288.218C270.696 288.354 270.857 288.545 270.967 288.791C271.076 289.037 271.138 289.295 271.151 289.563C271.157 289.673 271.133 289.779 271.081 289.88C271.027 289.981 270.966 290.052 270.897 290.091L270.238 290.465C270.132 290.527 270.053 290.54 269.999 290.509C269.946 290.479 269.896 290.423 269.853 290.344C269.759 290.159 269.618 290.034 269.426 289.966C269.234 289.9 268.95 289.972 268.574 290.186C268.411 290.279 268.256 290.394 268.109 290.529C267.961 290.666 267.832 290.814 267.723 290.977C267.613 291.138 267.527 291.309 267.464 291.486C267.401 291.665 267.37 291.844 267.37 292.025C267.37 292.244 267.399 292.405 267.459 292.509C267.518 292.612 267.618 292.674 267.76 292.694C267.901 292.714 268.088 292.7 268.32 292.653C268.552 292.607 268.841 292.544 269.185 292.461C269.561 292.371 269.885 292.333 270.159 292.344C270.431 292.356 270.653 292.428 270.826 292.563C270.999 292.699 271.127 292.893 271.212 293.149C271.297 293.406 271.339 293.728 271.339 294.117C271.339 294.545 271.276 294.977 271.151 295.413C271.026 295.849 270.846 296.265 270.615 296.658C270.382 297.051 270.098 297.42 269.758 297.764C269.42 298.109 269.04 298.4 268.62 298.639C268.268 298.839 267.933 298.966 267.614 299.018C267.294 299.072 267.01 299.048 266.763 298.947C266.515 298.845 266.316 298.667 266.164 298.41C266.015 298.153 265.93 297.821 265.911 297.414C265.904 297.304 265.929 297.197 265.981 297.096C266.034 296.996 266.095 296.925 266.164 296.885L266.823 296.512C266.929 296.45 267.011 296.433 267.067 296.457C267.124 296.482 267.17 296.541 267.209 296.633C267.253 296.733 267.306 296.825 267.369 296.913C267.432 297.001 267.515 297.062 267.622 297.096C267.728 297.13 267.862 297.132 268.022 297.105C268.182 297.075 268.38 296.994 268.619 296.857C268.807 296.752 268.989 296.627 269.165 296.483C269.34 296.341 269.494 296.182 269.626 296.008C269.757 295.834 269.863 295.651 269.945 295.456C270.026 295.262 270.067 295.056 270.067 294.837C270.067 294.629 270.023 294.484 269.936 294.4C269.848 294.316 269.714 294.279 269.536 294.286C269.357 294.292 269.137 294.327 268.873 294.391C268.61 294.454 268.306 294.519 267.961 294.581C267.647 294.645 267.373 294.666 267.138 294.643C266.903 294.62 266.708 294.538 266.555 294.397C266.402 294.256 266.287 294.053 266.212 293.787C266.137 293.52 266.1 293.175 266.1 292.746C266.1 292.319 266.163 291.889 266.288 291.458C266.413 291.026 266.586 290.617 266.806 290.238C267.025 289.856 267.286 289.505 267.591 289.187C267.895 288.865 268.224 288.605 268.574 288.405Z" fill="#FAFAFA"/>
<path d="M275.137 284.677C275.558 284.439 275.928 284.314 276.247 284.303C276.567 284.292 276.834 284.354 277.048 284.489C277.26 284.625 277.421 284.816 277.531 285.062C277.641 285.309 277.701 285.567 277.714 285.833C277.72 285.944 277.697 286.051 277.644 286.151C277.59 286.252 277.529 286.323 277.46 286.362L276.801 286.737C276.694 286.798 276.615 286.811 276.562 286.781C276.509 286.749 276.46 286.693 276.417 286.615C276.322 286.431 276.181 286.305 275.989 286.237C275.798 286.171 275.514 286.243 275.137 286.457C274.974 286.551 274.821 286.665 274.673 286.8C274.525 286.937 274.396 287.085 274.286 287.247C274.176 287.41 274.091 287.58 274.028 287.758C273.965 287.936 273.933 288.115 273.933 288.296C273.933 288.516 273.963 288.676 274.023 288.779C274.083 288.885 274.182 288.946 274.324 288.965C274.466 288.985 274.652 288.971 274.884 288.925C275.116 288.879 275.404 288.816 275.748 288.733C276.125 288.643 276.448 288.604 276.722 288.615C276.994 288.627 277.218 288.699 277.39 288.833C277.563 288.97 277.691 289.164 277.775 289.42C277.86 289.678 277.903 289.998 277.903 290.388C277.903 290.815 277.839 291.247 277.714 291.685C277.589 292.121 277.409 292.536 277.178 292.929C276.947 293.322 276.661 293.69 276.322 294.036C275.984 294.38 275.605 294.672 275.186 294.91C274.833 295.109 274.497 295.236 274.178 295.289C273.859 295.344 273.576 295.319 273.328 295.218C273.08 295.116 272.881 294.938 272.73 294.68C272.58 294.424 272.495 294.092 272.476 293.685C272.47 293.574 272.493 293.468 272.546 293.368C272.598 293.265 272.66 293.196 272.73 293.156L273.387 292.782C273.493 292.721 273.575 292.703 273.631 292.729C273.689 292.754 273.735 292.812 273.773 292.904C273.817 293.004 273.871 293.096 273.933 293.185C273.996 293.271 274.08 293.332 274.187 293.368C274.293 293.402 274.428 293.404 274.587 293.377C274.747 293.347 274.944 293.265 275.184 293.13C275.372 293.023 275.554 292.899 275.73 292.755C275.905 292.614 276.059 292.455 276.191 292.28C276.322 292.105 276.428 291.923 276.51 291.728C276.591 291.535 276.631 291.33 276.631 291.11C276.631 290.902 276.588 290.756 276.501 290.673C276.413 290.59 276.279 290.551 276.101 290.558C275.923 290.565 275.701 290.6 275.437 290.664C275.174 290.728 274.87 290.792 274.525 290.855C274.212 290.918 273.938 290.939 273.703 290.917C273.469 290.893 273.272 290.811 273.12 290.671C272.966 290.53 272.852 290.326 272.777 290.059C272.702 289.794 272.665 289.447 272.665 289.019C272.665 288.592 272.727 288.162 272.852 287.73C272.977 287.298 273.15 286.891 273.37 286.51C273.589 286.128 273.851 285.779 274.156 285.459C274.46 285.137 274.786 284.877 275.137 284.677Z" fill="#FAFAFA"/>
<path d="M282.426 285.908L281.617 290.627C281.586 290.787 281.546 290.926 281.499 291.042C281.452 291.16 281.382 291.245 281.288 291.298L280.525 291.731C280.431 291.784 280.357 291.782 280.304 291.72C280.25 291.66 280.215 291.565 280.197 291.434L278.992 283.128C278.986 283.084 278.983 283.047 278.983 283.02C278.983 282.916 279.008 282.81 279.058 282.706C279.108 282.602 279.167 282.529 279.237 282.491L279.932 282.095C279.995 282.061 280.055 282.055 280.112 282.079C280.168 282.104 280.206 282.182 280.224 282.314L281.014 287.906L281.71 283.707C281.723 283.633 281.752 283.53 281.8 283.399C281.846 283.268 281.926 283.17 282.039 283.106L282.81 282.668C282.923 282.604 283.003 282.611 283.05 282.688C283.097 282.766 283.126 282.834 283.139 282.893L283.835 286.303L284.625 279.813C284.643 279.66 284.682 279.54 284.738 279.449C284.794 279.36 284.854 279.297 284.917 279.263L285.612 278.867C285.681 278.829 285.741 278.833 285.791 278.881C285.841 278.928 285.866 279.004 285.866 279.109C285.866 279.136 285.863 279.176 285.857 279.227L284.653 288.901C284.633 289.055 284.598 289.192 284.546 289.312C284.492 289.432 284.419 289.519 284.324 289.573L283.562 290.005C283.467 290.059 283.397 290.055 283.35 289.991C283.303 289.927 283.264 289.833 283.232 289.708L282.426 285.908Z" fill="#FAFAFA"/>
<path d="M287.11 281.737C287.13 281.195 287.196 280.654 287.312 280.118C287.428 279.582 287.599 279.076 287.825 278.602C288.051 278.127 288.333 277.691 288.671 277.295C289.011 276.897 289.411 276.569 289.876 276.304C290.333 276.043 290.731 275.917 291.069 275.924C291.408 275.932 291.69 276.047 291.916 276.271C292.142 276.494 292.313 276.805 292.433 277.202C292.552 277.6 292.622 278.064 292.641 278.594C292.647 278.772 292.652 278.969 292.655 279.184C292.658 279.401 292.66 279.625 292.66 279.858C292.66 280.092 292.658 280.318 292.655 280.537C292.652 280.759 292.647 280.96 292.641 281.143C292.621 281.688 292.554 282.226 292.439 282.762C292.323 283.298 292.152 283.804 291.926 284.278C291.7 284.753 291.416 285.188 291.075 285.581C290.732 285.975 290.333 286.302 289.876 286.561C289.411 286.825 289.011 286.953 288.671 286.947C288.333 286.939 288.051 286.827 287.825 286.608C287.599 286.39 287.428 286.079 287.312 285.674C287.196 285.27 287.129 284.807 287.11 284.286C287.104 284.109 287.098 283.913 287.096 283.695C287.092 283.478 287.091 283.254 287.091 283.022C287.091 282.79 287.092 282.562 287.096 282.342C287.099 282.123 287.104 281.921 287.11 281.737ZM291.371 279.387C291.346 278.717 291.2 278.271 290.933 278.047C290.666 277.823 290.314 277.835 289.875 278.085C289.436 278.335 289.083 278.723 288.816 279.25C288.549 279.777 288.403 280.388 288.378 281.086C288.365 281.454 288.358 281.86 288.358 282.302C288.358 282.743 288.365 283.14 288.378 283.494C288.402 284.164 288.549 284.608 288.816 284.827C289.083 285.046 289.435 285.03 289.875 284.781C290.314 284.532 290.666 284.147 290.933 283.625C291.2 283.103 291.345 282.493 291.371 281.795C291.384 281.427 291.39 281.022 291.39 280.581C291.39 280.139 291.384 279.742 291.371 279.387Z" fill="#FAFAFA"/>
<path d="M297.032 272.381C297.815 271.936 298.41 271.873 298.818 272.193C299.225 272.513 299.429 273.161 299.429 274.14C299.429 274.834 299.325 275.483 299.115 276.093C298.904 276.701 298.595 277.24 298.188 277.709L299.486 280.491C299.505 280.537 299.514 280.585 299.514 280.633C299.514 280.717 299.493 280.802 299.452 280.889C299.412 280.973 299.362 281.031 299.306 281.064L298.506 281.517C298.381 281.588 298.288 281.596 298.229 281.54C298.169 281.482 298.127 281.425 298.102 281.363L296.871 278.742L295.62 279.453V282.773C295.62 282.877 295.595 282.982 295.545 283.085C295.494 283.19 295.436 283.262 295.366 283.302L294.604 283.734C294.535 283.773 294.476 283.769 294.425 283.721C294.374 283.673 294.35 283.599 294.35 283.494V274.29C294.35 274.185 294.374 274.08 294.425 273.977C294.476 273.872 294.534 273.8 294.604 273.76L297.032 272.381ZM295.621 277.671L296.984 276.897C297.342 276.694 297.627 276.436 297.84 276.125C298.053 275.815 298.159 275.393 298.159 274.861C298.159 274.329 298.052 274.033 297.84 273.974C297.626 273.915 297.342 273.987 296.984 274.191L295.621 274.965V277.671Z" fill="#FAFAFA"/>
<path d="M303.7 268.593C304.164 268.329 304.566 268.193 304.908 268.183C305.25 268.175 305.535 268.277 305.765 268.489C305.994 268.701 306.168 269.014 306.291 269.429C306.413 269.844 306.486 270.344 306.512 270.928C306.537 271.615 306.537 272.319 306.512 273.036C306.487 273.649 306.413 274.233 306.291 274.786C306.168 275.341 305.995 275.851 305.769 276.323C305.542 276.793 305.262 277.215 304.926 277.591C304.591 277.968 304.198 278.283 303.746 278.54L301.376 279.886C301.307 279.925 301.248 279.921 301.197 279.873C301.147 279.826 301.122 279.751 301.122 279.646V270.441C301.122 270.338 301.147 270.232 301.197 270.129C301.248 270.024 301.306 269.951 301.376 269.912L303.7 268.593ZM305.242 271.649C305.229 271.353 305.19 271.092 305.125 270.869C305.059 270.645 304.962 270.472 304.833 270.351C304.704 270.229 304.543 270.17 304.35 270.17C304.155 270.172 303.922 270.249 303.654 270.402L302.394 271.117V277.529L303.701 276.787C303.958 276.642 304.18 276.461 304.369 276.243C304.557 276.028 304.713 275.79 304.839 275.527C304.964 275.265 305.06 274.984 305.126 274.681C305.191 274.376 305.231 274.069 305.243 273.76C305.266 273.04 305.266 272.339 305.242 271.649Z" fill="#FAFAFA"/>
<path d="M166.377 125.781C168.125 126.162 169.772 126.771 171.319 127.606C172.866 128.442 174.177 129.467 175.25 130.679C176.323 131.89 177.096 133.268 177.567 134.811C178.039 136.352 178.073 138.021 177.67 139.813C177.341 141.276 176.822 142.498 176.115 143.475C175.406 144.453 174.593 145.293 173.675 145.994C172.757 146.696 171.788 147.311 170.774 147.837C169.757 148.364 168.795 148.865 167.891 149.338C166.984 149.812 166.163 150.335 165.432 150.904C164.699 151.474 164.187 152.15 163.894 152.93C163.728 153.317 163.483 153.627 163.158 153.862C162.831 154.099 162.464 154.171 162.055 154.083L157.816 153.16C157.407 153.071 157.077 152.847 156.828 152.484C156.578 152.122 156.517 151.746 156.644 151.351C157.04 149.94 157.627 148.753 158.41 147.792C159.192 146.83 160.06 146.003 161.016 145.308C161.972 144.614 162.965 144.016 163.995 143.511C165.024 143.006 165.983 142.515 166.872 142.036C167.759 141.559 168.517 141.051 169.143 140.517C169.771 139.983 170.171 139.33 170.344 138.562C170.657 137.172 170.32 135.899 169.331 134.743C168.343 133.588 166.863 132.796 164.893 132.366C161.733 131.677 159.059 132.726 156.872 135.511C156.596 135.874 156.332 136.132 156.084 136.289C155.833 136.446 155.466 136.472 154.982 136.366L150.465 135.382C150.131 135.309 149.866 135.136 149.675 134.864C149.483 134.592 149.428 134.273 149.51 133.907C149.834 132.634 150.53 131.414 151.592 130.244C152.654 129.075 153.949 128.091 155.474 127.29C157 126.491 158.706 125.931 160.591 125.613C162.479 125.297 164.406 125.351 166.377 125.781ZM161.594 157.438C162.002 157.527 162.323 157.75 162.553 158.108C162.785 158.465 162.856 158.845 162.765 159.248L161.678 164.076C161.587 164.479 161.361 164.794 160.997 165.022C160.634 165.251 160.249 165.32 159.84 165.23L155.044 164.185C154.634 164.095 154.314 163.873 154.082 163.514C153.85 163.157 153.779 162.778 153.87 162.375L154.957 157.545C155.048 157.144 155.274 156.828 155.638 156.6C156.002 156.373 156.387 156.302 156.797 156.392L161.594 157.438Z" fill="#27DEBF"/>
<path d="M171.716 171.94C172.935 171.744 174.15 171.718 175.36 171.865C176.569 172.011 177.675 172.337 178.679 172.843C179.682 173.352 180.536 174.04 181.239 174.91C181.944 175.781 182.399 176.841 182.607 178.09C182.776 179.112 182.761 180.027 182.562 180.831C182.363 181.636 182.06 182.379 181.654 183.061C181.248 183.742 180.788 184.38 180.273 184.973C179.759 185.568 179.273 186.129 178.816 186.662C178.358 187.194 177.968 187.736 177.647 188.285C177.325 188.834 177.172 189.396 177.188 189.97C177.182 190.26 177.105 190.521 176.959 190.754C176.811 190.987 176.594 191.127 176.31 191.173L173.352 191.649C173.066 191.695 172.796 191.633 172.541 191.464C172.287 191.295 172.149 191.069 172.129 190.784C172.016 189.779 172.084 188.872 172.336 188.057C172.586 187.244 172.928 186.494 173.36 185.809C173.792 185.124 174.273 184.489 174.802 183.906C175.331 183.323 175.818 182.766 176.263 182.235C176.707 181.706 177.061 181.19 177.324 180.69C177.587 180.188 177.675 179.67 177.586 179.133C177.425 178.165 176.877 177.433 175.942 176.94C175.007 176.448 173.853 176.312 172.478 176.533C170.273 176.888 168.832 178.235 168.154 180.572C168.071 180.873 167.97 181.105 167.85 181.268C167.731 181.433 167.502 181.541 167.165 181.595L164.014 182.103C163.78 182.14 163.566 182.096 163.371 181.97C163.177 181.843 163.059 181.653 163.016 181.397C162.893 180.501 163.021 179.543 163.399 178.525C163.775 177.508 164.349 176.55 165.119 175.654C165.889 174.756 166.838 173.969 167.963 173.29C169.091 172.611 170.341 172.162 171.716 171.94ZM176.884 193.44C177.169 193.394 177.433 193.457 177.675 193.627C177.916 193.799 178.06 194.024 178.107 194.304L178.667 197.675C178.714 197.955 178.65 198.215 178.477 198.452C178.303 198.69 178.074 198.831 177.788 198.877L174.441 199.415C174.156 199.462 173.892 199.4 173.651 199.229C173.409 199.058 173.265 198.833 173.218 198.552L172.658 195.181C172.612 194.902 172.675 194.642 172.848 194.404C173.022 194.167 173.251 194.024 173.536 193.978L176.884 193.44Z" fill="#27DEBF"/>
<g opacity="0.2">
<path d="M171.716 171.94C172.935 171.744 174.15 171.718 175.36 171.865C176.569 172.011 177.675 172.337 178.679 172.843C179.682 173.352 180.536 174.04 181.239 174.91C181.944 175.781 182.399 176.841 182.607 178.09C182.776 179.112 182.761 180.027 182.562 180.831C182.363 181.636 182.06 182.379 181.654 183.061C181.248 183.742 180.788 184.38 180.273 184.973C179.759 185.568 179.273 186.129 178.816 186.662C178.358 187.194 177.968 187.736 177.647 188.285C177.325 188.834 177.172 189.396 177.188 189.97C177.182 190.26 177.105 190.521 176.959 190.754C176.811 190.987 176.594 191.127 176.31 191.173L173.352 191.649C173.066 191.695 172.796 191.633 172.541 191.464C172.287 191.295 172.149 191.069 172.129 190.784C172.016 189.779 172.084 188.872 172.336 188.057C172.586 187.244 172.928 186.494 173.36 185.809C173.792 185.124 174.273 184.489 174.802 183.906C175.331 183.323 175.818 182.766 176.263 182.235C176.707 181.706 177.061 181.19 177.324 180.69C177.587 180.188 177.675 179.67 177.586 179.133C177.425 178.165 176.877 177.433 175.942 176.94C175.007 176.448 173.853 176.312 172.478 176.533C170.273 176.888 168.832 178.235 168.154 180.572C168.071 180.873 167.97 181.105 167.85 181.268C167.731 181.433 167.502 181.541 167.165 181.595L164.014 182.103C163.78 182.14 163.566 182.096 163.371 181.97C163.177 181.843 163.059 181.653 163.016 181.397C162.893 180.501 163.021 179.543 163.399 178.525C163.775 177.508 164.349 176.55 165.119 175.654C165.889 174.756 166.838 173.969 167.963 173.29C169.091 172.611 170.341 172.162 171.716 171.94ZM176.884 193.44C177.169 193.394 177.433 193.457 177.675 193.627C177.916 193.799 178.06 194.024 178.107 194.304L178.667 197.675C178.714 197.955 178.65 198.215 178.477 198.452C178.303 198.69 178.074 198.831 177.788 198.877L174.441 199.415C174.156 199.462 173.892 199.4 173.651 199.229C173.409 199.058 173.265 198.833 173.218 198.552L172.658 195.181C172.612 194.902 172.675 194.642 172.848 194.404C173.022 194.167 173.251 194.024 173.536 193.978L176.884 193.44Z" fill="black"/>
</g>
<path d="M199.991 177.238C200.27 177.434 200.439 177.702 200.499 178.044C200.557 178.386 200.487 178.694 200.289 178.969L197.907 182.266C197.708 182.542 197.435 182.708 197.088 182.765C196.74 182.824 196.427 182.754 196.148 182.559L192.874 180.269C192.594 180.073 192.426 179.805 192.367 179.464C192.307 179.12 192.378 178.813 192.577 178.539L194.959 175.24C195.157 174.966 195.429 174.8 195.778 174.742C196.125 174.684 196.437 174.752 196.717 174.948L199.991 177.238ZM213.845 154.889C215.037 155.723 216.082 156.698 216.977 157.813C217.872 158.929 218.529 160.111 218.943 161.359C219.359 162.61 219.495 163.888 219.351 165.198C219.207 166.508 218.694 167.775 217.809 168.999C217.087 169.999 216.301 170.755 215.453 171.27C214.603 171.786 213.719 172.164 212.8 172.404C211.88 172.645 210.952 172.804 210.018 172.884C209.08 172.962 208.195 173.037 207.359 173.11C206.523 173.183 205.736 173.32 205.001 173.519C204.264 173.718 203.659 174.068 203.187 174.563C202.937 174.803 202.652 174.959 202.33 175.035C202.008 175.111 201.708 175.051 201.429 174.855L198.534 172.83C198.255 172.635 198.079 172.362 198.008 172.011C197.937 171.661 198.012 171.357 198.236 171.099C198.992 170.16 199.818 169.451 200.719 168.971C201.619 168.493 202.541 168.141 203.487 167.918C204.43 167.694 205.373 167.554 206.313 167.497C207.251 167.439 208.133 167.369 208.958 167.288C209.781 167.206 210.515 167.062 211.162 166.856C211.807 166.649 212.32 166.284 212.699 165.76C213.385 164.81 213.542 163.746 213.172 162.566C212.802 161.386 211.944 160.325 210.6 159.384C208.441 157.875 206.086 157.827 203.537 159.24C203.211 159.426 202.929 159.54 202.691 159.579C202.451 159.618 202.168 159.523 201.838 159.293L198.753 157.135C198.525 156.975 198.382 156.763 198.325 156.498C198.268 156.232 198.331 155.976 198.51 155.726C199.166 154.869 200.084 154.166 201.264 153.618C202.444 153.07 203.737 152.734 205.146 152.61C206.553 152.486 208.019 152.599 209.542 152.951C211.063 153.301 212.498 153.948 213.845 154.889Z" fill="#27DEBF"/>
<g opacity="0.6">
<path d="M199.991 177.238C200.27 177.434 200.439 177.702 200.499 178.044C200.557 178.386 200.487 178.694 200.289 178.969L197.907 182.266C197.708 182.542 197.435 182.708 197.088 182.765C196.74 182.824 196.427 182.754 196.148 182.559L192.874 180.269C192.594 180.073 192.426 179.805 192.367 179.464C192.307 179.12 192.378 178.813 192.577 178.539L194.959 175.24C195.157 174.966 195.429 174.8 195.778 174.742C196.125 174.684 196.437 174.752 196.717 174.948L199.991 177.238ZM213.845 154.889C215.037 155.723 216.082 156.698 216.977 157.813C217.872 158.929 218.529 160.111 218.943 161.359C219.359 162.61 219.495 163.888 219.351 165.198C219.207 166.508 218.694 167.775 217.809 168.999C217.087 169.999 216.301 170.755 215.453 171.27C214.603 171.786 213.719 172.164 212.8 172.404C211.88 172.645 210.952 172.804 210.018 172.884C209.08 172.962 208.195 173.037 207.359 173.11C206.523 173.183 205.736 173.32 205.001 173.519C204.264 173.718 203.659 174.068 203.187 174.563C202.937 174.803 202.652 174.959 202.33 175.035C202.008 175.111 201.708 175.051 201.429 174.855L198.534 172.83C198.255 172.635 198.079 172.362 198.008 172.011C197.937 171.661 198.012 171.357 198.236 171.099C198.992 170.16 199.818 169.451 200.719 168.971C201.619 168.493 202.541 168.141 203.487 167.918C204.43 167.694 205.373 167.554 206.313 167.497C207.251 167.439 208.133 167.369 208.958 167.288C209.781 167.206 210.515 167.062 211.162 166.856C211.807 166.649 212.32 166.284 212.699 165.76C213.385 164.81 213.542 163.746 213.172 162.566C212.802 161.386 211.944 160.325 210.6 159.384C208.441 157.875 206.086 157.827 203.537 159.24C203.211 159.426 202.929 159.54 202.691 159.579C202.451 159.618 202.168 159.523 201.838 159.293L198.753 157.135C198.525 156.975 198.382 156.763 198.325 156.498C198.268 156.232 198.331 155.976 198.51 155.726C199.166 154.869 200.084 154.166 201.264 153.618C202.444 153.07 203.737 152.734 205.146 152.61C206.553 152.486 208.019 152.599 209.542 152.951C211.063 153.301 212.498 153.948 213.845 154.889Z" fill="white"/>
</g>
<path d="M125.526 264.345H89.999V179.637C89.999 164.319 102.619 151.9 118.187 151.9H121.47C137.038 151.9 149.658 164.318 149.658 179.637V240.601C149.657 253.714 138.853 264.345 125.526 264.345Z" fill="#263238"/>
<path d="M86.5452 468.257C86.2532 470.384 85.6322 472.868 85.5162 478.888C85.3922 485.341 84.1872 487.632 84.0272 492.929C83.8452 498.98 84.9072 501.246 87.4032 504.646C89.8992 508.048 96.4492 511.135 99.2172 505.384C102.019 499.566 101.629 495.869 100.744 489.932C99.8292 483.794 99.7132 480.404 99.1822 475.724C98.7152 471.598 98.1552 468.464 98.1552 468.464L86.5452 468.257Z" fill="#263238"/>
<path d="M105.162 425.384L83.5581 424.998C83.8791 439.19 86.1711 454.941 86.5451 468.256C86.6151 470.762 86.4811 487.732 87.4421 492.889C88.8851 500.637 98.2321 499.591 98.7281 494.954C99.2241 490.317 98.1261 470.506 98.1561 468.463C98.0741 459.923 102.141 445.509 104.274 430.18C104.378 429.427 105.063 426.118 105.162 425.384Z" fill="#FFA8A7"/>
<path d="M132.914 457.214C132.914 457.214 132.061 456.763 131.885 457.658C131.676 458.724 131.364 460.92 130.914 462.67C130.289 465.101 129.769 469.106 130.144 471.087C130.519 473.068 135.213 475.618 138.26 476.539C142.756 477.897 145.841 480.116 148.304 482.397C151.322 485.193 157.835 487.833 162.27 487.801C167.518 487.764 171.177 486.081 172.906 483.316C174.712 480.428 171.33 480.215 165.332 476.387C163.97 475.517 162.42 474.534 160.676 473.413C151.174 467.305 147.695 464.033 145.007 457.924L132.914 457.214Z" fill="#263238"/>
<path d="M145.082 453.433C144.922 449.038 147.985 411.765 147.985 411.765L127.468 420.968C131.862 446.771 132.798 452.856 132.876 457.079C132.842 457.177 132.755 457.535 132.76 458.16C132.779 463.174 138.528 465.877 143.013 469.219C144.785 470.539 149.937 474.437 155.143 477.012C158.402 478.623 165.019 478.77 165.839 476.707C160.381 472.605 152.443 466.468 148.102 461.784C146.029 459.547 145.242 457.827 145.082 453.433Z" fill="#FFA8A7"/>
<path d="M92.4109 286.922C84.5349 303.944 84.535 317.106 85.837 338.823C87.031 358.744 88.935 376.281 88.935 376.281C88.63 379.816 83.637 386.714 82.991 402.335C82.387 416.939 84.013 435.505 84.013 435.505C84.013 435.505 95.221 441.617 103.509 435.451C103.509 435.451 111.506 397.873 113.85 379.593C115.895 363.639 119.449 343.255 119.449 343.255L126.977 379.506C126.977 379.506 124.113 388.444 123.443 395.252C122.384 406.005 128.496 427.12 128.496 427.12C128.496 427.12 140.077 430.521 147.15 424.349C147.15 424.349 149.795 390.019 150.782 377.065C152.104 359.719 149.324 312.759 147.149 287.9L92.4109 286.922Z" fill="#455A64"/>
<path d="M119.449 343.255L122.561 315.966C122.561 315.966 136.502 314.133 142.817 308.291C142.817 308.291 138.072 316.846 126.391 318.506L121.892 343.898L126.978 379.506L119.449 343.255Z" fill="#263238"/>
<path d="M175.896 280.218C176.764 271.854 176.731 266.281 176.656 265.21C176.352 260.879 175.565 260.174 169.412 252.501C161.106 242.142 154.017 232.831 146.518 223.568C141.165 216.954 135.538 215.937 130.042 216.236C126.199 216.445 133.696 234.619 137.473 245.373L159.024 268.182C159.687 269.083 159.992 270.192 159.881 271.298L158.558 290.716L165.012 299.211C165.012 299.211 174.785 290.92 175.896 280.218Z" fill="#FFA8A7"/>
<path d="M109.281 216.824C105.113 217.107 97.5333 217.763 97.5333 217.763C93.1593 220.165 92.0543 222.134 91.2403 227.85C90.8943 230.281 92.9083 236.77 94.6383 245.988L97.9213 263.084L97.5653 271.562C95.8613 276.735 92.0063 283.166 88.6113 292.643C105.307 301.812 119.31 302.152 132.009 300.548C141.693 299.325 146.817 297.018 148.525 294.741C148.169 285.378 147.496 279.597 147.331 269.814C147.262 265.705 147.513 261.559 147.675 256.83C154.172 251.578 154.246 242.845 150.702 237.2C142.469 224.084 134.464 215.827 129.162 216.25L109.281 216.824Z" fill="#27DEBF"/>
<path opacity="0.6" d="M109.281 216.824C105.113 217.107 97.5333 217.763 97.5333 217.763C93.1593 220.165 92.0543 222.134 91.2403 227.85C90.8943 230.281 92.9083 236.77 94.6383 245.988L97.9213 263.084L97.5653 271.562C95.8613 276.735 92.0063 283.166 88.6113 292.643C105.307 301.812 119.31 302.152 132.009 300.548C141.693 299.325 146.817 297.018 148.525 294.741C148.169 285.378 147.496 279.597 147.331 269.814C147.262 265.705 147.513 261.559 147.675 256.83C154.172 251.578 154.246 242.845 150.702 237.2C142.469 224.084 134.464 215.827 129.162 216.25L109.281 216.824Z" fill="white"/>
<path opacity="0.1" d="M134.751 256.972C134.751 256.972 127.125 262.796 118.422 259.759C109.72 256.723 108.449 249.236 108.449 249.236C108.449 249.236 107.525 259.026 118.503 262.365C129.098 265.585 134.751 256.972 134.751 256.972Z" fill="black"/>
<path d="M145.091 189.952C144.763 204.158 140.077 207.67 137.729 208.679C135.381 209.687 130.848 209.072 126.45 208.356V216.881C126.45 216.881 131.526 222.118 131.146 226.023C130.757 229.937 123.169 230.371 117.468 226.547C113.307 223.759 110.335 220.57 109.038 219.058C108.566 218.508 108.311 217.817 108.311 217.097V197.035C108.311 197.035 105.901 199.547 101.636 196.672C97.3813 193.807 97.0123 188.459 99.6163 185.432C101.472 183.283 106.189 183.131 108.455 186.471C109.726 188.923 109.901 191.385 111.326 190.366C115.13 187.671 113.09 181.547 117.683 178.52C117.693 178.52 117.693 178.51 117.703 178.51C119.077 177.784 120.636 177.097 122.379 176.502C130.572 173.717 137.668 171.376 139.38 165.867C142.609 167.754 145.491 173.193 145.091 189.952Z" fill="#FFA8A7"/>
<path d="M128.943 202.645C129.99 202.645 130.838 201.81 130.838 200.78C130.838 199.75 129.99 198.916 128.943 198.916C127.897 198.916 127.048 199.75 127.048 200.78C127.048 201.81 127.897 202.645 128.943 202.645Z" fill="#B16668"/>
<path d="M127.675 187.798C127.733 188.925 126.886 189.878 125.785 189.931C124.683 189.982 123.744 189.111 123.686 187.984C123.629 186.859 124.475 185.904 125.577 185.852C126.678 185.802 127.618 186.673 127.675 187.798Z" fill="#263238"/>
<path d="M142.83 187.992C142.883 189.015 142.113 189.883 141.111 189.93C140.01 189.981 139.261 189.287 139.203 188.161C139.151 187.138 139.92 186.27 140.922 186.223C141.924 186.177 142.778 186.969 142.83 187.992Z" fill="#263238"/>
<path d="M125.108 192.857C121.522 192.857 118.604 189.986 118.604 186.457C118.604 182.106 123.161 182.106 125.108 182.106C127.055 182.106 131.612 182.106 131.612 186.457C131.612 189.987 128.694 192.857 125.108 192.857ZM125.108 183.115C121.166 183.115 119.63 184.052 119.63 186.458C119.63 189.431 122.087 191.848 125.108 191.848C128.129 191.848 130.586 189.431 130.586 186.458C130.586 184.052 129.05 183.115 125.108 183.115Z" fill="#455A64"/>
<path d="M141.618 192.857C138.032 192.857 135.114 189.986 135.114 186.457C135.114 182.106 139.671 182.106 141.618 182.106C143.565 182.106 148.122 182.106 148.122 186.457C148.122 189.987 145.204 192.857 141.618 192.857ZM141.618 183.115C137.676 183.115 136.14 184.052 136.14 186.458C136.14 189.431 138.597 191.848 141.618 191.848C144.639 191.848 147.096 189.431 147.096 186.458C147.096 184.052 145.56 183.115 141.618 183.115Z" fill="#455A64"/>
<path d="M132.621 184.395L132.941 196.346L139.334 194.397L132.621 184.395Z" fill="#F28F8F"/>
<path d="M126.445 208.353C121.802 207.754 112.25 205.054 110.762 201.338C110.762 201.338 111.258 203.673 114.111 206.08C116.964 208.486 126.445 211.198 126.445 211.198V208.353Z" fill="#F28F8F"/>
<path d="M126.665 178.591L122.429 181.132C121.735 179.932 122.121 178.391 123.291 177.69C124.461 176.988 125.972 177.392 126.665 178.591Z" fill="#263238"/>
<path d="M143.921 181.424L139.202 179.802C139.612 178.493 141 177.795 142.303 178.243C143.606 178.689 144.33 180.114 143.921 181.424Z" fill="#263238"/>
<path d="M131.097 186.967C130.814 186.967 130.585 186.737 130.585 186.457C130.585 185.638 132.231 185.109 133.708 185.109C135.185 185.109 136.139 185.638 136.139 186.457C136.139 186.736 135.91 186.962 135.626 186.962C135.343 186.962 135.113 186.737 135.113 186.457C135.067 186.365 134.594 186.119 133.707 186.119C132.82 186.119 131.656 186.365 131.608 186.466C131.609 186.745 131.38 186.967 131.097 186.967Z" fill="#455A64"/>
<path d="M119.133 186.541C119.114 186.541 119.095 186.54 119.075 186.538L107.644 185.513C107.439 185.326 106.898 184.776 105.771 184.317L119.189 185.535C119.47 185.566 119.673 185.816 119.642 186.093C119.612 186.35 119.39 186.541 119.133 186.541Z" fill="#455A64"/>
<path d="M72.2031 198.263C75.9411 193.349 78.4901 189.635 81.9021 185.423C83.8391 183.031 85.0781 181.324 86.9421 178.869C88.2251 177.18 88.9771 175.755 90.3991 175.232C91.9991 174.642 93.5421 173.477 94.5711 172.413C95.3061 171.653 95.9081 170.78 96.5441 169.937C98.6801 167.104 101.232 164.575 104.095 162.452C107.104 160.222 110.447 158.52 113.534 156.395C115.376 155.127 117.351 153.02 115.109 151.054C114.44 150.466 113.59 150.116 112.714 149.928C107.273 148.758 102.525 150.604 97.2031 151.943C94.8901 152.525 92.6141 153.254 90.4261 154.196C89.3641 154.652 88.3051 155.149 87.4251 155.89C86.0531 157.045 85.2321 158.69 84.3411 160.233C81.9481 164.382 76.9911 168.043 73.5021 171.272C69.4091 175.06 65.7511 178.534 61.0821 182.714C56.8801 186.476 52.7691 189.944 48.9151 194.053C45.7271 197.451 46.8871 200.11 47.3411 201.028C49.9391 206.287 52.8481 208.172 56.3231 211.429C62.3421 217.071 83.0741 233.301 89.9521 238.658C91.4241 239.805 92.5801 241.291 93.3231 242.988L94.6361 245.989C102.476 247.409 107.707 235.826 101.214 221.88C100.161 219.618 98.4901 217.692 96.4471 216.226C88.2641 210.352 72.2031 198.263 72.2031 198.263Z" fill="#FFA8A7"/>
<path d="M72.2031 198.263C72.2031 198.263 68.6581 202.926 62.6211 204.753C62.6211 204.753 67.6221 206.008 74.4671 199.963L72.2031 198.263Z" fill="#F28F8F"/>
<path d="M173.861 269.949L173.887 269.952L172.605 268.865L172.604 268.881C172.315 268.653 171.866 268.581 171.286 268.736L157.401 272.453C156.114 272.797 154.717 274.081 154.281 275.321L144.289 303.689C144.058 304.346 144.15 304.853 144.473 305.138L144.462 305.142L145.784 306.263L145.783 306.246C146.071 306.482 146.525 306.558 147.114 306.401L160.999 302.685C162.286 302.341 163.683 301.056 164.119 299.816C166.082 294.24 172.15 277.022 174.112 271.447C174.358 270.748 174.236 270.222 173.861 269.949Z" fill="#455A64"/>
<path d="M145.574 304.778L155.566 276.41C156.002 275.171 157.399 273.886 158.686 273.542L172.571 269.826C173.858 269.482 174.547 270.208 174.111 271.448C172.149 277.023 166.081 294.24 164.119 299.817C163.683 301.057 162.285 302.342 160.999 302.686L147.114 306.402C145.827 306.744 145.138 306.018 145.574 304.778Z" fill="#27DEBF"/>
<path d="M157.176 274.329C156.453 274.891 155.831 275.665 155.565 276.413L145.57 304.772C145.354 305.409 145.418 305.908 145.709 306.195L144.466 305.146L144.479 305.133C144.149 304.846 144.06 304.347 144.289 303.686L154.284 275.314C154.525 274.616 155.096 273.904 155.768 273.342L157.176 274.329Z" fill="#37474F"/>
<path d="M170.046 282.876C169.067 285.766 165.578 287.694 159.843 289.031C154.108 290.368 150.931 296.361 151.857 298.184C152.784 300.008 162.051 301.701 165.758 301.181C169.465 300.659 173.194 295.387 174.316 293.755C175.438 292.124 176.746 280.728 175.555 279.166C174.363 277.602 171.86 277.842 171.86 277.842L170.046 282.876Z" fill="#F28F8F"/>
</g>
</g>
<rect x="0.5" y="0.5" width="382" height="531" rx="11.5" stroke="#333333"/>
<defs>
<clipPath id="clip0_330_1027">
<rect width="383" height="532" rx="12" fill="white"/>
</clipPath>
<clipPath id="clip1_330_1027">
<rect width="500" height="492" fill="white" transform="translate(-81 88)"/>
</clipPath>
</defs>
</svg>
