<svg width="20" height="20" viewBox="0 0 20 20" fill="none" xmlns="http://www.w3.org/2000/svg">
<g clip-path="url(#clip0_163_262)">
<path d="M6.96758 0.657779C4.96926 1.35101 3.24592 2.66679 2.05069 4.41184C0.855448 6.1569 0.251312 8.23925 0.327017 10.353C0.402721 12.4668 1.15428 14.5006 2.47129 16.1557C3.7883 17.8108 5.60136 18.9999 7.64414 19.5484C9.30027 19.9757 11.0354 19.9945 12.7004 19.6031C14.2087 19.2643 15.6032 18.5396 16.7473 17.5C17.938 16.3849 18.8023 14.9663 19.2473 13.3968C19.7309 11.6901 19.8169 9.89517 19.4988 8.14997H10.1988V12.0078H15.5848C15.4771 12.6231 15.2465 13.2103 14.9066 13.7344C14.5667 14.2585 14.1245 14.7086 13.6066 15.0578C12.949 15.4928 12.2076 15.7856 11.4301 15.9172C10.6503 16.0622 9.85048 16.0622 9.0707 15.9172C8.28037 15.7538 7.53273 15.4276 6.87539 14.9593C5.81937 14.2118 5.02644 13.1498 4.60976 11.925C4.18604 10.6771 4.18604 9.32435 4.60976 8.07653C4.90637 7.20187 5.39669 6.40549 6.04414 5.74684C6.78506 4.97926 7.72309 4.43059 8.75532 4.16102C9.78754 3.89146 10.8741 3.91142 11.8957 4.21872C12.6938 4.4637 13.4236 4.89174 14.027 5.46872C14.6342 4.86455 15.2405 4.25882 15.8457 3.65153C16.1582 3.32497 16.4988 3.01403 16.8066 2.67965C15.8856 1.82259 14.8046 1.15568 13.6254 0.717154C11.4781 -0.0625494 9.12848 -0.0835032 6.96758 0.657779Z" fill="#333333"/>
<path d="M6.96773 0.657806C9.12846 -0.0839801 11.478 -0.0635778 13.6255 0.715618C14.8049 1.15712 15.8855 1.82724 16.8052 2.68749C16.4927 3.02187 16.163 3.33437 15.8443 3.65937C15.238 4.26458 14.6323 4.8677 14.0271 5.46874C13.4237 4.89177 12.6939 4.46373 11.8959 4.21874C10.8746 3.91037 9.78807 3.88926 8.75557 4.15772C7.72308 4.42618 6.78447 4.97384 6.04273 5.74062C5.39528 6.39927 4.90496 7.19564 4.60836 8.07031L1.36929 5.56249C2.52868 3.26337 4.53609 1.50472 6.96773 0.657806Z" fill="#E33629"/>
<path d="M0.509847 8.04675C0.683942 7.18393 0.972977 6.34836 1.36922 5.56238L4.60828 8.07644C4.18456 9.32426 4.18456 10.6771 4.60828 11.9249C3.52912 12.7582 2.44943 13.5957 1.36922 14.4374C0.37727 12.4629 0.0747414 10.2132 0.509847 8.04675Z" fill="#F8BD00"/>
<path d="M10.1986 8.14832H19.4986C19.8167 9.89352 19.7306 11.6884 19.247 13.3952C18.8021 14.9647 17.9378 16.3832 16.747 17.4983C15.7017 16.6827 14.6517 15.8733 13.6064 15.0577C14.1246 14.7081 14.567 14.2575 14.9069 13.7329C15.2468 13.2083 15.4773 12.6204 15.5845 12.0046H10.1986C10.197 10.7202 10.1986 9.43425 10.1986 8.14832Z" fill="#587DBD"/>
<path d="M1.36758 14.4374C2.44779 13.6041 3.52748 12.7666 4.60665 11.9249C5.02416 13.1502 5.81822 14.2123 6.8754 14.9593C7.53478 15.4253 8.28404 15.7489 9.0754 15.9093C9.85517 16.0543 10.655 16.0543 11.4348 15.9093C12.2123 15.7777 12.9536 15.485 13.6113 15.0499C14.6566 15.8656 15.7066 16.6749 16.752 17.4906C15.608 18.5307 14.2136 19.256 12.7051 19.5952C11.0401 19.9867 9.30496 19.9679 7.64883 19.5406C6.33899 19.1908 5.11551 18.5743 4.05508 17.7296C2.93268 16.8385 2.01595 15.7155 1.36758 14.4374Z" fill="#319F43"/>
</g>
<defs>
<clipPath id="clip0_163_262">
<rect width="20" height="20" fill="white"/>
</clipPath>
</defs>
</svg>
