<svg width="383" height="532" viewBox="0 0 383 532" fill="none" xmlns="http://www.w3.org/2000/svg">
<g clip-path="url(#clip0_80_5)">
<rect width="383" height="532" rx="12" fill="#D5E1FB"/>
<path d="M195.051 165.377V305.611H383V165.377H195.051ZM374.106 296.5H203.947V174.489H374.106V296.5Z" fill="white"/>
<path d="M291.216 170.244H286.836V300.745H291.216V170.244Z" fill="white"/>
<path d="M379.874 233.305H198.178V237.685H379.874V233.305Z" fill="white"/>
<path d="M198.262 532C291.311 532 366.742 526.941 366.742 520.699C366.742 514.458 291.311 509.398 198.262 509.398C105.214 509.398 29.7829 514.458 29.7829 520.699C29.7829 526.941 105.214 532 198.262 532Z" fill="#8494AB"/>
<path d="M204.445 183.571H186.587L172.21 199.88L179.282 183.571H166.311C165.258 183.571 164.404 182.717 164.404 181.664V157.095C164.404 156.041 165.258 155.188 166.311 155.188H204.446C205.5 155.188 206.353 156.041 206.353 157.095V181.664C206.351 182.717 205.498 183.571 204.445 183.571Z" fill="#B3B2DA"/>
<path d="M180.416 176.453H175.783V172.104H180.416V176.453Z" fill="white"/>
<path d="M187.693 176.453H183.06V172.104H187.693V176.453Z" fill="white"/>
<path d="M194.971 176.453H190.338V172.104H194.971V176.453Z" fill="white"/>
<path d="M295.869 342.17H100.414C95.9017 342.17 92.2436 338.511 92.2436 333.998V218.631C92.2436 214.117 95.9017 210.458 100.414 210.458H295.869C300.382 210.458 304.04 214.117 304.04 218.631V333.998C304.04 338.511 300.382 342.17 295.869 342.17Z" fill="#111B34"/>
<path d="M291.544 219.432H104.327V322.95H291.544V219.432Z" fill="#F9F9F9"/>
<path d="M278.47 235.495H217.932V312.189H278.47V235.495Z" fill="#CECDE9"/>
<path d="M272.767 242.719H223.634V250.363H272.767V242.719Z" fill="#FD425F"/>
<path d="M272.767 256.882H223.634V264.526H272.767V256.882Z" fill="#3C49B9"/>
<path d="M272.767 271.044H223.634V278.688H272.767V271.044Z" fill="white"/>
<path d="M272.767 285.208H223.634V292.851H272.767V285.208Z" fill="white"/>
<path d="M272.767 299.37H223.634V307.013H272.767V299.37Z" fill="white"/>
<path d="M149.831 244.901C149.831 244.901 159.804 244.96 161.195 251.464C162.587 257.967 161.35 265.275 163.05 269.852C164.751 274.428 170.047 287.196 158.682 287.918C147.318 288.642 145.463 285.389 142.68 285.269C139.897 285.149 135.721 291.862 127.488 288.023C119.254 284.185 122.849 275.553 126.405 274.509C129.961 273.464 128.575 267.321 127.72 265.274C125.942 261.018 124.627 247.929 136.766 244.076C146.577 240.962 149.831 244.901 149.831 244.901Z" fill="#111B34"/>
<path d="M140.259 268.529C139.52 277.286 138.929 287.659 135.327 295.047C135.732 298.596 137.692 305.341 146.827 305.105C154.568 304.905 156.859 300.058 157.489 296.46C153.87 290.31 151.671 282.044 151.172 273.903C147.632 273.894 142.719 270.3 140.259 268.529Z" fill="#EF8B67"/>
<path d="M142.836 248.176C142.836 248.176 155.36 248.778 157.949 251.367C160.538 253.956 160.418 259.217 161.139 266.925C161.863 274.633 157.126 283.144 152.951 284.269C148.776 285.393 137.296 278.207 135.691 266.223C134.085 254.238 138.015 247.77 142.836 248.176Z" fill="#F4BCA3"/>
<path d="M236.923 283.422C236.923 283.422 243.053 276.617 245.43 272.873C247.774 269.184 256.524 257.013 258.346 258.923C260.152 260.817 252.618 270.896 252.618 270.896C252.618 270.896 259.92 257.836 262.475 259.271C264.998 260.687 255.7 272.169 255.7 272.169C255.7 272.169 263.621 261.124 264.982 262.667C266.333 264.201 264.724 266.638 258.201 274.701C258.201 274.701 263.791 267.753 265.148 269.941C266.495 272.114 260.121 278.254 257.886 279.607C255.622 280.977 244.662 286.805 241.708 289.666C241.708 289.666 236.452 286.958 236.923 283.422Z" fill="#F4BCA3"/>
<path d="M257.29 272.349C256.649 270.687 254.055 270.825 252.498 270.966C250.589 271.139 248.844 271.792 247.6 273.31C246.944 274.111 246.427 274.919 245.703 275.674C244.313 277.127 245.245 278.359 245.68 279.935C245.807 280.394 248.852 280.854 251.782 279.68C253.905 278.829 256.076 276.519 256.511 275.622C257.071 274.465 257.512 272.924 257.29 272.349Z" fill="#EF8B67"/>
<path d="M247.007 274.285C247.007 274.285 253.975 269.558 256.139 271C258.301 272.442 256.38 274.285 249.01 277.33C249.01 277.33 246.606 280.937 244.925 281.337C244.925 281.337 242.449 276.85 247.007 274.285Z" fill="#F4BCA3"/>
<path d="M148.405 245.326C148.405 245.326 151.844 260.31 141.168 262.19C141.168 262.19 138.358 265.998 139.883 270.655C141.409 275.312 144.821 285.248 138.659 287.547C132.497 289.845 127.841 286.097 130.329 276.409C132.817 266.72 132.817 261.42 134.342 254.354C135.869 247.289 138.785 242.079 148.405 245.326Z" fill="#111B34"/>
<path d="M142.288 244.797C142.288 244.797 143.073 258.33 154.773 258.889C166.475 259.449 166.586 251.161 165.131 249.146C163.676 247.129 158.356 239.217 142.288 244.797Z" fill="#111B34"/>
<path d="M154.123 289.011C154.123 289.011 149.92 294.315 147.837 295.116C145.753 295.917 137.46 289.229 137.46 289.229C137.46 289.229 126.047 295.597 116.595 296.719C116.595 296.719 108.16 299.764 105.009 322.999H180.679C180.679 322.999 180.144 318.138 180.679 318.138C181.214 318.138 184.844 322.999 190.718 322.999C196.593 322.999 216.458 322.999 216.458 322.999C216.458 322.999 237.591 302.511 247.365 288.17L238.273 279.13C238.273 279.13 207.38 312.264 204.817 312.264C202.253 312.264 182.601 295.758 181.801 295.278C181 294.796 160.69 294.463 154.123 289.011Z" fill="#0400A3"/>
<path opacity="0.55" d="M260.545 322.951H238.541C238.541 322.951 290.524 282.295 291.544 281.146V292.807C285.795 298.776 260.545 322.951 260.545 322.951Z" fill="#F9F9F9"/>
<path opacity="0.55" d="M291.544 230.085V246.542C287.631 251.332 199.523 317.838 194.144 323H154.392C165.021 314.569 287.481 233.131 291.544 230.085Z" fill="#F9F9F9"/>
<path opacity="0.55" d="M210.984 219.432H231.872C231.72 219.559 231.564 219.682 231.413 219.811C222.728 227.27 136.76 312.556 127.12 322.95L107.159 322.998C120.031 309.647 186.927 242.702 210.984 219.432Z" fill="#F9F9F9"/>
<path opacity="0.55" d="M104.327 270.68V250.501C114.769 240.123 125.808 229.203 135.74 219.432H156.167C141.17 234.101 121.086 253.973 104.327 270.68Z" fill="#F9F9F9"/>
<path d="M169.351 342.71C169.351 342.71 166.948 339.184 159.658 340.386C152.368 341.589 148.123 353.865 148.123 353.865H168.79C168.79 353.865 170.632 344.391 169.351 342.71Z" fill="#932646"/>
<path d="M226.973 342.71C226.973 342.71 229.376 339.184 236.666 340.386C243.956 341.589 248.202 353.865 248.202 353.865H227.534C227.534 353.865 225.691 344.391 226.973 342.71Z" fill="#932646"/>
<path d="M169.697 307.456C169.697 307.456 162.488 307.617 157.201 311.622C151.914 315.629 131.247 348.54 130.285 351.202C129.324 353.865 134.599 356.075 141.413 356.075C148.228 356.075 151.432 356.686 153.996 353.865C156.56 351.043 171.744 338.335 175.75 329.201C179.756 320.066 173.445 306.98 169.697 307.456Z" fill="#FD425F"/>
<path d="M227.9 307.456C227.9 307.456 235.109 307.617 240.396 311.622C245.683 315.629 266.35 348.54 267.312 351.202C268.273 353.865 262.998 356.075 256.184 356.075C249.369 356.075 246.165 356.686 243.601 353.865C241.037 351.043 225.853 338.335 221.847 329.201C217.841 320.066 224.151 306.98 227.9 307.456Z" fill="#FD425F"/>
<path d="M204.861 288.006H192.734L190.598 299.212H206.998L204.861 288.006Z" fill="#EF8B67"/>
<path d="M198.92 254.668C198.876 254.668 198.842 254.678 198.798 254.678C198.755 254.678 198.721 254.668 198.676 254.668C192.086 254.668 182.933 258.426 182.933 269.235C182.933 280.045 185.618 294.155 198.717 294.155C198.746 294.155 198.769 294.15 198.798 294.149C198.828 294.149 198.851 294.155 198.88 294.155C211.979 294.155 214.664 280.045 214.664 269.235C214.662 258.426 205.51 254.668 198.92 254.668Z" fill="#111B34"/>
<path d="M180.489 474.537L170.556 480.626C170.556 480.626 174.082 486.715 172.692 488.531C171.303 490.348 163.508 499.214 163.186 503.594C162.866 507.974 165.322 510.644 166.605 510.217C167.886 509.789 191.276 493.124 190.743 490.239C190.208 487.356 180.489 474.537 180.489 474.537Z" fill="black"/>
<path d="M216.036 474.537L225.968 480.626C225.968 480.626 222.445 486.715 223.832 488.531C225.22 490.348 233.017 499.214 233.338 503.594C233.658 507.974 231.203 510.644 229.92 510.217C228.639 509.789 205.248 493.124 205.782 490.239C206.316 487.356 216.036 474.537 216.036 474.537Z" fill="black"/>
<path d="M76.8647 353.866H68.0671V520.699H76.8647V353.866Z" fill="#FD425F"/>
<path d="M327.803 353.866H319.005V520.699H327.803V353.866Z" fill="#FD425F"/>
<path d="M344.294 353.865H51.99V358.288H344.294V353.865Z" fill="#B3B2DA"/>
<path d="M220.966 380.313C214.652 376.68 181.874 376.68 175.56 380.313C169.246 383.945 136.776 407.768 136.776 413.537C136.776 419.306 172.022 485.433 172.022 485.433L184.945 478.837C184.945 478.837 163.429 423.473 166.044 421.069C168.657 418.666 198.262 416.849 198.262 416.849C198.262 416.849 227.867 418.666 230.481 421.069C233.095 423.473 211.58 478.837 211.58 478.837L224.503 485.433C224.503 485.433 259.749 419.306 259.749 413.537C259.749 407.768 227.28 383.945 220.966 380.313Z" fill="#0400A3"/>
<path d="M206.34 294.825C205.79 294.276 201.121 294.631 198.797 294.631C196.473 294.631 191.804 294.276 191.254 294.825C190.705 295.375 186.983 303.674 186.983 303.674L198.796 306.176L210.608 303.674C210.611 303.674 206.889 295.375 206.34 294.825Z" fill="#3C4DB5"/>
<path d="M234.209 510.262C231.112 505.82 207.508 488.638 207.508 488.638H198.262H189.016C189.016 488.638 165.413 505.82 162.315 510.262C159.218 514.704 159.866 519.299 163.493 519.299H175.069C175.757 519.299 176.361 518.832 176.501 518.159C176.659 517.4 176.816 516.3 176.805 514.978C176.797 514.252 176.276 513.616 175.557 513.515C174.83 513.413 174.025 513.239 173.975 512.969C173.859 512.346 174.257 511.212 176.628 509.257C180.9 505.731 191.086 497.933 191.086 497.933L198.262 498.146L205.438 497.933C205.438 497.933 215.625 505.731 219.898 509.257C222.268 511.212 222.667 512.346 222.55 512.969C222.5 513.239 221.695 513.413 220.968 513.515C220.249 513.616 219.727 514.253 219.72 514.978C219.707 516.3 219.866 517.399 220.024 518.159C220.164 518.832 220.767 519.299 221.456 519.299H233.032C236.661 519.299 237.306 514.704 234.209 510.262Z" fill="#111B34"/>
<path d="M198.262 416.849H189.764L194.014 493.553H198.262H202.512L206.76 416.849H198.262Z" fill="#111B34"/>
<path d="M198.262 413.537H175.56C175.56 413.537 177.87 439.656 198.262 439.656C218.655 439.656 220.966 413.537 220.966 413.537H198.262Z" fill="#111B34"/>
<path d="M237.948 308.951C232.18 301.259 198.262 299.764 198.262 299.764C198.262 299.764 164.345 301.259 158.577 308.951C152.809 316.643 168.616 380.313 173.957 390.569C179.297 400.824 198.262 400.611 198.262 400.611C198.262 400.611 217.228 400.824 222.567 390.569C227.908 380.313 243.715 316.643 237.948 308.951Z" fill="#B3B2DA"/>
<path d="M209.828 376.788C207.888 375.494 188.638 375.494 186.698 376.788C184.455 378.283 189.902 414.5 190.756 418.131C191.611 421.763 204.915 421.763 205.77 418.131C206.625 414.498 212.071 378.283 209.828 376.788Z" fill="#111B34"/>
<path d="M242.687 409.21H153.838V421.068H242.687V409.21Z" fill="#111B34"/>
<path d="M123.771 345.083H68.8999V353.864H123.771V345.083Z" fill="#0400A3"/>
<path d="M117.764 336.299H62.8927V345.081H117.764V336.299Z" fill="#FD425F"/>
<path d="M311.041 333.064H307.911V334.788H310.205C312.792 334.788 314.889 336.885 314.889 339.473V339.568C314.889 342.156 312.792 344.253 310.205 344.253H307.911V345.977H311.041C314.57 345.977 317.432 343.114 317.432 339.585V339.455C317.432 335.926 314.57 333.064 311.041 333.064Z" fill="#8494AB"/>
<path d="M306.957 353.866H292.785C290.709 353.866 289.026 352.183 289.026 350.106V329.212H310.716V350.106C310.715 352.183 309.033 353.866 306.957 353.866Z" fill="#8494AB"/>
<path d="M299.139 351.036V330.967H290.942V348.886C290.942 350.668 292.385 352.111 294.166 352.111H299.333C299.235 351.766 299.139 351.417 299.139 351.036Z" fill="#4D6486"/>
<path d="M304.066 330.969V349.862C304.066 350.729 303.749 351.511 303.244 352.111H305.656C307.437 352.111 308.88 350.668 308.88 348.886V330.967L304.066 330.969Z" fill="#C8CED9"/>
<path d="M161.123 232.38H117.457C116.252 232.38 115.275 231.402 115.275 230.195V202.064C115.275 200.857 116.252 199.879 117.457 199.879H161.123C162.33 199.879 163.307 200.857 163.307 202.064V230.197C163.306 231.402 162.329 232.38 161.123 232.38Z" fill="#0400A3"/>
<path d="M161.123 202.469H117.457V229.791H161.123V202.469Z" fill="white"/>
<path d="M132.778 210.46V223.843L145.803 217.152L132.778 210.46Z" fill="#FD425F"/>
<path d="M91.9805 183.682H-28V190.413H91.9805V183.682Z" fill="#FD425F"/>
<path d="M44.8623 134H36.4621V183.682H44.8623V134Z" fill="#0400A3"/>
<path d="M32.0794 139.845H23.6792V183.681H32.0794V139.845Z" fill="#CECDE9"/>
<path d="M54.4141 139.029L46.6129 142.145L62.8683 182.856L70.6695 179.74L54.4141 139.029Z" fill="#FD425F"/>
<path d="M65.7365 139.029L57.9353 142.145L74.1907 182.856L81.9919 179.74L65.7365 139.029Z" fill="#CECDE9"/>
<path d="M19.7231 175.28H-22.5216V182.824H19.7231V175.28Z" fill="#8494AB"/>
<path d="M222.439 212.836H248.063L237.461 225.642L260.317 212.836H267.501C268.746 212.836 269.754 211.828 269.754 210.583V181.55C269.754 180.305 268.745 179.296 267.501 179.296H222.439C221.194 179.296 220.186 180.305 220.186 181.55V210.583C220.184 211.826 221.194 212.836 222.439 212.836Z" fill="#FD425F"/>
<path d="M252.275 192.371C252.275 196.127 247.551 197.233 247.551 198.697V199.277H242.828V197.895C242.828 195.878 246.421 194.718 246.421 192.481C246.421 191.458 245.756 190.546 244.599 190.546C243.106 190.546 242.802 191.706 242.802 192.867C242.802 193.115 242.802 193.363 242.828 193.613H237.747C237.72 193.254 237.664 192.922 237.664 192.563C237.664 188.972 240.869 186.734 245.205 186.734C249.429 186.735 252.275 188.946 252.275 192.371ZM247.965 206.072H242.498V200.962H247.965V206.072Z" fill="white"/>
<path d="M344.295 216.978C352.307 216.978 358.802 210.482 358.802 202.468C358.802 194.455 352.307 187.958 344.295 187.958C336.283 187.958 329.788 194.455 329.788 202.468C329.788 210.482 336.283 216.978 344.295 216.978Z" fill="white"/>
</g>
<rect x="0.5" y="0.5" width="382" height="531" rx="11.5" stroke="#333333"/>
<defs>
<clipPath id="clip0_80_5">
<rect width="383" height="532" rx="12" fill="white"/>
</clipPath>
</defs>
</svg>
