<svg width="500" height="500" viewBox="0 0 500 500" fill="none" xmlns="http://www.w3.org/2000/svg">
<g clip-path="url(#clip0_714_3556)">
<path d="M500 0H0V500H500V0Z" fill="white"/>
<path d="M182.19 233.219C176.092 232.098 169.346 231.515 169.446 241.661C169.516 248.874 169.855 257.499 169.414 264.579C164.943 266.858 160.8 265.202 154.602 273.423C141.862 290.32 157.305 315.626 179.725 308.286C184.47 306.732 183.645 307.129 188.465 308.984L231.871 324.926C254.398 333.457 248.061 331.675 268.245 324.782C282.025 320.075 297.782 313.394 311.617 308.797C318.974 306.353 314.822 306.873 320.695 308.518C342.857 314.729 357.987 290.741 345.48 273.618C341.759 268.525 338.457 266.794 330.521 264.522C330.923 257.4 330.465 249.355 330.617 242.069C330.798 233.407 326.118 231.193 317.959 233.313C318.414 229.05 316.728 226.267 313.28 225.114C309.795 223.947 306.165 225.834 303.009 226.984C296.891 229.212 259.581 242.587 256.463 244.591C253.617 246.42 252.668 247.663 250.71 250.112L249.931 251.044C244.197 244.042 243.965 244.493 234.577 240.97C228.479 238.68 222.166 236.386 215.81 234.098C209.549 231.844 203.303 229.474 197.119 227.129C191.67 225.061 182.461 221.235 182.19 233.219Z" fill="#333333"/>
<path d="M318.776 133.797C318.766 140.672 318.662 147.578 318.705 154.447C318.778 166.139 315.26 154.907 315.185 171.731C315.156 178.373 314.804 186.133 315.195 192.654C315.822 203.121 328.89 203.826 333.073 196.876C334.656 194.247 334.286 191.118 334.305 187.808C334.342 181.079 334.607 173.576 334.306 166.925C334.105 162.487 332.523 162.3 330.812 160.081C329.351 158.186 330.153 153.192 330.173 150.428C330.213 144.677 329.625 134.986 330.288 129.874C332.106 128.854 333.973 128.839 334.748 127.004C337.105 121.42 327.926 119.638 322.87 117.796C315.712 115.187 308.217 112.486 301.345 109.69C287.175 103.923 272.811 99.0159 258.804 93.2764C248.436 89.0276 248.91 90.2027 236.792 95.0125C229.727 97.8167 222.363 100.627 215.296 103.203C201.03 108.402 186.943 114.076 172.589 119.416C169.129 120.702 163.927 121.482 164.99 126.247C165.704 129.451 171.265 130.32 174.619 131.573C181.743 134.233 189.233 136.88 196.351 139.518C206.624 143.327 201.393 142.12 203.219 147.088C203.787 148.633 210.304 150.303 213.502 151.625L235.004 159.791C245.299 163.344 246.396 166.187 258.044 162.194L295.698 148.127C298.385 146.64 296.088 144.848 297.412 142.226C298.242 140.582 317.079 134.135 318.776 133.797Z" fill="#333333"/>
<path d="M291.865 124.923C278.688 119.67 265.276 115.026 252.144 109.646C251.466 109.367 250.64 109.008 249.834 108.701C247.667 109.515 245.237 110.675 243.27 111.455C235.99 114.344 228.669 117.14 221.309 119.822C216.724 121.493 212.157 123.214 207.596 124.954C209.416 125.76 211.177 126.685 212.76 127.847C215.34 129.741 217.295 132.062 218.605 134.668C219.045 134.823 219.48 134.983 219.903 135.151L241.003 143.164C243.193 143.929 245.326 144.778 247.474 145.656C248.015 145.876 248.667 146.169 249.272 146.384C250.167 146.209 251.317 145.817 252.117 145.542L281.538 134.55C281.59 134.446 281.642 134.341 281.694 134.237C283.907 129.854 287.662 127.043 291.865 124.923Z" fill="white"/>
<path d="M295.99 155.722L285.043 159.653C286.599 166.823 289.184 169.602 288.193 180.315C285.703 207.218 256.25 225.222 231.322 210.886C228.444 209.232 226.579 207.697 224.5 205.704C221.663 202.984 220.83 202.098 218.691 199.066C211.608 189.023 208.836 172.352 214.955 160.074C214.068 159.193 205.613 155.957 203.872 155.602C199.849 160.362 198.685 174.98 199.376 182.239C202.556 215.634 239.43 240.981 275.167 221.58C278.305 219.877 282.501 216.826 284.383 214.741C285.33 213.691 285.544 213.728 286.491 212.842C287.249 212.135 287.65 211.51 288.321 210.648C289.538 209.084 290.588 207.831 291.773 206.068C295.926 199.888 299.357 191.921 300.659 182.84C301.813 174.801 300.147 161.276 295.99 155.722Z" fill="#333333"/>
<path d="M235.905 269.401C235.898 283.807 235.525 307.794 235.907 320.067C235.994 322.845 237.212 325.863 240.29 325.417C243.71 324.922 242.718 319.91 242.733 314.821L242.668 274.627C242.64 267.279 242.98 269.126 247.004 270.288C248.928 270.845 250.271 270.919 252.236 270.496C258.222 269.208 257.574 263.884 257.57 283.068L257.47 321.689C257.504 324.275 258.921 326.197 261.745 325.122C265.151 323.825 264.064 314.923 264.097 311.204L264.207 263.231C265.03 260.684 268.834 259.669 271.676 258.639C277.58 256.501 283.53 254.444 289.253 252.153L315.634 242.461C318.058 241.672 323.498 239.639 320.061 236.012C317.937 233.77 313.271 236.477 310.895 237.353L266.619 253.62C262.494 255.15 261.485 255.199 259.089 258.103C257.123 260.487 255.994 262.697 252.289 263.757C244.515 265.98 242.051 257.809 237.482 255.383L184.59 235.718C179.975 233.975 177.842 237.708 180.011 240.284C181.355 241.882 218.749 255.376 223.627 257.224C236.39 262.058 235.935 259.714 235.905 269.401Z" fill="#EEF8FF"/>
<path d="M336.418 297.048C341.773 291.675 341.773 282.962 336.418 277.588C331.064 272.215 322.382 272.215 317.027 277.588C311.673 282.962 311.673 291.675 317.027 297.048C322.382 302.422 331.064 302.422 336.418 297.048Z" fill="white"/>
<path d="M182.827 297.047C188.182 291.674 188.182 282.961 182.827 277.588C177.473 272.214 168.791 272.214 163.437 277.588C158.082 282.961 158.082 291.674 163.437 297.047C168.791 302.421 177.473 302.421 182.827 297.047Z" fill="white"/>
<path d="M136.095 345.177V384.461H128.663V345.177H136.095ZM170.777 369.119C170.777 370.181 170.707 371.136 170.565 371.986H149.065C149.242 374.109 149.985 375.772 151.295 376.976C152.604 378.179 154.214 378.781 156.126 378.781C158.886 378.781 160.85 377.595 162.018 375.224H170.034C169.185 378.055 167.557 380.391 165.15 382.231C162.744 384.036 159.789 384.939 156.285 384.939C153.454 384.939 150.905 384.319 148.64 383.081C146.411 381.807 144.659 380.019 143.385 377.719C142.146 375.419 141.527 372.764 141.527 369.756C141.527 366.712 142.146 364.04 143.385 361.74C144.624 359.44 146.358 357.67 148.587 356.431C150.817 355.193 153.383 354.573 156.285 354.573C159.081 354.573 161.576 355.175 163.77 356.378C166 357.582 167.716 359.298 168.919 361.528C170.158 363.722 170.777 366.252 170.777 369.119ZM163.08 366.996C163.044 365.084 162.354 363.563 161.01 362.43C159.665 361.262 158.019 360.678 156.072 360.678C154.232 360.678 152.675 361.245 151.401 362.377C150.162 363.474 149.401 365.014 149.118 366.996H163.08ZM174.291 369.65C174.291 366.677 174.875 364.04 176.043 361.74C177.246 359.44 178.856 357.67 180.874 356.431C182.926 355.193 185.209 354.573 187.722 354.573C189.916 354.573 191.827 355.016 193.455 355.901C195.119 356.785 196.446 357.9 197.437 359.245V355.051H204.922V384.461H197.437V380.161C196.481 381.541 195.154 382.691 193.455 383.612C191.792 384.496 189.863 384.939 187.669 384.939C185.191 384.939 182.926 384.302 180.874 383.028C178.856 381.754 177.246 379.966 176.043 377.666C174.875 375.33 174.291 372.658 174.291 369.65ZM197.437 369.756C197.437 367.951 197.083 366.412 196.375 365.138C195.667 363.828 194.712 362.837 193.508 362.165C192.305 361.457 191.013 361.103 189.633 361.103C188.253 361.103 186.979 361.439 185.811 362.112C184.643 362.784 183.687 363.775 182.944 365.084C182.236 366.359 181.882 367.88 181.882 369.65C181.882 371.419 182.236 372.977 182.944 374.321C183.687 375.631 184.643 376.64 185.811 377.347C187.014 378.055 188.288 378.409 189.633 378.409C191.013 378.409 192.305 378.073 193.508 377.4C194.712 376.693 195.667 375.702 196.375 374.428C197.083 373.118 197.437 371.561 197.437 369.756ZM219.613 359.617C220.568 358.059 221.807 356.838 223.329 355.954C224.886 355.069 226.655 354.626 228.637 354.626V362.43H226.673C224.337 362.43 222.568 362.979 221.364 364.076C220.197 365.173 219.613 367.084 219.613 369.809V384.461H212.181V355.051H219.613V359.617ZM249.941 354.626C253.444 354.626 256.276 355.741 258.434 357.971C260.593 360.165 261.673 363.244 261.673 367.208V384.461H254.241V368.217C254.241 365.881 253.657 364.093 252.489 362.855C251.321 361.581 249.728 360.944 247.711 360.944C245.658 360.944 244.03 361.581 242.827 362.855C241.659 364.093 241.075 365.881 241.075 368.217V384.461H233.643V355.051H241.075V358.714C242.066 357.44 243.323 356.449 244.844 355.741C246.402 354.998 248.1 354.626 249.941 354.626ZM285.94 384.833C282.472 384.833 279.287 384.019 276.385 382.391C273.483 380.763 271.182 378.515 269.483 375.649C267.785 372.747 266.935 369.473 266.935 365.828C266.935 362.218 267.785 358.98 269.483 356.113C271.182 353.211 273.483 350.946 276.385 349.318C279.287 347.69 282.472 346.876 285.94 346.876C289.444 346.876 292.629 347.69 295.496 349.318C298.398 350.946 300.681 353.211 302.344 356.113C304.043 358.98 304.892 362.218 304.892 365.828C304.892 369.473 304.043 372.747 302.344 375.649C300.681 378.515 298.398 380.763 295.496 382.391C292.594 384.019 289.409 384.833 285.94 384.833ZM285.94 378.197C288.17 378.197 290.134 377.701 291.833 376.71C293.532 375.684 294.859 374.233 295.814 372.357C296.77 370.482 297.248 368.305 297.248 365.828C297.248 363.35 296.77 361.191 295.814 359.351C294.859 357.475 293.532 356.042 291.833 355.051C290.134 354.06 288.17 353.565 285.94 353.565C283.711 353.565 281.729 354.06 279.995 355.051C278.296 356.042 276.969 357.475 276.013 359.351C275.058 361.191 274.58 363.35 274.58 365.828C274.58 368.305 275.058 370.482 276.013 372.357C276.969 374.233 278.296 375.684 279.995 376.71C281.729 377.701 283.711 378.197 285.94 378.197ZM322.684 377.613L330.116 355.051H338.026L327.144 384.461H318.119L307.289 355.051H315.252L322.684 377.613ZM340.289 369.65C340.289 366.677 340.873 364.04 342.041 361.74C343.245 359.44 344.855 357.67 346.872 356.431C348.925 355.193 351.207 354.573 353.72 354.573C355.914 354.573 357.826 355.016 359.454 355.901C361.117 356.785 362.444 357.9 363.435 359.245V355.051H370.92V384.461H363.435V380.161C362.479 381.541 361.152 382.691 359.454 383.612C357.79 384.496 355.861 384.939 353.667 384.939C351.19 384.939 348.925 384.302 346.872 383.028C344.855 381.754 343.245 379.966 342.041 377.666C340.873 375.33 340.289 372.658 340.289 369.65ZM363.435 369.756C363.435 367.951 363.081 366.412 362.373 365.138C361.665 363.828 360.71 362.837 359.507 362.165C358.303 361.457 357.012 361.103 355.631 361.103C354.251 361.103 352.977 361.439 351.809 362.112C350.641 362.784 349.686 363.775 348.942 365.084C348.235 366.359 347.881 367.88 347.881 369.65C347.881 371.419 348.235 372.977 348.942 374.321C349.686 375.631 350.641 376.64 351.809 377.347C353.012 378.055 354.287 378.409 355.631 378.409C357.012 378.409 358.303 378.073 359.507 377.4C360.71 376.693 361.665 375.702 362.373 374.428C363.081 373.118 363.435 371.561 363.435 369.756Z" fill="#333333"/>
</g>
<defs>
<clipPath id="clip0_714_3556">
<rect width="500" height="500" fill="white"/>
</clipPath>
</defs>
</svg>
