<svg width="200" height="241" viewBox="0 0 200 241" fill="none" xmlns="http://www.w3.org/2000/svg">
<path d="M32.1899 143.219C26.0918 142.098 19.3463 141.515 19.4461 151.661C19.5162 158.874 19.8548 167.499 19.414 174.579C14.9426 176.858 10.7996 175.202 4.60161 183.423C-8.13752 200.32 7.3051 225.626 29.7251 218.286C34.4697 216.732 33.6455 217.129 38.4647 218.984L81.871 234.926C104.398 243.457 98.0609 241.675 118.245 234.782C132.025 230.075 147.782 223.394 161.617 218.797C168.974 216.353 164.822 216.873 170.695 218.518C192.857 224.729 207.987 200.741 195.48 183.618C191.759 178.525 188.457 176.794 180.521 174.522C180.923 167.4 180.465 159.355 180.617 152.069C180.798 143.407 176.118 141.193 167.959 143.313C168.414 139.05 166.728 136.267 163.28 135.114C159.795 133.947 156.165 135.834 153.009 136.984C146.891 139.212 109.581 152.587 106.463 154.591C103.617 156.42 102.668 157.663 100.71 160.112L99.931 161.044C94.1968 154.042 93.9649 154.493 84.5768 150.97C78.4787 148.68 72.166 146.386 65.8096 144.098C59.5485 141.844 53.3035 139.474 47.1193 137.129C41.6699 135.061 32.4608 131.235 32.1899 143.219Z" fill="#333333"/>
<path d="M168.776 43.7967C168.766 50.6722 168.662 57.5777 168.705 64.4474C168.778 76.1386 165.26 64.9071 165.185 81.7307C165.156 88.3735 164.804 96.1326 165.195 102.654C165.822 113.121 178.89 113.826 183.073 106.876C184.656 104.247 184.286 101.118 184.305 97.8077C184.342 91.0785 184.607 83.5763 184.306 76.9254C184.105 72.4865 182.523 72.2999 180.812 70.081C179.351 68.1859 180.153 63.1917 180.173 60.4279C180.213 54.6768 179.625 44.9856 180.288 39.8739C182.106 38.8544 183.973 38.8394 184.748 37.0042C187.105 31.4201 177.926 29.6379 172.87 27.7957C165.712 25.1875 158.217 22.4859 151.345 19.6898C137.175 13.9226 122.811 9.01595 108.804 3.27637C98.4357 -0.972434 98.9098 0.202671 86.7918 5.01253C79.7271 7.81665 72.3628 10.6265 65.2958 13.2025C51.0299 18.4018 36.9431 24.0757 22.5887 29.4155C19.1287 30.7024 13.9272 31.4823 14.9902 36.2473C15.7043 39.4511 21.2651 40.3198 24.6195 41.5732C31.7427 44.2333 39.2333 46.8796 46.3507 49.5179C56.624 53.3266 51.3927 52.1204 53.2191 57.0881C53.7874 58.633 60.3044 60.3035 63.5016 61.6249L85.0044 69.7907C95.2994 73.3437 96.3958 76.1869 108.044 72.1939L145.698 58.1272C148.385 56.6399 146.088 54.8484 147.412 52.2264C148.242 50.5824 167.079 44.1354 168.776 43.7967Z" fill="#333333"/>
<path d="M141.865 34.9234C128.688 29.67 115.276 25.026 102.144 19.6459C101.466 19.3671 100.64 19.0076 99.8345 18.7012C97.6671 19.5145 95.2368 20.6747 93.2703 21.4546C85.9898 24.344 78.6692 27.14 71.3095 29.822C66.7244 31.4925 62.1566 33.2137 57.5957 34.9545C59.4164 35.7598 61.1774 36.6849 62.7605 37.8473C65.34 39.7413 67.295 42.0615 68.6048 44.6675C69.0445 44.823 69.4796 44.9832 69.9032 45.1514L91.0031 53.164C93.1934 53.9289 95.3264 54.778 97.4742 55.6559C98.0149 55.8759 98.667 56.1685 99.272 56.384C100.167 56.2089 101.317 55.8172 102.117 55.5418L131.538 44.55C131.59 44.4463 131.642 44.3415 131.694 44.2366C133.907 39.8542 137.662 37.0432 141.865 34.9234Z" fill="white"/>
<path d="M145.99 65.7219L135.043 69.6527C136.599 76.8231 139.184 79.6019 138.193 90.3149C135.703 117.218 106.25 135.222 81.3225 120.886C78.4445 119.232 76.579 117.697 74.5 115.704C71.6634 112.984 70.8299 112.098 68.6913 109.066C61.6082 99.0234 58.8358 82.3519 64.9546 70.0744C64.0683 69.193 55.6135 65.9569 53.872 65.6021C49.8495 70.3624 48.6854 84.9797 49.3765 92.2389C52.5564 125.634 89.4295 150.981 125.167 131.58C128.305 129.877 132.501 126.826 134.383 124.741C135.33 123.691 135.544 123.728 136.491 122.842C137.249 122.135 137.65 121.51 138.321 120.648C139.538 119.084 140.588 117.831 141.773 116.068C145.926 109.888 149.357 101.921 150.659 92.8403C151.813 84.8012 150.147 71.276 145.99 65.7219Z" fill="#333333"/>
<path d="M85.9048 179.401C85.898 193.807 85.5249 217.794 85.9071 230.067C85.9944 232.845 87.2124 235.863 90.2901 235.417C93.71 234.922 92.7181 229.91 92.733 224.821L92.6676 184.627C92.64 177.279 92.9799 179.126 97.0035 180.288C98.9275 180.845 100.271 180.919 102.236 180.496C108.222 179.208 107.574 173.884 107.57 193.068L107.47 231.689C107.504 234.275 108.921 236.197 111.745 235.122C115.151 233.825 114.064 224.923 114.097 221.204L114.207 173.231C115.03 170.684 118.834 169.669 121.676 168.639C127.58 166.501 133.53 164.444 139.253 162.153L165.634 152.461C168.058 151.672 173.498 149.639 170.061 146.012C167.937 143.77 163.271 146.477 160.895 147.353L116.619 163.62C112.494 165.15 111.485 165.199 109.089 168.103C107.123 170.487 105.994 172.697 102.289 173.757C94.5147 175.98 92.0511 167.809 87.4822 165.383L34.5902 145.718C29.9753 143.975 27.8423 147.708 30.0109 150.284C31.3551 151.882 68.7494 165.376 73.6272 167.224C86.3904 172.058 85.9347 169.714 85.9048 179.401Z" fill="#EEF8FF"/>
<path d="M186.418 207.048C191.773 201.675 191.773 192.962 186.418 187.588C181.064 182.215 172.382 182.215 167.027 187.588C161.673 192.962 161.673 201.675 167.027 207.048C172.382 212.422 181.064 212.422 186.418 207.048Z" fill="white"/>
<path d="M32.8273 207.047C38.182 201.674 38.182 192.961 32.8273 187.588C27.4727 182.214 18.7912 182.214 13.4366 187.588C8.08199 192.961 8.08198 201.674 13.4366 207.047C18.7912 212.421 27.4727 212.421 32.8273 207.047Z" fill="white"/>
</svg>
