<svg width="60" height="60" viewBox="0 0 60 60" fill="none" xmlns="http://www.w3.org/2000/svg">
<rect x="0.5" y="0.5" width="59" height="59" rx="29.5" stroke="black" stroke-opacity="0.25"/>
<mask id="mask0_251_1171" style="mask-type:alpha" maskUnits="userSpaceOnUse" x="4" y="9" width="51" height="51">
<rect x="4.70215" y="9.9165" width="50" height="50" fill="#D9D9D9"/>
</mask>
<g mask="url(#mask0_251_1171)">
<path fill-rule="evenodd" clip-rule="evenodd" d="M8.27344 51.1667V59.9167H51.1306V51.1667C51.1306 49.3959 50.7395 47.7678 49.9574 46.2824C49.177 44.799 48.1395 43.6667 46.8449 42.8855C44.077 41.2709 41.2645 40.0595 38.4074 39.2511C35.5502 38.4449 32.6484 38.0417 29.702 38.0417C26.7556 38.0417 23.8538 38.4449 20.9967 39.2511C18.1395 40.0595 15.327 41.2709 12.5592 42.8855C11.2645 43.6667 10.227 44.799 9.44665 46.2824C8.66451 47.7678 8.27344 49.3959 8.27344 51.1667Z" fill="#4F4F4F"/>
<path d="M29.702 34.9167C26.7556 34.9167 24.2333 33.6928 22.135 31.2449C20.0368 28.797 18.9877 25.8542 18.9877 22.4167C18.9877 18.9792 20.0368 16.0365 22.135 13.5886C24.2333 11.1407 26.7556 9.91675 29.702 9.91675C32.6484 9.91675 35.1708 11.1407 37.269 13.5886C39.3672 16.0365 40.4163 18.9792 40.4163 22.4167C40.4163 25.8542 39.3672 28.797 37.269 31.2449C35.1708 33.6928 32.6484 34.9167 29.702 34.9167Z" fill="#BDBDBD"/>
</g>
</svg>
